<?xml version="1.0" encoding="UTF-8"?>
<svg id="Layer_1" data-name="Layer 1" xmlns="http://www.w3.org/2000/svg" viewBox="0 0 200 200">
  <defs>
    <style>
      .cls-1 {
        fill: #2b2b2b;
      }

      .cls-2 {
        fill: #eacda8;
      }

      .cls-3 {
        fill: #e0ac61;
      }

      .cls-4 {
        opacity: .8;
      }

      .cls-5 {
        fill: #d39f58;
      }

      .cls-6 {
        fill: #e6bc80;
      }
    </style>
  </defs>
  <circle class="cls-3" cx="100" cy="100" r="97.87"/>
  <circle class="cls-6" cx="100" cy="100" r="83.06"/>
  <path class="cls-5" d="M143.46,29.11c8.27,12.91,13.07,28.27,13.07,44.74,0,45.87-37.19,83.06-83.06,83.06-15.93,0-30.81-4.49-43.46-12.27,14.76,23.05,40.59,38.32,69.99,38.32,45.87,0,83.06-37.19,83.06-83.06,0-29.94-15.85-56.18-39.61-70.8Z"/>
  <path class="cls-2" d="M31.49,107.6c0-40.49,32.83-73.32,73.32-73.32,23.67,0,44.72,11.22,58.12,28.63-12.66-21.98-36.39-36.78-63.58-36.78-40.49,0-73.32,32.83-73.32,73.32,0,16.83,5.67,32.32,15.2,44.7-6.2-10.76-9.74-23.24-9.74-36.54Z"/>
  <g class="cls-4">
    <path class="cls-1" d="M114.48,62.99c1.83.81,3.24,2.11,4.23,3.87.98,1.77,1.48,3.82,1.48,6.16,0,.48-.02.95-.05,1.43-.48,5.3-1.54,10.61-3.18,15.94-1.65,5.33-3.47,10.61-5.47,15.84-3.02,7.71-5.38,15.21-7.08,22.5-.03.2-.08.42-.15.66-.48,2-.74,3.6-.79,4.79-.05,1.19-.08,1.83-.08,1.93,0,2.14.73,3.94,2.19,5.4.1.1.22.2.36.31.31.24.54.46.71.66.17.2.25.39.25.56,0,.1-.02.2-.05.31-.1.31-.48.61-1.12.92-1.97.85-3.96,1.27-5.96,1.27-.88,0-1.77-.08-2.65-.25-2.85-.54-5.21-1.93-7.08-4.15-1.87-2.22-2.8-5.15-2.8-8.78v-.56c.27-3.67,1.55-8.79,3.84-15.38,2.29-6.58,4.84-13.49,7.66-20.72,2.41-6.18,4.5-11.78,6.26-16.8.03-.17.05-.31.05-.41v-.1c-.03-.1-.11-.14-.23-.13-.12.02-.23.05-.33.1-.1.05-.17.11-.2.18-2.85,3.46-5.42,5.61-7.71,6.44-2.29.83-3.96,1.25-5.02,1.25-1.87,0-3.5-.7-4.89-2.09-1.63-1.63-2.44-4.55-2.44-8.76,0-1.36.08-2.87.25-4.53.14-.78.28-1.24.43-1.37.15-.14.3-.2.43-.2s.27.03.41.1c.27.14.56.34.87.61.1.1.22.2.36.31,1.36.95,2.66,1.43,3.92,1.43.75,0,1.48-.15,2.19-.46,1.93-.88,3.92-2.19,5.96-3.92,2.14-1.87,4.12-3.23,5.96-4.1,1.83-.87,3.41-1.3,4.74-1.3,1.49,0,3.07.36,4.73,1.07Z"/>
  </g>
</svg>