<?xml version="1.0" encoding="UTF-8"?>
<svg id="Layer_1" xmlns="http://www.w3.org/2000/svg" version="1.1" viewBox="0 0 200 200">
  <!-- Generator: Adobe Illustrator 29.0.1, SVG Export Plug-In . SVG Version: 2.1.0 Build 192)  -->
  <defs>
    <style>
      .st0 {
        fill: #e0586f;
      }

      .st1 {
        fill: #2b2b2b;
      }

      .st2 {
        fill: #a33844;
      }

      .st3 {
        fill: #bf4755;
      }

      .st4 {
        opacity: .8;
      }

      .st5 {
        fill: #ba353f;
      }
    </style>
  </defs>
  <circle class="st5" cx="100" cy="100" r="98.4"/>
  <circle class="st3" cx="100" cy="100" r="83.6"/>
  <path class="st2" d="M143.7,28.7c8.3,13,13.1,28.4,13.1,45,0,46.2-37.4,83.6-83.6,83.6s-31-4.5-43.7-12.3c14.8,23.2,40.8,38.6,70.4,38.6,46.1,0,83.6-37.4,83.6-83.6s-15.9-56.5-39.8-71.2h0Z"/>
  <path class="st0" d="M31.1,107.7c0-40.7,33-73.8,73.8-73.8s45,11.3,58.5,28.8c-12.7-22.1-36.6-37-64-37-40.7,0-73.8,33-73.8,73.8s5.7,32.5,15.3,45c-6.2-10.8-9.8-23.4-9.8-36.8Z"/>
  <g class="st4">
    <path class="st1" d="M93.6,59.8c1.8.8,3.3,2.1,4.2,3.9,1,1.8,1.5,3.8,1.5,6.2s0,1,0,1.4c-.5,5.3-1.5,10.7-3.2,16-1.7,5.4-3.5,10.7-5.5,15.9-3,7.8-5.4,15.3-7.1,22.6,0,.2,0,.4-.2.7-.5,2-.7,3.6-.8,4.8s0,1.8,0,1.9c0,2.1.7,4,2.2,5.4,0,.1.2.2.4.3.3.2.6.5.7.7.2.2.2.4.2.6v.3c0,.3-.5.6-1.1.9-2,.9-4,1.3-6,1.3s-1.8,0-2.7-.2c-2.9-.6-5.2-1.9-7.1-4.2-1.9-2.2-2.8-5.2-2.8-8.8v-.6c.3-3.7,1.6-8.8,3.9-15.5,2.3-6.6,4.9-13.6,7.7-20.8,2.4-6.2,4.5-11.8,6.3-16.9v-.4h0c0-.2,0-.2-.2-.2h-.3s-.2,0-.2.2c-2.9,3.5-5.5,5.6-7.8,6.5-2.3.8-4,1.3-5.1,1.3-1.9,0-3.5-.7-4.9-2.1s-2.5-4.6-2.5-8.8,0-2.9.2-4.6c0-.8.3-1.2.4-1.4.2,0,.3-.2.4-.2h.4c.3,0,.6.3.9.6,0,0,.2.2.4.3,1.4,1,2.7,1.4,3.9,1.4s1.5-.2,2.2-.5c1.9-.9,3.9-2.2,6-3.9,2.2-1.9,4.2-3.2,6-4.1,1.8-.9,3.4-1.3,4.8-1.3s3.1.4,4.8,1.1h0v.2Z"/>
    <path class="st1" d="M126,58.8c4.6,0,8.5,1.9,11.8,5.8,3.3,3.9,5.6,8.4,6.8,13.7s1.8,10.3,1.8,15.1-.1,5.4-.5,8.3c-1,8-2.9,15.2-5.8,21.6-2.9,6.4-6.5,11.6-10.6,15.4s-8.6,5.8-13.1,5.8-8.5-1.9-11.8-5.8c-3.3-3.9-5.6-8.4-6.8-13.7-1.2-5.3-1.8-10.3-1.8-15.1s.2-5.4.5-8.2c1-8,2.9-15.2,5.8-21.6s6.5-11.6,10.7-15.4,8.5-5.8,13.1-5.8h0ZM125.7,66.7c-2.3,0-4.7,3.4-7.1,10.1s-4.3,15-5.7,25c-.8,6.2-1.1,11.8-1.1,16.7s0,5.7.4,8.2c.7,6.7,2.2,10,4.5,10s4.6-3.4,7.1-10.1c2.4-6.7,4.3-15,5.6-24.9.8-6.3,1.2-11.9,1.2-16.9s-.1-5.6-.4-8.1c-.7-6.7-2.2-10-4.5-10h0Z"/>
  </g>
</svg>