<?xml version="1.0" encoding="UTF-8"?>
<svg id="Layer_1" xmlns="http://www.w3.org/2000/svg" version="1.1" viewBox="0 0 200 200">
  <!-- Generator: Adobe Illustrator 29.0.1, SVG Export Plug-In . SVG Version: 2.1.0 Build 192)  -->
  <defs>
    <style>
      .st0 {
        fill: #2b1516;
      }

      .st1 {
        fill: #466a7f;
      }

      .st2 {
        fill: #3c5866;
      }

      .st3 {
        fill: #759baa;
      }

      .st4 {
        opacity: .8;
      }

      .st5 {
        fill: #577f93;
      }
    </style>
  </defs>
  <circle class="st1" cx="100" cy="100" r="98"/>
  <circle class="st5" cx="100" cy="100" r="83.2"/>
  <path class="st2" d="M143.5,29c8.3,12.9,13.1,28.3,13.1,44.8,0,45.9-37.2,83.2-83.2,83.2s-30.9-4.5-43.5-12.3c14.8,23.1,40.7,38.4,70.1,38.4,45.9,0,83.2-37.2,83.2-83.2s-15.9-56.3-39.7-70.9h0Z"/>
  <path class="st3" d="M31.4,107.6c0-40.6,32.9-73.4,73.4-73.4s44.8,11.2,58.2,28.7c-12.7-22-36.4-36.8-63.7-36.8-40.6,0-73.4,32.9-73.4,73.4s5.7,32.4,15.2,44.8c-6.2-10.8-9.8-23.3-9.8-36.6h0Z"/>
  <g class="st4">
    <path class="st0" d="M99.6,147.9c-2,.3-4,.4-5.8.4-4.5,0-8.3-.9-11.4-2.6-4.3-2.5-6.9-5.1-7.6-7.8-.8-2.7-1.2-4.7-1.2-6.1,0-2.7.8-5.4,2.4-8.1,2.4-3.9,6.8-6.9,13.1-8.9.8-.2,1.4-.3,1.9-.3s1,0,1.2.4c0,.2.2.4.2.7s-.2,1-.6,1.6c-1.6,2.7-2.4,5.1-2.6,7.2s-.2,3.5-.2,4c0,3.2.6,6,1.7,8.4s2.8,3.5,5.1,3.5.8,0,1.3-.1c1.8-.5,3.6-2,5.4-4.5s3.2-5.4,4.3-8.8c.9-3.1,1.3-5.8,1.3-8.2s-.6-5.2-1.9-7.1c-2.3-3.5-5-5.5-7.8-6-2.9-.5-5.1-.8-6.6-.8-2.6,0-5.1.4-7.4,1.3-.9.3-1.7.5-2.3.5-.9,0-1.6-.4-1.9-1.1-.2-.4-.3-1-.3-1.6,0-1.2.3-2.6.9-4.4,1.1-3.4,2-5.9,2.7-7.7.5-1.3.9-2.5,1.3-3.7s.9-2.8,1.4-4.6c.2-.8.5-1.6.7-2.3.5-1.8.8-3,.9-3.7s0-1.1,0-1.3c0-.9-.3-1.9-.8-2.8-.3-.8-.5-1.7-.5-2.8s0-1.4.2-2.1c.4-1.9,1-3.5,1.9-4.7.5-.6.9-.9,1.4-.9h0c.4,0,1,.2,1.7.6.2,0,.5.2.8.4,1.8.8,3.7,1.2,5.9,1.2s.8,0,1.2,0c2.6-.2,5.2-.5,7.8-1,2.5-.5,4.4-.8,5.7-.9s2.2-.2,2.7-.2c1.8,0,3.4.3,4.8.8,1.9.8,3,2,3.2,3.6.2,1.7.3,2.8.3,3.2,0,2.8-.7,6.3-2.1,10.7-.3.8-.6,1.3-.8,1.4-.2,0-.4,0-.5,0-.2,0-.4,0-.6-.2-.3-.3-.6-.7-.7-1-1.6-2.4-3.5-3.7-5.6-3.7h-3.5c-3.8,0-7.7.5-11.7,1.5.7,1.4,1,2.9,1,4.5s-.2,2.6-.6,4c-.6,1.9-1,3.5-1.4,4.6-.2.9-.5,1.8-.8,2.7-.3.9-.6,2-1,3.3,2.6-.5,5-.7,7.2-.7,4.2,0,7.7.8,10.6,2.4,4.5,2.5,7.4,5.6,8.8,9.4,1.3,3.7,2,7.1,2,10s-.2,4.2-.8,6.4c-1.2,5.3-3.8,10-7.9,14-4.1,4.1-9.6,6.8-16.6,8.1h0l.5-.2Z"/>
  </g>
</svg>