<?xml version="1.0" encoding="UTF-8"?>
<svg id="Layer_1" xmlns="http://www.w3.org/2000/svg" version="1.1" viewBox="0 0 200 200">
  <!-- Generator: Adobe Illustrator 29.3.1, SVG Export Plug-In . SVG Version: 2.1.0 Build 151)  -->
  <defs>
    <style>
      .st0 {
        fill: #448c6c;
      }

      .st1 {
        fill: #55a585;
      }

      .st2 {
        fill: #69b796;
      }

      .st3 {
        opacity: .8;
      }

      .st4 {
        fill: #8cccaf;
      }

      .st5 {
        fill: #182b26;
      }
    </style>
  </defs>
  <circle class="st1" cx="100" cy="100" r="97.9"/>
  <circle class="st2" cx="100" cy="100" r="83.1"/>
  <path class="st0" d="M143.5,29.1c8.3,12.9,13.1,28.3,13.1,44.7,0,45.9-37.2,83.1-83.1,83.1s-30.8-4.5-43.5-12.3c14.8,23.1,40.6,38.3,70,38.3,45.9,0,83.1-37.2,83.1-83.1s-15.9-56.2-39.6-70.8h0Z"/>
  <path class="st4" d="M31.5,107.6c0-40.5,32.8-73.3,73.3-73.3s44.7,11.2,58.1,28.6c-12.7-22-36.4-36.8-63.6-36.8-40.5,0-73.3,32.8-73.3,73.3s5.7,32.3,15.2,44.7c-6.2-10.8-9.7-23.2-9.7-36.6h0Z"/>
  <g class="st3">
    <path class="st5" d="M68.3,91.5l.3.7c.2.3.3.6.3.7v.3c0,.2,0,.4-.4.6s-.9.4-1.8.6c-1.4.2-2.6.3-3.8.3-3.3,0-5.9-.9-7.6-2.7-2.1-2.2-3.2-5.1-3.2-8.6s0-.8,0-1.2c.2-4.1,1.7-8.1,4.3-12.2,2.6-4,5.9-7,9.9-9,4-2,8-3,12.1-3s3.8.2,5.8.5c6.1,1.2,10.4,3.4,13,6.6,2.5,3.2,3.8,6.8,3.8,10.8v.5c0,4.2-1.1,8.5-2.9,12.8s-4.1,8.1-6.8,11.5c-5.3,6.4-10.8,12.3-16.8,17.7-3.9,3.6-7.5,7.2-10.8,10.7h0c1.1,0,3.2-.6,6.5-1.7,3.2-1.1,6.6-2.1,10-2.9,3.4-.9,6.4-1.3,9-1.3s1.8,0,2.6.2c3.3.3,5.3,1.5,6.1,3.4.8,1.9,1.2,3.6,1.2,5.1,0,2.6-.7,6.1-2.1,10.2-.3.8-.6,1.3-.7,1.3-.2,0-.3.1-.4.1-.2,0-.5-.1-.7-.4-.3-.3-.5-.7-.7-1.1-1.4-2.2-3.2-3.3-5.4-3.4s-3.4,0-3.7,0c-3.9,0-8,.4-12.3,1.3-4.7.9-8.6,1.8-11.8,2.6-.7.2-1.3.4-1.9.5-1.2.2-2.3.4-3.3.4-1.8,0-3.5-.4-5.1-1.1-2.5-1.1-4-2.5-4.5-4.1s-.8-2.7-.8-3.5c0-1.9.7-3.9,2.1-6.2.3-.5,1.4-1.6,3-3.3,2.8-2.7,6.4-6.6,10.9-11.7,4.5-5.1,8.8-10.9,13-17.4,6.2-10.2,9.7-16.9,10.2-20.2.6-3.3.8-5.5.8-6.7,0-2.8-.8-4.7-2.4-5.4-.7-.3-1.5-.5-2.3-.5-1.7,0-3.6.7-5.7,2.2-3.1,2.2-5.3,5-6.7,8.4-1.3,3.4-2,6.4-2,9s.4,5.5,1.3,8.4h0s.4.2.4.2Z"/>
    <path class="st5" d="M134.2,59.1c4.6,0,8.5,1.9,11.8,5.8,3.3,3.8,5.6,8.4,6.8,13.6s1.8,10.2,1.8,15-.1,5.4-.5,8.2c-.9,7.9-2.9,15.1-5.8,21.5-2.9,6.4-6.4,11.5-10.6,15.4-4.2,3.8-8.5,5.8-13.1,5.8s-8.4-1.9-11.7-5.8-5.6-8.4-6.8-13.6-1.8-10.2-1.8-15,.2-5.4.5-8.2c.9-7.9,2.9-15.1,5.8-21.5s6.4-11.5,10.6-15.4c4.2-3.8,8.5-5.8,13-5.8h0ZM134,66.9c-2.3,0-4.6,3.3-7.1,10-2.4,6.7-4.3,14.9-5.6,24.8-.7,6.2-1.1,11.7-1.1,16.6s0,5.7.4,8.2c.7,6.7,2.2,10,4.4,10s4.6-3.3,7-10,4.3-14.9,5.6-24.8c.8-6.2,1.2-11.8,1.2-16.8s-.1-5.6-.4-8.1c-.7-6.7-2.2-10-4.4-10h0Z"/>
  </g>
</svg>