<?xml version="1.0" encoding="UTF-8"?>
<svg id="Layer_1" data-name="Layer 1" xmlns="http://www.w3.org/2000/svg" viewBox="0 0 100 300">
  <defs>
    <style>
      .cls-1 {
        fill: #916c7c;
      }

      .cls-2 {
        fill: #421323;
      }

      .cls-3 {
        fill: #6c3b4f;
      }

      .cls-4 {
        fill: #c8e6e7;
      }

      .cls-5 {
        fill: #b32226;
      }

      .cls-6 {
        fill: #cb2128;
      }

      .cls-7 {
        fill: #361620;
      }

      .cls-8 {
        fill: #e63f4b;
      }

      .cls-9 {
        fill: #fff;
      }

      .cls-10 {
        fill: #541b31;
      }

      .cls-11 {
        fill: #e02228;
      }

      .cls-12 {
        fill: #e7626c;
      }

      .cls-13 {
        fill: #e7565f;
      }

      .cls-14 {
        fill: #8a6373;
      }

      .cls-15 {
        fill: #a4bdbf;
      }

      .cls-16 {
        fill: #d5e9ed;
      }
    </style>
  </defs>
  <g>
    <path class="cls-2" d="M15.33,164.1c-.58,5.28.73,10.04,1.44,15.13.1.69-.55,1.67-.48,2.15-2.2-.66-1.45,1.83-2.01,2.31-.34.3-2.42.17-2.73.63-.63.97.48,5.75,1.86,4.26.16-.17-.25-1.49.07-1.86.46-.52,2.65.38,1.38-2.47h2.88c2.37,17.21,3.79,32.19,1.86,49.61-1.45,13.08-10.41,36.2,9.9,38.21,9.16.91,17.56-3.29,19.46-12.69.09-29.04-.19-58.1-.02-87.14.8-1.44.82-4.7,0-6.24.02-.31-.05-.67,0-.96.85-.27,1.71-.45,2.62-.5,6.59-.31,15.68-.42,22.11.52,1.34.2,1.31-.48,1.2,1.42-3.99,3.21-7.36,8.12-11.48,11.32-.55.71,1.99,3.08,2.36,2.6.53-.7-1.34-2.54,2.4-1.92-1.23-3.29,3.14-.34,1.44-3.84,2.33,1.03,1.81-.23,2.92-1.18.44-.38,1.19-.55,1.39-.74-.15,2.01-.25,4.4-.6,6.36-1.32,7.37-3.16,14.79-4.14,22.26-.34,2.57-1.82,14.73-.54,16.02l-14.84,15.19c-.15.88,1.87,2.48,2.84,2.09-.49-2,1.03-1.2,1.35-1.51.29-.29-.03-1.37.3-1.88.39-.59,1.51-.27,2.04-.61.29-.18,4.6-4.52,4.79-4.8.28-.43,1.44-3.98,1.61-4.16.55-.61,1.27.63,1.43.96,1.82,3.57.95,6.39,1.48,9.8,1.14,7.33,4.56,19.99,3.75,26.87-.52,4.39-4.88,9.27-8.34,11.82-.98.72-2.4.98-3.61,1.91-1.54.56-1.39-.89-1.46-.93-.99-.63-.91.63-1.1.75-2.43,1.54-1.59,1.79-2.35,2.49-.35.33-1.19,0-1.33.09-.52-1-1.55-.3-2.25-.09-5.31,1.56-17.2,1.58-22.94,1.05-2.59-.24-4.64-1.58-6.77-1.87-1.82-.25-3.72.14-5.6-.16-1.75-.27-3.74-1.73-5.39-1.82-1.67-.09.09,2.2-1.2,2.41-.34-2.8-.69-5.58-.97-8.4-.11-1.12.42-1.61-.95-.72-.02-.32.02-.64,0-.96.18-.14.34-.3.48-.48.98-1.23.59-7.03,0-8.64-.12-.34-.09-.73-.48-.96.66-7.9,3.66-17.08,4.74-25.26.53-4.02.56-8.15,1.02-12.18,0,.06.44.54.5,1.16.12,1.35-.12,2.76-.01,4.12h.48s0-11.52,0-11.52h-.48c.51,1.18-.44,2.76-.48,3.36-.62-4.84-.84-9.73-1.51-14.57-1.09-7.94-5.02-20.12-5.21-27.19,0-.06.51-.56.5-1.16-.04-2.49,0-4.99-.02-7.48h6.72ZM15.32,228.41c-.35-.33.66-3.91-.47-4.32l-.96,9.59c.99-.33,1.16-4.01,1.48-4.27s1.37.04,1.88-.05c.48-1.7-1.59-.64-1.93-.96Z"/>
    <path class="cls-3" d="M92.12,163.62c-3.68.84-7.72.46-11.52.48-.64,0-1.28,0-1.92,0-9.82.03-19.65-.01-29.47,0-.53-.06-.23.62-.29.97-.05.29.02.65,0,.96-.1,2.06.01,4.17,0,6.24-.17,29.04.11,58.09.02,87.14-1.9,9.4-10.3,13.6-19.46,12.69-20.31-2.01-11.35-25.13-9.9-38.21,1.93-17.42.51-32.41-1.86-49.62-.13-.94-1.41-2.72-1.44-2.88-.08-.48.57-1.46.48-2.15-.71-5.09-2.01-9.85-1.44-15.13h7.68c.11,2.64-.15,5.32-.02,7.96.03.63.49,1.08.5,1.16.08,1.11-.1,2.26,0,3.36,1.51,16.68,4.15,32.17,3.35,49.19-.47,10.02-4.67,26.11-1.43,34.8.17.45.02,1.14.36,1.8s.89.82,1.08,1.08c.66.94.33,1.87,2.26,2.3,6.71,1.5,9.76-3.19,10.96-8.99,3.32-15.98,3.26-35.64,2.13-51.86-.12-1.78-.34-3.64-.48-5.28-1.01-12.18-2-23.25-2.4-35.52,0-.16,0-.32,0-.48h9.6c8.63,0,17.29.04,25.92,0,2.21-.01,15.14.3,15.87-.21.85-.59.4-8.87.43-10.61.25-13.22.11-26.72.02-40.06,1.1-3.74.19-8.11.48-12,.04.25.78.98.52,1.62-.45,20.4.48,40.87-.04,61.25Z"/>
    <path class="cls-7" d="M81.56,73.38c3.28,8.39,8.64,18.59,10.08,27.36-.29,3.89.62,8.26-.48,12,0-.16,0-.32,0-.48,0-.77.18-5.28-.24-5.28l-.24,2.89c-2.1.26-1.13-.32-1.43-1.1-.73-1.9-.98.89-1.06.97-.42.48-2.8.28-2.31,2.52-3.03,0-6.09-.07-9.12,0-.48.01-.96-.01-1.44,0h-26.4v-.48h26.4c-.96-8.2-.51-16.78-4.21-24.35.79-3.07-1.76-6.22-2.02-8.58-.14-1.21.58-2.43.39-3.21-.16-.64-1.13-.91-.87-1.78,3.23-.19,6.67.24,9.87.02.65-.04,1-.47,1.16-.5.57-.1,1.31.07,1.92,0Z"/>
    <path class="cls-16" d="M49.4,37.39c-2.03,11.56-.47,23.76-.96,35.52h19.2c.03.11.38.29.48.48-6.39,0-12.81,0-19.2,0-2.41,0-5.28.48-7.2.48-.96,0-1.92,0-2.88,0-2.46,0-5.82-.44-8.64-.48-1.75-.03-3.53,0-5.28,0h-6.72c.05-.14-.05-.34,0-.48h8.64c-.3-2.83.78-5.52,1.66-8.18,1.93-5.83,5.03-11.12,6.83-17.17.91-3.06,2.46-7.2,1.59-10.17h12.48Z"/>
    <path class="cls-15" d="M29.25,30.19c1.27-.04,2.56.01,3.84,0,2.87-.02,5.77.01,8.64,0,9.43-.04,19.44-.4,28.8,0,4.38.19,3.3.42,3.36,4.8-1.6.02-3.21-.03-4.8,0-3.19.05-6.41-.04-9.6,0-.03.8.04,1.61,0,2.4h9.6c-.03,8.02,9.12,27.42,12.48,36-.61.07-1.35-.1-1.92,0h-11.52c-.1-.18-.45-.36-.48-.48-2.31-8.73-8.54-27.54-8.16-35.52h-29.28c-.03-.53.09-2.31,0-2.4-1-1.02-6.18,2.75-4.32-4.8,1.12-.03,2.25.04,3.36,0Z"/>
    <path class="cls-2" d="M24.93,73.38c-1.46,5.34-3.97,10.37-5.77,15.59-3.38,9.82-3.69,12.82-3.83,23.29h-6.72c0-.16,0-.32,0-.48,1.43-1.91-.64-10.84,1.27-11.45.68-.22,2.46.06,2.58-.06.34-.36-.95-2.51,1.44-1.93.05-1.87-2.17.08-1.44-2.88l-.96,1.92-1.92-1.44c2.33-7.83,5.69-15,8.64-22.56h6.72Z"/>
    <path class="cls-4" d="M36.93,37.39c.86,2.96-.68,7.1-1.59,10.17-1.79,6.05-4.89,11.34-6.83,17.17-.88,2.66-1.96,5.35-1.66,8.18h-8.64c3.48-8.91,12.41-26.9,12-35.52h6.72Z"/>
    <path class="cls-6" d="M66.2,7.63c2.35.41,3.31,2.23,3.84,4.32-.5,5.35.68,11.87.01,17.06-.06.49,0,.54-.49.7-1.71-.81-5.11-.8-6.72,0-.8,0-1.6,0-2.4,0,.25-1.1-.88-.68-1-1.65-.57-4.83.73-11.15.06-15.89-.18-1.32-1.28-2.13-.98-3.57h8.16c.11-.85-1.08-.46-1.67-.48-5.89-.24-11.87.07-17.77,0-.81,0-2.13.31-2.63-.49,5.48-.12,16.76-.84,21.6,0Z"/>
    <path class="cls-11" d="M33.57,7.63c.75-.38,1.63.45,1.92.48-.72.32-1.2.89-1.54,1.58-2.26,4.59-.1,14.63-.86,20.02h-3.36s-.48-16.8-.48-16.8c.28-2.58,1.81-4.48,4.32-5.28Z"/>
    <path class="cls-6" d="M8.61,112.26c.01,16.72.02,33.46-.04,50.19l1.48,1.17h-1.92c-.65-16.86-.43-34.48,0-51.36h.48Z"/>
    <path class="cls-1" d="M69.08,34.99c0,.8,0,1.6,0,2.4h-9.6c.04-.8-.03-1.61,0-2.4,3.19-.03,6.41.06,9.6,0Z"/>
    <path class="cls-5" d="M70.52,30.19c-9.36-.4-19.37-.04-28.8,0v-.48c6.23-.05,12.49.07,18.72,0,.8,0,1.6,0,2.4,0,1.5-.01,5.75.32,6.72,0,.49-.16.43-.21.49-.7.66-5.19-.52-11.72-.01-17.06,1.37,5.42-.02,12.53.48,18.24Z"/>
    <path class="cls-10" d="M9.57,95.94l1.92,1.44.96-1.92c-.73,2.96,1.49,1.01,1.44,2.88-2.38-.58-1.1,1.56-1.44,1.93-.11.12-1.9-.16-2.58.06-1.9.61.17,9.54-1.27,11.45,0-3.72.4-7.96-.48-11.52.19-2,.99-2.82,1.44-4.32Z"/>
    <path class="cls-12" d="M66.2,7.63c-4.84-.84-16.12-.12-21.6,0-.24,0-.72.47-.96.48-2.45.06-5.82.26-8.16,0-.29-.03-1.17-.86-1.92-.48.54-.17.65-.42,1.62-.51,8.35-.78,19.72-.07,28.38.03.81,0,2.13-.31,2.63.49Z"/>
    <path class="cls-6" d="M29.25,12.91l.48,16.8h3.36s0,.48,0,.48c-1.28.01-2.57-.04-3.84,0,.43-5.52-.58-11.86,0-17.28Z"/>
    <path class="cls-10" d="M14.85,214.49c.04-.6.99-2.18.48-3.36h.48s0,11.52,0,11.52h-.48c-.11-1.35.14-2.77.01-4.12-.06-.62-.5-1.1-.5-1.16-.02-.94-.07-1.95,0-2.88Z"/>
    <path class="cls-7" d="M8.61,111.78c0,.16,0,.32,0,.48h-.48c.1-3.85-.36-8.28,0-12,.88,3.56.48,7.79.48,11.52Z"/>
    <path class="cls-7" d="M9.57,255.77v8.64c-.14.18-.3.34-.48.48-.16-2.96-.24-7.16,0-10.08.39.23.36.62.48.96Z"/>
    <path class="cls-7" d="M8.13,172.73c-.09-2.87.12-5.78,0-8.64h.48c.01,2.49-.03,4.98.02,7.48.01.61-.5,1.1-.5,1.16Z"/>
    <path class="cls-5" d="M10.05,163.62c.8,0,1.6,0,2.4,0,.96,0,1.92.01,2.88,0,.32,0,.64,0,.96,0v.48h-8.16c0-.16,0-.32,0-.48h1.92Z"/>
    <path class="cls-10" d="M68.6,217.37c.08.08.52-.14.63,0,1.02,1.12,1.02.85,1.89,1.46,1.54,1.08-.75.79-.99,1.05-.22.24.02.94-.22,1.22-.22.26-1.78-.02-1.8,1.56-.17-.33-.88-1.57-1.43-.96-.17.18-1.33,3.74-1.61,4.16-.18.28-4.5,4.62-4.79,4.8-.54.34-1.66.02-2.04.61-.33.5,0,1.59-.3,1.88-.32.31-1.83-.49-1.35,1.51-.98.38-3-1.21-2.84-2.09l14.84-15.19Z"/>
    <path class="cls-10" d="M80.6,164.1c1.26,1.63-.64.62-.9,1-.23.34.08,1.1-.09,1.48-1.19,2.66-2.84-.07-3.32.4-.14.13-.55,2.74-1.92,3.12.4.48,1.21-.06.96.95-.63.4-.99,1.24-1.44,1.69-.2.2-.95.36-1.39.74-1.11.94-.59,2.21-2.92,1.18,1.7,3.49-2.67.55-1.44,3.84-3.74-.62-1.87,1.23-2.4,1.92-.37.48-2.91-1.89-2.36-2.6,4.12-3.21,7.49-8.12,11.48-11.32,1.32-1.06,2.16-1.83,3.84-2.4.64,0,1.28,0,1.92,0Z"/>
    <path class="cls-10" d="M55.16,275.45c.14-.1.98.24,1.33-.09.76-.7-.08-.95,2.35-2.49.19-.12.11-1.38,1.1-.75.07.05-.08,1.49,1.46.93-.05.04.17.62-.12.85-.28.23-1.09-.02-1.25.15-.46.49.82,1.98-1.34,2.18-.51.05-1.26-.42-1.53-.27-1.17.68-1.75,7-4.86,5.94,1.07,1.58-.73,1.61-1.33,2.33-.24.28-.03,1.08-.17,1.21-.72.67-3.04-1.23-2.36,1.99l-1.92-.96c0-.22-.19-.57-.48-.48.07-.07.02-1.1.68-1.95,1.02-1.3,3.6-2.63,4.45-3.47s2.43-3.99,3.98-5.14ZM50.12,283.13v.48c.31-.16.31-.32,0-.48Z"/>
    <path class="cls-10" d="M16.29,181.37c.03.16,1.31,1.94,1.44,2.88h-2.88c1.28,2.85-.92,1.95-1.38,2.47-.32.36.09,1.68-.07,1.86-1.37,1.48-2.49-3.29-1.86-4.26.3-.46,2.39-.33,2.73-.63.56-.48-.19-2.97,2.01-2.31Z"/>
    <path class="cls-7" d="M78.68,164.1c-1.67.57-2.52,1.34-3.84,2.4.11-1.9.15-1.23-1.2-1.42-6.43-.93-15.51-.83-22.11-.52-.91.04-1.76.23-2.62.5.06-.35-.24-1.02.29-.97,9.82,0,19.65.04,29.47,0Z"/>
    <path class="cls-10" d="M15.32,228.41c.33.31,2.4-.75,1.93.96-.51.08-1.57-.2-1.88.05-.32.26-.5,3.94-1.48,4.27l.96-9.59c1.13.41.12,3.99.47,4.32Z"/>
    <path class="cls-10" d="M9.57,264.41v-8.64c.59,1.61.98,7.41,0,8.64Z"/>
    <path class="cls-7" d="M48.92,172.25c.01-2.06-.1-4.18,0-6.24.82,1.54.8,4.8,0,6.24Z"/>
    <path class="cls-2" d="M87.7,248.47c-2.33.77-2.99,4.29-5.65,2.98,1.46,3.11-1.61.91-1.45,3.84-.47.45-2.41-1.31-2.41-2.16,0-.91,8.21-8.36,9.38-9.84l.13,5.18Z"/>
    <path class="cls-2" d="M46.04,286.01c.29-.09.48.26.48.48-.04,4.52-2.62,1.26-2.4.25.16-.76,1.85-.66,1.92-.73Z"/>
    <path class="cls-10" d="M77.72,253.85c.13.11.85,2.8.96,3.36-2.91.28-2.5-4.68-.96-3.36Z"/>
    <rect class="cls-2" x="83.96" y="212.09" width=".48" height="8.64"/>
    <rect class="cls-2" x="11.49" y="275.93" width=".47" height="1.92"/>
    <path class="cls-14" d="M39.33,164.1c.4,12.26,1.39,23.34,2.4,35.52-1.33,2.16-3.33,3.22-5.14,4.98-.54.53-1.16,1.13-1.79,1.76-1.1,1.09-2.57,2.78-3.6,4l2.36,2.22c-.12-2.2.35-2.75,2.4-1.92-.46-2.5.55-1.58,1.67-2.4,1.65-1.21,2.6-3.07,4.57-3.36,1.12,16.22,1.19,35.88-2.13,51.86-1.21,5.79-4.25,10.49-10.96,8.99-1.93-.43-1.6-1.36-2.26-2.3l.48-2.4,2.08.52c.67-1.46,2.45-1.98,3.21-3.14.43-.65,1.73-4.41,1.92-4.57,1.06-.89,1.65,1.65,2.38.95.34-.33.4-2.75.51-2.86.37-.37,2.19.66,1.9-.73-.81-.75-1.79-.5-2.15-1.69-1.98,1.66-3.97,3.43-5.8,5.26-.66.66-1.22,1.4-2.06,2.25-1.18,1.19-2.34,2.88-3.91,3.53-3.23-8.7.97-24.78,1.43-34.8.79-17.02-1.85-32.51-3.35-49.19,1.37.52,2.23-1.75,2.37-2.37-1.6.1-.2-2.54-2.37-.99,0-.08-.47-.54-.5-1.16-.13-2.64.13-5.32.02-7.96h16.32Z"/>
    <path class="cls-11" d="M76.76,112.26l-2.35,1.72.43,49.64c-8.63.04-17.29,0-25.92,0-.85-3.6-.5-7.77-.48-11.52,0-.57.48-1.36.48-1.92,0-1.49-.48-3.25-.48-4.08v-26.4c0-.2.48-1.06.51-1.88.08-1.71.03-3.44-.51-5.08,8.99,0,18.04-.29,26.88-.48.48-.01.96.01,1.44,0Z"/>
    <path class="cls-5" d="M85.88,112.26h5.28c0,.16,0,.32,0,.48.09,13.33.23,26.84-.02,40.06-.03,1.74.42,10.02-.43,10.61-.72.51-13.66.2-15.87.21l-.43-49.64,2.35-1.72c3.03-.07,6.09,0,9.12,0Z"/>
    <path class="cls-12" d="M38.85,112.26h.48v.48c-1.01,16.85-.51,34.06,0,50.88,0,.16,0,.32,0,.48h-23.04v-.48c1.18-.04,6.47.36,6.74-.8-.65-8.96.79-18.95,0-27.78-.09-1.06-.83-1.55-.9-1.99-.08-.5.81-1.26.9-2.28.49-5.55-.11-12.29-.03-18.02,0-.16,0-.32,0-.48h15.84Z"/>
    <path class="cls-8" d="M48.44,112.74c.54,1.63.59,3.37.51,5.08-.04.82-.51,1.69-.51,1.88v26.4c0,.83.48,2.59.48,4.08-2.43-1.48-4.63,2.41-6.22,4.12-.4.43-1.44.59-1.5.95-.2,1.26,2.04,3.1,2.43,2.6-1.01-3,5.01-2.3,3.39-5.55l1.41-.21c-.02,3.75-.37,7.92.48,11.52h-9.6c-.51-16.81-1.01-34.02,0-50.88h9.12Z"/>
    <path class="cls-1" d="M25.41,260.57c1.56-.65,2.73-2.34,3.91-3.53.84-.85,1.4-1.59,2.06-2.25,1.83-1.82,3.81-3.59,5.8-5.26.36,1.19,1.34.93,2.15,1.69.29,1.39-1.53.37-1.9.73-.1.1-.17,2.53-.51,2.86-.72.7-1.32-1.84-2.38-.95-.19.16-1.49,3.92-1.92,4.57-.76,1.16-2.55,1.68-3.21,3.14l-2.08-.52-.48,2.4c-.18-.26-.74-.43-1.08-1.08s-.2-1.35-.36-1.8Z"/>
    <path class="cls-1" d="M42.21,204.89c-1.97.3-2.93,2.15-4.57,3.36-1.11.82-2.13-.1-1.67,2.4-2.05-.83-2.52-.28-2.4,1.92l-2.36-2.22c1.03-1.22,2.49-2.91,3.6-4,.64-.63,1.25-1.23,1.79-1.76,1.8-1.76,3.81-2.82,5.14-4.98.14,1.64.36,3.5.48,5.28Z"/>
    <path class="cls-1" d="M23.49,173.21c2.17-1.55.77,1.09,2.37.99-.14.62-1,2.89-2.37,2.37-.1-1.1.08-2.25,0-3.36Z"/>
    <path class="cls-2" d="M68.12,73.38h11.52c-.17.03-.52.45-1.16.5-3.2.22-6.65-.2-9.87-.02-.26.87.71,1.14.87,1.78.19.77-.53,2-.39,3.21.26,2.36,2.81,5.51,2.02,8.58,3.7,7.57,3.25,16.15,4.21,24.35h-26.4s0-38.39,0-38.39c6.39,0,12.81,0,19.2,0ZM57.56,98.34c.12-.1,1.06.1,1.93-.7.21-.2,2.47-2.94,2.71-3.3.31-.45.98-3.25,1.68-3.63.45-.24,4.49,1,2.79-2.45l1.44-.24c-.96-.66-1.72-.78-1.44-2.16l-15.61,14.89c-.75.85.63,2.61,1.45,2.39.42-.11.53-1.17.82-1.34.54-.32,1.66.05,1.82-.1.18-.17-.21-1.69.01-1.91.14-.14,1.3.13,1.92-.25.47-.29.39-1.15.47-1.2-.51.51-1.49-.42-.96-.96s1.47.45.96.96Z"/>
    <path class="cls-3" d="M48.92,73.38v38.88h-10.08c-.5-12.9,1.36-25.65,2.88-38.4,1.91,0,4.79-.48,7.2-.48Z"/>
    <path class="cls-5" d="M48.92,112.26h26.4c-8.84.19-17.89.48-26.88.48h-9.12v-.48h9.6Z"/>
    <path class="cls-10" d="M91.16,112.26h-5.28c-.49-2.25,1.89-2.04,2.31-2.52.08-.09.33-2.87,1.06-.97.3.78-.67,1.36,1.43,1.1l.24-2.89c.42,0,.23,4.51.24,5.28Z"/>
    <path class="cls-4" d="M59.48,37.39c-.38,7.98,5.85,26.78,8.16,35.52h-19.2c.49-11.76-1.07-23.96.96-35.52h10.08Z"/>
    <path class="cls-14" d="M41.73,73.86c-1.52,12.75-3.38,25.5-2.88,38.4h-15.84c.22-13.45,2.36-19.56,5.76-32.16,1.28-.23.72,1.52,2.12.92.44-.19,2.07-2.49,2.72-3.03.79-.65,3.17-2.26,4.1-2.65.86-.37,1.43.54,1.14-1.48.96,0,1.92,0,2.88,0Z"/>
    <path class="cls-3" d="M30.21,73.38c-.2,2.27-.85,4.54-1.44,6.72-3.4,12.59-5.54,18.7-5.76,32.16h-7.68c.15-10.46.45-13.47,3.83-23.29,1.8-5.22,4.31-10.25,5.77-15.59,1.75,0,3.53-.03,5.28,0Z"/>
    <path class="cls-1" d="M38.85,73.86c.29,2.03-.28,1.11-1.14,1.48-.93.4-3.31,2-4.1,2.65-.65.54-2.28,2.84-2.72,3.03-1.4.6-.84-1.15-2.12-.92.59-2.18,1.24-4.45,1.44-6.72,2.82.04,6.18.48,8.64.48Z"/>
    <path class="cls-13" d="M43.65,8.11c-3.81,5.98-1.13,14.69-1.92,21.6v.48c-2.87.01-5.77-.02-8.64,0v-.48c.76-5.39-1.4-15.43.86-20.02.34-.69.82-1.27,1.54-1.58,2.34.26,5.71.06,8.16,0Z"/>
    <path class="cls-11" d="M13.41,112.26l1.92.48c-.21,16.78.18,33.63,0,50.4-.9.07-2.34-.37-2.88.48-.8,0-1.6,0-2.4,0l-1.48-1.17c.06-16.73.05-33.46.04-50.19h4.8Z"/>
    <path class="cls-6" d="M15.33,112.26c0,.16,0,.32,0,.48l-1.92-.48h1.92Z"/>
    <path class="cls-11" d="M44.6,7.63c.5.79,1.82.48,2.63.49,5.9.06,11.88-.25,17.77,0,.59.02,1.78-.37,1.67.48h-8.16c-.29,1.45.8,2.25.98,3.57.66,4.74-.63,11.07-.06,15.89.11.97,1.25.55,1,1.65-6.23.07-12.49-.05-18.72,0,.79-6.9-1.89-15.62,1.92-21.6.24,0,.72-.47.96-.48Z"/>
    <path class="cls-11" d="M69.56,29.71c-.97.32-5.22-.01-6.72,0,1.61-.8,5.01-.81,6.72,0Z"/>
    <path class="cls-8" d="M22.05,112.26l.96.48c-.08,5.73.52,12.47.03,18.02-.09,1.01-.98,1.78-.9,2.28.07.44.81.93.9,1.99.78,8.84-.66,18.82,0,27.78-.27,1.16-5.56.76-6.74.8-.32,0-.64,0-.96,0v-.48c.18-16.76-.21-33.61,0-50.4,0-.16,0-.32,0-.48h6.72Z"/>
    <path class="cls-6" d="M15.33,163.14v.48c-.96.01-1.92,0-2.88,0,.54-.85,1.98-.41,2.88-.48Z"/>
    <path class="cls-7" d="M92.12,163.62c-.5,19.49-8.81,38.58-7.15,58.26,1.6,18.92,8.11,31.67,4.61,51.75-.95,5.45-4.01,19.57-11.08,19.54-5.89-.03-7.1-1.45-11.82-3.08-6.99-2.41-10.49,3.01-16.96,2.93-6.54-.08-9.47-5.23-17.14-2.95-4.07,1.21-5.07,3.06-10.78,3.18-1.68.03-2.68-.36-4.05-1.27-5.42-3.61-8.24-19.83-8.67-26.12,1.37-.89.84-.4.95.72.29,2.82.63,5.59.97,8.4,1.29-.21-.47-2.5,1.2-2.41,1.65.09,3.64,1.55,5.39,1.82,1.89.29,3.78-.09,5.6.16,2.13.29,4.18,1.63,6.77,1.87,5.74.54,17.63.52,22.94-1.05.69-.2,1.72-.9,2.25.09-1.56,1.15-3.12,4.28-3.98,5.14s-3.43,2.17-4.45,3.47c-.66.84-.61,1.87-.68,1.95s-1.76-.03-1.92.73c-.22,1.01,2.36,4.27,2.4-.25l1.92.96c-.68-3.22,1.64-1.32,2.36-1.99.14-.13-.07-.93.17-1.21.61-.72,2.41-.74,1.33-2.33,3.11,1.06,3.69-5.26,4.86-5.94.27-.16,1.01.31,1.53.27,2.16-.2.88-1.69,1.34-2.18.16-.17.98.07,1.25-.15.29-.24.07-.82.12-.85,1.21-.94,2.62-1.19,3.61-1.91,3.46-2.55,7.83-7.43,8.34-11.82.81-6.88-2.61-19.54-3.75-26.87-.53-3.41.34-6.23-1.48-9.8.02-1.58,1.59-1.3,1.8-1.56.23-.28,0-.98.22-1.22.23-.26,2.53.03.99-1.05-.87-.61-.87-.34-1.89-1.46-.12-.13-.55.09-.63,0-1.28-1.29.21-13.45.54-16.02.97-7.47,2.81-14.89,4.14-22.26.35-1.95.45-4.35.6-6.36.45-.44.81-1.28,1.44-1.69.26-1.02-.55-.47-.96-.95,1.37-.38,1.79-2.99,1.92-3.12.49-.46,2.13,2.26,3.32-.4.17-.38-.14-1.15.09-1.48.27-.38,2.16.63.9-1,3.8-.02,7.84.36,11.52-.48ZM84.44,220.73v-8.64h-.48v8.64h.48ZM87.7,248.47l-.13-5.18c-1.17,1.48-9.38,8.93-9.38,9.84,0,.86,1.95,2.61,2.41,2.16-.16-2.93,2.91-.72,1.45-3.84,2.66,1.31,3.32-2.21,5.65-2.98ZM77.72,253.85c-1.54-1.32-1.95,3.64.96,3.36-.12-.55-.83-3.24-.96-3.36ZM11.96,277.84v-1.92h-.47v1.92h.47Z"/>
    <path class="cls-7" d="M50.12,283.13c.31.16.31.32,0,.48v-.48Z"/>
    <path class="cls-13" d="M48.92,150.18c0,.56-.48,1.35-.48,1.92l-1.41.21c1.62,3.24-4.41,2.54-3.39,5.55-.4.5-2.63-1.35-2.43-2.6.06-.37,1.1-.52,1.5-.95,1.58-1.71,3.78-5.61,6.22-4.12Z"/>
    <path class="cls-6" d="M23.01,112.26c0,.16,0,.32,0,.48l-.96-.48h.96Z"/>
    <path class="cls-10" d="M57.56,98.34c-.07.06,0,.91-.47,1.2-.62.39-1.78.12-1.92.25-.22.22.17,1.74-.01,1.91-.16.14-1.28-.22-1.82.1-.3.17-.4,1.23-.82,1.34-.82.22-2.21-1.54-1.45-2.39l15.61-14.89c-.28,1.38.48,1.5,1.44,2.16l-1.44.24c1.69,3.45-2.35,2.21-2.79,2.45-.7.38-1.38,3.18-1.68,3.63-.24.35-2.49,3.1-2.71,3.3-.87.8-1.81.6-1.93.7.51-.51-.42-1.49-.96-.96s.45,1.47.96.96Z"/>
  </g>
  <path class="cls-9" d="M25.89,128.03v.03h-.03c-.5,0-1.06.18-1.7.53s-1.28.8-1.93,1.35c-.43.36-.85.75-1.28,1.17-.42.42-.82.84-1.2,1.25-.27.31-.53.61-.77.89s-.46.56-.67.84c-.31.39-.6.79-.88,1.2-.27.4-.54.8-.8,1.2-.62,1.05-1.12,2.07-1.52,3.08s-.62,1.94-.67,2.82c-.02.12-.03.23-.03.34v.31c0,1.25.3,2.22.89,2.91.59.69,1.51,1.16,2.74,1.42.29.07.57.12.85.14.27.03.54.04.8.04.33,0,.65-.02.97-.06.32-.04.62-.09.91-.14.34-.07.68-.16,1.02-.26s.68-.21,1.04-.31c.21-.05.41-.1.62-.15.21-.05.42-.1.65-.16.57-.14,1.08-.26,1.54-.37s.92-.22,1.36-.32.9-.21,1.36-.31c.47-.1.98-.2,1.55-.28.07-.02.13-.03.19-.04.06,0,.12-.02.19-.04.38-.07.73-.13,1.06-.19.32-.06.65-.12.98-.17.29-.05.59-.09.89-.12.3-.03.62-.04.96-.04h.34c.05.02.11.03.17.03h.17c1.66.09,3.12.35,4.35.8,1.23.45,2.44,1.12,3.6,2.03.24.19.48.39.73.62.25.22.49.45.73.7-.41-.33-.9-.59-1.45-.8-.56-.21-1.13-.36-1.71-.47-.31-.05-.62-.09-.94-.1-.32-.02-.62-.03-.91-.03-.22,0-.43,0-.63.01s-.39.02-.58.04c-.33.05-.64.14-.94.27-.3.13-.57.27-.81.42-.24.16-.44.3-.59.43-.15.13-.27.22-.33.27-.14-.12-.31-.28-.5-.48s-.44-.4-.73-.61c-.38-.24-.86-.48-1.45-.72-.59-.24-1.34-.4-2.25-.49-.1-.02-.21-.03-.31-.03h-.31c-.84,0-1.72.1-2.62.31-.91.21-1.89.44-2.93.69-.19.05-.38.1-.57.16-.19.05-.38.11-.57.18-.98.29-1.93.56-2.86.8-.93.24-1.84.36-2.73.36h-.27c-.09,0-.18,0-.27-.03-.1,0-.2,0-.3-.01-.09-.01-.18-.02-.27-.04-.36-.05-.78-.12-1.25-.19-.47-.08-.95-.21-1.43-.4-.93-.34-1.78-.96-2.57-1.84s-1.2-2.26-1.24-4.13c-.02-1.58.43-3.13,1.33-4.65.9-1.52,2-3.03,3.31-4.52.84-.96,1.74-1.84,2.69-2.64s1.91-1.48,2.87-2.05c.81-.46,1.6-.83,2.38-1.09s1.53-.42,2.25-.45h.05c.5,0,.94.16,1.34.48.39.32.62.72.67,1.22v.41c0,.07,0,.14-.03.21-.09.55-.31,1.05-.67,1.5-.36.46-.77.68-1.24.68h-.12s-.08,0-.12-.03c-.24-.05-.42-.14-.53-.27-.11-.13-.17-.28-.17-.45,0-.14.03-.27.09-.41.06-.14.13-.27.22-.41.08-.14.19-.26.32-.37.13-.11.26-.2.4-.27.15-.1.31-.18.46-.23.16-.05.27-.08.36-.08h.05v-.32s0-.05-.03-.06c-.02-.12-.08-.22-.18-.31s-.3-.14-.59-.16v-.03ZM39.05,143.17c-.22-.18-.39-.38-.49-.6-.05-.16-.09-.31-.12-.45-.03-.15-.05-.26-.06-.35,0-.02,0-.03-.01-.04,0,0-.01-.02-.01-.04,0,.05-.06.16-.18.32-.12.16-.28.34-.49.53-.24.22-.54.43-.89.62-.35.19-.72.28-1.12.28-.62,0-1.05-.15-1.3-.45-.25-.3-.39-.63-.42-.99-.02-.03-.03-.08-.03-.13v-.16c0-.17.01-.34.04-.5.03-.16.05-.31.06-.43.02-.09.03-.16.05-.22.02-.06.03-.1.05-.12,0,.07-.13.25-.39.54-.26.29-.59.61-1,.95-.39.31-.83.61-1.31.89-.48.28-.97.47-1.47.55-.1.02-.2.03-.28.04-.09.01-.17.01-.26.01h-.18c-.91-.05-1.52-.27-1.83-.67-.31-.39-.49-.91-.54-1.54v-.08c0-.21.04-.48.12-.82s.18-.7.3-1.06c.03-.14.08-.28.13-.43.05-.14.1-.29.16-.43.12-.36.24-.67.36-.93s.21-.4.26-.44l-1.26.23c-.05.14-.18.39-.4.77-.22.38-.47.78-.76,1.21-.09.14-.18.27-.28.41-.1.14-.21.28-.31.41-.02.04-.04.07-.06.1-.03.04-.06.07-.09.1-.65.81-1.34,1.52-2.06,2.14s-1.49.95-2.32,1.01h-.13c-.1,0-.21-.01-.31-.03s-.21-.03-.31-.05c-.34-.1-.66-.29-.95-.56-.29-.26-.46-.66-.52-1.17v-.18s-.03-.06-.03-.09v-.09c0-.63.13-1.29.4-1.98.27-.69.71-1.5,1.33-2.44.29-.45.59-.85.9-1.22.31-.37.62-.71.93-1.02.79-.76,1.55-1.31,2.29-1.67s1.34-.53,1.8-.52c.5.02.92.16,1.27.44s.54.73.58,1.36v.1c0,.12,0,.25-.03.39-.02.14-.04.27-.08.39-.04.16-.07.31-.12.45-.04.15-.09.28-.14.4-.07.19-.13.35-.19.48-.06.13-.11.2-.14.22.04,0,.07,0,.1-.01.04,0,.07-.01.1-.01.14,0,.31-.03.52-.08.21-.05.46-.19.77-.41.32-.24.6-.46.82-.67.22-.21.43-.41.62-.62.03-.02.06-.03.08-.05s.04-.04.08-.08c.15-.14.32-.28.49-.44s.37-.32.59-.49c.43-.33.82-.6,1.18-.81.36-.21.7-.37,1.03-.48.14-.03.27-.06.39-.08.12-.02.24-.03.36-.03h.16s.06.03.09.03h.06c.45.04.84.19,1.17.46.33.28.5.64.5,1.08v.08c-.02.47-.14.88-.37,1.24s-.49.65-.76.88c-.15.12-.3.22-.45.28-.14.07-.27.1-.37.1h-.08c-.22-.03-.39-.12-.49-.27-.1-.14-.16-.3-.16-.48,0-.05,0-.1.01-.16,0-.05.02-.09.04-.13.02-.1.05-.21.09-.31.04-.1.09-.19.14-.26.09-.12.18-.22.28-.31.1-.09.21-.16.31-.23.19-.12.37-.2.54-.24.17-.04.3-.06.39-.06h.05s-.03-.06-.03-.08v-.06s-.01-.05-.03-.09c-.03-.05-.1-.1-.19-.15-.09-.05-.26-.08-.5-.08-.21,0-.47.12-.8.35-.33.23-.67.53-1.03.89-.22.24-.45.49-.67.76-.22.27-.43.54-.62.84-.05.07-.1.14-.14.22s-.09.15-.14.22c-.16.26-.31.54-.47.85-.15.31-.3.62-.44.93-.19.46-.34.91-.46,1.34-.12.43-.18.79-.18,1.08,0,.14.02.26.05.36.03.1.09.18.16.23.03.02.07.03.12.05.04.02.1.03.17.03.24,0,.55-.08.93-.25s.76-.38,1.16-.66c.34-.22.67-.47.99-.73s.6-.54.84-.84c.89-1.08,1.67-2.08,2.33-2.99.66-.91,1.29-1.67,1.89-2.29.15-.14.3-.27.44-.4.14-.13.28-.25.44-.35.14-.1.26-.19.39-.27.12-.08.24-.14.36-.19.26-.14.52-.24.77-.3.26-.06.55-.09.87-.09.38,0,.67.04.86.1.2.07.35.15.45.23.07.05.12.1.17.16.04.05.08.09.12.13l.03.03s.01-.08.04-.13.05-.1.09-.16c.02-.02.03-.04.04-.06,0-.03.02-.05.04-.06.02-.03.04-.07.06-.1.03-.04.05-.06.06-.08.04-.03.15-.06.35-.06s.42-.01.66-.01h.16c.29,0,.57,0,.82.03.26.02.4.04.41.08.03.04-.18.44-.66,1.22-.47.78-.98,1.65-1.53,2.61-.05.07-.1.13-.13.19-.03.06-.07.13-.1.19-.52.89-.97,1.73-1.38,2.51-.4.78-.61,1.3-.61,1.56,0,.02,0,.04.01.06,0,.03.02.05.04.06.04.02.07.03.12.04.04,0,.08.01.12.01.17.02.37-.05.59-.21.22-.16.45-.35.69-.59.09-.09.17-.18.26-.28s.17-.21.26-.31c.07-.1.14-.21.22-.33.08-.12.15-.24.22-.36.02-.04.04-.07.06-.1.03-.03.05-.08.06-.13.14-.24.28-.44.43-.61s.3-.22.45-.17c.17.07.12.39-.17.95-.28.57-.69,1.18-1.22,1.83-.29.4-.61.77-.97,1.13s-.71.68-1.07.95c-.29.21-.58.37-.86.5-.28.13-.55.19-.81.19-.46,0-.81-.09-1.03-.27ZM22.24,138.22c-.02.05-.04.1-.06.16-.03.05-.05.09-.06.13-.05.14-.11.27-.17.41-.06.14-.12.27-.17.41-.1.24-.18.48-.24.71-.06.23-.09.43-.09.61,0,.12.02.22.06.31.04.09.1.14.17.18.05.02.1.03.16.05s.11.03.18.03c.21,0,.43-.05.67-.15.24-.1.49-.24.75-.41.19-.14.37-.29.54-.45s.34-.35.49-.55c.07-.09.17-.22.3-.4.13-.18.26-.37.4-.58.02-.03.04-.07.06-.1.03-.04.05-.07.06-.1.14-.22.26-.44.39-.66.12-.21.2-.37.23-.48-.17-.02-.32-.04-.46-.06-.14-.03-.27-.07-.39-.14-.07-.02-.13-.05-.19-.09-.06-.04-.13-.08-.19-.12-.24-.15-.43-.32-.58-.49s-.28-.39-.4-.64c-.14.15-.26.31-.36.46s-.2.3-.28.44c-.07.12-.13.23-.18.34-.05.1-.1.21-.16.31-.09.16-.16.31-.23.45-.07.15-.15.31-.23.48v-.03ZM26.2,136.62s.07-.03.1-.08c.03-.05.07-.1.1-.15.09-.16.17-.34.25-.57.08-.22.14-.45.19-.67.02-.1.03-.21.04-.31,0-.1.01-.21.01-.31v-.08c-.02-.26-.06-.45-.14-.57-.08-.12-.17-.21-.27-.26-.03-.02-.07-.03-.1-.04-.04,0-.07-.01-.1-.01h-.1c-.09,0-.18.01-.27.04-.09.03-.19.05-.3.09-.19.09-.37.21-.55.36-.18.15-.33.31-.45.46-.09.1-.16.21-.21.31-.05.1-.09.2-.1.28v.03c0,.09.03.19.09.31.06.12.14.24.24.36.16.21.35.39.58.55.23.16.47.26.71.3h.13s.04,0,.05-.03h.1v-.03ZM41.39,133.84c-.05.05-.1.09-.14.13-.04.03-.09.07-.14.1-.26.21-.55.5-.88.87-.33.38-.81,1-1.44,1.85-.14.21-.27.42-.4.63-.13.22-.25.43-.37.63-.24.48-.43.95-.58,1.4-.15.45-.22.83-.22,1.12,0,.12.01.22.04.31.03.09.06.15.12.18.03.02.06.04.09.05s.05.03.09.03c.02.02.04.03.08.03h.08c.22.02.44-.08.66-.28s.41-.43.58-.67c.05-.05.09-.11.13-.17.03-.06.07-.12.1-.17.65-1.03,1.26-2.01,1.81-2.95.56-.94,1.1-1.84,1.64-2.72.05-.08.09-.16.1-.22s.03-.11.05-.14c0-.07-.02-.12-.06-.17-.04-.04-.09-.08-.14-.12-.02,0-.03,0-.04-.01-.01,0-.02-.01-.04-.01-.03-.02-.07-.03-.12-.04-.04,0-.08-.01-.12-.01-.12,0-.25.03-.39.08-.14.05-.3.15-.49.28v-.03ZM68.11,126.95c.53.02.98.06,1.34.13.36.07.71.16,1.06.28.21.09.41.18.62.28.21.1.44.22.69.36.16.09.31.17.48.26.16.09.33.18.5.28.05.03.1.06.16.09.05.03.1.05.16.09.48.27.92.54,1.33.79.4.25.66.41.76.48l-1.88,1.98c-.22-.12-.44-.24-.64-.36-.21-.12-.41-.24-.62-.36-.07-.03-.15-.07-.23-.12-.09-.04-.16-.09-.23-.14-.16-.09-.32-.17-.49-.26s-.35-.17-.54-.26c-.36-.19-.69-.36-.98-.53-.29-.16-.58-.32-.88-.48-.36-.19-.73-.36-1.12-.52-.39-.15-.84-.27-1.35-.36-.07-.02-.14-.03-.22-.04s-.14-.01-.19-.01c-.12,0-.23,0-.32.03-.1.02-.19.04-.27.08-.02,0-.04,0-.08.03-.05,0-.09,0-.13.03-.03.02-.07.03-.1.03.02.03.03.09.05.16.02.07.03.14.05.21.02.12.04.26.06.43s.04.33.04.5c0,.26-.02.49-.05.71-.04.22-.09.43-.16.63-.05.17-.11.34-.17.52s-.13.35-.22.54c-.33.76-.75,1.41-1.27,1.97-.52.56-1.07.98-1.64,1.27-.29.16-.58.27-.88.36-.29.09-.57.13-.82.13-.19.02-.37,0-.55-.05-.18-.05-.34-.12-.48-.21-.17-.12-.3-.27-.39-.46s-.13-.4-.13-.62c0-.24.03-.49.1-.75.07-.26.16-.52.26-.8.1-.27.22-.54.36-.81.14-.27.27-.51.41-.73.22-.36.49-.71.8-1.04.31-.34.62-.64.93-.92.43-.38.84-.69,1.24-.95.39-.26.7-.42.9-.49-.04-.02-.06-.03-.09-.05s-.06-.04-.09-.05c-.05-.03-.11-.06-.18-.09-.07-.03-.16-.04-.28-.04h-.13c-.05,0-.1,0-.16.03-.34.07-.73.19-1.17.37s-.9.42-1.38.71c-.21.14-.42.28-.64.44-.22.16-.44.32-.64.49-.48.41-.93.81-1.34,1.2-.41.39-.79.77-1.13,1.15-.41.45-.8.9-1.16,1.36s-.71.94-1.06,1.44c-.26.36-.52.75-.79,1.16-.27.41-.54.84-.81,1.29-.29.46-.55.91-.77,1.33-.22.42-.41.84-.57,1.25-.22.6-.39,1.21-.51,1.83-.12.62-.18,1.29-.18,2.01,0,.79.12,1.45.37,1.97.25.52.69.84,1.33.94.08.02.17.03.27.04.09,0,.18.01.27.01.81,0,1.58-.25,2.31-.76.74-.51,1.39-1.14,1.96-1.89.02-.03.04-.07.06-.1.03-.03.05-.07.06-.1.21-.27.4-.58.58-.93s.35-.7.5-1.06c.16-.38.28-.75.39-1.12.1-.37.16-.7.16-.99,0-.27-.05-.5-.14-.68s-.26-.29-.5-.32h-.05s-.03,0-.03-.03h-.1c-.33,0-.6.11-.82.32-.22.22-.44.45-.65.71-.02,0-.03,0-.03.01,0,0,0,.01-.03.01-.02.03-.04.06-.05.09-.02.03-.03.05-.05.06-.1.12-.19.27-.27.44-.08.17-.14.35-.19.54-.1.33-.18.63-.23.9-.05.28-.09.42-.13.44-.14.05-.26.1-.37.16s-.21.09-.3.13c-.05.02-.09.04-.13.05-.03.02-.06.04-.08.05-.09.03-.16.07-.23.12s-.15.09-.23.14c-.05.04-.11.07-.17.12-.06.04-.13.09-.19.14-.05.04-.1.08-.15.13-.05.05-.1.09-.16.13-.21.19-.39.36-.55.5-.16.15-.27.2-.32.17-.02-.02-.03-.06-.04-.14-.01-.08-.01-.18-.01-.3,0-.27.03-.64.09-1.11.06-.46.17-.94.35-1.44.1-.32.23-.65.39-.96.16-.32.34-.61.57-.86.46-.57,1-1.01,1.6-1.34s1.22-.49,1.85-.49c.14,0,.26,0,.37.01s.23.03.35.06c.55.12.94.36,1.17.72.23.36.35.79.35,1.29,0,.38-.05.78-.16,1.21-.1.43-.25.86-.44,1.29-.17.43-.36.84-.58,1.25-.22.4-.43.78-.66,1.14-.79,1.22-1.72,2.21-2.79,2.97-1.07.76-2.22,1.15-3.44,1.15h-.27c-.1,0-.19-.01-.3-.03-1.18-.12-2.18-.44-3-.97s-1.22-1.53-1.22-3.02c0-.29.02-.6.05-.92.03-.32.09-.66.15-1.04.27-1.37.71-2.66,1.3-3.86.59-1.2,1.21-2.28,1.87-3.25.34-.51.69-.99,1.03-1.42.34-.43.66-.81.95-1.16.21-.24.43-.48.66-.72.23-.24.47-.48.71-.72,1.18-1.15,2.57-2.21,4.15-3.19,1.58-.98,3.24-1.53,4.99-1.65h.13c.22,0,.42.03.59.08.17.05.34.12.51.21.1.05.21.11.32.18.11.07.23.13.35.18.05.02.1.04.14.06.04.03.08.05.12.06.26-.12.5-.22.73-.31.23-.09.46-.16.68-.23.31-.09.63-.15.97-.18.34-.04.71-.05,1.12-.05v-.03ZM50.24,132.4s0,.17-.12.41c-.11.24-.25.5-.4.77-.02.04-.03.06-.05.09-.02.03-.04.06-.05.09-.14.24-.27.46-.39.66-.12.2-.2.3-.23.32-.02.02-.14.04-.36.06s-.46.04-.72.04h-.26c-.21,0-.39,0-.55-.03s-.26-.04-.3-.08c-.04-.05,0-.19.1-.41.1-.22.23-.47.39-.75.02-.05.04-.1.06-.14.03-.04.05-.09.09-.14.14-.22.26-.42.37-.59.11-.17.19-.26.25-.28.03-.02.15-.03.35-.05.2-.02.41-.03.66-.03h.08c.26,0,.5,0,.72.01.22,0,.34.03.36.06v-.03ZM73.77,135.6c-.27.45-.52.85-.75,1.22-.22.37-.43.74-.62,1.1-.14.26-.27.52-.41.78-.14.27-.27.55-.39.84-.09.21-.18.41-.27.62-.09.21-.18.43-.27.67.46-.31,1-.7,1.62-1.17s1.25-1.02,1.9-1.66c.1-.1.2-.21.3-.31s.19-.21.3-.31c.31-.33.58-.62.82-.89s.46-.52.67-.76c.09-.1.17-.2.24-.3.08-.09.16-.19.25-.3.17-.21.35-.43.53-.68s.37-.53.58-.84l.98-.18c-.21.34-.4.65-.59.93s-.38.54-.57.8c-.12.16-.24.31-.36.46-.12.16-.25.3-.39.44-.22.27-.46.55-.72.82s-.54.58-.85.9c-.33.34-.64.66-.94.95s-.59.56-.86.8c-.24.21-.48.41-.71.61-.23.2-.48.38-.74.55-.27.21-.56.41-.85.6-.29.2-.61.41-.95.63-.02,0-.09.14-.23.41-.14.27-.28.61-.44,1-.05.16-.11.31-.17.47-.06.15-.12.31-.17.46-.1.31-.18.6-.25.89-.06.28-.09.54-.09.76-.02.17,0,.32.05.44.05.12.14.2.26.23.03.02.06.03.09.03h.06c.16,0,.32-.05.49-.16s.34-.23.52-.39c.14-.12.27-.25.4-.39.13-.14.25-.28.37-.44.07-.09.14-.17.21-.25.07-.08.14-.16.21-.25.89-1.08,1.67-2.08,2.33-2.99.66-.91,1.29-1.67,1.89-2.29.16-.14.3-.27.44-.4.14-.13.28-.25.44-.35.14-.1.27-.19.39-.27s.24-.14.36-.19c.26-.14.52-.24.77-.3.26-.06.55-.09.88-.09.38,0,.66.04.86.1.2.07.35.15.45.23.07.05.13.1.17.16.04.05.08.09.12.13l.03.03s.01-.08.04-.13c.03-.05.06-.1.09-.16.02-.02.03-.04.04-.06,0-.03.02-.05.04-.06.02-.03.04-.07.06-.1.03-.04.05-.06.06-.08.03-.03.15-.06.35-.06.2,0,.42-.01.66-.01h.16c.29,0,.57,0,.82.03.26.02.39.04.41.08.04.04-.18.44-.66,1.22s-.98,1.65-1.53,2.61c-.05.07-.09.13-.13.19-.03.06-.07.13-.1.19-.51.89-.97,1.73-1.38,2.51-.4.78-.61,1.3-.61,1.56,0,.02,0,.04.01.06,0,.03.02.05.04.06.03.02.07.03.12.04.04,0,.08.01.12.01.17.02.37-.05.59-.21.22-.16.45-.35.7-.59.09-.09.17-.18.26-.28.08-.1.17-.21.26-.31.07-.1.14-.21.22-.33.08-.12.15-.24.22-.36.02-.04.04-.07.06-.1.03-.03.05-.08.06-.13.14-.24.28-.44.43-.61.14-.16.3-.22.45-.17.17.07.12.38-.17.94s-.69,1.17-1.22,1.84c-.29.38-.61.74-.97,1.1s-.71.66-1.07.94c-.29.21-.58.38-.86.52-.28.14-.56.21-.81.21-.47,0-.81-.09-1.03-.27-.22-.18-.39-.39-.49-.63-.05-.16-.09-.3-.12-.44-.03-.14-.05-.24-.06-.31,0-.02,0-.03-.01-.04,0,0-.01-.02-.01-.04,0,.05-.06.16-.18.31-.12.16-.28.33-.49.52-.24.22-.54.43-.89.62s-.72.28-1.12.28c-.62,0-1.05-.15-1.3-.45-.25-.3-.39-.63-.43-.99-.02-.03-.03-.07-.03-.12v-.14c0-.17.01-.34.04-.5s.05-.31.06-.43c.02-.09.03-.16.05-.22.02-.06.04-.1.05-.12,0,.07-.13.25-.37.54-.25.29-.55.6-.91.93-.12.1-.25.21-.39.33-.14.12-.27.23-.41.34-.29.24-.58.44-.85.59-.27.15-.52.23-.72.23-.48,0-.88-.18-1.18-.54-.31-.36-.46-.77-.46-1.24,0-.22.03-.52.09-.89.06-.37.13-.75.22-1.14.03-.19.07-.37.1-.54.04-.17.08-.34.13-.49.09-.36.17-.67.26-.94s.15-.42.21-.45l-1,.15c-.05.14-.19.4-.41.77s-.48.78-.77,1.21c-.09.14-.18.27-.27.4s-.19.25-.3.37c-.02.04-.04.07-.06.1-.03.04-.05.07-.09.1-.65.81-1.34,1.52-2.06,2.12-.72.61-1.49.94-2.32.99h-.13c-.1,0-.21,0-.31-.03-.1-.02-.21-.04-.31-.05-.34-.1-.66-.29-.95-.55-.29-.27-.46-.65-.51-1.15v-.18s-.03-.06-.03-.09v-.09c0-.63.13-1.29.4-1.98.27-.69.71-1.5,1.33-2.44.29-.45.59-.85.9-1.22.31-.37.62-.71.93-1.02.79-.76,1.55-1.31,2.29-1.67.74-.36,1.34-.53,1.8-.52.5.02.92.16,1.27.44s.54.73.58,1.36v.1c0,.1-.01.21-.03.33-.02.12-.03.24-.05.36-.04.16-.07.31-.12.47-.04.15-.09.29-.14.41-.07.17-.13.32-.18.44-.05.12-.09.2-.13.23l.88-.21c.17-.45.33-.84.46-1.2.14-.35.27-.67.41-.97.07-.17.14-.33.22-.48.08-.15.15-.3.22-.45.17-.31.36-.63.55-.98s.43-.73.68-1.16c.27-.45.58-.91.93-1.4.34-.49.71-.98,1.11-1.48.31-.38.62-.76.94-1.15.32-.39.65-.76.99-1.12.63-.7,1.27-1.35,1.89-1.93.63-.58,1.17-1.03,1.64-1.34.69-.45,1.24-.75,1.66-.9.42-.16.79-.23,1.12-.23.14,0,.27,0,.39.01s.24.03.36.06c.24.03.43.14.55.31.13.17.2.38.22.62v.16c0,.1-.01.21-.03.31-.02.1-.03.22-.05.34-.04.14-.08.28-.13.43-.05.15-.1.28-.15.4-.07.14-.13.25-.18.34-.05.09-.1.14-.13.16l-.93.23s.08-.09.14-.18c.06-.08.12-.19.17-.31.05-.1.1-.21.16-.32.05-.11.09-.22.13-.32.05-.12.09-.24.12-.36.03-.12.04-.23.04-.34,0-.14-.02-.25-.06-.35-.04-.09-.12-.16-.24-.19-.02,0-.04,0-.08-.03h-.1c-.48-.02-1.15.38-2.01,1.18-.86.81-1.76,1.81-2.7,3.01-.41.53-.82,1.09-1.22,1.66-.4.58-.79,1.16-1.17,1.76v-.03ZM63.96,129c-.21.09-.45.21-.75.37s-.59.36-.9.61c-.27.21-.54.44-.81.71s-.5.55-.71.86c-.05.07-.1.14-.14.22-.04.08-.09.15-.14.22-.09.14-.17.27-.25.41s-.16.28-.25.44c-.15.29-.29.58-.4.88-.11.29-.17.55-.17.77,0,.1.02.2.05.28.03.09.09.16.15.23.09.07.17.12.25.14.08.03.17.04.27.04.17,0,.36-.04.57-.12.21-.08.41-.18.62-.32.27-.19.55-.41.83-.68.27-.27.51-.54.72-.81.03-.05.07-.1.1-.15.03-.05.07-.1.1-.16.39-.65.65-1.21.77-1.69.12-.47.18-.88.18-1.22,0-.19-.01-.37-.03-.54-.02-.17-.04-.32-.08-.46v-.03ZM61.98,143.68c-.02.05-.04.1-.06.16-.03.05-.05.09-.06.13-.05.14-.11.27-.17.41s-.12.27-.17.41c-.1.24-.18.48-.25.71-.06.23-.09.43-.09.61,0,.12.02.22.06.31s.1.14.17.18c.05.02.1.03.16.05.05.02.11.03.18.03.21,0,.43-.05.67-.16s.49-.24.75-.41c.19-.14.37-.29.54-.45.17-.16.33-.35.49-.55.07-.09.17-.22.3-.4.13-.18.26-.37.4-.58.02-.03.04-.07.06-.1.03-.03.05-.07.06-.1.14-.22.27-.44.39-.66.12-.21.2-.37.23-.48-.17-.02-.33-.04-.46-.06-.14-.03-.27-.07-.39-.14-.07-.02-.13-.05-.19-.09-.06-.04-.13-.08-.19-.12-.24-.15-.43-.32-.58-.49-.15-.17-.28-.39-.4-.64-.14.15-.26.31-.36.46-.1.16-.2.3-.28.44-.07.12-.13.23-.18.34-.05.1-.1.21-.16.31-.09.16-.16.31-.23.45-.07.15-.15.31-.23.48v-.03ZM65.95,142.08s.07-.03.1-.08c.03-.05.07-.1.1-.15.09-.16.17-.34.25-.57.08-.22.14-.45.19-.67.02-.1.03-.21.04-.31,0-.1.01-.21.01-.31v-.08c-.02-.26-.06-.45-.14-.57s-.17-.21-.27-.26c-.04-.02-.07-.03-.1-.04-.04,0-.07-.01-.1-.01h-.1c-.09,0-.18.01-.27.04-.09.03-.19.05-.3.09-.19.09-.37.21-.55.36-.18.15-.33.31-.45.46-.09.1-.16.21-.21.31-.05.1-.09.2-.1.28v.03c0,.09.03.19.09.31.06.12.14.24.25.36.16.21.35.39.58.56.23.16.47.26.71.3h.13s.03,0,.05-.03h.1v-.03ZM79.23,139.3c-.05.05-.1.09-.14.13-.04.03-.09.07-.14.1-.26.21-.55.5-.88.88-.32.38-.81,1-1.44,1.85-.14.21-.27.42-.4.63-.13.22-.25.43-.37.63-.24.48-.43.95-.58,1.4s-.22.83-.22,1.12c0,.12.01.22.04.31s.06.15.12.18c.04.02.06.04.09.05.03.02.06.03.09.03.02.02.04.03.08.03h.08c.22.02.44-.08.66-.28.22-.21.41-.43.58-.67.05-.05.09-.11.13-.17.04-.06.07-.12.1-.17.65-1.03,1.26-2.01,1.82-2.95.56-.94,1.1-1.84,1.63-2.72.05-.08.09-.16.1-.22s.04-.11.05-.14c0-.07-.02-.12-.06-.17-.04-.04-.09-.08-.14-.12-.02,0-.03,0-.04-.01s-.02-.01-.04-.01c-.04-.02-.07-.03-.12-.04-.04,0-.08-.01-.12-.01-.12,0-.25.03-.39.08-.14.05-.3.15-.49.28v-.03ZM82.11,130.19c.34-.12.66-.25.95-.39s.57-.27.82-.41c1.03-.6,1.73-1.15,2.09-1.65s.65-.73.87-.7c.02.02.04.03.05.03.21.09.12.42-.26,1.01-.38.58-.93,1.22-1.65,1.9-.46.43-.97.85-1.53,1.26-.56.41-1.15.76-1.76,1.03-.4.19-.77.35-1.12.49-.35.14-.7.25-1.04.34-.29.07-.59.12-.9.17-.31.04-.64.06-.98.06-.24,0-.5,0-.79-.03s-.58-.05-.89-.1l1.65-2.19c.48.02.92.01,1.33-.03.4-.03.79-.09,1.17-.18.31-.05.62-.13.94-.23.32-.1.66-.22,1.04-.36v-.03Z"/>
</svg>