<?xml version="1.0" encoding="UTF-8"?>
<svg xmlns="http://www.w3.org/2000/svg" xmlns:xlink="http://www.w3.org/1999/xlink" viewBox="0 0 100 300">
  <defs>
    <style>
      .cls-1, .cls-2, .cls-3 {
        fill: none;
      }

      .cls-4 {
        fill: #916c7c;
      }

      .cls-5 {
        fill: #d14a4a;
      }

      .cls-6 {
        opacity: .3;
      }

      .cls-6, .cls-7, .cls-8, .cls-9 {
        mix-blend-mode: multiply;
      }

      .cls-6, .cls-10 {
        fill: #ffb495;
      }

      .cls-11 {
        fill: #832621;
      }

      .cls-2 {
        stroke: #bac2ce;
        stroke-width: 1.32px;
      }

      .cls-2, .cls-3 {
        stroke-linecap: round;
        stroke-linejoin: round;
      }

      .cls-12 {
        fill: #421323;
      }

      .cls-7, .cls-9 {
        opacity: .5;
      }

      .cls-13 {
        fill: url(#linear-gradient-3);
      }

      .cls-14 {
        fill: url(#linear-gradient-2);
      }

      .cls-15, .cls-9 {
        fill: #efc99a;
      }

      .cls-16 {
        fill: #6c3b4f;
      }

      .cls-17 {
        fill: url(#linear-gradient);
      }

      .cls-18 {
        fill: #c8e6e7;
      }

      .cls-19 {
        opacity: .55;
      }

      .cls-19, .cls-20 {
        fill: #fff;
      }

      .cls-21 {
        fill: #b32226;
      }

      .cls-22 {
        fill: #cb2128;
      }

      .cls-23 {
        isolation: isolate;
      }

      .cls-24 {
        fill: #361620;
      }

      .cls-3 {
        stroke: #3f0f1b;
        stroke-width: .9px;
      }

      .cls-25 {
        fill: #e63f4b;
      }

      .cls-26 {
        fill: #541b31;
      }

      .cls-27 {
        fill: #bac2ce;
      }

      .cls-28 {
        fill: #e02228;
      }

      .cls-29 {
        fill: #fc9e81;
      }

      .cls-30 {
        fill: #e7626c;
      }

      .cls-31 {
        fill: #5b2b0a;
      }

      .cls-32 {
        fill: #10171c;
      }

      .cls-33 {
        fill: #3f0f1b;
      }

      .cls-34 {
        fill: #183145;
      }

      .cls-35 {
        fill: #826e51;
      }

      .cls-36 {
        fill: #e7565f;
      }

      .cls-37 {
        fill: #f5c4b3;
      }

      .cls-38 {
        fill: #594934;
      }

      .cls-39 {
        fill: #fcc5a7;
      }

      .cls-40 {
        fill: #8a6373;
      }

      .cls-41 {
        fill: #fcd2a4;
      }

      .cls-42 {
        fill: #7a3d14;
      }

      .cls-43 {
        fill: #a4bdbf;
      }

      .cls-44 {
        clip-path: url(#clippath);
      }

      .cls-45 {
        fill: #d5e9ed;
      }
    </style>
    <linearGradient id="linear-gradient" x1="27.1" y1="42.42" x2="32.71" y2="42.42" gradientUnits="userSpaceOnUse">
      <stop offset="0" stop-color="#ffaa8b" stop-opacity="0"/>
      <stop offset="1" stop-color="#ffaa8b"/>
    </linearGradient>
    <linearGradient id="linear-gradient-2" x1="62.02" y1="42.45" x2="67.62" y2="42.45" gradientUnits="userSpaceOnUse">
      <stop offset="0" stop-color="#ffaa8b"/>
      <stop offset="1" stop-color="#ffaa8b" stop-opacity="0"/>
    </linearGradient>
    <linearGradient id="linear-gradient-3" x1="52.42" y1="46.83" x2="52.42" y2="38.05" gradientUnits="userSpaceOnUse">
      <stop offset="0" stop-color="#ffaa8b" stop-opacity=".7"/>
      <stop offset=".1" stop-color="#ffaa8b" stop-opacity=".58"/>
      <stop offset=".29" stop-color="#ffaa8b" stop-opacity=".38"/>
      <stop offset=".47" stop-color="#ffaa8b" stop-opacity=".21"/>
      <stop offset=".63" stop-color="#ffaa8b" stop-opacity=".1"/>
      <stop offset=".77" stop-color="#ffaa8b" stop-opacity=".03"/>
      <stop offset=".87" stop-color="#ffaa8b" stop-opacity="0"/>
    </linearGradient>
    <clipPath id="clippath">
      <path class="cls-1" d="M58.22,50.3c-.22-.24-2.91-.33-6.38-.28-3.47.05-6.15.23-6.37.47-.24.16,1.37,5.61,6.46,5.53,5.09-.08,6.53-5.57,6.28-5.73Z"/>
    </clipPath>
  </defs>
  <g class="cls-23">
    <g id="Layer_1" data-name="Layer 1">
      <g>
        <path class="cls-39" d="M30.49,271.13s-1,10.11-.46,11.57c.19.5,5.8,3.38,5.8,3.38l.04,5.81-10.98-2.06-3.46-1.48-.22-1.55s.74-3.06.61-4.37c-.13-1.31-.86-11.32-.86-11.32"/>
        <path class="cls-27" d="M21.65,285.98c-.93.16-.56,1.82-.95,4.49-.16,1.11-.11,3.59.14,4.69,1.8,1.61,6.59.64,7.36.61,4.6-.16,9.74,1.16,15.26.41,1.08-.15,3.19-.27,3.69-2.3.06-.26,0-1.65,0-1.65,0,0-10.61-4.65-13.85-6.44-.65-.36-1.23-1.26-1.71-1.26s-.96,1.32-1.37,1.6c-2.01,1.4-5.17,1.31-7.09.89-.83-.19-1.2-1.09-1.48-1.04Z"/>
        <path class="cls-32" d="M21.65,284.68c-.93.16-.56,1.82-.95,4.49-.16,1.11-.31,3.59-.07,4.69,1.8,1.61,6.8.64,7.56.61,4.6-.16,9.87.88,15.26.41,1.13-.1,3.19-.62,3.69-2.66.42-1.74-10.04-5.63-13.85-7.74-.65-.36-1.23-1.26-1.71-1.26s-.96,1.32-1.37,1.6c-2.01,1.4-5.17,1.31-7.09.89-.83-.19-1.2-1.09-1.48-1.04Z"/>
        <g>
          <path class="cls-2" d="M38.62,286.79c-.51.2-.95.56-1.3.99-.35.42-.63.9-.9,1.38"/>
          <path class="cls-2" d="M36.23,285.53c-.94.06-2.28,1.65-2.39,2.9"/>
          <path class="cls-2" d="M34.07,284.6c-.64.22-1.17.68-1.54,1.24-.37.56-.58,1.21-.71,1.87"/>
        </g>
        <path class="cls-2" d="M31.59,283.24s-.96,1.32-1.37,1.6c-2.01,1.4-5.17,1.31-7.09.89-.83-.19-1.2-1.09-1.48-1.04"/>
      </g>
      <g>
        <path class="cls-39" d="M73.32,271.13s-1,10.11-.46,11.57c.19.5,5.8,3.38,5.8,3.38l.04,5.81-10.98-2.06-3.46-1.48-.22-1.55s.74-3.06.61-4.37c-.13-1.31-.86-11.32-.86-11.32"/>
        <path class="cls-27" d="M64.47,285.98c-.93.16-.56,1.82-.95,4.49-.16,1.11-.11,3.59.14,4.69,1.8,1.61,6.59.64,7.36.61,4.6-.16,9.74,1.16,15.26.41,1.08-.15,3.19-.27,3.69-2.3.06-.26,0-1.65,0-1.65,0,0-10.61-4.65-13.85-6.44-.65-.36-1.23-1.26-1.71-1.26s-.96,1.32-1.37,1.6c-2.01,1.4-5.17,1.31-7.09.89-.83-.19-1.2-1.09-1.48-1.04Z"/>
        <path class="cls-32" d="M64.47,284.68c-.93.16-.56,1.82-.95,4.49-.16,1.11-.31,3.59-.07,4.69,1.8,1.61,6.8.64,7.56.61,4.6-.16,9.87.88,15.26.41,1.13-.1,3.19-.62,3.69-2.66.42-1.74-10.04-5.63-13.85-7.74-.65-.36-1.23-1.26-1.71-1.26s-.96,1.32-1.37,1.6c-2.01,1.4-5.17,1.31-7.09.89-.83-.19-1.2-1.09-1.48-1.04Z"/>
        <g>
          <path class="cls-2" d="M81.44,286.79c-.51.2-.95.56-1.3.99-.35.42-.63.9-.9,1.38"/>
          <path class="cls-2" d="M79.05,285.53c-.94.06-2.28,1.65-2.39,2.9"/>
          <path class="cls-2" d="M76.89,284.6c-.64.22-1.17.68-1.54,1.24-.37.56-.58,1.21-.71,1.87"/>
        </g>
        <path class="cls-2" d="M74.41,283.24s-.96,1.32-1.37,1.6c-2.01,1.4-5.17,1.31-7.09.89-.83-.19-1.2-1.09-1.48-1.04"/>
      </g>
      <path class="cls-15" d="M73.81,280.46h-9.81s-11.24-44.71-9.49-64.24c0,0-2.58-10.43-5.43-22.84-.36-1.6-.74-3.25-1.11-4.9-2.52-11.24-5.02-23.17-5.91-30.1-.79-6.05-.45-10.42.26-13.5.42-1.82.98-3.2,1.5-4.2.17-.3.32-.58.48-.83.72-1.14,1.3-1.58,1.3-1.58h21.64s.31,1.08.82,3.21c.17.71.36,1.55.57,2.51,2.27,10.49,6.44,35.13,5.67,71.72,0,0,1.76,43.52-.47,64.77Z"/>
      <path class="cls-9" d="M67.23,280.46l-2.23.62c-.02-.2-.05-.4-.07-.62h-.93s-11.24-44.71-9.49-64.24c0,0-2.58-10.43-5.43-22.84-.81,2.94-1.67,5.97-2.55,8.92-.49-5.49-.91-10.16-.91-10.16l2.35-3.65,6.32-15.32s3.42,38.13,3.99,41.6c.57,3.48-.37,24.05,2.39,36.06,1.64,7.13,3.63,16.23,4.99,22.45.94,4.27,1.57,7.19,1.57,7.19Z"/>
      <g>
        <path class="cls-29" d="M79.88,168.06s1.16,2.23,1.21,2.97c.05.74.02,2.98-.26,3.59-.27.61-2.01,2.97-2.17,3.39-.16.42-.23,1.37.1,1.44.49.11,3.19-2.9,3.19-2.9l1.9-4.89s-.5-2.91-.58-3.09c-.09-.18-1.73-2.41-1.73-2.41"/>
        <path class="cls-37" d="M84.11,164.18c.93,3.09,1.94,7.33,1.81,8.63s-1.9,5.72-1.9,5.72c0,0-3.57,3.4-4.06,3.51-.49.11-.72-1.13-.13-1.96.59-.83,2.26-2.66,2.4-3.14.15-.48.24-3.85.18-4.46-.06-.61-1.64-2.79-2.53-2.66-.89.13-1.28,1.77-1.23,2.41.04.64-.07,2.16-.35,2.68-.29.52-1.09.79-1.44.42-.35-.37-.84-3.92-.89-4.64-.05-.71,1.48-5.31,1.59-6.32.11-1.01-1.68-9.27-1.68-9.27l7.08-1.24s.24,7.23,1.17,10.32Z"/>
        <path class="cls-37" d="M66.06,77.07s4.02-5.21,5.93,1.47c1.78,6.22,6.89,28.44,9.89,41.33.43,1.86.7,3.74.81,5.64.36,6.51,1.1,22.68.46,36.14-3.3.68-5.93.41-5.93.41,0,0-5.09-27-5.81-37.52,0,0-9.48-24.99-10.4-38.32-.46-6.67,5.05-9.15,5.05-9.15Z"/>
      </g>
      <path class="cls-10" d="M54.76,66.31s-.7-6.64-.02-8.97c.68-2.32-14.61-3.04-14.61-3.04,0,0,1,7.52,0,12.01,0,0-2.31,1.11-5.43,1.89,0,0,14.09,9.49,17.72,12.28,0,0,4.66-10.38,7.78-12.42,0,0-3.37-1.14-5.44-1.75Z"/>
      <path class="cls-15" d="M61.41,141.71l-.12,3.6v.38s-.53,15.71-.53,15.71c-.1,3.38-1.58,6.62-4.16,9.18l-1.24,1.23s-1,4.22-2.53,10.3c-.85,3.33-1.87,7.22-3,11.27-.81,2.94-1.67,5.97-2.55,8.92-.65,2.15-1.3,4.28-1.96,6.3-2.12,6.48-3.71,13.09-4.77,19.76-2.49,15.68-6.83,42.89-8.54,52.11h-10.17s-6.33-35.28,2.3-64.17c0,0,2.85-31.41-.06-47.14-2.35-12.73.2-21.69,2.41-26.57.45-.99.87-1.8,1.25-2.46.71-1.23,1.21-1.86,1.21-1.86l16.09,1.58,8.46.84,2.94.38,4.55.59.42.06Z"/>
      <path class="cls-42" d="M25.74,142.58s28.4,5.54,42.88,1.39c0,0,.17-.82.07-1.46-.22-1.41-.85-1.89-.85-1.89l-41.04-.5s-1.09.56-1.07,2.46Z"/>
      <polygon class="cls-34" points="32.39 140.6 31.69 144.01 33.42 144.23 34.15 140.8 32.39 140.6"/>
      <polygon class="cls-15" points="46.35 141.99 46.06 145.45 47.8 145.51 48.12 142.04 46.35 141.99"/>
      <polygon class="cls-15" points="65.36 141.42 65.65 144.87 67.38 144.65 67.12 141.17 65.36 141.42"/>
      <path class="cls-31" d="M54.58,141.91l.43,3.96c.04.35.39.62.8.61,1.2-.02,3.65-.11,5.56-.45.38-.07.64-.38.6-.71-.09-.96-.3-2.91-.5-4.01-.28-1.5-6.9.6-6.9.6Z"/>
      <rect class="cls-41" x="20.02" y="277.57" width="12.41" height="3.42" rx=".86" ry=".86" transform="translate(52.45 558.55) rotate(180)"/>
      <rect class="cls-41" x="62.62" y="277.57" width="12.41" height="3.42" rx=".86" ry=".86" transform="translate(137.65 558.55) rotate(180)"/>
      <path class="cls-6" d="M40.49,58.47s3.6,3.26,7.88,4.4c2.89.77,6-1.19,6.24-4.17.01-.15-.15-.23-.15-.23h-13.97Z"/>
      <g>
        <path class="cls-37" d="M31.87,38.29c-.92-.46-2.16-.77-3.13-.28-1.94.98-1.86,3.94-1.3,5.7.48,1.5,3.97,4.95,5.26,2.54"/>
        <path class="cls-17" d="M32.71,46.25c-1.29,2.41-4.78-1.04-5.26-2.54-.54-1.67-.64-4.43,1.02-5.53.09-.06.18-.12.28-.16.97-.49,2.2-.18,3.13.28v.08s.84,7.87.84,7.87Z"/>
      </g>
      <g>
        <path class="cls-37" d="M67.27,43.73c-.48,1.5-3.97,4.95-5.26,2.54l.84-7.95s.01,0,.02,0c.8-.4,1.83-.68,2.72-.43.13.04.27.09.39.15,1.94.97,1.86,3.94,1.3,5.7Z"/>
        <path class="cls-14" d="M67.27,43.73c-.48,1.5-3.97,4.95-5.26,2.54l.84-7.95s.01,0,.02,0c.8-.4,1.83-.68,2.72-.43.13.04.27.09.39.15,1.94.97,1.86,3.94,1.3,5.7Z"/>
      </g>
      <path class="cls-37" d="M31.01,34.12s1,13.19,1.7,16.07c1.16,4.77,4.95,10.89,14.37,11.85,3.79.38,7.65-.25,10.94-2.17,5.87-3.42,5.27-7.6,5.71-12.97,1.14-14.05,1.27-16.91,1.27-16.91l-3.68-7.13-2.74-3.85-9.93-1.01-8.62.1-5.68.61-1.11,3.55-2.23,11.86Z"/>
      <path class="cls-35" d="M65.98,38.04c-.88-.25-.8-.1-1.59.29l-.03-7.83c-1.6-4.87-4.89-7.97-4.89-7.97.92-.8,1.57-.84,2.17-1.9.87-1.54,1.21-3.44,1.34-5.17,1.56,1.43,2.67,3.19,3.22,4.48.39.89.59,1.84.63,2.81.12,3.7-.12,12.63-.84,15.28Z"/>
      <path class="cls-35" d="M63.19,15.67c-.13,1.73-.69,3.44-1.56,4.97-.6,1.06-2.63,2.52-2.88,2.49-.61-.09-1.86-.26-3.63-.51-.25-.03-.51-.07-.78-.11-2.61-.36-6.15-.83-10.34-1.36-.52.57-.96.1-1.44.55l1.17.14c-.55-1.37-1.6-.28-1.66-.07-1,3.51-4.87,6.05-8.3,7.44-.24,2.31-2.08,7.94-2.16,9v-.08c-.93-.46-2.17-.77-3.14-.28-.1.05-.19.1-.28.16-.28-1.91-1.79-13.29-1.65-13.95.15-.73,1.12-2.76,3.38-5.62-1.33.61-1.64.29-1.64.29,0,0,.68-.33,2.93-3.03,2.25-2.7,5.59-4.99,10.08-5.68,1.16-.18,2.72-.11,4.44.12,4.94.65,11.27,2.55,13.9,3.31,1.19.34,2.36,1.13,3.45,2.12.03.03.06.05.1.09Z"/>
      <path class="cls-35" d="M31.61,38.22c0,.07-.1.18-.1.18-1.47-1.12-3.27-.08-3.27-.08,0,0-.02-.11-.05-.3.09-.06.18-.12.28-.16.97-.49,2.2-.18,3.13.28v.08Z"/>
      <path class="cls-35" d="M42.2,17.51c-1.51,4.6,2.38,8.64,6.9,8.68,2.95.03,6.02-.92,8.48-2.53,5.13-3.34,6.29-10.77,2.99-15.82-.48-.73-1.1-1.37-1.75-1.96.08,1.32.18,2.16-.46,3.43.03-.96-.67-3.72-1.77-4.72-.66,2-2.94,5-6.83,6.3.63-.76.39-2.42.06-3.36-.1.93-4.57,3.76-5.78,4.36,0,0-1.85,5.61-1.85,5.62Z"/>
      <path class="cls-38" d="M62.35,12.12c.38,1.7.33,3.49-.06,5.21-.27,1.18-.73,2.33-1.39,3.37h0c-.3.47-.63.92-1.01,1.34-1.19,1.33-2.71,2.34-4.35,2.98-.82.34-1.66.57-2.51.77-.43.08-.86.14-1.29.22-.43.05-.86.09-1.29.12.42-.1.84-.2,1.26-.29.42-.12.83-.23,1.24-.36.82-.26,1.63-.54,2.4-.91,1.54-.72,2.96-1.69,4.07-2.96.31-.33.58-.69.84-1.06.7-1.01,1.21-2.15,1.56-3.34.25-.81.4-1.65.48-2.51.06-.48.09-.97.09-1.45,0-.37-.01-.75-.04-1.13Z"/>
      <path class="cls-38" d="M58.17,15.74c-.06,1.27-.34,2.53-.78,3.73-.44,1.2-1.07,2.34-1.87,3.36-.79,1.03-1.84,1.85-2.98,2.45-1.13.65-2.44.85-3.69.95.3-.1.61-.19.91-.27.3-.08.6-.16.88-.31l.86-.36.8-.46c1.03-.65,1.99-1.44,2.73-2.42.77-.95,1.39-2.02,1.91-3.15.51-1.13.94-2.31,1.25-3.54Z"/>
      <path class="cls-38" d="M42.85,17.69c-.36,1.19-.51,2.37-.27,3.5.12.56.29,1.12.57,1.64.11.27.3.51.44.78.16.26.35.5.51.77-.26-.17-.52-.36-.75-.57-.21-.23-.46-.44-.63-.72-.4-.51-.63-1.14-.77-1.77-.13-.64-.11-1.31.05-1.94.15-.62.43-1.22.85-1.69Z"/>
      <path class="cls-13" d="M53.08,38.32h-1.29c.15,2.96.66,5.74.31,7.02-.15.54-1.94.79-1.68.95.8.53,1.51.53,2.01.53s1.51-.04,1.96-.97c.45-.93-1.3-2.16-1.3-7.54Z"/>
      <path class="cls-35" d="M34.25,25.21c-.6,7.3-2.64,13.01-2.64,13.01l-1.98-4.97.8-9.18s3.89.15,3.81,1.14Z"/>
      <path class="cls-37" d="M26.91,111.68c0-.06,0-.11,0-.17-5.72.19-9.83-.98-12.44-2.14,1.96-12.17,4.24-26.06,5.26-30.81,1.44-6.79,5.81-1.88,5.81-1.88,0,0,5.66,2.1,5.67,8.79,0,7.16-2.23,17.85-4.3,26.21Z"/>
      <path class="cls-32" d="M79.67,106.27c0-.06-2.83-26.58-11.02-34.81-.71-.71-1.66-1.16-2.57-1.62-.91-.47-1.85-.87-2.76-1.21-3.3-1.22-6.29-1.66-6.29-1.66-.48,2.51-2.52,5.45-6.35,5.45-8.12,0-12.56-5.28-12.56-5.28,0,0-17.06.96-20.71,14.5-3.83,14.22-6.41,25.68-6.41,25.68,0,0,1.13,1.02,3.48,2.06,2.19.97,5.44,1.95,9.8,2.13h0c.29,0,.59.02.9.02-.02,0-.04,0-.04,0-.28,4.49-.55,17.59-.67,21.03-.09,2.73-1.14,6.47,4.58,7.79.14.03.28.06.44.09.3.07.62.11.94.16.41.06.86.12,1.35.2.32.05.65.1,1.02.16,0,0,.02,0,.03,0,.34.06.7.11,1.07.17.64.1,1.31.21,2.01.32.35.06.71.11,1.08.17,1.56.24,3.25.48,5.05.69.32.04.65.08.99.11.98.1,1.97.21,3.01.29.05,0,.09,0,.14,0,1.05.09,2.14.15,3.23.21,3.62.15,7.43.09,11.21-.39.58-.07,1.15-.15,1.72-.25.37-.06.73-.12,1.1-.19.02,0,.03,0,.05,0,.8-.14,1.58-.31,2.37-.5,1.12-.29,4.05-1.77,3.85-4.56-.1-1.58-.21-3.11-.3-4.57-.73-11.09-1.02-18.65-1.23-21.15,6.81-.89,8.77-1.95,11.49-5.05ZM26.25,111.52c.22,0,.45,0,.67,0,0,.03-.31.02-.67,0Z"/>
      <g class="cls-7">
        <path d="M34.15,93.58c.09,5.67-.29,11.33-.86,16.96-2.61.62-5.25,1.01-7.93,1.01-.86,0-1.72-.04-2.57-.14,1.71-.03,3.4-.19,5.08-.48,1.67-.26,3.34-.63,4.95-1.1l-.29.35c.27-5.56.71-11.11,1.62-16.61h0Z"/>
      </g>
      <path class="cls-7" d="M79.44,106.51c-2.72,3.09-4.45,3.92-11.26,4.81l-1.42-14.07s1.35,9.96,4.35,11.15c2.93,1.16,8.08-1.74,8.34-1.89Z"/>
      <path class="cls-7" d="M63.49,142.12s-.03,0-.05,0c-.29.09-.69.14-1.1.19-.63.07-1.3.11-1.72.25-3.78.47-7.58.54-11.21.39-1.09-.06-2.17-.12-3.23-.21-.05,0-.09,0-.14,0-1.03-.09-2.03-.19-3.01-.29-.33-.04-.66-.08-.99-.11-1.8-.21-3.49-.46-5.05-.69-.37-.06-.73-.11-1.08-.17-.7-.11-1.38-.22-2.01-.32-.38-.06-.73-.11-1.07-.17,0,0-.02,0-.03,0-.36-.06-.69-.11-1.02-.16-.48-.08-.94-.14-1.35-.2-.32-.05-.64-.09-.94-.16-.15-.03-.29-.06-.44-.09-5.72-1.32-4.67-5.06-4.58-7.79.12-3.44.4-16.54.67-21.03,0,0,.02,0,.04,0-.31,0-.61,0-.9-.02.36-.05,8.08-1.02,8.63-1.28,0,0-3.81,20.17-3.81,23.85s13.51,9.47,34.38,8.05Z"/>
      <g class="cls-8">
        <path class="cls-15" d="M64.35,144.87c1.72,2.62,2.94,6.02,5.87,7.48-.84-.08-1.57-.6-2.16-1.16-1.76-1.74-2.94-3.99-3.71-6.32h0Z"/>
      </g>
      <g class="cls-8">
        <path class="cls-15" d="M54.29,173.16c.8-2.43,2.1-4.66,2.61-7.17.52-2.15.99-5.32,1.38-7.53-.13,3.2-.45,6.44-1.46,9.51-.73,1.79-1.63,3.49-2.53,5.2h0Z"/>
      </g>
      <g>
        <path class="cls-12" d="M73.43,129.82c-.28.59-.33,1.19-.45,1.81-.02.08-.13.17-.14.23-.23-.17-.24.15-.33.19-.05.02-.29-.08-.34-.04-.11.09-.18.68.04.57.03-.01.03-.18.08-.21.07-.04.29.15.26-.23l.33.12c-.43,2.09-.88,3.88-1.81,5.81-.7,1.45-2.68,3.76-.42,4.82,1.02.48,2.16.34,2.77-.67,1.2-3.35,2.35-6.72,3.56-10.07.15-.13.29-.51.26-.72.01-.04.02-.08.04-.11.11,0,.22.02.32.05.77.23,1.83.59,2.53.96.15.08.17,0,.08.21-.59.21-1.18.64-1.79.84-.09.06.1.44.17.4.09-.06-.05-.35.36-.12,0-.43.38.09.32-.38.23.21.22.05.39-.02.07-.03.16-.01.19-.03-.1.23-.21.5-.33.71-.45.8-.97,1.58-1.39,2.4-.14.28-.81,1.63-.72,1.83l-2.34,1.15c-.05.1.11.36.24.36.03-.25.17-.1.22-.12.05-.02.05-.16.11-.2.07-.05.19.03.26.01.04,0,.72-.33.75-.36.05-.04.33-.4.36-.42.09-.05.12.12.13.17.06.49-.15.78-.23,1.19-.17.89-.29,2.5-.66,3.26-.24.49-.94.87-1.45,1.02-.14.04-.32.02-.49.07-.2,0-.12-.16-.13-.17-.09-.11-.13.04-.16.04-.34.08-.26.14-.37.19-.05.02-.14-.05-.16-.04-.02-.14-.17-.1-.26-.1-.68-.04-2.05-.52-2.69-.82-.29-.13-.47-.37-.71-.49-.2-.1-.44-.14-.64-.25-.19-.1-.36-.35-.55-.43s-.08.26-.24.23c.08-.34.15-.67.23-1.01.03-.13.11-.17-.08-.12.01-.04.03-.07.04-.11.03,0,.05-.02.08-.04.16-.1.36-.79.35-1,0-.04.02-.09-.02-.13.4-.89,1.12-1.82,1.58-2.73.23-.44.4-.92.62-1.37,0,0,.03.08.01.15-.04.16-.13.31-.17.48l.05.02.47-1.33-.06-.02c.01.16-.16.3-.19.37.13-.58.3-1.16.42-1.75.2-.96.24-2.53.51-3.36,0,0,.08-.04.11-.11.1-.29.2-.58.3-.86l.78.27ZM70.8,137.25c-.03-.05.24-.43.12-.52l-.5,1.07c.13,0,.3-.42.35-.43s.16.06.22.07c.12-.18-.16-.14-.18-.19Z"/>
        <path class="cls-16" d="M82.33,132.9c-.46-.05-.91-.26-1.35-.42-.07-.03-.15-.05-.22-.08-1.14-.4-2.27-.81-3.41-1.21-.06-.03-.05.06-.07.1-.02.03-.02.08-.04.11-.1.23-.17.48-.26.72-1.21,3.35-2.36,6.72-3.56,10.07-.6,1.01-1.75,1.15-2.77.67-2.27-1.06-.28-3.37.42-4.82.94-1.94,1.38-3.72,1.81-5.81.02-.11-.05-.37-.05-.39.01-.06.13-.14.14-.23.13-.62.17-1.22.45-1.81l.11.04.78.27c-.09.31-.23.61-.33.92-.02.07.01.14.01.15-.04.13-.1.26-.14.39-.51,1.99-.84,3.89-1.62,5.82-.46,1.14-1.61,2.83-1.59,3.96,0,.06-.04.13-.03.22s.07.13.08.17c.04.14-.04.23.17.36.71.45,1.26.03,1.63-.59,1.04-1.71,1.83-3.99,2.37-5.91.06-.21.11-.43.16-.63.38-1.45.72-2.77,1.17-4.2,0-.02.01-.04.02-.06l1.11.39c1,.35,2,.71,3,1.06.26.09,1.74.65,1.84.62.12-.03.41-1.01.48-1.21.57-1.52,1.11-3.08,1.64-4.63.28-.39.35-.93.55-1.37,0,.03.05.15,0,.21-.89,2.34-1.61,4.74-2.51,7.08Z"/>
        <path class="cls-24" d="M84.8,122.04c.04,1.1.24,2.5.05,3.57-.19.44-.27.98-.55,1.37,0-.02.01-.04.02-.06.03-.09.24-.6.19-.62l-.15.32c-.25-.06-.12-.08-.12-.19,0-.25-.15.06-.16.07-.07.04-.33-.08-.37.2-.35-.12-.7-.26-1.05-.37-.06-.02-.11-.04-.17-.06l-3.05-1.08.02-.06,3.05,1.08c.22-.99.63-1.96.51-2.99.22-.32.05-.79.12-1.07.03-.15.17-.26.18-.35,0-.08-.09-.15-.03-.24.38.11.76.3,1.14.41.08.02.13-.01.15-.01.07.01.15.06.22.08Z"/>
        <path class="cls-45" d="M82.55,116.56c-.71,1.25-1.03,2.73-1.56,4.07l2.22.78s.03.05.04.08c-.74-.26-1.48-.52-2.22-.78-.28-.1-.63-.16-.85-.24-.11-.04-.22-.08-.33-.12-.28-.1-.66-.29-.98-.41-.2-.07-.41-.14-.61-.22l-.78-.27s0-.04.02-.06l1,.35c.08-.34.32-.61.53-.88.46-.59,1.04-1.08,1.49-1.71.23-.32.58-.73.6-1.11l1.44.51Z"/>
        <path class="cls-43" d="M80.52,114.91c.15.05.3.11.44.16.33.11.67.24,1,.35,1.09.38,2.26.75,3.33,1.18.5.2.36.18.19.69-.19-.06-.37-.13-.55-.2-.37-.12-.74-.27-1.11-.39-.04.09-.06.19-.1.28l1.11.39c-.33.93-.07,3.54-.03,4.67-.07-.02-.15-.07-.22-.08l-1.33-.47s-.04-.06-.04-.08c.09-1.1.14-3.53.51-4.44l-1.16-.41-1.44-.51-.78-.27c.02-.06.11-.26.1-.28-.07-.16-.83.07-.3-.73.13.04.26.1.39.14Z"/>
        <path class="cls-12" d="M78.25,119.72c-.39.56-.88,1.04-1.3,1.57-.79,1-.95,1.33-1.39,2.54l-.22-.08-.55-.2s.01-.04.02-.06c.24-.16.37-1.28.61-1.27.09,0,.28.11.3.1.05-.03,0-.33.24-.16.08-.21-.25-.08-.05-.39l-.19.18-.16-.24c.59-.81,1.27-1.5,1.92-2.25l.78.27Z"/>
        <path class="cls-18" d="M81.11,116.05c-.02.38-.37.79-.6,1.11-.45.63-1.03,1.11-1.49,1.71-.21.27-.44.54-.53.88l-1-.35c.77-.89,2.53-2.6,2.84-3.61l.78.27Z"/>
        <path class="cls-22" d="M85.71,113.81c.25.14.29.39.27.66-.28.6-.41,1.4-.7,1.97-.03.05-.02.06-.09.06-.16-.16-.56-.3-.78-.27-.09-.03-.18-.07-.28-.1.07-.12-.07-.11-.05-.23.13-.58.54-1.26.66-1.83.03-.16-.06-.3.03-.45l.94.33c.05-.09-.11-.1-.17-.12-.67-.27-1.37-.48-2.05-.73-.09-.03-.26-.05-.28-.16.64.21,1.97.59,2.5.88Z"/>
        <path class="cls-28" d="M81.94,112.48c.1-.01.17.12.2.13-.1,0-.17.05-.24.12-.45.44-.61,1.69-.92,2.28l-.39-.14.63-1.96c.14-.29.39-.44.72-.43Z"/>
        <path class="cls-22" d="M74.78,123.55c-.68,1.93-1.37,3.87-2.06,5.8l.12.2-.22-.08c.61-1.98,1.36-4,2.1-5.94l.06.02Z"/>
        <path class="cls-4" d="M84.93,117.09c-.03.09-.07.19-.1.28l-1.11-.39c.04-.09.06-.19.1-.28.37.13.74.27,1.11.39Z"/>
        <path class="cls-21" d="M85.29,116.59c-1.07-.43-2.24-.8-3.33-1.18l.02-.06c.72.25,1.44.52,2.16.77.09.03.18.07.28.1.17.06.65.27.78.27.06,0,.06,0,.09-.06.29-.57.42-1.38.7-1.97-.06.68-.51,1.45-.69,2.13Z"/>
        <path class="cls-26" d="M75.56,121.7l.16.24.19-.18c-.2.31.13.18.05.39-.25-.16-.19.14-.24.16-.02,0-.21-.1-.3-.1-.25,0-.37,1.11-.61,1.27.15-.43.37-.9.42-1.35.1-.22.23-.29.34-.44Z"/>
        <path class="cls-30" d="M85.71,113.81c-.52-.3-1.86-.67-2.5-.88-.03,0-.1.03-.13.02-.29-.09-.68-.21-.94-.33-.03-.02-.1-.15-.2-.13.07,0,.09-.02.21,0,1,.25,2.28.8,3.28,1.16.09.03.26.05.28.16Z"/>
        <path class="cls-22" d="M81.22,112.91l-.63,1.96.39.14-.02.06c-.15-.05-.29-.11-.44-.16.28-.62.42-1.39.71-2Z"/>
        <path class="cls-26" d="M71.32,135.62c.03-.07.2-.21.19-.37l.06.02-.47,1.33-.05-.02c.04-.16.13-.31.17-.48.02-.07-.01-.15-.01-.15.04-.11.07-.23.12-.33Z"/>
        <path class="cls-24" d="M74.8,123.49s-.01.04-.02.06l-.06-.02c.17-.44.3-.97.49-1.39-.04.45-.26.92-.42,1.35Z"/>
        <path class="cls-24" d="M69.02,140.18l-.35,1s-.05.03-.08.04c.1-.35.26-.84.41-1.16.04.04.02.09.02.13Z"/>
        <path class="cls-24" d="M72.25,130.52c.11-.33.25-.66.35-1l.06.02c-.1.29-.21.58-.3.86-.02.07-.1.11-.11.11Z"/>
        <path class="cls-21" d="M72.84,129.54c.09.03.18.07.28.1.11.04.22.08.33.12.04.01.07.03.11.04l-.02.06-.11-.04-.78-.27-.06-.02s.01-.04.02-.06l.22.08Z"/>
        <path class="cls-26" d="M77.41,138.15s.07,0,.07.02c.07.17.08.14.16.25.13.19-.12.06-.16.08-.03.02-.04.11-.08.13-.04.02-.21-.08-.27.11,0-.04-.04-.22-.13-.17-.03.01-.31.38-.36.42-.03.03-.71.35-.75.36-.08.02-.19-.07-.26-.01-.06.04-.07.18-.11.2-.05.02-.19-.13-.22.12-.13,0-.3-.26-.24-.36l2.34-1.15Z"/>
        <path class="cls-26" d="M80.98,132.48c.08.24-.1.05-.15.08-.04.03-.04.13-.07.17-.25.26-.33-.12-.4-.09-.02,0-.18.29-.35.28.03.07.14.04.07.15-.09.02-.17.1-.24.14-.03.01-.12,0-.19.03-.17.06-.16.23-.39.02.05.47-.33-.05-.32.38-.41-.22-.27.07-.36.12-.06.04-.26-.34-.17-.4.61-.2,1.2-.63,1.79-.84.2-.07.32-.12.54-.12.07.03.15.05.22.08Z"/>
        <path class="cls-26" d="M73.49,144.31s.1.07.16.04c.12-.05.03-.11.37-.19.03,0,.07-.15.16-.04,0,0-.07.17.13.17,0,0,0,.08-.05.09-.04.01-.13-.05-.15-.03-.07.04.01.26-.24.2-.06-.02-.13-.1-.17-.09-.16.03-.49.74-.8.49.06.23-.15.16-.25.21-.04.02-.05.12-.07.13-.11.05-.3-.27-.35.13l-.18-.19s0-.07-.04-.08c.01,0,.05-.13.16-.2.17-.11.52-.16.66-.22s.44-.36.67-.43ZM72.59,145l-.02.06s.05-.02.02-.06Z"/>
        <path class="cls-26" d="M72.84,131.85s.07.28.05.39l-.33-.12c.03.38-.19.19-.26.23-.05.03-.06.2-.08.21-.22.12-.15-.48-.04-.57.05-.04.29.06.34.04.08-.03.1-.35.33-.19Z"/>
        <path class="cls-24" d="M80.76,132.41c-.22,0-.35.05-.54.12.09-.21.07-.14-.08-.21-.7-.37-1.76-.73-2.53-.96-.11-.03-.21-.05-.32-.05.02-.04.01-.13.07-.1,1.14.4,2.27.81,3.41,1.21Z"/>
        <path class="cls-26" d="M70.8,137.25s.31.01.18.19c-.06-.01-.17-.09-.22-.07-.05.02-.22.44-.35.43l.5-1.07c.11.09-.15.47-.12.52Z"/>
        <path class="cls-26" d="M68.67,141.17l.35-1c0,.21-.19.9-.35,1Z"/>
        <path class="cls-24" d="M76.98,132.13c.09-.24.16-.49.26-.72.03.21-.1.59-.26.72Z"/>
        <path class="cls-12" d="M78.35,142.53c-.3,0-.52.37-.78.11.04.42-.22.04-.32.38-.07.03-.23-.25-.19-.35.04-.1,1.29-.63,1.49-.75l-.2.6Z"/>
        <path class="cls-12" d="M72,145.16s.04.05.04.08c-.19.52-.35.04-.29-.07.05-.08.24,0,.25,0Z"/>
        <path class="cls-26" d="M76.98,142.74s-.02.36-.03.43c-.35-.09-.1-.64.03-.43Z"/>
        <rect class="cls-12" x="78.73" y="138.65" width="1.06" height=".06" transform="translate(-77.91 167.15) rotate(-70.52)"/>
        <rect class="cls-12" x="68.29" y="142.68" width=".23" height=".06" transform="translate(-88.94 159.61) rotate(-70.52)"/>
        <path class="cls-40" d="M76.21,130.8c-.46,1.43-.79,2.75-1.17,4.2-.24.19-.52.24-.8.37-.08.04-.18.08-.28.13-.17.08-.41.22-.58.32l.18.35c.08-.26.15-.3.36-.12.05-.31.13-.16.29-.21.24-.07.43-.25.67-.2-.53,1.92-1.33,4.2-2.37,5.91-.38.62-.92,1.04-1.63.59-.21-.13-.13-.22-.17-.36l.15-.26.22.15c.14-.14.36-.13.5-.23.08-.06.38-.44.41-.45.16-.06.12.26.24.21.05-.02.16-.3.18-.31.06-.03.23.17.25,0-.06-.12-.19-.13-.18-.28-.3.11-.6.23-.88.37-.1.05-.2.11-.33.18-.19.09-.39.24-.6.25-.02-1.14,1.12-2.82,1.59-3.96.79-1.93,1.12-3.83,1.62-5.82.14.12.33-.11.37-.18-.19-.05.08-.3-.23-.21,0,0-.03-.08-.01-.15.09-.31.23-.61.33-.92l1.89.67Z"/>
        <path class="cls-28" d="M82.65,126.34l-.34.1-1.98,5.76c-1-.35-2-.71-3-1.06.05-.45.26-.92.42-1.35.02-.07.11-.14.13-.2.06-.17.08-.4.11-.49l1.08-3.05s.1-.1.14-.2c.08-.19.14-.4.15-.61,1.04.37,2.1.7,3.13,1.04.06.02.11.04.17.06Z"/>
        <path class="cls-21" d="M83.71,126.71l.61.22s-.01.04-.02.06c-.53,1.54-1.07,3.11-1.64,4.63-.08.2-.36,1.17-.48,1.21-.1.03-1.59-.54-1.84-.62l1.98-5.76.34-.1c.35.12.7.25,1.05.37Z"/>
        <path class="cls-30" d="M78.27,124.79l.06.02-.02.06c-.81,1.91-1.45,3.92-2.08,5.88,0,.02-.01.04-.02.06l-1.89-.67-.78-.27.02-.06c.14.04.73.31.81.18.29-1.06.87-2.16,1.14-3.21.03-.13-.03-.21-.02-.27.01-.06.15-.11.2-.23.28-.62.49-1.43.73-2.08,0-.02.01-.04.02-.06l1.83.65Z"/>
        <path class="cls-25" d="M79.36,125.23c0,.21-.07.41-.15.61-.04.09-.13.17-.14.2l-1.08,3.05c-.03.1-.05.32-.11.49-.22-.27-.63.09-.89.22-.06.03-.19,0-.21.05-.07.14.11.44.17.4,0-.39.67-.06.62-.5l.17.03c-.15.43-.37.9-.42,1.35l-1.11-.39c.63-1.96,1.27-3.97,2.08-5.88l1.05.37Z"/>
        <path class="cls-4" d="M70.66,141.38c.21-.01.41-.16.6-.25.13-.06.23-.13.33-.18.29-.14.59-.26.88-.37,0,.15.12.16.18.28-.02.17-.19-.02-.25,0-.02,0-.12.29-.18.31-.11.05-.08-.27-.24-.21-.03.01-.33.39-.41.45-.14.1-.36.09-.5.23l-.22-.15-.15.26s-.07-.08-.08-.17.03-.16.03-.22Z"/>
        <path class="cls-4" d="M74.87,135.63c-.24-.05-.43.13-.67.2-.16.05-.24-.1-.29.21-.2-.18-.28-.14-.36.12l-.18-.35c.17-.1.41-.23.58-.32.1-.05.2-.09.28-.13.28-.13.56-.17.8-.37-.05.19-.1.42-.16.63Z"/>
        <path class="cls-4" d="M74,131.2c.31-.09.04.16.23.21-.04.07-.23.29-.37.18.03-.13.1-.26.14-.39Z"/>
        <path class="cls-12" d="M83.25,121.49l1.33.47s-.08.03-.15.01c-.38-.11-.76-.3-1.14-.41-.07.09.04.16.03.24,0,.1-.14.21-.18.35-.07.28.1.75-.12,1.07.12,1.03-.28,2-.51,2.99l-3.05-1.08,1.57-4.44c.74.26,1.48.52,2.22.78ZM81,123.94s.12.05.25,0c.03-.01.41-.24.45-.27.05-.04.25-.34.34-.35.06,0,.48.3.42-.17l.18.03c-.08-.12-.17-.16-.08-.31l-2.41,1.08c-.12.07-.03.33.07.34.05,0,.11-.11.15-.12.08-.01.19.07.21.06.03-.01.04-.2.08-.22.02,0,.14.07.23.05.07-.01.09-.12.1-.12-.08.04-.16-.11-.07-.15s.15.11.07.15Z"/>
        <path class="cls-16" d="M81.03,120.7l-1.57,4.44-.02.06-1.11-.39-.06-.02c.47-1.51,1.21-2.91,1.9-4.32.22.08.57.14.85.24Z"/>
        <path class="cls-21" d="M79.44,125.2l3.05,1.08c-1.03-.34-2.09-.68-3.13-1.04l-1.05-.37.02-.06,1.11.39Z"/>
        <path class="cls-26" d="M84.32,126.92l-.61-.22c.04-.28.3-.16.37-.2.01,0,.16-.32.16-.07,0,.1-.13.13.12.19l.15-.32s-.16.53-.19.62Z"/>
        <path class="cls-18" d="M83.72,116.98c-.37.91-.42,3.33-.51,4.44l-2.22-.78c.54-1.34.86-2.81,1.56-4.07l1.16.41Z"/>
        <path class="cls-40" d="M80.17,120.47c-.7,1.41-1.43,2.81-1.9,4.32l-1.83-.65c.58-1.55,1.07-2.16,1.98-3.48.16.03.02.21.21.19.06,0,.34-.2.44-.24.12-.04.46-.13.58-.14.11,0,.14.12.19-.12.11.04.22.08.33.12Z"/>
        <path class="cls-16" d="M78.86,119.94c-.12.25-.28.49-.44.72-.91,1.32-1.4,1.94-1.98,3.48l-.11-.04-.78-.27c.44-1.2.6-1.54,1.39-2.54.42-.53.92-1.01,1.3-1.57.2.07.41.14.61.22Z"/>
        <path class="cls-4" d="M79.84,120.35c-.05.25-.08.12-.19.12-.12,0-.46.1-.58.14-.1.04-.38.24-.44.24-.19.01-.05-.17-.21-.19.16-.23.32-.46.44-.72.32.12.69.31.98.41Z"/>
        <path class="cls-36" d="M83.08,112.94c-.69.54-.73,1.65-1.1,2.42l-.02.06c-.33-.12-.67-.24-1-.35l.02-.06c.31-.59.47-1.84.92-2.28.07-.07.15-.11.24-.12.26.13.66.24.94.33Z"/>
        <path class="cls-28" d="M75.33,123.75l.2.13c-.71,1.93-1.35,3.89-2.06,5.82-.11-.03-.26-.14-.35-.06-.09-.03-.18-.07-.28-.1l-.12-.2c.69-1.93,1.37-3.87,2.06-5.8l.55.2Z"/>
        <path class="cls-22" d="M75.55,123.82s-.01.04-.02.06l-.2-.13.22.08Z"/>
        <path class="cls-28" d="M83.22,112.93c.03.11.19.13.28.16.68.25,1.38.46,2.05.73.07.03.22.03.17.12l-.94-.33c-.09.16,0,.29-.03.45-.12.58-.53,1.25-.66,1.83-.03.12.12.11.05.23-.72-.25-1.44-.52-2.16-.77.37-.77.42-1.88,1.1-2.42.03,0,.1-.03.13-.02Z"/>
        <path class="cls-28" d="M85.2,116.5c-.12,0-.6-.21-.78-.27.22-.03.61.11.78.27Z"/>
        <path class="cls-25" d="M76.33,124.1l.09.09c-.24.66-.45,1.46-.73,2.08-.05.11-.19.17-.2.23,0,.05.06.14.02.27-.27,1.05-.85,2.15-1.14,3.21-.08.12-.67-.14-.81-.18-.04-.01-.07-.03-.11-.04l.02-.06c.71-1.93,1.35-3.89,2.06-5.82,0-.02.01-.04.02-.06l.78.27Z"/>
        <path class="cls-22" d="M73.47,129.7l-.02.06c-.11-.04-.22-.08-.33-.12.1-.08.25.03.35.06Z"/>
        <path class="cls-24" d="M82.33,132.9c-.85,2.23-2.6,4.1-3.21,6.44-.59,2.25-.36,3.99-1.58,6.17-.33.59-1.26,2.1-2.08,1.8-.68-.24-.76-.46-1.24-.84-.71-.56-1.34-.08-2.08-.35s-.88-.99-1.86-1.04c-.52-.03-.71.15-1.38-.07-.2-.06-.3-.15-.42-.31-.48-.64-.14-2.63.07-3.37.2-.05.11-.01.08.12-.08.34-.16.67-.23,1.01.16.03.05-.31.24-.23s.36.33.55.43c.21.11.44.14.64.25.23.12.42.36.71.49.64.3,2.02.78,2.69.82.09,0,.24-.03.26.1-.23.07-.54.37-.67.43s-.49.11-.66.22c-.11.07-.15.19-.16.2s-.2-.08-.25,0c-.07.11.1.59.29.07l.18.19c.05-.4.24-.09.35-.13.02,0,.03-.11.07-.13.1-.06.31.01.25-.21.32.25.64-.46.8-.49.04,0,.1.08.17.09.26.06.17-.16.24-.2.03-.01.11.05.15.03.04-.02.04-.09.05-.09.18-.06.35-.03.49-.07.5-.15,1.21-.54,1.45-1.02.37-.76.5-2.37.66-3.26.08-.42.29-.71.23-1.19.07-.18.24-.08.27-.11.04-.02.04-.11.08-.13.04-.02.29.11.16-.08-.08-.11-.09-.07-.16-.25,0-.02-.07-.01-.07-.02-.09-.2.57-1.55.72-1.83.42-.82.93-1.61,1.39-2.4.12-.21.23-.48.33-.71.07-.03.15-.12.24-.14.07-.11-.04-.08-.07-.15.17.01.33-.27.35-.28.08-.03.15.35.4.09.04-.04.03-.14.07-.17.05-.03.22.16.15-.08.44.15.89.36,1.35.42ZM79.11,139.19l.35-1-.06-.02-.35,1,.06.02ZM78.35,142.53l.2-.6c-.2.12-1.45.65-1.49.75-.03.1.12.38.19.35.1-.35.37.04.32-.38.25.26.47-.12.78-.11ZM76.98,142.74c-.12-.22-.37.34-.03.43,0-.07.04-.41.03-.43ZM68.39,142.83l.08-.22-.05-.02-.08.22.05.02Z"/>
        <path class="cls-24" d="M72.59,145s.02.05-.02.06l.02-.06Z"/>
        <path class="cls-36" d="M77.89,129.58c-.02.07-.11.14-.13.2l-.17-.03c.05.44-.61.11-.62.5-.07.04-.25-.26-.17-.4.02-.04.15-.02.21-.05.25-.13.67-.49.89-.22Z"/>
        <path class="cls-22" d="M76.44,124.14s-.01.04-.02.06l-.09-.09.11.04Z"/>
        <path class="cls-26" d="M81,123.94s-.04.11-.1.12c-.09.02-.21-.06-.23-.05-.03.02-.05.21-.08.22-.02.01-.14-.08-.21-.06-.04,0-.1.13-.15.12-.1,0-.19-.27-.07-.34l2.41-1.08c-.09.15,0,.19.08.31l-.18-.03c.05.47-.36.16-.42.17-.1.02-.29.31-.34.35-.04.03-.41.26-.45.27-.13.06-.23,0-.25,0,.08-.04.01-.19-.07-.15s0,.19.07.15Z"/>
      </g>
      <path class="cls-19" d="M76.13,126.08h0s0,0,0,0c-.06-.02-.13-.02-.22,0s-.18.04-.28.08c-.06.02-.13.05-.2.08-.07.03-.13.06-.19.1-.04.02-.09.05-.13.07s-.08.05-.11.07c-.05.03-.1.07-.15.1-.05.04-.1.07-.14.11-.11.1-.21.19-.3.29s-.15.2-.19.3c0,.01-.01.03-.02.04v.04c-.06.14-.07.27-.03.37.04.1.13.2.26.28.03.02.06.04.09.05.03.01.06.03.09.04.04.01.08.02.11.03.04,0,.08.02.11.02.04,0,.09.01.13.01s.09,0,.13,0c.03,0,.05,0,.08,0,.03,0,.05,0,.08,0,.07,0,.14.01.19.02s.12.01.17.02.11.01.17.02c.06,0,.12.02.19.03,0,0,.02,0,.02,0,0,0,.02,0,.02,0,.05,0,.09.01.13.02.04,0,.08.01.12.02.04,0,.07.01.11.02.04,0,.07.02.11.04h.02s.01.01.02.01c0,0,.01,0,.02,0h.02c.19.08.35.17.47.28.12.1.24.23.33.38.02.03.04.07.06.1.02.04.04.07.06.11-.03-.05-.08-.11-.14-.15-.06-.05-.12-.09-.18-.12-.03-.02-.07-.04-.1-.05-.04-.01-.07-.03-.1-.04-.03,0-.05-.02-.07-.02s-.05-.01-.07-.02c-.04,0-.08,0-.12,0-.04,0-.08,0-.11.02-.03,0-.06.02-.09.02-.02,0-.04.01-.05.02-.01-.02-.02-.04-.04-.08s-.03-.06-.06-.1c-.03-.04-.08-.09-.14-.14-.06-.05-.14-.1-.24-.15-.01,0-.02-.01-.03-.02h-.04c-.1-.05-.2-.07-.32-.08-.11-.01-.24-.03-.37-.04-.02,0-.05,0-.07,0-.02,0-.05,0-.07,0-.12,0-.25-.01-.36-.02-.12-.01-.23-.03-.33-.07h-.03s-.02-.02-.03-.03c-.01,0-.02,0-.03-.01-.01,0-.02-.01-.03-.02-.04-.02-.09-.05-.14-.07-.05-.03-.1-.06-.15-.1-.09-.08-.17-.18-.22-.32s-.05-.31.03-.53c.06-.18.18-.34.34-.48s.36-.27.57-.39c.14-.08.28-.14.42-.19s.28-.09.42-.12c.11-.02.22-.03.32-.03s.19.01.28.04h0s0,0,0,0c.06.02.1.06.14.11.03.05.04.11.03.17h0s0,0,0,.01h0s0,0,0,.01v.02s-.02.02-.02.02c-.03.06-.08.11-.14.15-.06.04-.12.05-.17.03h-.01s0,0-.01-.01c-.03-.02-.04-.03-.05-.05,0-.02,0-.04,0-.06,0-.02.01-.03.03-.04.01-.01.03-.03.04-.04.02-.01.03-.02.05-.03.02,0,.04-.01.06-.01.02,0,.04,0,.06,0,.02,0,.03,0,.04,0h0s0,0,0,0h0s0-.01,0-.02h0s0,0,0-.01h0s0-.02,0-.02c0-.01,0-.03,0-.04s-.03-.03-.06-.04h0ZM77.03,128.37s-.03-.06-.03-.09c0-.02,0-.04,0-.06,0-.02,0-.03,0-.04,0,0,0,0,0,0,0,0,0,0,0,0,0,0-.01.02-.03.03-.02.01-.05.03-.08.04-.04.02-.08.03-.13.04-.05,0-.1,0-.14-.01-.07-.03-.12-.06-.13-.11-.02-.04-.02-.09,0-.13,0,0,0,0,0-.02v-.02s.02-.04.03-.06c0-.02.02-.03.02-.05,0,0,.01-.02.01-.02,0,0,0-.01.01-.01,0,0-.03.02-.07.05-.04.02-.09.05-.15.07-.06.02-.12.04-.19.05-.07.01-.13.01-.19,0-.01,0-.02,0-.03,0-.01,0-.02,0-.03,0h0s0,0,0,0h0c-.1-.05-.16-.1-.18-.15-.02-.06-.02-.13,0-.2h0s0,0,0,0c0-.02.02-.05.05-.09s.05-.07.08-.11c0-.01.02-.03.03-.04.01-.01.02-.03.04-.04.03-.04.06-.07.08-.09s.04-.04.05-.04l-.16-.02s-.04.04-.08.07c-.04.04-.09.07-.14.11-.02.01-.03.02-.05.04-.02.01-.04.02-.05.04,0,0,0,0-.01,0,0,0,0,0-.01,0-.11.07-.22.12-.33.16s-.21.05-.31.02h0s0,0,0,0h0s-.02-.01-.03-.02-.02-.01-.03-.02c-.04-.03-.06-.06-.09-.1-.02-.04-.03-.09-.01-.16h0s0-.02,0-.02c0,0,0,0,0-.01h0c.03-.08.07-.15.13-.22.06-.07.14-.14.25-.23.05-.04.1-.07.15-.1.05-.03.1-.06.15-.08.12-.06.23-.09.33-.1s.18,0,.23.01c.06.02.1.06.13.1s.03.11.01.18h0s0,0,0,.01c0,.01-.01.03-.02.04,0,.02-.02.03-.02.04-.01.02-.02.03-.03.05-.01.02-.02.03-.03.04-.02.02-.03.03-.04.05-.01.01-.02.02-.03.02,0,0,0,0,.01,0,0,0,0,0,.01,0,.02,0,.04,0,.06.01.03,0,.06,0,.11-.02.05-.01.09-.03.12-.04.03-.01.07-.03.1-.05,0,0,0,0,.01,0s0,0,.01,0c.02,0,.05-.02.07-.03s.06-.02.09-.03c.06-.02.12-.04.17-.05.05,0,.1-.01.14-.01.02,0,.03,0,.05,0,.01,0,.03,0,.04.01h.01s0,0,0,0c0,0,0,0,0,0h0c.05.02.09.06.12.1.03.05.03.09.01.15h0s0,0,0,0c-.02.05-.05.1-.09.13s-.08.06-.12.07c-.02,0-.04.01-.06.01-.02,0-.04,0-.05,0h0s0,0,0,0c-.02-.01-.04-.03-.05-.05,0-.02,0-.04,0-.06,0,0,0-.01,0-.02,0,0,0,0,0-.01,0-.01.01-.02.02-.03,0-.01.02-.02.03-.02.01-.01.03-.02.05-.02.02,0,.03-.01.05-.01.03,0,.05,0,.07,0,.02,0,.04,0,.05,0h0s0,0,0,0c0,0,0,0,0,0h0s0-.01,0-.02c0,0,0-.02-.02-.03,0,0-.03-.02-.05-.03-.02,0-.06,0-.11,0-.05.01-.1.03-.16.06-.04.02-.07.04-.11.06-.04.02-.07.05-.11.07,0,0-.02.01-.03.02s-.02.01-.03.02c-.03.02-.06.05-.09.08-.03.03-.06.06-.09.09-.04.05-.08.09-.11.14-.03.04-.05.08-.07.12,0,.02,0,.03,0,.04,0,.01,0,.02,0,.03,0,0,0,0,.01.01,0,0,.01,0,.02,0,.03,0,.07.01.12,0s.1-.01.16-.03c.05-.01.1-.03.14-.04s.09-.04.13-.06c.15-.09.28-.17.39-.25.11-.08.22-.14.31-.19.02,0,.05-.02.07-.03.02,0,.04-.02.06-.02.02,0,.04-.01.06-.02.02,0,.03,0,.05,0,.04,0,.07,0,.1,0,.03,0,.07.01.1.03.04.02.08.03.1.05.02.02.03.03.04.05,0,0,.01.02.01.02,0,0,0,.01,0,.02h0s0,0,0,0,.01,0,.02-.01c0,0,0,0,0,0,0,0,0,0,0,0,0,0,0,0,.01,0,0,0,0,0,.01,0,0,0,.02,0,.04,0s.05.02.08.03h0s0,0,.01,0c.03.01.07.02.09.04.03.01.04.02.04.03,0,0-.04.04-.13.11-.09.07-.18.15-.28.24,0,0-.02.01-.02.02,0,0-.01.01-.02.02-.1.08-.18.16-.26.23-.08.07-.12.13-.13.16,0,0,0,0,0,0,0,0,0,0,0,0,0,0,0,0,.01,0,0,0,0,0,.01,0,.02,0,.04,0,.08,0,.03,0,.07-.02.1-.04.01,0,.03-.01.04-.02s.03-.02.04-.03c.01,0,.03-.02.04-.03.01-.01.03-.02.04-.03,0,0,0,0,.01,0,0,0,0,0,.01-.01.03-.02.05-.04.07-.05s.04-.01.06,0c.02.02,0,.05-.06.1-.06.05-.13.11-.22.16-.05.03-.1.06-.16.09s-.11.05-.16.07c-.04.01-.08.02-.12.02-.04,0-.07,0-.1-.01-.05-.02-.09-.04-.11-.07ZM75.29,127.11s0,.01-.01.02c0,0,0,0-.01.01-.01.01-.02.03-.04.04-.01.01-.02.03-.04.04-.02.02-.04.05-.06.07-.02.02-.03.05-.04.07,0,.01,0,.03,0,.04,0,.01,0,.02.01.03,0,0,.01,0,.02.01s.01,0,.02.01c.02,0,.05.01.08,0,.03,0,.07,0,.1-.02.03,0,.05-.02.08-.03s.05-.03.08-.04c.01,0,.03-.02.05-.03.02-.02.05-.03.07-.05,0,0,0,0,.01,0,0,0,0,0,.01,0,.02-.02.05-.04.07-.06.02-.02.04-.04.05-.05-.02,0-.04-.02-.05-.03-.01,0-.03-.02-.04-.03,0,0-.01-.01-.02-.02,0,0-.01-.01-.02-.02-.02-.03-.04-.05-.05-.08s-.02-.06-.02-.09c-.02.01-.04.03-.06.04s-.04.03-.05.04c-.01.01-.02.02-.03.03-.01,0-.02.02-.03.03-.02.01-.03.03-.05.04-.01.01-.03.03-.05.05h0ZM75.81,127.09s0,0,.02,0c0,0,.01,0,.02-.01.02-.01.03-.03.05-.06.02-.02.03-.05.05-.07,0-.01.01-.02.02-.03,0-.01,0-.02.01-.04h0s0,0,0,0c0-.03.01-.05,0-.07,0-.02-.01-.03-.02-.04,0,0,0,0-.01,0,0,0,0,0-.01,0h0s0,0,0,0c0,0-.02,0-.03,0-.01,0-.02,0-.04,0-.03,0-.05,0-.08.02-.03.01-.05.02-.07.04-.01,0-.03.02-.04.03-.01,0-.02.02-.02.03h0s0,.03,0,.04c0,.02,0,.03.01.05,0,.03.02.06.04.09.02.03.04.05.07.06h0s0,0,0,0h0s0,0,0,0h0s0,0,0,0h0ZM77.68,127.38s-.02,0-.02,0c0,0-.01,0-.02,0-.04.01-.08.03-.14.07-.05.03-.13.08-.24.16-.02.02-.05.04-.07.06-.02.02-.05.04-.07.06-.05.05-.09.09-.12.14-.04.05-.06.09-.07.12,0,.01,0,.03,0,.04,0,.01,0,.02,0,.03,0,0,0,0,0,0s0,0,0,0c0,0,0,0,0,0h0s.05.01.09,0,.06-.03.09-.05c0,0,.02,0,.02-.01,0,0,.01-.01.02-.02.12-.09.23-.18.33-.27.1-.09.2-.17.3-.25,0,0,.02-.01.02-.02s0-.01.01-.01c0,0,0-.02,0-.02,0,0,0-.01-.01-.02,0,0,0,0,0,0,0,0,0,0,0,0,0,0,0,0-.01,0,0,0,0,0-.01,0-.01,0-.03,0-.05,0-.02,0-.04,0-.07.01h0ZM81.05,127.68c.06.02.11.05.15.07.04.02.08.05.11.08.02.02.04.04.06.06.02.02.04.04.07.07.01.02.03.03.04.05.02.02.03.03.05.05,0,0,0,.01.01.02,0,0,0,.01.01.02.04.05.08.1.12.15.04.05.06.07.07.09l-.3.15s-.04-.05-.06-.07c-.02-.02-.04-.04-.06-.07,0,0-.01-.01-.02-.02,0,0-.02-.02-.02-.03-.01-.02-.03-.03-.05-.05s-.03-.03-.05-.05c-.03-.04-.06-.07-.09-.1-.03-.03-.05-.06-.08-.09-.03-.04-.07-.07-.11-.11-.04-.03-.09-.07-.14-.1,0,0-.02,0-.02-.01s-.02,0-.02,0c-.01,0-.03,0-.04-.01-.01,0-.02,0-.03,0,0,0,0,0,0,0,0,0-.01,0-.02,0,0,0,0,0-.01,0,0,0,0,.01,0,.02,0,0,0,.02,0,.03,0,.01,0,.03,0,.05s0,.04-.02.06c-.01.03-.02.06-.03.08-.01.02-.03.05-.04.07-.01.02-.03.04-.04.05s-.03.04-.05.05c-.07.07-.14.13-.23.18-.08.04-.16.07-.24.08-.04,0-.08,0-.12,0-.04,0-.07,0-.1-.02-.02,0-.04-.02-.06-.03-.02-.01-.03-.03-.05-.04-.01-.02-.02-.04-.03-.07s0-.05.01-.08c0-.03.02-.06.04-.08.02-.03.04-.05.06-.08.02-.03.05-.05.07-.08.03-.03.05-.05.08-.07.04-.03.09-.06.13-.09.05-.03.1-.05.14-.07.07-.03.13-.05.18-.06.06-.01.1-.02.12-.02,0,0,0,0,0,0s0,0,0,0c0,0-.01-.01-.02-.02,0,0-.02-.01-.03-.02h-.02s-.01,0-.02,0c-.04,0-.09,0-.15,0s-.12.01-.19.03c-.03,0-.06.02-.09.02-.03,0-.06.02-.09.03-.07.03-.14.06-.2.08-.06.03-.12.06-.18.09-.07.03-.13.07-.19.11s-.12.08-.18.12c-.04.03-.09.06-.14.1-.05.04-.1.08-.15.12-.05.04-.1.08-.14.12-.04.04-.08.08-.12.12-.05.06-.1.12-.13.19-.04.07-.07.14-.1.22-.03.09-.04.17-.04.24,0,.07.05.12.11.16,0,0,.02.01.03.02.01,0,.02,0,.03.01.09.03.19.04.3,0,.11-.03.21-.07.3-.14,0,0,0,0,.01,0,0,0,0,0,.01,0,.03-.02.07-.05.1-.08s.07-.07.1-.1c.03-.04.06-.08.09-.11.03-.04.05-.07.06-.11.01-.03.01-.06.01-.08s-.02-.04-.04-.06h0s0,0,0,0h0s0,0,0,0c-.04-.01-.07-.01-.11,0-.03.02-.07.03-.1.06,0,0,0,0,0,0,0,0,0,0,0,0,0,0,0,0,0,0,0,0,0,0,0,0-.02,0-.03.02-.05.04-.02.02-.03.03-.04.05-.03.03-.05.07-.06.09-.02.03-.03.04-.03.05-.02,0-.03,0-.05,0s-.03,0-.04,0c0,0-.01,0-.02,0,0,0,0,0-.01,0-.01,0-.02,0-.03,0s-.02,0-.03,0c0,0-.02,0-.02,0,0,0-.02,0-.03,0,0,0-.02,0-.02,0,0,0-.02,0-.02,0-.03.01-.06.03-.08.04-.02.01-.04.01-.04,0,0,0,0,0,0-.02,0,0,0-.02.01-.03.01-.03.03-.07.06-.12.03-.05.06-.1.1-.15.03-.03.05-.07.08-.1.03-.03.06-.06.1-.08.08-.05.16-.08.24-.09s.16,0,.23.02c.02,0,.03.01.04.02s.02.01.04.02c.06.04.09.08.11.13.01.05,0,.11-.01.16-.02.04-.04.09-.07.13-.03.05-.06.09-.1.13-.04.04-.08.08-.12.12-.04.04-.08.07-.12.11-.14.11-.29.19-.44.23-.16.04-.3.04-.44,0h-.03s-.02-.02-.03-.03c-.13-.06-.23-.14-.31-.23s-.08-.23-.02-.4c.01-.03.03-.07.04-.1.02-.04.04-.07.06-.11.09-.15.19-.28.31-.39.12-.11.23-.21.35-.3.06-.05.12-.09.18-.12.06-.04.11-.07.16-.09.03-.02.07-.04.11-.06.04-.02.07-.04.11-.05.18-.08.39-.15.61-.2.22-.05.44-.04.64.01h0s0,0,0,0h0s.05.02.07.04c.02.01.03.03.05.04,0,.01.02.02.03.03.01.01.02.02.03.04,0,0,0,0,.01.01,0,0,0,0,.01.01.03,0,.07,0,.1,0,.03,0,.06,0,.09,0,.04,0,.08,0,.12.02.04,0,.08.02.13.04h0ZM78.77,127.58s0,.02-.03.04c-.02.02-.05.05-.08.07,0,0,0,0,0,0,0,0,0,0,0,0-.03.02-.05.04-.07.06-.02.02-.04.03-.04.03,0,0-.02,0-.04,0s-.06-.01-.08-.03h-.02s0,0-.01-.01c-.02,0-.04-.02-.06-.03s-.03-.02-.03-.02c0,0,0-.02.03-.04.02-.02.05-.05.08-.07,0,0,0,0,.01-.01,0,0,0,0,.02-.01.02-.02.05-.04.07-.05.02-.02.03-.02.04-.02,0,0,.02,0,.04,0,.02,0,.05.01.08.02h0s0,0,0,0c.03.01.06.02.08.03.03.01.04.02.04.02h0ZM81.35,128.91s-.1.08-.14.11c-.04.03-.08.07-.12.1-.03.02-.05.05-.08.07-.03.03-.05.05-.08.08-.02.02-.04.04-.06.06-.02.02-.04.04-.06.07.07-.02.14-.04.24-.07s.19-.07.29-.11c.02,0,.03-.02.05-.02s.03-.02.05-.02c.05-.03.09-.05.13-.07s.07-.04.11-.06c.01,0,.03-.02.04-.02.01,0,.03-.02.04-.02.03-.02.06-.04.09-.06s.06-.05.1-.07l.12.02s-.07.06-.11.08-.07.05-.1.07c-.02.01-.04.03-.06.04-.02.01-.04.02-.06.03-.04.02-.08.04-.12.07s-.09.04-.13.07c-.05.03-.1.05-.15.07s-.09.04-.13.06c-.04.01-.07.03-.11.04-.03.01-.07.02-.11.03-.04.01-.08.02-.12.04-.04.01-.09.02-.14.03,0,0-.02.01-.04.04-.03.03-.06.06-.09.1-.01.02-.03.03-.04.05-.01.02-.03.03-.04.05-.02.03-.05.06-.06.09-.02.03-.03.06-.04.08,0,.02-.01.04-.01.05,0,.02,0,.03.02.04,0,0,0,0,0,0h0s.04,0,.06,0,.05-.01.08-.02c.02,0,.04-.02.06-.03.02-.01.04-.02.06-.04.01,0,.02-.01.03-.02.01,0,.02-.01.03-.02.15-.09.28-.17.39-.25.11-.08.22-.14.31-.19.02,0,.05-.02.07-.03.02,0,.04-.02.06-.02.02,0,.04-.01.06-.02s.03,0,.05,0c.04,0,.07,0,.1,0,.03,0,.07.01.1.03.04.02.08.03.1.05.02.02.03.03.04.05,0,0,.01.02.01.02,0,0,0,.01,0,.02h0s0,0,0,0c0,0,.01,0,.02-.01,0,0,0,0,0,0,0,0,0,0,0,0,0,0,0,0,.01,0,0,0,0,0,.01,0,0,0,.02,0,.04,0,.02,0,.05.02.08.03h0s0,0,.01,0c.03.01.07.02.09.04.03.01.04.02.04.03,0,0-.04.04-.13.11s-.18.15-.28.24c0,0-.02.01-.02.02,0,0-.01.01-.02.02-.1.08-.18.16-.26.23-.08.07-.12.13-.13.16,0,0,0,0,0,0,0,0,0,0,0,0,0,0,0,0,.01,0,0,0,0,0,.01,0,.02,0,.04,0,.08,0,.03,0,.07-.02.1-.04.01,0,.03-.01.04-.02.01,0,.03-.02.04-.03.01,0,.03-.02.04-.03.01-.01.03-.02.04-.03,0,0,0,0,.01,0,0,0,0,0,.01-.01.03-.02.05-.04.07-.05.02-.01.04-.01.06,0,.02.01,0,.05-.06.1s-.13.11-.22.16c-.05.03-.1.06-.16.09s-.11.05-.16.06c-.04.01-.08.02-.12.02-.04,0-.07,0-.1,0-.05-.02-.09-.04-.11-.07-.02-.03-.03-.06-.03-.09,0-.02,0-.04,0-.06,0-.02,0-.03,0-.04,0,0,0,0,0,0,0,0,0,0,0,0,0,0-.01.02-.03.03-.02.01-.05.03-.08.04-.04.02-.08.03-.13.04s-.1,0-.14-.01c-.07-.03-.12-.06-.13-.11-.02-.04-.02-.09,0-.13,0,0,0,0,0-.01v-.02s.02-.04.03-.06.02-.03.02-.05c0,0,.01-.02.01-.02,0,0,0,0,.01-.01,0,0-.02.02-.07.05-.04.02-.09.05-.14.07-.02,0-.04.01-.06.02-.02,0-.04.02-.06.02-.04.02-.08.03-.12.03-.04,0-.07,0-.09,0-.06-.02-.09-.06-.11-.11-.02-.05-.02-.11,0-.16,0-.03.02-.06.05-.1.02-.04.05-.08.07-.12.01-.02.02-.04.03-.06.01-.02.02-.04.04-.05.02-.04.05-.07.07-.1s.03-.04.04-.04l-.12-.02s-.04.04-.08.07-.09.07-.14.11c-.02.01-.03.02-.05.04s-.03.02-.05.03c0,0,0,0-.01,0,0,0,0,0-.01,0-.11.07-.22.12-.32.16-.11.04-.21.05-.31.02h0s0,0,0,0h0s-.02-.01-.03-.02c-.01,0-.02-.01-.03-.02-.04-.03-.06-.06-.09-.1-.02-.04-.03-.09-.01-.15h0s0-.02,0-.02c0,0,0,0,0-.01h0c.03-.08.07-.15.13-.22.06-.07.14-.14.25-.23.05-.04.1-.07.15-.1.05-.03.1-.06.15-.08.12-.06.23-.09.33-.1.1-.01.18,0,.23.01.06.02.1.06.13.1s.03.11.01.18h0s0,.01,0,.01c0,.01,0,.02-.02.04,0,.01-.01.03-.02.04-.01.02-.02.03-.03.05-.01.02-.02.03-.03.04-.02.02-.03.03-.04.04-.01.01-.02.02-.02.02h.11s.07-.07.1-.11c.03-.04.06-.07.09-.09.02-.02.03-.03.04-.05.01-.01.03-.03.04-.04.03-.03.07-.06.1-.09s.08-.07.13-.11c.05-.04.1-.08.16-.12.06-.04.12-.08.19-.13.05-.03.1-.06.16-.09.05-.03.11-.06.16-.09.1-.06.2-.1.3-.15.1-.04.18-.07.24-.09.1-.02.17-.04.23-.04.06,0,.1,0,.14.02.02,0,.03.01.04.02s.03.01.04.02c.03.01.04.03.05.06,0,.03,0,.05,0,.08h0s0,.01,0,.02c0,.01,0,.02-.02.03,0,.01-.01.02-.02.04,0,.01-.02.03-.03.04-.01.01-.02.03-.03.04-.01.01-.03.02-.03.03,0,0-.02.01-.02.01h-.12s.01-.02.02-.03c.01,0,.02-.02.03-.03.01,0,.02-.02.03-.03.01-.01.02-.02.03-.03.01-.01.02-.02.03-.04,0-.01.01-.03.02-.04,0-.02,0-.03,0-.04,0-.01,0-.02-.02-.03,0,0,0,0,0,0h0s0,0,0,0c-.06-.02-.15,0-.28.05s-.28.14-.44.24c-.07.04-.14.09-.21.14-.07.05-.14.1-.21.16h0ZM80.49,127.75s-.06,0-.1.01-.08.02-.13.03c-.04.01-.08.03-.12.05s-.08.04-.12.07c0,0-.02.01-.03.02,0,0-.02.01-.03.02-.02.01-.03.02-.05.04s-.03.03-.05.04c-.03.03-.06.06-.08.08-.02.03-.04.06-.05.08,0,.01,0,.02,0,.03,0,.01,0,.02,0,.03,0,.01.01.02.02.03,0,0,.02.01.03.02.02,0,.04.01.07,0,.03,0,.06,0,.08-.01.04-.01.08-.03.12-.04.04-.02.08-.04.12-.06,0,0,.01,0,.02-.01,0,0,.01,0,.02-.01.07-.06.12-.11.16-.16.03-.05.06-.09.07-.13,0-.02.01-.04.02-.06,0-.02,0-.04,0-.06h0ZM79.66,129.36s0,.01-.01.02c0,0,0,0-.01.01-.01.01-.02.03-.04.04s-.02.03-.04.04c-.02.02-.04.05-.06.07-.02.02-.03.05-.04.07,0,.01,0,.03,0,.04s0,.02.01.03c0,0,.01,0,.02.01,0,0,.01,0,.02.01.02,0,.05.01.08,0s.07,0,.1-.02c.03,0,.05-.02.08-.03.03-.01.05-.03.08-.04.01,0,.03-.02.05-.03.02-.02.05-.03.07-.05,0,0,0,0,.01,0,0,0,0,0,.01,0,.03-.02.05-.04.07-.06.02-.02.04-.04.05-.05-.02,0-.04-.02-.05-.03-.01,0-.03-.02-.04-.03,0,0-.01-.01-.02-.02,0,0-.01-.01-.02-.02-.02-.03-.04-.05-.05-.08,0-.03-.02-.06-.02-.09-.02.01-.04.03-.06.04-.02.01-.04.03-.05.04-.01.01-.02.02-.03.03-.01,0-.02.02-.03.03-.02.01-.03.03-.05.04-.01.01-.03.03-.05.05h0ZM80.19,129.34s0,0,.02,0c0,0,.01,0,.02-.01.02-.01.03-.03.05-.06.02-.02.03-.05.05-.07,0-.01.01-.02.02-.03,0-.01,0-.02.01-.04h0s0,0,0,0c0-.03.01-.05,0-.07s-.01-.03-.02-.04c0,0,0,0-.01,0,0,0,0,0-.01,0h0s0,0,0,0c0,0-.02,0-.03,0-.01,0-.02,0-.04,0-.03,0-.05,0-.08.02-.03.01-.05.02-.07.04-.01,0-.03.02-.04.03-.01.01-.02.02-.02.03h0s0,.03,0,.04c0,.02,0,.03.01.05,0,.03.02.06.04.09.02.03.04.05.07.06h0s0,0,0,0h0s0,0,0,0h0s0,0,0,0h0ZM81.83,129.56s-.02,0-.02,0c0,0-.01,0-.02,0-.04.01-.08.03-.14.07-.05.03-.13.08-.24.16-.02.02-.05.04-.07.06-.02.02-.05.04-.07.06-.05.05-.09.09-.12.14s-.06.09-.07.12c0,.01,0,.03,0,.04s0,.02,0,.03c0,0,0,0,0,0,0,0,0,0,0,0,0,0,0,0,0,0h0s.05.01.09,0c.03-.01.06-.03.09-.05,0,0,.02,0,.02-.01,0,0,.01-.01.02-.02.12-.09.23-.18.33-.27.1-.09.2-.17.3-.25,0,0,.02-.01.02-.02s0-.01.01-.01c0,0,0-.02,0-.02,0,0,0-.01-.01-.02,0,0,0,0,0,0s0,0,0,0c0,0,0,0-.01,0,0,0,0,0-.01,0-.01,0-.03,0-.05,0-.02,0-.04,0-.07.01h0ZM82.54,128.63s.09,0,.13,0,.08,0,.11-.01c.14-.03.25-.06.31-.11s.11-.06.13-.04c0,0,0,0,0,0,.02.02,0,.05-.07.11-.07.05-.16.1-.27.15-.07.03-.15.06-.23.08-.08.02-.16.04-.25.05-.05,0-.1,0-.15.01-.05,0-.09,0-.13,0-.04,0-.07,0-.11-.02-.04,0-.08-.02-.12-.03-.03,0-.06-.02-.09-.04s-.06-.03-.1-.05l.28-.19c.05.02.11.04.15.05.05.01.1.02.14.03.04,0,.08.01.12.01.04,0,.09,0,.14,0h0Z"/>
      <g>
        <path class="cls-37" d="M30.44,125.54c.99-9.06,2.42-23.95,3.01-31.58,1.45-18.86-5.47-18.86-8.16-18.52s-5.79,2.08-7.91,9.27c-1.85,6.26-.57,46.05,4.24,51.22,1.49,1.6,4.27,1.83,6.3,2.02,4.11.39,8.28.26,12.4.19,4.25-.08,22.45-.65,24.17-.32,2.79.54,5.26,2.03,8.05,2.48,1.66.27,4.36-.24,4.36-.24.57-.08,1.47-.59,2.34-1.59.34-.39.78-.99.78-.99,0,0,.61-.56.86-.92.4-.58.39-1.14.39-1.14,0,0,.26-.2.55-.47,1.16-1.12,2.03-1.61,2.17-2.22.03-.14-.51-.28-1.03-.11-1.03.34-2.48,1.25-2.83,1.34-.52.13-2.05.05-2.49-.06-.44-.11-2.99-.41-3.09-.53-.1-.11.56-.14,1.42-.08.86.06,1.74-.06,2.45-.23.7-.17,1.05-.78.94-.93-.11-.15-.86-.18-1.76-.29-.91-.11-3.13-.74-4.14-.95-1.01-.2-2.34-.07-3.63.3-1.05.3-3.24,1.14-4.74,1.54-1.93.31-24.68-6.42-34.66-7.19Z"/>
        <path class="cls-32" d="M25.29,75.44c-2.69.34-6.85,2.49-8.97,9.68-1.85,6.26-1.63,18.78-1.31,24.48,11.91,2.48,17.96-1.32,17.96-1.32,6.03-35.45-5-33.18-7.69-32.85Z"/>
      </g>
      <path class="cls-33" d="M54.79,33.81s.16-2.65,1.21-2.81c1.06-.16,7.17-1.24,7.65,4.11-1.44-1.18-4.65-4.11-8.86-1.3Z"/>
      <g>
        <path class="cls-11" d="M58.22,50.3c-.22-.24-2.91-.33-6.38-.28-3.47.05-6.15.23-6.37.47-.24.16,1.37,5.61,6.46,5.53,5.09-.08,6.53-5.57,6.28-5.73Z"/>
        <g class="cls-44">
          <g>
            <path class="cls-5" d="M57.43,54.04c-1.35,2.19-3.38,4.29-5.64,4.23-2.45-.05-4.29-1.99-5.41-3.85,1.89-1.71,6.92-3.68,11.05-.39Z"/>
            <path class="cls-20" d="M56.63,48.92c-.01,1.53-.36,1.53-.36,1.53-1.41.74-6.85,1.47-8.92.14-.22-.14-.27-.86-.32-1.35.11-.1.23-.14.32-.14,3.4-.26,7.73-.64,9.28-.18Z"/>
          </g>
        </g>
      </g>
      <path class="cls-3" d="M40.5,38.5s3-4,6.39,0"/>
      <path class="cls-3" d="M55.26,39.1s3.24-3.6,6.39,0"/>
      <path class="cls-33" d="M47.83,33.69s-.16-2.65-1.21-2.81c-1.06-.16-7.17-1.24-7.65,4.11,1.44-1.18,4.65-4.11,8.86-1.3Z"/>
    </g>
  </g>
</svg>