<?xml version="1.0" encoding="UTF-8"?>
<svg xmlns="http://www.w3.org/2000/svg" xmlns:xlink="http://www.w3.org/1999/xlink" viewBox="0 0 100 300">
  <defs>
    <style>
      .cls-1, .cls-2, .cls-3 {
        fill: none;
      }

      .cls-4, .cls-5, .cls-6, .cls-7, .cls-8 {
        mix-blend-mode: multiply;
      }

      .cls-4, .cls-5, .cls-8 {
        opacity: .5;
      }

      .cls-4, .cls-9 {
        fill: #efc99a;
      }

      .cls-4, .cls-10, .cls-7, .cls-8, .cls-11 {
        isolation: isolate;
      }

      .cls-12 {
        fill: #916c7c;
      }

      .cls-13 {
        fill: #d14a4a;
      }

      .cls-14 {
        fill: #832621;
      }

      .cls-2 {
        stroke: #bac2ce;
        stroke-width: 1.32px;
      }

      .cls-2, .cls-3 {
        stroke-linecap: round;
        stroke-linejoin: round;
      }

      .cls-15 {
        fill: #421323;
      }

      .cls-16 {
        fill: #df2528;
      }

      .cls-17 {
        fill: url(#linear-gradient-3);
      }

      .cls-18 {
        fill: url(#linear-gradient-2);
      }

      .cls-19 {
        fill: #411423;
      }

      .cls-20 {
        fill: #e6565f;
      }

      .cls-21 {
        fill: #a3bcbe;
      }

      .cls-22 {
        fill: #6c3b4f;
      }

      .cls-23 {
        fill: url(#linear-gradient);
      }

      .cls-24 {
        fill: #c8e6e7;
      }

      .cls-25 {
        fill: #ecc69c;
      }

      .cls-26 {
        fill: #b22426;
      }

      .cls-27 {
        fill: #b32226;
      }

      .cls-28 {
        fill: #351720;
      }

      .cls-29 {
        fill: #cb2128;
      }

      .cls-30 {
        fill: #c7e5e6;
      }

      .cls-31 {
        fill: #361620;
      }

      .cls-32, .cls-7 {
        fill: #ffb495;
      }

      .cls-3 {
        stroke: #3f0f1b;
        stroke-width: .9px;
      }

      .cls-33 {
        fill: #e63f4b;
      }

      .cls-34 {
        fill: #8a6474;
      }

      .cls-35, .cls-11 {
        fill: #fff;
      }

      .cls-36 {
        fill: #906c7c;
      }

      .cls-37 {
        fill: #541b31;
      }

      .cls-38 {
        fill: #bac2ce;
      }

      .cls-39 {
        fill: #e02228;
      }

      .cls-7 {
        opacity: .3;
      }

      .cls-40 {
        fill: #e5404b;
      }

      .cls-41 {
        fill: #fc9e81;
      }

      .cls-42 {
        fill: #e7626c;
      }

      .cls-43 {
        fill: #5b2b0a;
      }

      .cls-44 {
        fill: #10171c;
      }

      .cls-45 {
        fill: #cb2129;
      }

      .cls-46 {
        fill: #3f0f1b;
      }

      .cls-47 {
        fill: #183145;
      }

      .cls-48 {
        fill: #826e51;
      }

      .cls-49 {
        fill: #e7565f;
      }

      .cls-50 {
        fill: #f5c4b3;
      }

      .cls-51 {
        fill: #594934;
      }

      .cls-52 {
        fill: #fcc5a7;
      }

      .cls-53 {
        fill: #8a6373;
      }

      .cls-54 {
        fill: #fcd2a4;
      }

      .cls-55 {
        fill: #7a3d14;
      }

      .cls-56 {
        fill: #d4e8ec;
      }

      .cls-57 {
        fill: #a4bdbf;
      }

      .cls-58 {
        clip-path: url(#clippath);
      }

      .cls-59 {
        fill: #d5e9ed;
      }

      .cls-60 {
        fill: #e6636c;
      }

      .cls-11 {
        opacity: .55;
      }
    </style>
    <linearGradient id="linear-gradient" x1="26.17" y1="259.85" x2="31.78" y2="259.85" gradientTransform="translate(0 302) scale(1 -1)" gradientUnits="userSpaceOnUse">
      <stop offset="0" stop-color="#ffaa8b" stop-opacity="0"/>
      <stop offset="1" stop-color="#ffaa8b"/>
    </linearGradient>
    <linearGradient id="linear-gradient-2" x1="61.1" y1="259.83" x2="66.7" y2="259.83" gradientTransform="translate(0 302) scale(1 -1)" gradientUnits="userSpaceOnUse">
      <stop offset="0" stop-color="#ffaa8b"/>
      <stop offset="1" stop-color="#ffaa8b" stop-opacity="0"/>
    </linearGradient>
    <linearGradient id="linear-gradient-3" x1="51.5" y1="255.45" x2="51.5" y2="264.23" gradientTransform="translate(0 302) scale(1 -1)" gradientUnits="userSpaceOnUse">
      <stop offset="0" stop-color="#ffaa8b" stop-opacity=".7"/>
      <stop offset=".1" stop-color="#ffaa8b" stop-opacity=".58"/>
      <stop offset=".29" stop-color="#ffaa8b" stop-opacity=".38"/>
      <stop offset=".47" stop-color="#ffaa8b" stop-opacity=".21"/>
      <stop offset=".63" stop-color="#ffaa8b" stop-opacity=".1"/>
      <stop offset=".77" stop-color="#ffaa8b" stop-opacity=".03"/>
      <stop offset=".87" stop-color="#ffaa8b" stop-opacity="0"/>
    </linearGradient>
    <clipPath id="clippath">
      <path class="cls-1" d="M57.3,50.02c-.22-.24-2.91-.33-6.38-.28s-6.15.23-6.37.47c-.24.16,1.37,5.61,6.46,5.53s6.53-5.57,6.28-5.73h.01Z"/>
    </clipPath>
  </defs>
  <g class="cls-10">
    <g id="Layer_1" data-name="Layer 1">
      <g>
        <path class="cls-52" d="M29.57,270.85s-1,10.11-.46,11.57c.19.5,5.8,3.38,5.8,3.38l.04,5.81-10.98-2.06-3.46-1.48-.22-1.55s.74-3.06.61-4.37-.86-11.32-.86-11.32"/>
        <path class="cls-38" d="M20.73,285.7c-.93.16-.56,1.82-.95,4.49-.16,1.11-.11,3.59.14,4.69,1.8,1.61,6.59.64,7.36.61,4.6-.16,9.74,1.16,15.26.41,1.08-.15,3.19-.27,3.69-2.3.06-.26,0-1.65,0-1.65,0,0-10.61-4.65-13.85-6.44-.65-.36-1.23-1.26-1.71-1.26s-.96,1.32-1.37,1.6c-2.01,1.4-5.17,1.31-7.09.89-.83-.19-1.2-1.09-1.48-1.04Z"/>
        <path class="cls-44" d="M20.73,284.4c-.93.16-.56,1.82-.95,4.49-.16,1.11-.31,3.59-.07,4.69,1.8,1.61,6.8.64,7.56.61,4.6-.16,9.87.88,15.26.41,1.13-.1,3.19-.62,3.69-2.66.42-1.74-10.04-5.63-13.85-7.74-.65-.36-1.23-1.26-1.71-1.26s-.96,1.32-1.37,1.6c-2.01,1.4-5.17,1.31-7.09.89-.83-.19-1.2-1.09-1.48-1.04h.01Z"/>
        <g>
          <path class="cls-2" d="M37.7,286.51c-.51.2-.95.56-1.3.99-.35.42-.63.9-.9,1.38"/>
          <path class="cls-2" d="M35.31,285.25c-.94.06-2.28,1.65-2.39,2.9"/>
          <path class="cls-2" d="M33.15,284.32c-.64.22-1.17.68-1.54,1.24-.37.56-.58,1.21-.71,1.87"/>
        </g>
        <path class="cls-2" d="M30.67,282.96s-.96,1.32-1.37,1.6c-2.01,1.4-5.17,1.31-7.09.89-.83-.19-1.2-1.09-1.48-1.04"/>
      </g>
      <g>
        <path class="cls-52" d="M72.4,270.85s-1,10.11-.46,11.57c.19.5,5.8,3.38,5.8,3.38l.04,5.81-10.98-2.06-3.46-1.48-.22-1.55s.74-3.06.61-4.37-.86-11.32-.86-11.32"/>
        <path class="cls-38" d="M63.55,285.7c-.93.16-.56,1.82-.95,4.49-.16,1.11-.11,3.59.14,4.69,1.8,1.61,6.59.64,7.36.61,4.6-.16,9.74,1.16,15.26.41,1.08-.15,3.19-.27,3.69-2.3.06-.26,0-1.65,0-1.65,0,0-10.61-4.65-13.85-6.44-.65-.36-1.23-1.26-1.71-1.26s-.96,1.32-1.37,1.6c-2.01,1.4-5.17,1.31-7.09.89-.83-.19-1.2-1.09-1.48-1.04Z"/>
        <path class="cls-44" d="M63.55,284.4c-.93.16-.56,1.82-.95,4.49-.16,1.11-.31,3.59-.07,4.69,1.8,1.61,6.8.64,7.56.61,4.6-.16,9.87.88,15.26.41,1.13-.1,3.19-.62,3.69-2.66.42-1.74-10.04-5.63-13.85-7.74-.65-.36-1.23-1.26-1.71-1.26s-.96,1.32-1.37,1.6c-2.01,1.4-5.17,1.31-7.09.89-.83-.19-1.2-1.09-1.48-1.04h.01Z"/>
        <g>
          <path class="cls-2" d="M80.52,286.51c-.51.2-.95.56-1.3.99-.35.42-.63.9-.9,1.38"/>
          <path class="cls-2" d="M78.13,285.25c-.94.06-2.28,1.65-2.39,2.9"/>
          <path class="cls-2" d="M75.97,284.32c-.64.22-1.17.68-1.54,1.24s-.58,1.21-.71,1.87"/>
        </g>
        <path class="cls-2" d="M73.49,282.96s-.96,1.32-1.37,1.6c-2.01,1.4-5.17,1.31-7.09.89-.83-.19-1.2-1.09-1.48-1.04"/>
      </g>
      <path class="cls-9" d="M72.89,280.18h-9.81s-11.24-44.71-9.49-64.24c0,0-2.58-10.43-5.43-22.84-.36-1.6-.74-3.25-1.11-4.9-2.52-11.24-5.02-23.17-5.91-30.1-.79-6.05-.45-10.42.26-13.5.42-1.82.98-3.2,1.5-4.2.17-.3.32-.58.48-.83.72-1.14,1.3-1.58,1.3-1.58h21.64s.31,1.08.82,3.21c.17.71.36,1.55.57,2.51,2.27,10.49,6.44,35.13,5.67,71.72,0,0,1.76,43.52-.47,64.77l-.02-.02Z"/>
      <path class="cls-4" d="M66.31,280.18l-2.23.62c-.02-.2-.05-.4-.07-.62h-.93s-11.24-44.71-9.49-64.24c0,0-2.58-10.43-5.43-22.84-.81,2.94-1.67,5.97-2.55,8.92-.49-5.49-.91-10.16-.91-10.16l2.35-3.65,6.32-15.32s3.42,38.13,3.99,41.6c.57,3.48-.37,24.05,2.39,36.06,1.64,7.13,3.63,16.23,4.99,22.45.94,4.27,1.57,7.19,1.57,7.19h0Z"/>
      <path class="cls-41" d="M78.96,167.78s1.16,2.23,1.21,2.97c.05.74.02,2.98-.26,3.59-.27.61-2.01,2.97-2.17,3.39-.16.42-.23,1.37.1,1.44.49.11,3.19-2.9,3.19-2.9l1.9-4.89s-.5-2.91-.58-3.09c-.09-.18-1.73-2.41-1.73-2.41"/>
      <path class="cls-50" d="M65.14,76.79s4.02-5.21,5.93,1.47c1.78,6.22,6.89,28.44,9.89,41.33.43,1.86.7,3.74.81,5.64.36,6.51,1.1,22.68.46,36.14-3.3.68-5.93.41-5.93.41,0,0-5.09-27-5.81-37.52,0,0-9.48-24.99-10.4-38.32-.46-6.67,5.05-9.15,5.05-9.15Z"/>
      <path class="cls-32" d="M53.84,66.03s-.7-6.64-.02-8.97c.68-2.32-14.61-3.04-14.61-3.04,0,0,1,7.52,0,12.01,0,0-2.31,1.11-5.43,1.89,0,0,14.09,9.49,17.72,12.28,0,0,4.66-10.38,7.78-12.42,0,0-3.37-1.14-5.44-1.75Z"/>
      <path class="cls-9" d="M60.49,141.43l-.12,3.6v.38l-.53,15.71c-.1,3.38-1.58,6.62-4.16,9.18l-1.24,1.23s-1,4.22-2.53,10.3c-.85,3.33-1.87,7.22-3,11.27-.81,2.94-1.67,5.97-2.55,8.92-.65,2.15-1.3,4.28-1.96,6.3-2.12,6.48-3.71,13.09-4.77,19.76-2.49,15.68-6.83,42.89-8.54,52.11h-10.17s-6.33-35.28,2.3-64.17c0,0,2.85-31.41-.06-47.14-2.35-12.73.2-21.69,2.41-26.57.45-.99.87-1.8,1.25-2.46.71-1.23,1.21-1.86,1.21-1.86l16.09,1.58,8.46.84,2.94.38,4.55.59.42.06h0Z"/>
      <path class="cls-55" d="M24.82,142.3s28.4,5.54,42.88,1.39c0,0,.17-.82.07-1.46-.22-1.41-.85-1.89-.85-1.89l-41.04-.5s-1.09.56-1.07,2.46h0Z"/>
      <polygon class="cls-47" points="31.47 140.32 30.77 143.73 32.5 143.95 33.23 140.52 31.47 140.32"/>
      <polygon class="cls-9" points="45.43 141.71 45.14 145.17 46.88 145.23 47.2 141.76 45.43 141.71"/>
      <polygon class="cls-9" points="64.44 141.14 64.73 144.59 66.46 144.37 66.2 140.89 64.44 141.14"/>
      <path class="cls-43" d="M53.66,141.63l.43,3.96c.04.35.39.62.8.61,1.2-.02,3.65-.11,5.56-.45.38-.07.64-.38.6-.71-.09-.96-.3-2.91-.5-4.01-.28-1.5-6.9.6-6.9.6h.01Z"/>
      <rect class="cls-54" x="19.1" y="277.28" width="12.41" height="3.42" rx=".86" ry=".86"/>
      <rect class="cls-54" x="61.7" y="277.28" width="12.41" height="3.42" rx=".86" ry=".86"/>
      <path class="cls-7" d="M39.57,58.19s3.6,3.26,7.88,4.4c2.89.77,6-1.19,6.24-4.17,0-.15-.15-.23-.15-.23,0,0-13.97,0-13.97,0Z"/>
      <g>
        <path class="cls-50" d="M30.95,38.01c-.92-.46-2.16-.77-3.13-.28-1.94.98-1.86,3.94-1.3,5.7.48,1.5,3.97,4.95,5.26,2.54"/>
        <path class="cls-23" d="M31.79,45.97c-1.29,2.41-4.78-1.04-5.26-2.54-.54-1.67-.64-4.43,1.02-5.53.09-.06.18-.12.28-.16.97-.49,2.2-.18,3.13.28v.08l.84,7.87h-.01Z"/>
      </g>
      <g>
        <path class="cls-50" d="M66.35,43.45c-.48,1.5-3.97,4.95-5.26,2.54l.84-7.95h.02c.8-.4,1.83-.68,2.72-.43.13.04.27.09.39.15,1.94.97,1.86,3.94,1.3,5.7h-.01Z"/>
        <path class="cls-18" d="M66.35,43.45c-.48,1.5-3.97,4.95-5.26,2.54l.84-7.95h.02c.8-.4,1.83-.68,2.72-.43.13.04.27.09.39.15,1.94.97,1.86,3.94,1.3,5.7h-.01Z"/>
      </g>
      <path class="cls-50" d="M30.09,33.84s1,13.19,1.7,16.07c1.16,4.77,4.95,10.89,14.37,11.85,3.79.38,7.65-.25,10.94-2.17,5.87-3.42,5.27-7.6,5.71-12.97,1.14-14.05,1.27-16.91,1.27-16.91l-3.68-7.13-2.74-3.85-9.93-1.01-8.62.1-5.68.61-1.11,3.55s-2.23,11.86-2.23,11.86Z"/>
      <path class="cls-48" d="M65.06,37.76c-.88-.25-.8-.1-1.59.29l-.03-7.83c-1.6-4.87-4.89-7.97-4.89-7.97.92-.8,1.57-.84,2.17-1.9.87-1.54,1.21-3.44,1.34-5.17,1.56,1.43,2.67,3.19,3.22,4.48.39.89.59,1.84.63,2.81.12,3.7-.12,12.63-.84,15.28h-.01Z"/>
      <path class="cls-48" d="M62.27,15.39c-.13,1.73-.69,3.44-1.56,4.97-.6,1.06-2.63,2.52-2.88,2.49-.61-.09-1.86-.26-3.63-.51-.25-.03-.51-.07-.78-.11-2.61-.36-6.15-.83-10.34-1.36-.52.57-.96.1-1.44.55l1.17.14c-.55-1.37-1.6-.28-1.66-.07-1,3.51-4.87,6.05-8.3,7.44-.24,2.31-2.08,7.94-2.16,9v-.08c-.93-.46-2.17-.77-3.14-.28-.1.05-.19.1-.28.16-.28-1.91-1.79-13.29-1.65-13.95.15-.73,1.12-2.76,3.38-5.62-1.33.61-1.64.29-1.64.29,0,0,.68-.33,2.93-3.03s5.59-4.99,10.08-5.68c1.16-.18,2.72-.11,4.44.12,4.94.65,11.27,2.55,13.9,3.31,1.19.34,2.36,1.13,3.45,2.12.03.03.06.05.1.09h.01Z"/>
      <path class="cls-48" d="M30.69,37.94c0,.07-.1.18-.1.18-1.47-1.12-3.27-.08-3.27-.08,0,0-.02-.11-.05-.3.09-.06.18-.12.28-.16.97-.49,2.2-.18,3.13.28v.08h0Z"/>
      <path class="cls-48" d="M41.28,17.23c-1.51,4.6,2.38,8.64,6.9,8.68,2.95.03,6.02-.92,8.48-2.53,5.13-3.34,6.29-10.77,2.99-15.82-.48-.73-1.1-1.37-1.75-1.96.08,1.32.18,2.16-.46,3.43.03-.96-.67-3.72-1.77-4.72-.66,2-2.94,5-6.83,6.3.63-.76.39-2.42.06-3.36-.1.93-4.57,3.76-5.78,4.36,0,0-1.85,5.61-1.85,5.62h0Z"/>
      <path class="cls-51" d="M61.43,11.84c.38,1.7.33,3.49-.06,5.21-.27,1.18-.73,2.33-1.39,3.37h0c-.3.47-.63.92-1.01,1.34-1.19,1.33-2.71,2.34-4.35,2.98-.82.34-1.66.57-2.51.77-.43.08-.86.14-1.29.22-.43.05-.86.09-1.29.12.42-.1.84-.2,1.26-.29.42-.12.83-.23,1.24-.36.82-.26,1.63-.54,2.4-.91,1.54-.72,2.96-1.69,4.07-2.96.31-.33.58-.69.84-1.06.7-1.01,1.21-2.15,1.56-3.34.25-.81.4-1.65.48-2.51.06-.48.09-.97.09-1.45,0-.37,0-.75-.04-1.13Z"/>
      <path class="cls-51" d="M57.25,15.46c-.06,1.27-.34,2.53-.78,3.73-.44,1.2-1.07,2.34-1.87,3.36-.79,1.03-1.84,1.85-2.98,2.45-1.13.65-2.44.85-3.69.95.3-.1.61-.19.91-.27s.6-.16.88-.31l.86-.36.8-.46c1.03-.65,1.99-1.44,2.73-2.42.77-.95,1.39-2.02,1.91-3.15.51-1.13.94-2.31,1.25-3.54l-.02.02Z"/>
      <path class="cls-51" d="M41.93,17.41c-.36,1.19-.51,2.37-.27,3.5.12.56.29,1.12.57,1.64.11.27.3.51.44.78.16.26.35.5.51.77-.26-.17-.52-.36-.75-.57-.21-.23-.46-.44-.63-.72-.4-.51-.63-1.14-.77-1.77-.13-.64-.11-1.31.05-1.94.15-.62.43-1.22.85-1.69Z"/>
      <path class="cls-17" d="M52.16,38.04h-1.29c.15,2.96.66,5.74.31,7.02-.15.54-1.94.79-1.68.95.8.53,1.51.53,2.01.53s1.51-.04,1.96-.97-1.3-2.16-1.3-7.54h0Z"/>
      <path class="cls-48" d="M33.33,24.93c-.6,7.3-2.64,13.01-2.64,13.01l-1.98-4.97.8-9.18s3.89.15,3.81,1.14h0Z"/>
      <path class="cls-50" d="M25.99,111.4v-.17c-5.72.19-9.83-.98-12.44-2.14,1.96-12.17,4.24-26.06,5.26-30.81,1.44-6.79,5.81-1.88,5.81-1.88,0,0,5.66,2.1,5.67,8.79,0,7.16-2.23,17.85-4.3,26.21Z"/>
      <path class="cls-44" d="M78.75,105.99c0-.06-2.83-26.58-11.02-34.81-.71-.71-1.66-1.16-2.57-1.62-.91-.47-1.85-.87-2.76-1.21-3.3-1.22-6.29-1.66-6.29-1.66-.48,2.51-2.52,5.45-6.35,5.45-8.12,0-12.56-5.28-12.56-5.28,0,0-17.06.96-20.71,14.5-3.83,14.22-6.41,25.68-6.41,25.68,0,0,1.13,1.02,3.48,2.06,2.19.97,5.44,1.95,9.8,2.13h0c.29,0,.59.02.9.02h-.04c-.28,4.49-.55,17.59-.67,21.03-.09,2.73-1.14,6.47,4.58,7.79.14.03.28.06.44.09.3.07.62.11.94.16.41.06.86.12,1.35.2.32.05.65.1,1.02.16h.03c.34.06.7.11,1.07.17.64.1,1.31.21,2.01.32.35.06.71.11,1.08.17,1.56.24,3.25.48,5.05.69.32.04.65.08.99.11.98.1,1.97.21,3.01.29h.14c1.05.09,2.14.15,3.23.21,3.62.15,7.43.09,11.21-.39.58-.07,1.15-.15,1.72-.25.37-.06.73-.12,1.1-.19h.05c.8-.14,1.58-.31,2.37-.5,1.12-.29,4.05-1.77,3.85-4.56-.1-1.58-.21-3.11-.3-4.57-.73-11.09-1.02-18.65-1.23-21.15,6.81-.89,8.77-1.95,11.49-5.05h0ZM25.33,111.24h.67s-.31.02-.67,0Z"/>
      <g class="cls-5">
        <path d="M33.23,93.3c.09,5.67-.29,11.33-.86,16.96-2.61.62-5.25,1.01-7.93,1.01-.86,0-1.72-.04-2.57-.14,1.71-.03,3.4-.19,5.08-.48,1.67-.26,3.34-.63,4.95-1.1l-.29.35c.27-5.56.71-11.11,1.62-16.61h0Z"/>
      </g>
      <path class="cls-8" d="M78.52,106.23c-2.72,3.09-4.45,3.92-11.26,4.81l-1.42-14.07s1.35,9.96,4.35,11.15c2.93,1.16,8.08-1.74,8.34-1.89h0Z"/>
      <path class="cls-8" d="M62.57,141.84h-.05c-.29.09-.69.14-1.1.19-.63.07-1.3.11-1.72.25-3.78.47-7.58.54-11.21.39-1.09-.06-2.17-.12-3.23-.21h-.14c-1.03-.09-2.03-.19-3.01-.29-.33-.04-.66-.08-.99-.11-1.8-.21-3.49-.46-5.05-.69-.37-.06-.73-.11-1.08-.17-.7-.11-1.38-.22-2.01-.32-.38-.06-.73-.11-1.07-.17h-.03c-.36-.06-.69-.11-1.02-.16-.48-.08-.94-.14-1.35-.2-.32-.05-.64-.09-.94-.16-.15-.03-.29-.06-.44-.09-5.72-1.32-4.67-5.06-4.58-7.79.12-3.44.4-16.54.67-21.03h.04c-.31,0-.61,0-.9-.02.36-.05,8.08-1.02,8.63-1.28,0,0-3.81,20.17-3.81,23.85s13.51,9.47,34.38,8.05v-.04Z"/>
      <g class="cls-6">
        <path class="cls-9" d="M63.43,144.59c1.72,2.62,2.94,6.02,5.87,7.48-.84-.08-1.57-.6-2.16-1.16-1.76-1.74-2.94-3.99-3.71-6.32h0Z"/>
      </g>
      <g class="cls-6">
        <path class="cls-9" d="M53.37,172.88c.8-2.43,2.1-4.66,2.61-7.17.52-2.15.99-5.32,1.38-7.53-.13,3.2-.45,6.44-1.46,9.51-.73,1.79-1.63,3.49-2.53,5.2h0Z"/>
      </g>
      <g>
        <g>
          <path class="cls-15" d="M72.51,129.54c-.28.59-.33,1.19-.45,1.81-.02.08-.13.17-.14.23-.23-.17-.24.15-.33.19-.05.02-.29-.08-.34-.04-.11.09-.18.68.04.57.03,0,.03-.18.08-.21.07-.04.29.15.26-.23l.33.12c-.43,2.09-.88,3.88-1.81,5.81-.7,1.45-2.68,3.76-.42,4.82,1.02.48,2.16.34,2.77-.67,1.2-3.35,2.35-6.72,3.56-10.07.15-.13.29-.51.26-.72.01-.04.02-.08.04-.11.11,0,.22.02.32.05.77.23,1.83.59,2.53.96.15.08.17,0,.08.21-.59.21-1.18.64-1.79.84-.09.06.1.44.17.4.09-.06-.05-.35.36-.12,0-.43.38.09.32-.38.23.21.22.05.39-.02.07-.03.16,0,.19-.03-.1.23-.21.5-.33.71-.45.8-.97,1.58-1.39,2.4-.14.28-.81,1.63-.72,1.83l-2.34,1.15c-.05.1.11.36.24.36.03-.25.17-.1.22-.12.05-.02.05-.16.11-.2.07-.05.19.03.26,0,.04,0,.72-.33.75-.36.05-.04.33-.4.36-.42.09-.05.12.12.13.17.06.49-.15.78-.23,1.19-.17.89-.29,2.5-.66,3.26-.24.49-.94.87-1.45,1.02-.14.04-.32.02-.49.07-.2,0-.12-.16-.13-.17-.09-.11-.13.04-.16.04-.34.08-.26.14-.37.19-.05.02-.14-.05-.16-.04-.02-.14-.17-.1-.26-.1-.68-.04-2.05-.52-2.69-.82-.29-.13-.47-.37-.71-.49-.2-.1-.44-.14-.64-.25-.19-.1-.36-.35-.55-.43s-.08.26-.24.23c.08-.34.15-.67.23-1.01.03-.13.11-.17-.08-.12.01-.04.03-.07.04-.11.03,0,.05-.02.08-.04.16-.1.36-.79.35-1,0-.04.02-.09-.02-.13.4-.89,1.12-1.82,1.58-2.73.23-.44.4-.92.62-1.37,0,0,.03.08.01.15-.04.16-.13.31-.17.48l.05.02.47-1.33-.06-.02c.01.16-.16.3-.19.37.13-.58.3-1.16.42-1.75.2-.96.24-2.53.51-3.36,0,0,.08-.04.11-.11.1-.29.2-.58.3-.86l.78.27h0ZM69.88,136.97c-.03-.05.24-.43.12-.52l-.5,1.07c.13,0,.3-.42.35-.43s.16.06.22.07c.12-.18-.16-.14-.18-.19h-.01Z"/>
          <path class="cls-22" d="M81.41,132.62c-.46-.05-.91-.26-1.35-.42-.07-.03-.15-.05-.22-.08-1.14-.4-2.27-.81-3.41-1.21-.06-.03-.05.06-.07.1-.02.03-.02.08-.04.11-.1.23-.17.48-.26.72-1.21,3.35-2.36,6.72-3.56,10.07-.6,1.01-1.75,1.15-2.77.67-2.27-1.06-.28-3.37.42-4.82.94-1.94,1.38-3.72,1.81-5.81.02-.11-.05-.37-.05-.39.01-.06.13-.14.14-.23.13-.62.17-1.22.45-1.81l.11.04.78.27c-.09.31-.23.61-.33.92-.02.07.01.14.01.15-.04.13-.1.26-.14.39-.51,1.99-.84,3.89-1.62,5.82-.46,1.14-1.61,2.83-1.59,3.96,0,.06-.04.13-.03.22s.07.13.08.17c.04.14-.04.23.17.36.71.45,1.26.03,1.63-.59,1.04-1.71,1.83-3.99,2.37-5.91.06-.21.11-.43.16-.63.38-1.45.72-2.77,1.17-4.2,0-.02.01-.04.02-.06l1.11.39c1,.35,2,.71,3,1.06.26.09,1.74.65,1.84.62.12-.03.41-1.01.48-1.21.57-1.52,1.11-3.08,1.64-4.63.28-.39.35-.93.55-1.37,0,.03.05.15,0,.21-.89,2.34-1.61,4.74-2.51,7.08v.04Z"/>
          <path class="cls-31" d="M83.88,121.76c.04,1.1.24,2.5.05,3.57-.19.44-.27.98-.55,1.37,0-.02.01-.04.02-.06.03-.09.24-.6.19-.62l-.15.32c-.25-.06-.12-.08-.12-.19,0-.25-.15.06-.16.07-.07.04-.33-.08-.37.2-.35-.12-.7-.26-1.05-.37-.06-.02-.11-.04-.17-.06l-3.05-1.08.02-.06,3.05,1.08c.22-.99.63-1.96.51-2.99.22-.32.05-.79.12-1.07.03-.15.17-.26.18-.35,0-.08-.09-.15-.03-.24.38.11.76.3,1.14.41.08.02.13-.01.15-.01.07.01.15.06.22.08Z"/>
          <path class="cls-59" d="M81.63,116.28c-.71,1.25-1.03,2.73-1.56,4.07l2.22.78s.03.05.04.08c-.74-.26-1.48-.52-2.22-.78-.28-.1-.63-.16-.85-.24l-.33-.12c-.28-.1-.66-.29-.98-.41-.2-.07-.41-.14-.61-.22l-.78-.27s0-.04.02-.06l1,.35c.08-.34.32-.61.53-.88.46-.59,1.04-1.08,1.49-1.71.23-.32.58-.73.6-1.11l1.44.51h0Z"/>
          <path class="cls-57" d="M79.6,114.63c.15.05.3.11.44.16.33.11.67.24,1,.35,1.09.38,2.26.75,3.33,1.18.5.2.36.18.19.69-.19-.06-.37-.13-.55-.2-.37-.12-.74-.27-1.11-.39-.04.09-.06.19-.1.28l1.11.39c-.33.93-.07,3.54-.03,4.67-.07-.02-.15-.07-.22-.08l-1.33-.47s-.04-.06-.04-.08c.09-1.1.14-3.53.51-4.44l-1.16-.41-1.44-.51-.78-.27c.02-.06.11-.26.1-.28-.07-.16-.83.07-.3-.73.13.04.26.1.39.14h0Z"/>
          <path class="cls-15" d="M77.33,119.44c-.39.56-.88,1.04-1.3,1.57-.79,1-.95,1.33-1.39,2.54l-.22-.08-.55-.2s.01-.04.02-.06c.24-.16.37-1.28.61-1.27.09,0,.28.11.3.1.05-.03,0-.33.24-.16.08-.21-.25-.08-.05-.39l-.19.18-.16-.24c.59-.81,1.27-1.5,1.92-2.25l.78.27h0Z"/>
          <path class="cls-24" d="M80.19,115.77c-.02.38-.37.79-.6,1.11-.45.63-1.03,1.11-1.49,1.71-.21.27-.44.54-.53.88l-1-.35c.77-.89,2.53-2.6,2.84-3.61l.78.27h0Z"/>
          <path class="cls-29" d="M84.79,113.53c.25.14.29.39.27.66-.28.6-.41,1.4-.7,1.97-.03.05-.02.06-.09.06-.16-.16-.56-.3-.78-.27-.09-.03-.18-.07-.28-.1.07-.12-.07-.11-.05-.23.13-.58.54-1.26.66-1.83.03-.16-.06-.3.03-.45l.94.33c.05-.09-.11-.1-.17-.12-.67-.27-1.37-.48-2.05-.73-.09-.03-.26-.05-.28-.16.64.21,1.97.59,2.5.88h0Z"/>
          <path class="cls-39" d="M81.02,112.2c.1-.01.17.12.2.13-.1,0-.17.05-.24.12-.45.44-.61,1.69-.92,2.28l-.39-.14.63-1.96c.14-.29.39-.44.72-.43Z"/>
          <path class="cls-29" d="M73.86,123.27c-.68,1.93-1.37,3.87-2.06,5.8l.12.2-.22-.08c.61-1.98,1.36-4,2.1-5.94,0,0,.06.02.06.02Z"/>
          <path class="cls-12" d="M84.01,116.81c-.03.09-.07.19-.1.28l-1.11-.39c.04-.09.06-.19.1-.28.37.13.74.27,1.11.39Z"/>
          <path class="cls-27" d="M84.37,116.31c-1.07-.43-2.24-.8-3.33-1.18l.02-.06c.72.25,1.44.52,2.16.77.09.03.18.07.28.1.17.06.65.27.78.27q.06,0,.09-.06c.29-.57.42-1.38.7-1.97-.06.68-.51,1.45-.69,2.13h0Z"/>
          <path class="cls-37" d="M74.64,121.42l.16.24.19-.18c-.2.31.13.18.05.39-.25-.16-.19.14-.24.16-.02,0-.21-.1-.3-.1-.25,0-.37,1.11-.61,1.27.15-.43.37-.9.42-1.35.1-.22.23-.29.34-.44h-.01Z"/>
          <path class="cls-42" d="M84.79,113.53c-.52-.3-1.86-.67-2.5-.88-.03,0-.1.03-.13.02-.29-.09-.68-.21-.94-.33-.03-.02-.1-.15-.2-.13.07,0,.09-.02.21,0,1,.25,2.28.8,3.28,1.16.09.03.26.05.28.16Z"/>
          <path class="cls-29" d="M80.3,112.63l-.63,1.96.39.14-.02.06c-.15-.05-.29-.11-.44-.16.28-.62.42-1.39.71-2h-.01Z"/>
          <path class="cls-37" d="M70.4,135.34c.03-.07.2-.21.19-.37l.06.02-.47,1.33-.05-.02c.04-.16.13-.31.17-.48.02-.07-.01-.15-.01-.15.04-.11.07-.23.12-.33h0Z"/>
          <path class="cls-31" d="M73.88,123.21s-.01.04-.02.06l-.06-.02c.17-.44.3-.97.49-1.39-.04.45-.26.92-.42,1.35h0Z"/>
          <path class="cls-31" d="M68.1,139.9l-.35,1s-.05.03-.08.04c.1-.35.26-.84.41-1.16.04.04.02.09.02.13h0Z"/>
          <path class="cls-31" d="M71.33,130.24c.11-.33.25-.66.35-1l.06.02c-.1.29-.21.58-.3.86-.02.07-.1.11-.11.11h0Z"/>
          <path class="cls-27" d="M71.92,129.26c.09.03.18.07.28.1.11.04.22.08.33.12.04,0,.07.03.11.04l-.02.06-.11-.04-.78-.27-.06-.02s.01-.04.02-.06l.22.08h0Z"/>
          <path class="cls-37" d="M76.49,137.87s.07,0,.07.02c.07.17.08.14.16.25.13.19-.12.06-.16.08-.03.02-.04.11-.08.13s-.21-.08-.27.11c0-.04-.04-.22-.13-.17-.03,0-.31.38-.36.42-.03.03-.71.35-.75.36-.08.02-.19-.07-.26,0-.06.04-.07.18-.11.2-.05.02-.19-.13-.22.12-.13,0-.3-.26-.24-.36l2.34-1.15h.01Z"/>
          <path class="cls-37" d="M80.06,132.2c.08.24-.1.05-.15.08-.04.03-.04.13-.07.17-.25.26-.33-.12-.4-.09-.02,0-.18.29-.35.28.03.07.14.04.07.15-.09.02-.17.1-.24.14-.03,0-.12,0-.19.03-.17.06-.16.23-.39.02.05.47-.33-.05-.32.38-.41-.22-.27.07-.36.12-.06.04-.26-.34-.17-.4.61-.2,1.2-.63,1.79-.84.2-.07.32-.12.54-.12.07.03.15.05.22.08h.02Z"/>
          <path class="cls-37" d="M72.57,144.03s.1.07.16.04c.12-.05.03-.11.37-.19.03,0,.07-.15.16-.04,0,0-.07.17.13.17,0,0,0,.08-.05.09-.04,0-.13-.05-.15-.03-.07.04.01.26-.24.2-.06-.02-.13-.1-.17-.09-.16.03-.49.74-.8.49.06.23-.15.16-.25.21-.04.02-.05.12-.07.13-.11.05-.3-.27-.35.13l-.18-.19s0-.07-.04-.08c.01,0,.05-.13.16-.2.17-.11.52-.16.66-.22s.44-.36.67-.43h-.01ZM71.67,144.72l-.02.06s.05-.02.02-.06Z"/>
          <path class="cls-37" d="M71.92,131.57s.07.28.05.39l-.33-.12c.03.38-.19.19-.26.23-.05.03-.06.2-.08.21-.22.12-.15-.48-.04-.57.05-.04.29.06.34.04.08-.03.1-.35.33-.19h0Z"/>
          <path class="cls-31" d="M79.84,132.13c-.22,0-.35.05-.54.12.09-.21.07-.14-.08-.21-.7-.37-1.76-.73-2.53-.96-.11-.03-.21-.05-.32-.05.02-.04.01-.13.07-.1,1.14.4,2.27.81,3.41,1.21h-.01Z"/>
          <path class="cls-37" d="M69.88,136.97s.31,0,.18.19c-.06,0-.17-.09-.22-.07-.05.02-.22.44-.35.43l.5-1.07c.11.09-.15.47-.12.52h.01Z"/>
          <path class="cls-37" d="M67.75,140.89l.35-1c0,.21-.19.9-.35,1Z"/>
          <path class="cls-31" d="M76.06,131.85c.09-.24.16-.49.26-.72.03.21-.1.59-.26.72Z"/>
          <path class="cls-15" d="M77.43,142.25c-.3,0-.52.37-.78.11.04.42-.22.04-.32.38-.07.03-.23-.25-.19-.35s1.29-.63,1.49-.75l-.2.6h0Z"/>
          <path class="cls-15" d="M71.08,144.88s.04.05.04.08c-.19.52-.35.04-.29-.07.05-.08.24,0,.25,0h0Z"/>
          <path class="cls-37" d="M76.06,142.46s-.02.36-.03.43c-.35-.09-.1-.64.03-.43Z"/>
          <rect class="cls-15" x="77.81" y="138.36" width="1.06" height=".06" transform="translate(-78.26 166.1) rotate(-70.52)"/>
          <rect class="cls-15" x="67.37" y="142.4" width=".23" height=".06" transform="translate(-89.29 158.56) rotate(-70.52)"/>
          <path class="cls-53" d="M75.29,130.52c-.46,1.43-.79,2.75-1.17,4.2-.24.19-.52.24-.8.37-.08.04-.18.08-.28.13-.17.08-.41.22-.58.32l.18.35c.08-.26.15-.3.36-.12.05-.31.13-.16.29-.21.24-.07.43-.25.67-.2-.53,1.92-1.33,4.2-2.37,5.91-.38.62-.92,1.04-1.63.59-.21-.13-.13-.22-.17-.36l.15-.26.22.15c.14-.14.36-.13.5-.23.08-.06.38-.44.41-.45.16-.06.12.26.24.21.05-.02.16-.3.18-.31.06-.03.23.17.25,0-.06-.12-.19-.13-.18-.28-.3.11-.6.23-.88.37-.1.05-.2.11-.33.18-.19.09-.39.24-.6.25-.02-1.14,1.12-2.82,1.59-3.96.79-1.93,1.12-3.83,1.62-5.82.14.12.33-.11.37-.18-.19-.05.08-.3-.23-.21,0,0-.03-.08-.01-.15.09-.31.23-.61.33-.92l1.89.67-.02-.04Z"/>
          <path class="cls-39" d="M81.73,126.06l-.34.1-1.98,5.76c-1-.35-2-.71-3-1.06.05-.45.26-.92.42-1.35.02-.07.11-.14.13-.2.06-.17.08-.4.11-.49l1.08-3.05s.1-.1.14-.2c.08-.19.14-.4.15-.61,1.04.37,2.1.7,3.13,1.04.06.02.11.04.17.06h0Z"/>
          <path class="cls-27" d="M82.79,126.43l.61.22s-.01.04-.02.06c-.53,1.54-1.07,3.11-1.64,4.63-.08.2-.36,1.17-.48,1.21-.1.03-1.59-.54-1.84-.62l1.98-5.76.34-.1c.35.12.7.25,1.05.37h0Z"/>
          <path class="cls-42" d="M77.35,124.51l.06.02-.02.06c-.81,1.91-1.45,3.92-2.08,5.88,0,.02-.01.04-.02.06l-1.89-.67-.78-.27.02-.06c.14.04.73.31.81.18.29-1.06.87-2.16,1.14-3.21.03-.13-.03-.21-.02-.27s.15-.11.2-.23c.28-.62.49-1.43.73-2.08,0-.02.01-.04.02-.06,0,0,1.83.65,1.83.65Z"/>
          <path class="cls-33" d="M78.44,124.95c0,.21-.07.41-.15.61-.04.09-.13.17-.14.2l-1.08,3.05c-.03.1-.05.32-.11.49-.22-.27-.63.09-.89.22-.06.03-.19,0-.21.05-.07.14.11.44.17.4,0-.39.67-.06.62-.5l.17.03c-.15.43-.37.9-.42,1.35l-1.11-.39c.63-1.96,1.27-3.97,2.08-5.88l1.05.37h.02Z"/>
          <path class="cls-12" d="M69.74,141.1c.21,0,.41-.16.6-.25.13-.06.23-.13.33-.18.29-.14.59-.26.88-.37,0,.15.12.16.18.28-.02.17-.19-.02-.25,0-.02,0-.12.29-.18.31-.11.05-.08-.27-.24-.21-.03,0-.33.39-.41.45-.14.1-.36.09-.5.23l-.22-.15-.15.26s-.07-.08-.08-.17.03-.16.03-.22v.02Z"/>
          <path class="cls-12" d="M73.95,135.35c-.24-.05-.43.13-.67.2-.16.05-.24-.1-.29.21-.2-.18-.28-.14-.36.12l-.18-.35c.17-.1.41-.23.58-.32.1-.05.2-.09.28-.13.28-.13.56-.17.8-.37-.05.19-.1.42-.16.63h0Z"/>
          <path class="cls-12" d="M73.08,130.92c.31-.09.04.16.23.21-.04.07-.23.29-.37.18.03-.13.1-.26.14-.39Z"/>
          <path class="cls-15" d="M82.33,121.21l1.33.47s-.08.03-.15.01c-.38-.11-.76-.3-1.14-.41-.07.09.04.16.03.24,0,.1-.14.21-.18.35-.07.28.1.75-.12,1.07.12,1.03-.28,2-.51,2.99l-3.05-1.08,1.57-4.44c.74.26,1.48.52,2.22.78v.02ZM80.08,123.66s.12.05.25,0c.03-.01.41-.24.45-.27.05-.04.25-.34.34-.35.06,0,.48.3.42-.17l.18.03c-.08-.12-.17-.16-.08-.31l-2.41,1.08c-.12.07-.03.33.07.34.05,0,.11-.11.15-.12.08-.01.19.07.21.06.03-.01.04-.2.08-.22.02,0,.14.07.23.05.07-.01.09-.12.1-.12-.08.04-.16-.11-.07-.15s.15.11.07.15h.01Z"/>
          <path class="cls-22" d="M80.11,120.42l-1.57,4.44-.02.06-1.11-.39-.06-.02c.47-1.51,1.21-2.91,1.9-4.32.22.08.57.14.85.24h0Z"/>
          <path class="cls-27" d="M78.52,124.92l3.05,1.08c-1.03-.34-2.09-.68-3.13-1.04l-1.05-.37.02-.06,1.11.39Z"/>
          <path class="cls-37" d="M83.4,126.64l-.61-.22c.04-.28.3-.16.37-.2.01,0,.16-.32.16-.07,0,.1-.13.13.12.19l.15-.32s-.16.53-.19.62Z"/>
          <path class="cls-24" d="M82.8,116.7c-.37.91-.42,3.33-.51,4.44l-2.22-.78c.54-1.34.86-2.81,1.56-4.07l1.16.41h.01Z"/>
          <path class="cls-53" d="M79.25,120.19c-.7,1.41-1.43,2.81-1.9,4.32l-1.83-.65c.58-1.55,1.07-2.16,1.98-3.48.16.03.02.21.21.19.06,0,.34-.2.44-.24.12-.04.46-.13.58-.14.11,0,.14.12.19-.12.11.04.22.08.33.12Z"/>
          <path class="cls-22" d="M77.94,119.66c-.12.25-.28.49-.44.72-.91,1.32-1.4,1.94-1.98,3.48l-.11-.04-.78-.27c.44-1.2.6-1.54,1.39-2.54.42-.53.92-1.01,1.3-1.57.2.07.41.14.61.22h.01Z"/>
          <path class="cls-12" d="M78.92,120.07c-.05.25-.08.12-.19.12-.12,0-.46.1-.58.14-.1.04-.38.24-.44.24-.19.01-.05-.17-.21-.19.16-.23.32-.46.44-.72.32.12.69.31.98.41Z"/>
          <path class="cls-49" d="M82.16,112.66c-.69.54-.73,1.65-1.1,2.42l-.02.06c-.33-.12-.67-.24-1-.35l.02-.06c.31-.59.47-1.84.92-2.28.07-.07.15-.11.24-.12.26.13.66.24.94.33Z"/>
          <path class="cls-39" d="M74.41,123.47l.2.13c-.71,1.93-1.35,3.89-2.06,5.82-.11-.03-.26-.14-.35-.06-.09-.03-.18-.07-.28-.1l-.12-.2c.69-1.93,1.37-3.87,2.06-5.8l.55.2h0Z"/>
          <path class="cls-29" d="M74.63,123.54s-.01.04-.02.06l-.2-.13.22.08h0Z"/>
          <path class="cls-39" d="M82.3,112.65c.03.11.19.13.28.16.68.25,1.38.46,2.05.73.07.03.22.03.17.12l-.94-.33c-.09.16,0,.29-.03.45-.12.58-.53,1.25-.66,1.83-.03.12.12.11.05.23-.72-.25-1.44-.52-2.16-.77.37-.77.42-1.88,1.1-2.42.03,0,.1-.03.13-.02v.02Z"/>
          <path class="cls-39" d="M84.28,116.22c-.12,0-.6-.21-.78-.27.22-.03.61.11.78.27Z"/>
          <path class="cls-33" d="M75.41,123.82l.09.09c-.24.66-.45,1.46-.73,2.08-.05.11-.19.17-.2.23,0,.05.06.14.02.27-.27,1.05-.85,2.15-1.14,3.21-.08.12-.67-.14-.81-.18-.04,0-.07-.03-.11-.04l.02-.06c.71-1.93,1.35-3.89,2.06-5.82,0-.02.01-.04.02-.06l.78.27h0Z"/>
          <path class="cls-29" d="M72.55,129.42l-.02.06c-.11-.04-.22-.08-.33-.12.1-.08.25.03.35.06Z"/>
          <path class="cls-31" d="M81.41,132.62c-.85,2.23-2.6,4.1-3.21,6.44-.59,2.25-.36,3.99-1.58,6.17-.33.59-1.26,2.1-2.08,1.8-.68-.24-.76-.46-1.24-.84-.71-.56-1.34-.08-2.08-.35s-.88-.99-1.86-1.04c-.52-.03-.71.15-1.38-.07-.2-.06-.3-.15-.42-.31-.48-.64-.14-2.63.07-3.37.2-.05.11,0,.08.12-.08.34-.16.67-.23,1.01.16.03.05-.31.24-.23s.36.33.55.43c.21.11.44.14.64.25.23.12.42.36.71.49.64.3,2.02.78,2.69.82.09,0,.24-.03.26.1-.23.07-.54.37-.67.43s-.49.11-.66.22c-.11.07-.15.19-.16.2s-.2-.08-.25,0c-.07.11.1.59.29.07l.18.19c.05-.4.24-.09.35-.13.02,0,.03-.11.07-.13.1-.06.31,0,.25-.21.32.25.64-.46.8-.49.04,0,.1.08.17.09.26.06.17-.16.24-.2.03,0,.11.05.15.03s.04-.09.05-.09c.18-.06.35-.03.49-.07.5-.15,1.21-.54,1.45-1.02.37-.76.5-2.37.66-3.26.08-.42.29-.71.23-1.19.07-.18.24-.08.27-.11.04-.02.04-.11.08-.13s.29.11.16-.08c-.08-.11-.09-.07-.16-.25,0-.02-.07,0-.07-.02-.09-.2.57-1.55.72-1.83.42-.82.93-1.61,1.39-2.4.12-.21.23-.48.33-.71.07-.03.15-.12.24-.14.07-.11-.04-.08-.07-.15.17,0,.33-.27.35-.28.08-.03.15.35.4.09.04-.04.03-.14.07-.17.05-.03.22.16.15-.08.44.15.89.36,1.35.42v-.02ZM78.19,138.91l.35-1-.06-.02-.35,1,.06.02ZM77.43,142.25l.2-.6c-.2.12-1.45.65-1.49.75-.03.1.12.38.19.35.1-.35.37.04.32-.38.25.26.47-.12.78-.11h0ZM76.06,142.46c-.12-.22-.37.34-.03.43,0-.07.04-.41.03-.43ZM67.47,142.55l.08-.22-.05-.02-.08.22.05.02Z"/>
          <path class="cls-31" d="M71.67,144.72s.02.05-.02.06l.02-.06Z"/>
          <path class="cls-49" d="M76.97,129.3c-.02.07-.11.14-.13.2l-.17-.03c.05.44-.61.11-.62.5-.07.04-.25-.26-.17-.4.02-.04.15-.02.21-.05.25-.13.67-.49.89-.22h-.01Z"/>
          <path class="cls-29" d="M75.52,123.86s-.01.04-.02.06l-.09-.09.11.04h0Z"/>
          <path class="cls-37" d="M80.08,123.66s-.04.11-.1.12c-.09.02-.21-.06-.23-.05-.03.02-.05.21-.08.22-.02.01-.14-.08-.21-.06-.04,0-.1.13-.15.12-.1,0-.19-.27-.07-.34l2.41-1.08c-.09.15,0,.19.08.31l-.18-.03c.05.47-.36.16-.42.17-.1.02-.29.31-.34.35-.04.03-.41.26-.45.27-.13.06-.23,0-.25,0,.08-.04.01-.19-.07-.15s0,.19.07.15h-.01Z"/>
        </g>
        <path class="cls-11" d="M75.21,125.8h0c-.06-.02-.13-.02-.22,0s-.18.04-.28.08c-.06.02-.13.05-.2.08s-.13.06-.19.1c-.04.02-.09.05-.13.07s-.08.05-.11.07c-.05.03-.1.07-.15.1-.05.04-.1.07-.14.11-.11.1-.21.19-.3.29s-.15.2-.19.3c0,.01-.01.03-.02.04v.04c-.06.14-.07.27-.03.37.04.1.13.2.26.28.03.02.06.04.09.05.03,0,.06.03.09.04.04,0,.08.02.11.03.04,0,.08.02.11.02.04,0,.09,0,.13,0h.29c.07,0,.14,0,.19.02s.12,0,.17.02.11,0,.17.02c.06,0,.12.02.19.03h.04c.05,0,.09,0,.13.02.04,0,.08,0,.12.02.04,0,.07,0,.11.02.04,0,.07.02.11.04h.02s.01,0,.02,0h.04c.19.08.35.17.47.28.12.1.24.23.33.38.02.03.04.07.06.1.02.04.04.07.06.11-.03-.05-.08-.11-.14-.15-.06-.05-.12-.09-.18-.12-.03-.02-.07-.04-.1-.05-.04,0-.07-.03-.1-.04-.03,0-.05-.02-.07-.02s-.05,0-.07-.02h-.12s-.08,0-.11.02c-.03,0-.06.02-.09.02-.02,0-.04,0-.05.02l-.04-.08s-.03-.06-.06-.1c-.03-.04-.08-.09-.14-.14s-.14-.1-.24-.15c-.01,0-.02,0-.03-.02h-.04c-.1-.05-.2-.07-.32-.08-.11,0-.24-.03-.37-.04h-.14c-.12,0-.25,0-.36-.02-.12,0-.23-.03-.33-.07h-.03s-.02-.02-.03-.03c-.01,0-.02,0-.03,0-.01,0-.02,0-.03-.02-.04-.02-.09-.05-.14-.07-.05-.03-.1-.06-.15-.1-.09-.08-.17-.18-.22-.32s-.05-.31.03-.53c.06-.18.18-.34.34-.48s.36-.27.57-.39c.14-.08.28-.14.42-.19s.28-.09.42-.12c.11-.02.22-.03.32-.03s.19.01.28.04h0c.06.02.1.06.14.11.03.05.04.11.03.17h0v.04l-.02.02c-.03.06-.08.11-.14.15s-.12.05-.17.03h-.02s-.04-.04-.05-.06v-.06s.01-.03.03-.04l.04-.04s.03-.02.05-.03c.02,0,.04-.01.06-.01h.1v-.02h0v-.07s-.03-.03-.06-.04h.01ZM76.11,128.09s-.03-.06-.03-.09v-.1h0s-.01.02-.03.03-.05.03-.08.04c-.04.02-.08.03-.13.04-.05,0-.1,0-.14,0-.07-.03-.12-.06-.13-.11-.02-.04-.02-.09,0-.13v-.04s.02-.04.03-.06c0-.02.02-.03.02-.05v-.02s.01-.01.02-.01c0,0-.03.02-.07.05-.04.02-.09.05-.15.07-.06.02-.12.04-.19.05-.07,0-.13,0-.19,0h-.06c-.1-.05-.16-.1-.18-.15-.02-.06-.02-.13,0-.2h0s.02-.05.05-.09.05-.07.08-.11c0-.01.02-.03.03-.04s.02-.03.04-.04c.03-.04.06-.07.08-.09s.04-.04.05-.04l-.16-.02s-.04.04-.08.07c-.04.04-.09.07-.14.11-.02.01-.03.02-.05.04-.02.01-.04.02-.05.04h-.02c-.11.07-.22.12-.33.16s-.21.05-.31.02h0s-.02-.01-.03-.02-.02-.01-.03-.02c-.04-.03-.06-.06-.09-.1-.02-.04-.03-.09-.01-.16h0v-.02h0c.03-.09.07-.16.13-.23s.14-.14.25-.23c.05-.04.1-.07.15-.1s.1-.06.15-.08c.12-.06.23-.09.33-.1s.18,0,.23.01c.06.02.1.06.13.1s.03.11.01.18h0s-.01.04-.02.05c0,.02-.02.03-.02.04-.01.02-.02.03-.03.05-.01.02-.02.03-.03.04-.02.02-.03.03-.04.05-.01.01-.02.02-.03.02h.02s.04,0,.06.01c.03,0,.06,0,.11-.02.05-.01.09-.03.12-.04.03-.01.07-.03.1-.05h.02s.05-.02.07-.03.06-.02.09-.03c.06-.02.12-.04.17-.05.05,0,.1-.01.14-.01h.05s.03,0,.04.01h.01c.05.02.09.06.12.1.03.05.03.09.01.15h0c-.02.05-.05.1-.09.13s-.08.06-.12.07c-.02,0-.04.01-.06.01h-.05s-.04-.03-.05-.05v-.08h0s.01-.03.02-.04c0-.01.02-.02.03-.02.01-.01.03-.02.05-.02s.03-.01.05-.01h.12v-.02s0-.02-.02-.03c0,0-.03-.02-.05-.03h-.11c-.05.01-.1.03-.16.06-.04.02-.07.04-.11.06s-.07.05-.11.07c0,0-.02.01-.03.02s-.02.01-.03.02c-.03.02-.06.05-.09.08l-.09.09c-.04.05-.08.09-.11.14-.03.04-.05.08-.07.12v.07h.01s.01.01.02.01c.03,0,.07.01.12,0s.1-.01.16-.03c.05-.01.1-.03.14-.04s.09-.04.13-.06c.15-.09.28-.17.39-.25s.22-.14.31-.19c.02,0,.05-.02.07-.03.02,0,.04-.02.06-.02s.04-.01.06-.02h.15s.07.01.1.03c.04.02.08.03.1.05.02.02.03.03.04.05v.02s.01.01.01.02h0s.01,0,.02-.01h.06s.05.02.08.03h.01s.07.02.09.04c.03.01.04.02.04.03,0,0-.04.04-.13.11s-.18.15-.28.24c0,0-.02.01-.02.02l-.02.02c-.1.08-.18.16-.26.23s-.12.13-.13.16h.1s.07-.02.1-.04c.01,0,.03,0,.04-.02s.03-.02.04-.03c.01,0,.03-.02.04-.03s.03-.02.04-.03h.02s.05-.05.07-.06.04,0,.06,0c.02.02,0,.05-.06.1s-.13.11-.22.16c-.05.03-.1.06-.16.09s-.11.05-.16.07c-.04,0-.08.02-.12.02s-.07,0-.1,0c-.05-.02-.09-.04-.11-.07l.11-.04ZM74.37,126.83s0,.01-.01.02h-.01s-.02.04-.04.05c-.01.01-.02.03-.04.04-.02.02-.04.05-.06.07s-.03.05-.04.07v.04s0,.02.01.03c0,0,.01,0,.02.01s.01,0,.02.01c.02,0,.05.01.08,0,.03,0,.07,0,.1-.02.03,0,.05-.02.08-.03s.05-.03.08-.04c.01,0,.03-.02.05-.03.02-.02.05-.03.07-.05h.02s.05-.04.07-.06l.05-.05s-.04-.02-.05-.03c-.01,0-.03-.02-.04-.03l-.02-.02-.02-.02s-.04-.05-.05-.08-.02-.06-.02-.09c-.02.01-.04.03-.06.04s-.04.03-.05.04l-.03.03s-.02.02-.03.03c-.02.01-.03.03-.05.04l-.05.05h0l.02-.02ZM74.89,126.81h.02s.01,0,.02-.01c.02-.01.03-.03.05-.06.02-.02.03-.05.05-.07,0-.01.01-.02.02-.03,0-.01,0-.02.01-.04h0s.01-.05,0-.07c0-.02-.01-.03-.02-.04h-.09s-.05,0-.08.02c-.03.01-.05.02-.07.04-.01,0-.03.02-.04.03-.01,0-.02.02-.02.03h0v.04s0,.03.01.05c0,.03.02.06.04.09.02.03.04.05.07.06h0l.03-.04ZM76.76,127.1h-.04s-.08.03-.14.07c-.05.03-.13.08-.24.16-.02.02-.05.04-.07.06s-.05.04-.07.06c-.05.05-.09.09-.12.14-.04.05-.06.09-.07.12v.07h0s.05,0,.09,0,.06-.03.09-.05c0,0,.02,0,.02-.01l.02-.02c.12-.09.23-.18.33-.27s.2-.17.3-.25c0,0,.02-.01.02-.02s0-.01.01-.01v-.02s0-.01-.01-.02h-.07s-.04,0-.07.01h0l.02-.02ZM80.13,127.4c.06.02.11.05.15.07s.08.05.11.08l.06.06.07.07s.03.03.04.05c.02.02.03.03.05.05,0,0,0,0,.01.02,0,0,0,0,.01.02.04.05.08.1.12.15.04.05.06.07.07.09l-.3.15s-.04-.05-.06-.07-.04-.04-.06-.07c0,0-.01,0-.02-.02,0,0-.02-.02-.02-.03-.01-.02-.03-.03-.05-.05l-.05-.05s-.06-.07-.09-.1-.05-.06-.08-.09c-.03-.04-.07-.07-.11-.11-.04-.03-.09-.07-.14-.1,0,0-.02,0-.02-.01s-.02,0-.02,0c-.01,0-.03,0-.04-.01h-.06v.1s0,.04-.02.06c-.01.03-.02.06-.03.08s-.03.05-.04.07-.03.04-.04.05-.03.04-.05.05c-.07.07-.14.13-.23.18-.08.04-.16.07-.24.08h-.12s-.07,0-.1-.02c-.02,0-.04-.02-.06-.03s-.03-.03-.05-.04c-.01-.02-.02-.04-.03-.07s0-.05.01-.08c0-.03.02-.06.04-.08.02-.03.04-.05.06-.08s.05-.05.07-.08c.03-.03.05-.05.08-.07.04-.03.09-.06.13-.09.05-.03.1-.05.14-.07.07-.03.13-.05.18-.06.06-.01.1-.02.12-.02h0l-.02-.02s-.02-.01-.03-.02h-.19c-.06,0-.12.01-.19.03-.03,0-.06.02-.09.02s-.06.02-.09.03c-.07.03-.14.06-.2.08-.06.03-.12.06-.18.09-.07.03-.13.07-.19.11-.06.04-.12.08-.18.12-.04.03-.09.06-.14.1-.05.04-.1.08-.15.12s-.1.08-.14.12-.08.08-.12.12c-.05.06-.1.12-.13.19-.04.07-.07.14-.1.22-.03.09-.04.17-.04.24s.05.12.11.16c0,0,.02,0,.03.02.01,0,.02,0,.03,0,.09.03.19.04.3,0,.11-.03.21-.07.3-.14h.02s.07-.05.1-.08.07-.07.1-.1c.03-.04.06-.08.09-.11.03-.04.05-.07.06-.11.01-.03.01-.06.01-.08s-.02-.04-.04-.06h0s-.07,0-.11,0c-.03.02-.07.03-.1.06h0s-.03.02-.05.04c-.02.02-.03.03-.04.05-.03.03-.05.07-.06.09-.02.03-.03.04-.03.05h-.27s-.06.03-.08.04c-.02,0-.04,0-.04,0v-.02s0-.02.01-.03c.01-.03.03-.07.06-.12.03-.05.06-.1.1-.15.03-.03.05-.07.08-.1s.06-.06.1-.08c.08-.05.16-.08.24-.09s.16,0,.23.02c.02,0,.03,0,.04.02s.02,0,.04.02c.06.04.09.08.11.13.01.05,0,.11-.01.16-.02.04-.04.09-.07.13-.03.05-.06.09-.1.13-.04.04-.08.08-.12.12s-.08.07-.12.11c-.14.11-.29.19-.44.23-.16.04-.3.04-.44,0h-.03s-.02-.02-.03-.03c-.13-.06-.23-.14-.31-.23s-.08-.23-.02-.4c.01-.03.03-.07.04-.1.02-.04.04-.07.06-.11.09-.15.19-.28.31-.39.12-.11.23-.21.35-.3.06-.05.12-.09.18-.12.06-.04.11-.07.16-.09.03-.02.07-.04.11-.06s.07-.04.11-.05c.18-.08.39-.15.61-.2.22-.05.44-.04.64.01h0s.05.02.07.04c.02.01.03.03.05.04,0,.01.02.02.03.03s.02.02.03.04h.01s0,.01.01.02h.19s.08,0,.12.02c.04,0,.08.02.13.04h-.07ZM77.85,127.3s0,.02-.03.04c-.02.02-.05.05-.08.07h0s-.05.04-.07.06-.04.03-.04.03h-.04s-.06-.01-.08-.03h-.03s-.04-.03-.06-.04-.03-.02-.03-.02c0,0,0-.02.03-.04.02-.02.05-.05.08-.07h.01s0-.01.02-.02c.02-.02.05-.04.07-.05.02-.02.03-.02.04-.02h.04s.05.01.08.02h0s.06.02.08.03c.03.01.04.02.04.02h0l-.03.02ZM80.43,128.63s-.1.08-.14.11-.08.07-.12.1c-.03.02-.05.05-.08.07l-.08.08s-.04.04-.06.06-.04.04-.06.07c.07-.02.14-.04.24-.07s.19-.07.29-.11c.02,0,.03-.02.05-.02s.03-.02.05-.02c.05-.03.09-.05.13-.07s.07-.04.11-.06c.01,0,.03-.02.04-.02s.03-.02.04-.02c.03-.02.06-.04.09-.06s.06-.05.1-.07l.12.02s-.07.06-.11.08-.07.05-.1.07c-.02,0-.04.03-.06.04s-.04.02-.06.03c-.04.02-.08.04-.12.07s-.09.04-.13.07c-.05.03-.1.05-.15.07s-.09.04-.13.06c-.04,0-.07.03-.11.04-.03,0-.07.02-.11.03s-.08.02-.12.04c-.04,0-.09.02-.14.03,0,0-.02,0-.04.04-.03.03-.06.06-.09.1-.01.02-.03.03-.04.05s-.03.03-.04.05c-.02.03-.05.06-.06.09-.02.03-.03.06-.04.08,0,.02-.01.04-.01.05,0,.02,0,.03.02.04h.06s.05,0,.08-.02c.02,0,.04-.02.06-.03s.04-.02.06-.04c.01,0,.02,0,.03-.02.01,0,.02,0,.03-.02.15-.09.28-.17.39-.25s.22-.14.31-.19c.02,0,.05-.02.07-.03.02,0,.04-.02.06-.02s.04,0,.06-.02.03,0,.05,0h.1s.07,0,.1.03c.04.02.08.03.1.05s.03.03.04.05v.02s.01,0,.01.02h0s.01,0,.02,0h.06s.05.02.08.03h.01s.07.02.09.04c.03,0,.04.02.04.03,0,0-.04.04-.13.11s-.18.15-.28.24c0,0-.02,0-.02.02,0,0-.01,0-.02.02-.1.08-.18.16-.26.23-.08.07-.12.13-.13.16h.1s.07-.02.1-.04c.01,0,.03,0,.04-.02.01,0,.03-.02.04-.03.01,0,.03-.02.04-.03s.03-.02.04-.03h.02s.05-.05.07-.06c.02,0,.04,0,.06,0s0,.05-.06.1-.13.11-.22.16c-.05.03-.1.06-.16.09s-.11.05-.16.06c-.04,0-.08.02-.12.02h-.1c-.05-.02-.09-.04-.11-.07-.02-.03-.03-.06-.03-.09v-.1h0s-.01.02-.03.03-.05.03-.08.04c-.04.02-.08.03-.13.04s-.1,0-.14,0c-.07-.03-.12-.06-.13-.11-.02-.04-.02-.09,0-.13h0v-.03l.03-.06s.02-.03.02-.05v-.02s.01,0,.02,0c0,0-.02.02-.07.05-.04.02-.09.05-.14.07-.02,0-.04,0-.06.02-.02,0-.04.02-.06.02-.04.02-.08.03-.12.03h-.09c-.06-.02-.09-.06-.11-.11-.02-.05-.02-.11,0-.16,0-.03.02-.06.05-.1.02-.04.05-.08.07-.12l.03-.06s.02-.04.04-.05c.02-.04.05-.07.07-.1s.03-.04.04-.04l-.12-.02s-.04.04-.08.07-.09.07-.14.11c-.02,0-.03.02-.05.04s-.03.02-.05.03h-.02c-.11.07-.22.12-.32.16-.11.04-.21.05-.31.02h0s-.02,0-.03-.02c-.01,0-.02,0-.03-.02-.04-.03-.06-.06-.09-.1-.02-.04-.03-.09-.01-.15h0v-.02h0c.03-.09.07-.16.13-.23s.14-.14.25-.23c.05-.04.1-.07.15-.1s.1-.06.15-.08c.12-.06.23-.09.33-.1.1,0,.18,0,.23,0,.06.02.1.06.13.1s.03.11.01.18h0s0,.03-.02.05c0,0-.01.03-.02.04-.01.02-.02.03-.03.05s-.02.03-.03.04c-.02.02-.03.03-.04.04s-.02.02-.02.02h.11s.07-.07.1-.11.06-.07.09-.09c.02-.02.03-.03.04-.05.01,0,.03-.03.04-.04.03-.03.07-.06.1-.09s.08-.07.13-.11c.05-.04.1-.08.16-.12.06-.04.12-.08.19-.13.05-.03.1-.06.16-.09.05-.03.11-.06.16-.09.1-.06.2-.1.3-.15.1-.04.18-.07.24-.09.1-.02.17-.04.23-.04s.1,0,.14.02c.02,0,.03,0,.04.02s.03,0,.04.02c.03,0,.04.03.05.06v.08h0v.02s0,.02-.02.03c0,0-.01.02-.02.04,0,0-.02.03-.03.04s-.02.03-.03.04-.03.02-.03.03h-.02s-.12,0-.12,0c0,0,.01-.02.02-.03.01,0,.02-.02.03-.03.01,0,.02-.02.03-.03s.02-.02.03-.03.02-.02.03-.04c0,0,.01-.03.02-.04v-.04s0-.02-.02-.03h0c-.06-.02-.15,0-.28.05s-.28.14-.44.24c-.07.04-.14.09-.21.14s-.14.1-.21.16h0l.07-.04ZM79.57,127.47s-.06,0-.1.01-.08.02-.13.03c-.04.01-.08.03-.12.05s-.08.04-.12.07c0,0-.02.01-.03.02,0,0-.02.01-.03.02-.02.01-.03.02-.05.04-.02.02-.03.03-.05.04l-.08.08s-.04.06-.05.08v.06s.01.02.02.03c0,0,.02,0,.03.02.02,0,.04,0,.07,0,.03,0,.06,0,.08,0,.04,0,.08-.03.12-.04.04-.02.08-.04.12-.06,0,0,.01,0,.02,0,0,0,.01,0,.02,0,.07-.06.12-.11.16-.16.03-.05.06-.09.07-.13,0-.02.01-.04.02-.06v-.06h.03ZM78.74,129.08s0,0-.01.02h-.01s-.02.04-.04.05-.02.03-.04.04c-.02.02-.04.05-.06.07s-.03.05-.04.07v.04s0,.02.01.03c0,0,.01,0,.02,0,0,0,.01,0,.02,0,.02,0,.05,0,.08,0s.07,0,.1-.02c.03,0,.05-.02.08-.03s.05-.03.08-.04c.01,0,.03-.02.05-.03.02-.02.05-.03.07-.05h.02s.05-.04.07-.06.04-.04.05-.05c-.02,0-.04-.02-.05-.03-.01,0-.03-.02-.04-.03,0,0-.01,0-.02-.02,0,0-.01,0-.02-.02-.02-.03-.04-.05-.05-.08,0-.03-.02-.06-.02-.09-.02,0-.04.03-.06.04s-.04.03-.05.04-.02.02-.03.03c-.01,0-.02.02-.03.03-.02,0-.03.03-.05.04-.01,0-.03.03-.05.05h0l.02-.02ZM79.27,129.06h.02s.01,0,.02,0c.02,0,.03-.03.05-.06.02-.02.03-.05.05-.07,0,0,.01-.02.02-.03,0,0,0-.02.01-.04h0s.01-.05,0-.07-.01-.03-.02-.04h-.09s-.05,0-.08.02c-.03,0-.05.02-.07.04-.01,0-.03.02-.04.03s-.02.02-.02.03h0v.04s0,.03.01.05c0,.03.02.06.04.09.02.03.04.05.07.06h0l.03-.04ZM80.91,129.28h-.04s-.08.03-.14.07c-.05.03-.13.08-.24.16-.02.02-.05.04-.07.06s-.05.04-.07.06c-.05.05-.09.09-.12.14s-.06.09-.07.12v.07h0s.05,0,.09,0c.03,0,.06-.03.09-.05,0,0,.02,0,.02,0,0,0,.01,0,.02-.02.12-.09.23-.18.33-.27.1-.09.2-.17.3-.25,0,0,.02,0,.02-.02s0,0,.01,0v-.02s0,0-.01-.02h-.07s-.04,0-.07,0h0l.02-.02ZM81.62,128.35h.13s.08,0,.11,0c.14-.03.25-.06.31-.11s.11-.06.13-.04h0s0,.05-.07.11c-.07.05-.16.1-.27.15-.07.03-.15.06-.23.08s-.16.04-.25.05c-.05,0-.1,0-.15,0h-.13s-.07,0-.11-.02c-.04,0-.08-.02-.12-.03-.03,0-.06-.02-.09-.04s-.06-.03-.1-.05l.28-.19c.05.02.11.04.15.05.05,0,.1.02.14.03.04,0,.08,0,.12,0h.15Z"/>
      </g>
      <g>
        <path class="cls-50" d="M29.52,125.26c.99-9.06,2.42-23.95,3.01-31.58,1.45-18.86-5.47-18.86-8.16-18.52s-5.79,2.08-7.91,9.27c-1.85,6.26-.57,46.05,4.24,51.22,1.49,1.6,4.27,1.83,6.3,2.02,4.11.39,8.28.26,12.4.19,4.25-.08,22.45-.65,24.17-.32,2.79.54,5.26,2.03,8.05,2.48,1.66.27,4.36-.24,4.36-.24.57-.08,1.47-.59,2.34-1.59.34-.39.78-.99.78-.99,0,0,.61-.56.86-.92.4-.58.39-1.14.39-1.14,0,0,.26-.2.55-.47,1.16-1.12,2.03-1.61,2.17-2.22.03-.14-.51-.28-1.03-.11-1.03.34-2.48,1.25-2.83,1.34-.52.13-2.05.05-2.49-.06-.44-.11-2.99-.41-3.09-.53-.1-.11.56-.14,1.42-.08s1.74-.06,2.45-.23c.7-.17,1.05-.78.94-.93s-.86-.18-1.76-.29c-.91-.11-3.13-.74-4.14-.95-1.01-.2-2.34-.07-3.63.3-1.05.3-3.24,1.14-4.74,1.54-1.93.31-24.68-6.42-34.66-7.19h0Z"/>
        <path class="cls-44" d="M24.37,75.16c-2.69.34-6.85,2.49-8.97,9.68-1.85,6.26-1.63,18.78-1.31,24.48,11.91,2.48,17.96-1.32,17.96-1.32,6.03-35.45-5-33.18-7.69-32.85h.01Z"/>
      </g>
      <path class="cls-46" d="M53.87,33.53s.16-2.65,1.21-2.81c1.06-.16,7.17-1.24,7.65,4.11-1.44-1.18-4.65-4.11-8.86-1.3Z"/>
      <g>
        <path class="cls-14" d="M57.3,50.02c-.22-.24-2.91-.33-6.38-.28-3.47.05-6.15.23-6.37.47-.24.16,1.37,5.61,6.46,5.53s6.53-5.57,6.28-5.73h.01Z"/>
        <g class="cls-58">
          <g>
            <path class="cls-13" d="M56.51,53.76c-1.35,2.19-3.38,4.29-5.64,4.23-2.45-.05-4.29-1.99-5.41-3.85,1.89-1.71,6.92-3.68,11.05-.39h0Z"/>
            <path class="cls-35" d="M55.71,48.64c0,1.53-.36,1.53-.36,1.53-1.41.74-6.85,1.47-8.92.14-.22-.14-.27-.86-.32-1.35.11-.1.23-.14.32-.14,3.4-.26,7.73-.64,9.28-.18Z"/>
          </g>
        </g>
      </g>
      <path class="cls-3" d="M39.58,38.22s3-4,6.39,0"/>
      <path class="cls-3" d="M54.34,38.82s3.24-3.6,6.39,0"/>
      <path class="cls-46" d="M46.91,33.41s-.16-2.65-1.21-2.81c-1.06-.16-7.17-1.24-7.65,4.11,1.44-1.18,4.65-4.11,8.86-1.3Z"/>
      <g>
        <g>
          <g>
            <path class="cls-19" d="M39.45,156.83c-.07-.21-.04-.14-.19-.1-.74.2-1.72.64-2.41.99-.09.04-.18.1-.26.18,0,.03.02.07.04.1.16.13.31.49.29.68.04.1.18.38.22.48.67-.36,1.32-.77,1.97-1.16.13-.37.18-.85.35-1.17Z"/>
            <path class="cls-19" d="M39.65,157.55s-.01.02-.02.02c0,0,.02,0,.02-.01,0,0,0,0,0-.01Z"/>
            <path class="cls-19" d="M32.88,159.38h0s-.73.32-.73.32c.11.26.23.53.35.8.02.07,0,.15,0,.15.1.21.05.11.22.36.42-.14.56-.2.86-.31-.31-.48-.52-.76-.7-1.32Z"/>
            <path class="cls-22" d="M34.17,159.96s-.07-.04-.11-.1c-.13-.28-.23-.59-.37-.87l-.73.32-.1.04c.18.57.42.84.72,1.33.25-.08.52-.19.79-.28-.02-.04-.02-.05-.04-.09-.06-.12-.1-.25-.16-.37Z"/>
            <path class="cls-22" d="M36.89,158.66c-.09-.23-.21-.45-.29-.68,0-.03-.04-.07-.04-.1-.01-.04-.08-.1-.02-.12,1.07-.47,2.13-.92,3.2-1.39.07-.02.14-.06.21-.09.42-.18.87-.32,1.23-.59l-.03-.02c-.91-2.24-1.98-4.4-2.89-6.64,0-.08-.12-.13-.14-.15.15.44.45.87.51,1.33.65,1.44,1.29,2.89,1.89,4.34.08.19.52,1.07.46,1.17-.05.09-1.46.67-1.7.77-.93.41-1.88.82-2.81,1.23l-1.04.46s.01.04.03.06c.21.44.51,1.02.72,1.44.32-.15.64-.34.96-.5-.05-.11-.19-.4-.24-.5Z"/>
            <path class="cls-28" d="M35.77,146.42c.75.75,1.81,1.6,2.38,2.48.16.43.45.87.51,1.33-.01-.01-.02-.03-.03-.06-.04-.08-.23-.58-.27-.56l.1.32c-.22.12-.14.02-.21-.05-.16-.18-.07.14-.07.15-.02.07-.29.16-.13.38-.33.15-.66.28-.98.43-.06.03-.1.04-.16.07l-2.86,1.25-.03-.06,2.86-1.25c-.5-.84-.85-1.79-1.61-2.44-.06-.37-.48-.59-.62-.83-.08-.13-.05-.29-.1-.36-.05-.06-.16-.05-.18-.15.34-.17.73-.29,1.07-.46.07-.04.08-.09.1-.11.06-.04.15-.06.21-.09Z"/>
            <path class="cls-56" d="M30.58,144.04c.32,1.35,1.07,2.6,1.58,3.89l2.08-.91s.05.02.08.03c-.69.3-1.38.61-2.08.91-.26.11-.55.3-.76.39l-.31.13c-.26.11-.66.23-.96.36-.19.08-.38.17-.57.25l-.73.32s-.03-.03-.03-.06l.93-.41c-.17-.29-.18-.64-.21-.97-.06-.72.02-1.44-.08-2.18-.05-.38-.07-.9-.31-1.18l1.35-.59h0Z"/>
            <path class="cls-21" d="M28.07,144.21c.14-.06.28-.12.42-.18.3-.14.63-.27.93-.41,1.02-.45,2.09-.96,3.12-1.36.48-.19.37-.11.59.36-.17.08-.35.15-.52.22-.34.16-.7.3-1.04.46.03.09.08.17.11.26l1.04-.46c.38.87,2.28,2.54,3.05,3.31-.06.03-.15.05-.21.09l-1.25.54s-.07-.02-.08-.03c-.66-.83-2.22-2.58-2.56-3.46l-1.09.47-1.35.59-.73.32c-.03-.06-.09-.26-.11-.26-.15-.07-.54.6-.69-.32.12-.06.25-.1.37-.16h0Z"/>
            <path class="cls-19" d="M29.63,149.09c.09.65.06,1.31.12,1.96.1,1.22.21,1.56.69,2.7l-.21.09-.52.22s-.02-.03-.03-.06c.06-.27-.58-1.14-.41-1.3.06-.06.27-.11.28-.13.02-.05-.22-.23.06-.27-.08-.2-.23.11-.29-.24l-.02.25-.27-.06c-.12-.96-.09-1.89-.13-2.85l.73-.32h-.01Z"/>
            <path class="cls-30" d="M29.23,144.63c.24.28.26.8.31,1.18.1.74,0,1.46.08,2.18.03.33.05.67.21.97l-.93.41c-.04-1.13.07-3.5-.37-4.41l.73-.32h0Z"/>
            <path class="cls-45" d="M31,140.02c.27-.07.46.08.62.29.2.61.63,1.26.8,1.85.01.05.03.06-.02.1-.22,0-.59.16-.73.32-.08.04-.17.07-.26.11-.03-.13-.12-.03-.19-.13-.29-.49-.45-1.24-.74-1.72-.08-.13-.24-.17-.27-.34l.88-.39c-.02-.1-.14,0-.2.03-.65.25-1.28.56-1.92.83-.08.04-.22.14-.3.07.59-.27,1.78-.88,2.34-1.02h0Z"/>
            <path class="cls-16" d="M27.47,141.56c.06-.07.2-.03.23-.04-.07.07-.09.15-.09.24-.03.61.68,1.59.85,2.21l-.37.16-.85-1.79c-.09-.3-.01-.57.22-.78Z"/>
            <path class="cls-45" d="M32.29,159.57l-.22-.06c-.78-1.81-1.57-3.63-2.36-5.44,0,0-.06.03-.06.03.76,1.85,1.56,3.77,2.43,5.56l.21-.09Z"/>
            <path class="cls-36" d="M32.61,142.84c.04.08.08.18.11.26l-1.04.46c-.03-.09-.08-.17-.11-.26.35-.15.7-.3,1.04-.46Z"/>
            <path class="cls-26" d="M32.53,142.26c-1.04.4-2.1.91-3.12,1.36l-.03-.06c.67-.3,1.36-.58,2.03-.88.08-.04.17-.07.26-.11.16-.07.64-.24.73-.32t.02-.1c-.17-.59-.61-1.25-.8-1.85.41.52.59,1.36.92,1.95h0Z"/>
            <path class="cls-37" d="M29.04,152.26l.27.06.02-.25c.06.35.21.04.29.24-.28.05-.04.22-.06.27-.01.01-.21.07-.28.13-.18.16.47,1.03.41,1.3-.18-.4-.33-.88-.59-1.23-.07-.22-.03-.36-.05-.53h0Z"/>
            <path class="cls-60" d="M31,140.02c-.56.13-1.75.75-2.34,1.02-.02.02-.05.09-.08.1-.26.13-.62.3-.88.39-.03,0-.17-.04-.23.04.05-.05.05-.07.15-.14.87-.48,2.13-.94,3.07-1.34.08-.04.22-.14.3-.07Z"/>
            <path class="cls-45" d="M27.24,142.34l.85,1.79.37-.16.03.06c-.14.06-.28.11-.42.18-.21-.62-.62-1.26-.82-1.88h0Z"/>
            <path class="cls-28" d="M29.68,154.02s.02.03.03.06l-.06.03c-.17-.42-.43-.88-.57-1.3.27.34.42.82.59,1.23h0Z"/>
            <path class="cls-28" d="M32.51,160.49c-.12-.26-.23-.53-.35-.8l-.06.03c.15.3.27.62.41.92,0-.01.03-.09,0-.15Z"/>
            <polygon class="cls-28" points="32.51 160.64 32.51 160.63 32.5 160.64 32.51 160.64"/>
            <path class="cls-26" d="M32.1,159.72l.06-.03.73-.32.1-.04-.03-.06s-.07.02-.1.04l-.31.13c-.09.04-.18.08-.26.11h0s-.21.1-.21.1c0,.02.03.06.03.06Z"/>
            <path class="cls-37" d="M39.59,157.69s.03-.13.03-.15c.02-.07.03-.18.08-.26-.02-.12-.08-.03-.15-.06.13-.1.05-.41.06-.43.03-.07.34.15.34-.2,0-.05-.07-.12-.06-.17.02-.05.27-.04.05-.16h-.01c-.07.04-.14.08-.21.1-.15.14-.21.26-.3.44-.17.33-.27.85-.41,1.23.19-.1.38-.25.57-.36Z"/>
            <path class="cls-28" d="M36.84,157.71c.69-.34,1.68-.79,2.41-.99.15-.05.12-.11.19.1.09-.17.15-.29.29-.43-1.06.46-2.12.92-3.18,1.38-.06.02,0,.08.02.12.08-.07.16-.12.26-.18Z"/>
            <path class="cls-28" d="M39.75,156.38s0,0,0,.01h.02s-.01-.01-.01-.01Z"/>
            <path class="cls-28" d="M36.61,157.99c.08.23.2.45.29.68.03-.2-.13-.55-.29-.68Z"/>
            <path class="cls-34" d="M33.71,159.03c.13.28.23.59.37.87.03.06.11.1.11.1.16-.27.13.09.3,0,.02.08.04.36-.14.37.01.02,0,.03.02.05.57-.22,1.24-.44,1.81-.74-.2-.4-.52-1-.71-1.42l-1.75.78Z"/>
            <path class="cls-34" d="M35.52,158.25h-.04s0,0,.01.01h.03Z"/>
            <path class="cls-16" d="M34.34,152.78c.04.1.03.23.03.23l1.25,2.86c.04.08.18.26.24.42.03.06,0,.16.04.23.17.41.33.88.59,1.23.93-.41,1.88-.82,2.81-1.23l-2.39-5.36.17-.29h0c-.06.02-.1.04-.16.06-.95.44-1.91.9-2.89,1.33.13.15.23.34.3.53Z"/>
            <path class="cls-26" d="M41.02,155.74c.06-.11-.38-.97-.46-1.17-.6-1.45-1.25-2.91-1.89-4.34,0-.02-.03-.06-.03-.06l-.57.25h0c-.33.15-.66.29-.98.44l-.17.29,2.39,5.36c.23-.11,1.65-.69,1.7-.77Z"/>
            <path class="cls-60" d="M32.15,155.69s.13.07.19.18c.5.92.82,2.07,1.31,3.01.03.14-.56.34-.69.41l.03.06.73-.32,1.77-.77s-.01-.04-.03-.06c-.85-1.79-1.72-3.63-2.4-5.51l-.03-.06-.06.03s-1.72.75-1.72.75c0,.02.01.04.03.06.26.62.64,1.32.85,1.95.04.12-.02.24.01.29Z"/>
            <path class="cls-40" d="M36.48,157.74c-.26-.35-.42-.83-.59-1.23l-.14.09c.32.28-.36.49-.11.76-.02.07-.34-.03-.38-.17-.02-.05.09-.11.11-.17.1-.26.15-.79.48-.74-.07-.16-.2-.33-.24-.42l-1.25-2.86s0-.14-.03-.23c-.08-.19-.16-.38-.3-.53h-.01s-.98.44-.98.44c.69,1.88,1.56,3.71,2.4,5.51l1.04-.46Z"/>
            <path class="cls-36" d="M34.49,159.99c-.17.09-.14-.26-.3,0,.06.12.09.26.16.37.17-.01.16-.29.14-.37Z"/>
            <path class="cls-19" d="M34.32,147.05l1.25-.54s-.04.07-.1.11c-.34.17-.73.29-1.07.46,0,.11.13.09.18.15.07.07.04.24.1.36.13.24.56.46.62.83.76.65,1.12,1.59,1.61,2.44l-2.86,1.25-1.82-4.16c.69-.3,1.38-.61,2.08-.91h.01ZM34.34,150.25s.12-.04.18-.16c.01-.03.13-.44.14-.49,0-.06-.05-.4,0-.47.04-.04.54-.1.18-.4l.15-.1c-.14-.03-.22,0-.26-.17l-.99,2.35c-.04.13.2.25.27.19.04-.03,0-.15.03-.18.05-.06.18-.08.19-.1.01-.03-.1-.17-.09-.21.01-.01.14-.04.19-.12.04-.05-.02-.14,0-.15-.03.08-.19.03-.15-.06s.18-.02.15.06h0Z"/>
            <path class="cls-22" d="M32.23,147.95l1.82,4.16.03.06-1.04.46-.06.03c-.66-1.37-1.06-2.85-1.5-4.29.21-.09.49-.28.76-.39h0Z"/>
            <path class="cls-26" d="M34.07,152.17l2.86-1.25c-.95.44-1.92.9-2.89,1.33l-.98.43-.03-.06,1.04-.46Z"/>
            <path class="cls-37" d="M38.64,150.17l-.57.25c-.16-.22.11-.31.13-.38,0,0-.1-.33.07-.15.07.07,0,.18.21.05l-.1-.32s.24.48.27.56Z"/>
            <path class="cls-30" d="M31.68,143.56c.34.88,1.89,2.62,2.56,3.46l-2.08.91c-.5-1.3-1.24-2.54-1.58-3.89l1.09-.47h0Z"/>
            <path class="cls-34" d="M31.48,148.36c-.1.04-.21.09-.31.13.12.2.02.14-.05.21-.08.09-.26.37-.32.48-.04.09-.11.42-.15.46-.12.14-.14-.08-.27,0,.23,1.53.28,2.28.89,3.75l1.72-.75c-.66-1.37-1.07-2.84-1.5-4.29Z"/>
            <path class="cls-22" d="M30.21,148.84c.08.26.13.53.16.8.23,1.53.29,2.29.89,3.75l-.1.04-.73.32c-.48-1.13-.59-1.48-.69-2.7-.05-.65-.02-1.32-.12-1.96.19-.08.38-.17.57-.25h0Z"/>
            <path class="cls-36" d="M31.17,148.49c.13.21.02.14-.05.21-.08.08-.26.37-.32.48-.04.09-.11.42-.15.46-.13.13-.15-.09-.27,0-.04-.27-.08-.53-.16-.8.3-.13.69-.24.96-.36Z"/>
            <path class="cls-20" d="M28.57,141.14c-.13.83.57,1.64.82,2.43l.03.06c-.31.13-.63.27-.93.41l-.03-.06c-.17-.62-.88-1.61-.85-2.21,0-.1.03-.18.09-.24.27-.08.62-.27.88-.39Z"/>
            <path class="cls-16" d="M32.28,159.57c.09-.04.18-.08.26-.11.01-.12.19-.14.29-.19-.77-1.83-1.61-3.63-2.38-5.45l-.23.04h0s-.52.21-.52.21c.78,1.81,1.58,3.63,2.36,5.44l.22.06Z"/>
            <path class="cls-45" d="M30.43,153.76s.02.03.03.06l-.23.04.21-.09h0Z"/>
            <path class="cls-16" d="M28.66,141.04c.09.06.22-.03.3-.07.64-.27,1.27-.58,1.92-.83.07-.02.17-.12.2-.03l-.88.39c.04.17.19.2.27.34.3.49.45,1.23.74,1.72.06.1.16,0,.19.13-.67.3-1.36.58-2.03.88-.25-.79-.94-1.6-.82-2.43.02-.02.05-.09.08-.1h.02Z"/>
            <path class="cls-16" d="M32.41,142.25c-.08.08-.56.25-.73.32.14-.17.5-.32.73-.32Z"/>
            <path class="cls-40" d="M32.86,159.32s.07-.02.1-.04c.12-.06.71-.27.69-.41-.49-.94-.81-2.09-1.31-3.01-.06-.12-.16-.14-.19-.18-.03-.05.03-.18-.01-.29-.21-.62-.59-1.32-.85-1.95h-.12s0-.01,0-.01l-.73.32s.01.04.03.06c.77,1.83,1.61,3.63,2.38,5.45l.03.06Z"/>
            <path class="cls-45" d="M32.83,159.26c-.09.04-.27.07-.29.19l.31-.13-.03-.06Z"/>
            <path class="cls-28" d="M41.16,155.7c-.36.25-.81.4-1.21.58.21.12-.04.1-.05.16,0,.05.06.11.06.17,0,.35-.3.13-.34.2,0,.02.06.32-.06.43.07.03.12-.06.15.06-.05.07-.09.32-.12.39,0,0,.03,0,.03,0,.63-.35,1.29-.77,1.82-1.17-.08-.26-.17-.56-.28-.82Z"/>
            <path class="cls-28" d="M41.2,155.7h-.02s0,0,0,0c0,0,.01,0,.01,0Z"/>
            <path class="cls-20" d="M35.66,157.35c-.25-.28.43-.48.11-.76l.14-.09c-.03-.06,0-.16-.04-.23h0c-.33-.05-.39.48-.48.73-.02.06-.13.13-.11.17.04.15.36.24.38.17Z"/>
            <path class="cls-45" d="M31.26,153.39s.02.03.03.06h-.12s.1-.05.1-.05h0Z"/>
            <path class="cls-37" d="M34.34,150.25s.04.1,0,.15c-.05.07-.19.1-.19.12,0,.03.1.18.09.21,0,.02-.15.04-.19.1-.03.03.02.16-.03.18-.07.07-.31-.07-.27-.19l.99-2.35c.04.16.12.13.26.17l-.15.1c.34.3-.15.35-.18.4-.06.08,0,.41,0,.47,0,.05-.12.45-.14.49-.05.13-.16.15-.18.16.03-.08-.12-.14-.15-.06s.12.13.15.06h0Z"/>
          </g>
          <path class="cls-11" d="M38.33,152.71s0,0-.01,0c-.03.02-.08.05-.12.07-.03.02-.09.04-.14.06l-.07.32s.07-.02.1-.03c.03,0,.07-.01.09-.03.03-.02.08-.03.1-.06.04-.01.06-.03.09-.06.03-.03.06-.05.09-.09.03-.04.06-.07.1-.11.06-.07.1-.13.14-.2.04-.07.08-.14.11-.21.04-.11.08-.2.09-.28,0-.09,0-.12-.02-.12-.03,0-.06.04-.07.11s-.07.17-.15.28c-.01.03-.04.05-.07.08s-.09.09-.09.09h0s-.07.07-.1.1c0,0,0,0,0,0l-.08.07s0,0,0,0Z"/>
          <path class="cls-11" d="M36.63,155.32c0,.09.02.16.05.24h0s.01.02.01.02c.03.06.07.08.11.1.05,0,.08.02.13.01.01,0,.03,0,.03,0,.01,0,.03,0,.03,0,.09-.04.15-.12.21-.22.04-.09.09-.2.12-.32h.01s.01-.04.02-.07c0-.03,0-.04,0-.06,0-.06.02-.12.03-.17,0-.05.01-.1.01-.1l.1-.06s0,.02,0,.05c0,.03,0,.08.02.12,0,.02,0,.04,0,.06,0,.02.01.04.02.06.01.04.02.09.03.13,0,.05.01.08.03.1.02.05.06.09.11.11.05.02.09.03.15,0,.01-.01.04-.03.06-.06s.05-.06.06-.1c.01-.01.02-.04.03-.05,0-.02.02-.04.03-.05.02-.05.04-.1.05-.14.02-.05.02-.08.02-.08h0s0,.03,0,.03c.01.01.01.03.02.05,0,.02.02.06.02.06h.01v.02s.05.08.09.09c.04.03.09.02.16,0,.03-.02.08-.05.11-.09.03-.04.05-.07.07-.11.01-.03.02-.06.03-.08,0-.02,0-.04,0-.04,0,0,.01.01.03.03.01.01.03.03.04.04.02.02.05.04.08.04.03,0,.08,0,.12-.02.02-.02.04-.04.07-.07s.05-.06.07-.09c.03-.04.05-.09.07-.15.02-.06.04-.11.05-.17.03-.09.04-.18.05-.26,0-.07,0-.12-.02-.11-.02,0-.03.02-.04.04s0,.05-.02.08h0v.02s-.01.03-.02.05c0,.01,0,.04,0,.05,0,.01,0,.04,0,.05,0,.01,0,.03-.01.04,0,.03-.02.07-.04.09-.03.03-.04.04-.06.05h-.01s-.02-.08-.01-.19c.01-.1.01-.21.03-.33,0-.01,0-.03,0-.03,0,0,0-.03,0-.03.01-.13.02-.24.04-.35.02-.11.02-.16.02-.16,0,0-.02,0-.05,0-.03,0-.06.02-.09.03h0s-.06.02-.08.04c-.01.01-.03.03-.03.03h-.01s0,.03,0,.03c0,0-.01-.01-.01-.01h-.02s-.03-.02-.06-.02c-.03,0-.06.02-.1.03-.03,0-.07.02-.09.04s-.04.04-.07.07c-.01.01-.03.01-.04.03,0,.02-.01.04-.03.05-.01.01-.01.04-.03.05,0,.02-.02.05-.03.07-.03.09-.07.21-.09.34-.02.13-.06.27-.11.43,0,.01,0,.03,0,.03,0,.01,0,.03,0,.03,0,.03,0,.05-.02.07,0,.02,0,.05-.02.06-.01.03-.03.05-.04.07-.01.01-.04.04-.04.04-.02,0-.03,0-.04-.01,0,0-.01-.03-.03-.04,0-.02-.02-.05-.02-.08-.01-.03-.01-.07-.02-.1,0-.02,0-.04,0-.06,0-.02,0-.04,0-.06,0-.05,0-.09,0-.13,0-.03,0-.05,0-.05.03-.04.06-.08.08-.11.01-.04.04-.07.06-.11.02-.03.04-.07.06-.09.02-.03.03-.07.05-.1.02-.04.03-.08.05-.13.02-.05.04-.09.06-.15,0-.05.04-.09.05-.13,0-.05.02-.09.04-.13,0-.02.02-.04.02-.06,0-.02,0-.05.02-.07,0-.03,0-.07.02-.12.02-.04.02-.13.02-.13l-.1.06s-.02.08-.02.12c0,.03-.02.07-.02.1,0,0,0,.03-.02.04,0,0,0,.03-.01.04-.01.04-.02.07-.04.11-.02.04-.03.08-.05.13-.01.01,0,.03-.02.05-.01.01,0,.03-.02.05-.04.09-.08.18-.13.27s-.09.15-.12.21c0-.03,0-.06,0-.09,0-.03,0-.05,0-.08,0-.04,0-.07,0-.11,0-.03,0-.07.01-.1,0-.05.01-.1.02-.15,0-.05.03-.17.03-.17l-.02.07c0-.09.03-.17.04-.25.02-.08.03-.16.06-.24.05-.18.09-.34.15-.46.06-.12.11-.19.16-.22.02,0,.03,0,.03,0,0,0,.01.01.03.03,0,.01,0,.03.01.04,0,.02,0,.03,0,.05,0,.01,0,.03,0,.04,0,.01,0,.03,0,.04,0,.01,0,.03,0,.04,0,0,0,.02,0,.02.03-.02.05-.04.08-.06h0s0-.03,0-.03c0,0,0-.03,0-.04s0-.03,0-.05c0-.01,0-.04,0-.05,0-.02,0-.03-.01-.04,0-.02,0-.03,0-.03s-.01-.01-.01-.01c-.02-.02-.03-.04-.05-.06-.03-.01-.05-.02-.07,0-.01,0-.03.01-.04.01-.01,0-.03,0-.04.01-.04.01-.07.04-.11.08s-.08.1-.14.18c-.03.05-.07.13-.11.22-.04.1-.08.19-.11.3-.02.05-.04.11-.05.17-.02.06-.04.11-.05.17-.02.08-.03.15-.05.22s-.02.13-.03.19-.02.12-.02.16c0,.04,0,.09-.01.13,0,.01,0,.04,0,.05,0,.02,0,.03,0,.06,0,.03,0,.07,0,.12,0,.05,0,.14,0,.14l-.08.07s0-.01,0-.03c0-.01,0-.03,0-.05,0-.01,0-.03,0-.05,0-.02,0-.03-.01-.05,0-.01,0-.03-.01-.04,0-.03,0-.03-.01-.04h0c-.03-.07-.08-.12-.13-.13-.05,0-.1-.01-.16.02-.04.03-.1.07-.17.14s-.12.17-.17.29c-.02.05-.04.1-.05.16-.02.05-.03.11-.04.17-.02.14-.03.24-.02.33ZM38.6,153.69h.01s.01-.03.01-.03v.03s.03-.04.04-.05c.01-.01.03-.03.04-.03h.01s.02,0,.02,0h.01s0,.02,0,.03,0,.03,0,.03c-.02.12-.04.24-.05.37-.01.13-.03.26-.05.41,0,.01,0,.03,0,.03,0,0,0,.02,0,.02,0,.03-.02.07-.03.09-.02.03-.06.06-.06.06,0,0-.01-.01-.02-.02,0,0-.02-.02-.03-.03-.01-.03-.02-.08-.03-.13-.01-.05,0-.11,0-.18,0-.03,0-.06,0-.09,0-.03,0-.06,0-.09.02-.13.05-.22.06-.27.02-.07.03-.11.05-.14ZM37.11,154.39s.02-.05.04-.07c.01-.01.02-.02.03-.03l.02-.02h.01s.02,0,.04,0c.02,0,.03.03.05.05,0,.02.01.03.02.03,0,.01,0,.03,0,.03,0,.03.01.05.01.08,0,.03.01.05,0,.08,0,.01,0,.02,0,.02h-.01s0,.06,0,.06c-.03.01-.05.01-.09,0-.03,0-.07-.02-.09-.04-.02,0-.03-.01-.04-.03,0,0-.03-.03-.03-.03,0,0,0-.02,0-.03,0-.01,0-.04,0-.05,0-.03,0-.05.02-.07ZM37.08,154.69s.05.02.09.02c.01,0,.03,0,.03,0,.01,0,.03,0,.03,0,.01,0,.04,0,.05,0,.01,0,.04,0,.05-.01,0,.01,0,.04,0,.07,0,.03,0,.05,0,.09h-.01s-.02.07-.02.09c0,.02,0,.05-.02.05-.01.03-.02.05-.03.08-.01.03-.02.05-.04.07,0,.03-.04.05-.06.08s-.04.04-.06.05c-.01,0-.02,0-.02,0-.01,0-.02,0-.02,0-.01,0-.02,0-.03-.01,0,0-.02-.02-.03-.03,0-.02-.02-.05-.02-.08,0-.03,0-.06,0-.09,0-.02,0-.03,0-.05,0-.02,0-.04,0-.05h0s0-.03,0-.03v.03s0-.05,0-.07c0-.02,0-.04,0-.06,0-.01,0-.03,0-.04,0-.01,0-.03,0-.04,0-.01,0-.04,0-.06s0-.05.02-.07c.02.02.05.03.07.05Z"/>
          <path class="cls-11" d="M38.33,152.72l.08-.07s-.05.04-.08.06c0,0,0,0,0,0Z"/>
          <path class="cls-11" d="M31.67,157.63c.13.07.25.08.37.08.06,0,.12-.02.17-.03.05-.02.1-.03.14-.04.01,0,.03,0,.03,0,.01,0,.02,0,.03-.01.01,0,.04,0,.04,0l.02-.02c.1-.04.19-.1.28-.17.08-.07.18-.14.27-.22.01-.01.04-.03.05-.05.01-.01.04-.03.05-.05.1-.08.2-.15.29-.22.09-.07.17-.12.28-.15l.03-.03s.03,0,.03,0c.1-.03.19-.05.27-.05.08,0,.14,0,.19,0,.05,0,.07.02.11.03.04.01.06.02.08.03,0-.01,0-.03.02-.05.02-.02.03-.05.05-.07,0-.03.04-.06.06-.09l.08-.08s.05-.02.06-.03.04-.01.06-.03c.03-.01.06-.02.1-.04.03-.01.07-.02.1-.03.06-.02.13-.03.21-.03.07-.01.14,0,.2.01-.04-.02-.07-.02-.11-.04-.03,0-.07-.02-.11-.03-.16-.05-.33-.06-.48-.05-.16,0-.33.04-.52.11h-.01s-.01.03-.01.03c0,0-.02,0-.02,0h-.01s-.08.03-.1.06c-.03.02-.06.03-.09.06-.03.02-.07.04-.1.06-.03.02-.07.04-.1.07h-.01s-.01.03-.01.03c-.06.04-.11.06-.15.1-.05.03-.09.07-.13.1-.04.03-.09.07-.13.1-.04.03-.1.06-.15.11-.02.02-.04.03-.06.05s-.04.03-.06.05c-.03.03-.06.06-.09.09-.03.03-.07.05-.1.08-.02.02-.06.03-.09.06-.03.01-.06.03-.1.05-.03.01-.06.02-.09.03-.03.01-.06.02-.1.02-.14.03-.27.02-.37-.03-.09-.04-.17-.14-.22-.28l-.03-.03s0-.03-.01-.04c-.04-.1-.06-.21-.06-.34,0-.13,0-.26.02-.4,0-.05.02-.11.03-.17.02-.05.02-.12.04-.17,0-.03.02-.08.03-.12.02-.04.03-.09.05-.13.02-.07.04-.13.07-.2.03-.07.06-.13.09-.19.04-.09.09-.17.14-.24.05-.07.1-.12.15-.14h0s.06,0,.07,0c0,0,.02.02.03.03h.01v.02s.02.01.02.01c0,0-.01.01-.03.03-.01.01-.03.03-.04.04-.01.01-.02.03-.04.05,0,.02,0,.03-.02.05,0,.01,0,.04,0,.05,0,.02,0,.03,0,.05s.03.03.04.04c.02,0,.03,0,.07,0h.01s0,0,0,0c.05-.02.08-.07.1-.13.02-.07.02-.14,0-.2v-.03s-.01-.01-.01-.01h-.01c-.03-.06-.08-.1-.13-.11-.06,0-.12-.01-.17.01-.08.04-.15.09-.22.16-.07.07-.14.15-.21.23-.08.11-.15.23-.22.36-.07.13-.12.26-.17.41-.07.22-.12.45-.14.65-.02.2,0,.4.08.56.09.21.2.33.33.39Z"/>
          <path class="cls-11" d="M35.3,155.07c-.01.16,0,.31.04.48.01.04.02.08.03.12.01.03.02.07.04.1.07.16.16.26.28.27s.24,0,.37-.04c.01,0,.04,0,.04,0l.02-.02c.12-.06.22-.16.31-.29.08-.13.13-.28.16-.45,0-.05.01-.1.01-.16s0-.11,0-.16c0-.05,0-.1-.02-.16,0-.05-.02-.1-.04-.14-.03-.04-.06-.09-.1-.12-.05-.02-.09-.03-.16-.02-.02,0-.03.01-.04.01s-.03,0-.04.01c-.06.03-.13.08-.18.14-.05.06-.09.13-.11.22-.01.04-.02.08-.02.12s.01.08,0,.12c0,.06.02.12.03.17.01.05.02.1.04.12,0,.01.01.03.01.03h.01s.02,0,.03-.01c0-.02.02-.05.03-.08h.01s.01-.03.01-.03c0,0,.02-.02.02-.02h.01s.01-.03.02-.03.01-.01.02-.02h0s.01-.02.01-.02c0,0,.01-.01.03-.03.01-.01.02-.02.04-.03,0,0,0-.02-.01-.05,0-.02-.02-.06-.02-.1,0-.02,0-.03,0-.06,0-.03,0-.05,0-.06,0-.04.02-.07.03-.11.02-.03.04-.05.08-.07.03,0,.05,0,.07.02.01.01.03.04.05.06.02.03.02.07.03.12,0,.04,0,.09,0,.14,0,.04,0,.1,0,.14,0,.04,0,.09-.02.12h-.01c-.02.12-.06.22-.12.31-.05.1-.13.16-.21.2-.01,0-.02,0-.03.01-.01,0-.03,0-.03,0-.07.01-.14,0-.18-.04-.05-.05-.09-.11-.13-.2-.03-.08-.06-.15-.07-.22-.02-.07-.03-.14-.03-.22,0-.05,0-.11,0-.16,0-.05.01-.12.02-.18l.03-.18c0-.06.02-.12.03-.16l.05-.2c.02-.07.03-.14.06-.2.02-.06.05-.12.07-.18.03-.05.06-.12.09-.19.01-.03.02-.06.04-.08.02-.02.03-.05.05-.07.04-.06.07-.11.11-.15.04-.04.08-.07.11-.1,0,0,.01-.01.01-.01h.01s.03-.02.03-.02c.01,0,.03,0,.03,0-.01.01-.04.05-.07.09-.03.04-.06.09-.09.16-.01.04-.04.09-.05.14,0,.05-.02.1-.03.15,0,.03,0,.06-.01.1,0,.03,0,.07,0,.1s0,.06.01.1c0,.03,0,.06.02.08.01.03.02.05.05.06.03.01.05.02.07.03.02,0,.04,0,.06,0,.02,0,.05,0,.06-.02.03,0,.06-.03.08-.05l.08-.08c.05-.06.09-.13.12-.21.03-.09.04-.18.04-.28,0-.02,0-.05,0-.07,0-.01,0-.04,0-.06,0-.02-.01-.05-.02-.08,0-.02-.02-.05-.03-.08,0-.03-.01-.04-.03-.06-.01-.01-.03-.03-.03-.04,0,0-.02-.02-.02-.02h-.01v-.02s.02-.01.02-.01c0,0,.01-.01.02-.02.01,0,.03-.01.03-.02,0,0,0-.02.01-.01,0,0,.02,0,.02,0,.05-.01.12-.02.16-.02.05,0,.1,0,.15,0,.04,0,.07,0,.12.01s.08,0,.13.01c.03,0,.04,0,.07,0,.03,0,.05,0,.07,0,0,0,.03,0,.03,0,.01,0,.03,0,.03,0,.03,0,.06,0,.09,0,.03,0,.09,0,.09,0l.11-.3s-.05,0-.11-.02-.12-.02-.18-.03c-.01,0-.02,0-.02,0-.01,0-.02,0-.02,0-.03,0-.04,0-.07,0-.02,0-.04,0-.06,0-.04,0-.07,0-.1,0-.03,0-.05,0-.08,0-.04,0-.09,0-.13.02-.04.01-.1.02-.15.05l.06-.04s-.09.03-.12.06c-.04.01-.07.04-.1.06l-.06.06s-.05.05-.07.07h-.03s-.03,0-.05,0c-.01,0-.03,0-.04,0-.02,0-.04,0-.06,0-.03,0-.08.02-.08.02-.17.1-.34.23-.46.41-.12.18-.22.37-.3.54-.02.03-.03.07-.04.11-.01.04-.03.08-.04.11-.02.05-.04.1-.05.17-.02.06-.04.13-.05.2-.03.14-.04.29-.05.44ZM36.36,153.45s.05-.07.07-.11c.02-.03.06-.07.06-.07v.03s.01.03.02.04c0,.02.01.04.03.06.02.03.02.08.04.14,0,.06,0,.13,0,.22,0,.01,0,.02,0,.02,0,.01,0,.02,0,.02-.02.04-.03.08-.05.12-.02.03-.04.07-.06.11,0,.02-.03.04-.05.06-.01.03-.04.03-.05.05-.01,0-.03,0-.03,0-.01,0-.03,0-.03,0s-.01-.01-.02-.02-.01-.01-.02-.02c0-.02-.01-.05-.02-.09,0-.03,0-.07,0-.11,0-.02,0-.03,0-.06,0-.03,0-.04,0-.06,0-.01,0-.03,0-.03,0-.01,0-.03,0-.03,0-.05.02-.09.04-.13.02-.04.03-.08.05-.11Z"/>
          <path class="cls-11" d="M32.14,156.53c0,.09.02.16.05.24h0s.01.02.01.02c.03.06.07.09.11.11.05,0,.08.02.13.01.01,0,.02,0,.03,0,.01,0,.03,0,.03,0,.09-.04.15-.12.21-.22.05-.1.1-.21.13-.33h.01s0-.05,0-.07c0-.03,0-.04,0-.06,0-.06.02-.12.03-.17,0-.05.01-.1.01-.1l.13-.09s0,.03,0,.06c0,.03,0,.07,0,.12,0,.02,0,.04,0,.05,0,.01,0,.04,0,.05,0,.05.01.08.02.13,0,.05.01.08.02.1.03.06.08.11.13.14.05.02.12.02.23-.01,0,0,.01-.01.02-.02s.01-.01.02-.02c.05-.03.09-.07.13-.12.04-.05.07-.11.1-.16.03-.05.04-.11.06-.15,0-.05.02-.08.02-.08,0,0,0,.01,0,.01v.02s.01.03.02.05c0,.02.02.06.02.06h.01v.03s.06.08.1.09c.04.03.09.02.16,0,.03-.02.07-.05.11-.09.03-.04.05-.07.07-.11.01-.03.02-.06.03-.08,0-.02,0-.04,0-.04,0,0,.01.01.03.03.01.01.03.03.04.04.02.02.08.04.08.04l-.05.1s.08,0,.12-.02c.03-.01.05-.03.08-.06.03-.03.05-.06.07-.09.02-.05.04-.09.07-.15s.04-.11.05-.17c.03-.09.04-.18.05-.26,0-.07,0-.11-.02-.11-.02,0-.03.02-.04.04,0,.02,0,.05-.02.08h0v.02s-.01.03-.02.05c0,.01,0,.04,0,.05,0,.01,0,.03,0,.05s0,.03-.01.04c0,.03-.02.07-.04.09-.03.03-.04.04-.06.05h-.01s-.02-.08-.01-.19c.01-.1.01-.21.03-.33,0-.01,0-.03,0-.03,0,0,0-.03,0-.03.01-.13.02-.24.04-.35.02-.11.02-.16.02-.16,0,0-.02,0-.05,0-.03,0-.06.02-.09.03h0s-.06.02-.08.04c-.01.01-.03.03-.03.03h-.01s0,.03,0,.03h-.01s-.02-.02-.02-.02c-.02,0-.03,0-.06,0-.03,0-.06.02-.1.03-.03,0-.07.02-.09.04s-.04.04-.07.07c-.01.01-.02.02-.04.03,0,.02-.02.04-.03.05-.01.01-.01.04-.03.05,0,.02-.02.05-.03.07-.03.09-.07.21-.09.34-.02.13-.06.27-.11.43-.01.04-.03.09-.05.13s-.04.08-.07.12c-.03.05-.06.09-.09.13-.03.04-.06.06-.08.08,0,0-.01.01-.01.01h-.01s-.01-.01-.02-.02c0,0-.01-.01-.03-.03-.01-.04-.02-.08-.03-.13-.01-.05,0-.11-.01-.17,0-.04,0-.08,0-.12,0-.04,0-.08.01-.12,0-.01,0-.02,0-.03,0-.01,0-.03,0-.03.01-.04.02-.08.03-.12.02-.04.02-.07.04-.11.02-.06.04-.11.07-.15.04-.03.06-.06.08-.07.02,0,.05-.01.05-.01.02,0,.03,0,.03,0,0,0,.01.01.01.01,0,0-.02.02-.04.03-.01.01-.03.03-.05.05-.01.01-.01.03-.03.04-.01.01-.02.03-.02.05,0,0-.01.03,0,.03,0,.01,0,.03,0,.03h0s.01.02.01.02c.01.01.03.03.04.04.02,0,.05,0,.07,0,0,0,.02-.02.04-.03.01-.01.02-.03.04-.05.02-.03.03-.08.04-.13,0-.05,0-.1-.02-.15-.03-.06-.05-.08-.11-.1-.05,0-.1-.01-.15,0h0s-.03.02-.03.03c-.01.01-.02.02-.04.03-.03.03-.06.07-.09.1-.03.04-.06.09-.09.15-.01.03-.04.06-.04.08,0,.02-.02.05-.03.07h-.01s-.02.09-.04.11-.03.07-.06.11c-.02.05-.04.07-.06.09-.02,0-.03.02-.05.03h-.01s0,0,0-.02c0-.02,0-.03,0-.06,0-.01,0-.03,0-.05,0-.02,0-.03-.01-.05,0,0,0-.03-.01-.04,0-.01,0-.03-.01-.04h0c-.03-.07-.08-.12-.13-.13-.05,0-.1-.01-.16.02-.04.03-.1.07-.17.14-.06.07-.12.17-.17.29-.02.05-.04.1-.05.16-.02.05-.03.11-.04.17-.02.14-.03.24-.02.33ZM34.24,154.89h.01s.01-.03.01-.03v.03s.03-.04.04-.05c.01-.01.03-.03.04-.03h.01s.02,0,.02,0h.01s0,.02,0,.03c0,0,0,.03,0,.03-.02.12-.04.24-.05.37-.01.13-.03.26-.05.41,0,.01,0,.03,0,.03,0,0,0,.02,0,.02,0,.03,0,.06-.03.09-.02.03-.06.06-.06.06,0,0-.01-.01-.02-.02,0,0-.02-.02-.03-.03-.01-.03-.02-.07-.03-.13-.01-.05,0-.11,0-.18,0-.03,0-.06,0-.09,0-.03,0-.06,0-.09.02-.13.05-.22.06-.27.02-.07.03-.11.05-.14ZM32.55,155.69s.02-.05.04-.07c.01-.01.02-.02.03-.03s.02-.02.02-.02h.01s.03-.01.04,0c.02,0,.03.03.05.05,0,.02.01.03.02.03,0,.01,0,.03,0,.03,0,.03.01.05.01.08,0,.03.01.05,0,.08,0,.01,0,.02,0,.02h-.01s0,.06,0,.06c-.03.01-.05.01-.09,0-.03,0-.07-.02-.09-.04-.02,0-.03-.01-.04-.03,0,0-.03-.03-.03-.03,0,0-.01-.03,0-.03,0-.01,0-.04,0-.05,0-.03,0-.05.02-.07ZM32.52,155.98s.05.02.09.02c.01,0,.03,0,.03,0,.01,0,.03,0,.03,0,.01,0,.04,0,.05,0,.01,0,.04,0,.05-.01,0,.01,0,.04,0,.07,0,.03,0,.06,0,.09h-.01s-.02.07-.02.09c0,.02,0,.05-.02.05-.01.03-.02.05-.03.08s-.02.05-.04.07c0,.03-.04.06-.06.08-.01.03-.04.04-.06.05-.01,0,0,0-.02,0s-.02,0-.02,0c-.01,0-.02,0-.03-.01,0,0-.02-.02-.03-.03,0-.02-.02-.05-.02-.08,0-.03,0-.06,0-.09,0-.02,0-.04,0-.05,0-.02,0-.04,0-.05h0s0-.03,0-.03c0,.01,0,.02,0,.03v-.03s0,0,0,0c0-.02,0-.03,0-.04,0-.02,0-.04,0-.06,0-.01,0-.03,0-.04,0-.01,0-.03,0-.04,0-.01,0-.04,0-.06,0-.02,0-.05.02-.07.02.02.05.04.07.05Z"/>
          <path class="cls-11" d="M32.41,156.24h0s0,.03,0,.03c0-.01,0-.02,0-.03Z"/>
          <path class="cls-11" d="M34.92,154.5h0s0,.09-.01.12c0,.03,0,.05,0,.05,0,0,.01,0,.03,0,.02,0,.05,0,.06-.02h.01s.01-.01.01-.01c.03,0,.06-.02.08-.03.01-.01.03-.03.03-.03,0,0,0-.02,0-.05,0-.03,0-.05,0-.09,0-.03,0-.07.01-.1,0-.03,0-.05,0-.05v-.03s0,0-.03.01c-.02,0-.05.02-.08.03-.03.01-.06.03-.07.04s-.03.03-.03.03c0,0-.01.01-.01.04,0,.02-.02.05-.02.08v.02Z"/>
        </g>
        <g class="cls-6">
          <path class="cls-25" d="M30.47,161.89c2.25-1.01,4.68-1.54,6.8-2.81,1.87-1.03,4.43-2.76,6.25-3.92-2.36,1.99-4.87,3.87-7.71,5.15-1.75.64-3.54,1.11-5.34,1.58h0Z"/>
        </g>
      </g>
      <g>
        <g>
          <path class="cls-15" d="M19.95,58.93c.16.63.49,1.13.79,1.69.03.07,0,.21.04.27-.29.01-.09.27-.14.36-.03.05-.28.12-.29.18-.03.14.29.64.39.42.02-.03-.09-.16-.07-.21.03-.08.32-.07.06-.34l.33-.12c.99,1.89,1.77,3.57,2.26,5.65.37,1.57.29,4.61,2.72,4,1.09-.27,1.89-1.1,1.73-2.27-1.18-3.36-2.42-6.7-3.59-10.06.03-.2-.1-.58-.25-.72-.02-.04-.03-.07-.04-.11.09-.07.18-.12.28-.16.74-.31,1.79-.7,2.57-.85.17-.03.13-.11.19.11-.33.54-.51,1.24-.86,1.78-.03.1.36.28.38.2.03-.1-.26-.24.2-.32-.27-.33.35-.17,0-.5.31.02.2-.1.29-.26.04-.07.12-.11.13-.14.07.24.15.52.19.76.16.9.24,1.84.44,2.74.07.31.4,1.78.6,1.87l-1.09,2.37c.02.11.31.21.41.13-.13-.21.07-.18.09-.23.03-.05-.06-.16-.04-.22.02-.08.17-.1.21-.16.03-.03.35-.71.35-.75.01-.06,0-.52.01-.55.04-.1.17.02.21.05.36.34.38.7.57,1.07.43.8,1.35,2.12,1.54,2.95.12.53-.18,1.27-.48,1.71-.08.12-.24.22-.34.36-.16.13-.19-.05-.21-.05-.14-.03-.08.11-.1.13-.21.28-.11.27-.17.38-.03.05-.14.05-.15.07-.1-.1-.19.03-.26.09-.55.4-1.92.89-2.6,1.06-.31.08-.6,0-.86.07-.22.05-.43.17-.65.21-.21.04-.5-.04-.7.01s.1.25-.04.33c-.15-.31-.31-.61-.46-.93-.06-.12-.02-.2-.14-.04-.02-.04-.02-.07-.04-.11.02-.02.03-.05.04-.08.06-.18-.22-.84-.36-1-.03-.03-.04-.08-.1-.09-.25-.94-.28-2.12-.5-3.11-.1-.49-.27-.97-.38-1.45,0,0,.07.04.1.11.07.15.09.32.17.48l.05-.02-.47-1.33-.06.02c.11.12.07.33.09.41-.27-.53-.5-1.09-.78-1.62-.45-.87-1.41-2.11-1.72-2.93,0,0,.04-.08.02-.15-.11-.29-.21-.58-.31-.86l.78-.28h0ZM22.6,66.35c-.05-.02-.09-.49-.23-.48l.29,1.15c.1-.08-.03-.52,0-.55s.16-.05.21-.08c-.02-.22-.21,0-.26-.03h0Z"/>
          <path class="cls-22" d="M28.8,55.71c-.39.25-.87.37-1.31.53-.07.02-.15.06-.22.08-1.14.41-2.27.8-3.41,1.21-.07.01,0,.08,0,.12,0,.04.03.07.04.11.07.24.17.48.25.72,1.17,3.36,2.41,6.7,3.59,10.06.17,1.16-.63,2-1.73,2.27-2.43.61-2.34-2.44-2.72-4-.49-2.1-1.28-3.76-2.26-5.65-.05-.1-.27-.26-.28-.27-.03-.05.01-.19-.04-.27-.29-.56-.64-1.05-.79-1.69l.11-.04.78-.28c.13.3.21.62.32.92.03.07.1.1.1.11.05.13.09.26.14.39.86,1.87,1.8,3.55,2.42,5.54.36,1.17.54,3.21,1.27,4.08.04.05.05.13.12.19s.14.06.17.08c.12.08.11.2.36.17.83-.1,1-.77.89-1.49-.27-1.98-1.1-4.25-1.89-6.08-.09-.2-.19-.4-.27-.59-.62-1.36-1.19-2.6-1.74-4-.01-.02-.02-.04-.02-.06l1.11-.4c1-.36,2-.71,3-1.07.26-.09,1.76-.59,1.82-.68.07-.1-.32-1.04-.39-1.24-.52-1.54-1.08-3.09-1.65-4.63-.03-.48-.32-.94-.44-1.41.02.02.13.08.13.16.79,2.38,1.74,4.69,2.52,7.08l.03.02Z"/>
          <path class="cls-31" d="M23.86,45.72c.73.83,1.76,1.79,2.29,2.74.13.46.41.93.44,1.41-.01-.02-.02-.04-.02-.06-.03-.09-.19-.62-.24-.6l.09.34c-.23.11-.14.01-.21-.07-.16-.19-.08.14-.08.16-.03.08-.31.15-.16.39-.35.13-.71.24-1.05.38-.06.02-.11.04-.17.06l-3.05,1.09-.02-.06,3.05-1.09c-.45-.91-.75-1.92-1.49-2.64-.03-.39-.46-.64-.58-.91-.07-.14-.03-.31-.08-.39-.05-.06-.16-.06-.17-.17.36-.15.78-.25,1.14-.4.07-.03.09-.09.11-.1.06-.04.15-.05.22-.08Z"/>
          <path class="cls-59" d="M18.66,42.89c.24,1.42.92,2.77,1.36,4.14l2.21-.8s.05.02.08.04c-.74.27-1.48.53-2.21.8-.28.1-.59.27-.81.35l-.33.12c-.28.1-.7.19-1.02.3-.2.07-.41.15-.61.21l-.78.28s-.03-.03-.02-.06l1-.36c-.15-.31-.14-.68-.14-1.02-.02-.75.13-1.49.08-2.27-.02-.39-.01-.93-.23-1.24l1.44-.51h0Z"/>
          <path class="cls-57" d="M16.04,42.89c.15-.06.3-.1.44-.15.33-.12.67-.24,1-.36,1.09-.39,2.23-.84,3.33-1.19.51-.16.39-.09.58.42-.19.07-.37.13-.55.19-.36.14-.74.26-1.11.4.03.1.07.19.1.28l1.11-.4c.33.93,2.18,2.79,2.92,3.64-.07.03-.16.04-.22.08l-1.33.47s-.07-.02-.08-.04c-.62-.91-2.12-2.83-2.41-3.77l-1.16.41-1.44.51-.78.28c-.02-.06-.08-.27-.1-.28-.16-.08-.6.58-.69-.38.13-.05.26-.09.39-.14h0Z"/>
          <path class="cls-15" d="M17.31,48.05c.05.68-.03,1.36-.02,2.04.02,1.27.1,1.63.52,2.85l-.22.08-.55.19s-.02-.04-.02-.06c.09-.28-.52-1.23-.33-1.37.07-.06.29-.09.3-.11.02-.05-.21-.26.09-.28-.07-.21-.24.1-.28-.27l-.03.26-.28-.09c-.05-1,.04-1.97.07-2.96l.78-.28h-.01Z"/>
          <path class="cls-24" d="M17.22,43.4c.22.31.21.85.23,1.24.05.77-.1,1.51-.08,2.27,0,.34,0,.7.14,1.02l-1,.36c.04-1.18.32-3.61-.07-4.59l.78-.28h0Z"/>
          <path class="cls-29" d="M19.37,38.76c.28-.05.47.12.63.34.16.64.57,1.34.7,1.97,0,.06.02.06-.03.1-.23-.02-.62.12-.78.28-.09.03-.18.06-.28.1-.02-.14-.12-.04-.18-.15-.27-.53-.38-1.32-.64-1.84-.08-.14-.24-.19-.26-.37l.94-.34c-.02-.1-.15,0-.21.01-.69.21-1.37.49-2.05.73-.09.03-.23.13-.32.05.63-.24,1.9-.79,2.49-.89h0Z"/>
          <path class="cls-39" d="M15.61,40.11c.07-.07.21-.01.24-.03-.08.06-.1.15-.11.24-.07.63.59,1.7.72,2.35l-.39.14-.75-1.92c-.07-.31.02-.59.29-.79Z"/>
          <path class="cls-29" d="M17.04,53.21c.69,1.93,1.38,3.87,2.06,5.8l.22.08-.22.08c-.78-1.92-1.47-3.96-2.12-5.93,0,0,.06-.02.06-.02Z"/>
          <path class="cls-12" d="M20.84,41.8c.03.09.07.19.1.28l-1.11.4c-.03-.1-.07-.19-.1-.28.37-.13.74-.26,1.11-.4Z"/>
          <path class="cls-27" d="M20.8,41.18c-1.1.34-2.24.79-3.33,1.19l-.02-.06c.72-.26,1.45-.51,2.16-.77.09-.03.18-.06.28-.1.17-.06.67-.2.78-.28t.03-.1c-.13-.63-.54-1.34-.7-1.97.38.57.52,1.45.81,2.09h0Z"/>
          <path class="cls-37" d="M16.48,51.29l.28.09.03-.26c.04.37.21.06.28.27-.29.03-.06.23-.09.28-.02.01-.23.05-.3.11-.19.16.41,1.09.33,1.37-.15-.43-.28-.93-.53-1.31-.06-.23,0-.37-.01-.56h0Z"/>
          <path class="cls-42" d="M19.37,38.76c-.59.1-1.87.65-2.49.89-.02.02-.06.09-.09.1-.28.11-.66.27-.94.34-.04,0-.17-.05-.24.03.05-.04.06-.07.16-.13.93-.44,2.27-.82,3.28-1.17.09-.03.23-.13.32-.05Z"/>
          <path class="cls-29" d="M15.32,40.9l.75,1.92.39-.14.02.06c-.15.06-.29.1-.44.15-.17-.66-.55-1.34-.71-2h0Z"/>
          <path class="cls-37" d="M21.97,64.76c-.02-.07.02-.29-.09-.41l.06-.02.47,1.33-.05.02c-.07-.15-.09-.32-.17-.48-.03-.07-.1-.11-.1-.11-.04-.11-.09-.22-.12-.33h0Z"/>
          <path class="cls-31" d="M17.02,53.16s.02.04.02.06l-.06.02c-.15-.45-.38-.94-.5-1.39.25.37.38.88.53,1.31h0Z"/>
          <path class="cls-31" d="M23.06,69.75l.36,1s-.02.05-.04.08c-.14-.33-.33-.82-.41-1.16.06,0,.07.06.1.09h0Z"/>
          <path class="cls-31" d="M19.47,60.22c-.12-.33-.22-.67-.36-1l.06-.02c.11.29.2.58.31.86.03.07,0,.15-.02.15h0Z"/>
          <path class="cls-27" d="M19.31,59.09c.09-.03.18-.06.28-.1.11-.04.22-.08.33-.12.04-.02.07-.02.11-.04l.02.06-.11.04-.78.28-.06.02s-.02-.04-.02-.06l.22-.08h0Z"/>
          <path class="cls-37" d="M28.29,62.88s.05-.04.07-.03c.16.09.15.06.28.09.22.07-.06.12-.07.16-.01.03.04.11.02.15s-.21.07-.14.26c-.03-.03-.17-.15-.21-.05-.02.03,0,.49-.01.55,0,.04-.33.72-.35.75-.05.07-.19.07-.21.16-.02.07.06.18.04.22-.03.05-.23.02-.09.23-.1.08-.4-.01-.41-.13l1.09-2.37h0Z"/>
          <path class="cls-37" d="M27.48,56.23c.21.14-.05.1-.07.16-.01.05.05.13.05.18-.03.36-.33.12-.37.18-.02.01.04.34-.09.44.07.04.13-.06.15.07-.06.07-.07.18-.1.26-.02.03-.09.08-.13.14-.09.15.02.28-.29.26.34.33-.29.17,0,.5-.46.09-.17.22-.2.32-.02.07-.42-.1-.38-.2.35-.54.53-1.25.86-1.78.11-.18.17-.29.34-.43.07-.02.15-.06.22-.08h.02Z"/>
          <path class="cls-37" d="M29.14,70.13s.12,0,.15-.07c.06-.11-.05-.1.17-.38.02-.02-.04-.16.1-.13,0,0,.05.18.21.05,0,0,.05.06.02.1-.02.03-.13.04-.14.07-.03.08.17.2-.06.31-.06.02-.16,0-.19.04-.11.12.09.88-.31.88.19.14-.02.22-.06.32-.02.04.04.12.03.15-.05.11-.4-.02-.19.32l-.26-.03s-.04-.05-.08-.04c0,0-.04-.13,0-.26.06-.19.3-.45.37-.59s.11-.56.25-.76h0ZM28.87,71.24l.02.06s.03-.05-.02-.06Z"/>
          <path class="cls-37" d="M20.77,60.88s.23.17.28.27l-.33.12c.26.28-.03.27-.06.34-.02.05.08.19.07.21-.09.23-.42-.28-.39-.42.01-.06.26-.14.29-.18.04-.07-.14-.33.14-.36h0Z"/>
          <path class="cls-31" d="M27.27,56.32c-.17.14-.24.26-.34.43-.06-.22-.03-.15-.19-.11-.78.15-1.83.54-2.57.85-.1.05-.19.09-.28.16,0-.04-.07-.11,0-.12,1.14-.41,2.27-.8,3.41-1.21h-.01Z"/>
          <path class="cls-37" d="M22.6,66.35s.25-.19.26.03c-.05.03-.19.04-.21.08-.03.05.11.48,0,.55l-.29-1.15c.14,0,.18.46.23.48h0Z"/>
          <path class="cls-37" d="M23.42,70.74l-.36-1c.13.16.42.82.36,1Z"/>
          <path class="cls-31" d="M24.16,58.48c-.08-.24-.19-.48-.25-.72.16.14.29.52.25.72Z"/>
          <path class="cls-15" d="M31.78,65.69c-.23.19-.17.62-.54.58.3.3-.15.17,0,.5-.04.07-.34-.05-.37-.15s.6-1.3.68-1.52l.22.59h0Z"/>
          <path class="cls-15" d="M28.52,71.73s.06.01.08.04c.18.52-.25.25-.27.13-.01-.09.19-.15.19-.16h0Z"/>
          <path class="cls-37" d="M30.85,66.71s.21.29.25.35c-.33.15-.48-.43-.25-.35Z"/>
          <rect class="cls-15" x="30.03" y="61.59" width=".06" height="1.06" transform="translate(-19.13 13.72) rotate(-19.64)"/>
          <rect class="cls-15" x="24.16" y="71.98" width=".06" height=".23" transform="translate(-22.83 12.32) rotate(-19.64)"/>
          <path class="cls-53" d="M22.72,57.94c.55,1.4,1.12,2.63,1.74,4-.07.3-.25.51-.39.79-.04.08-.09.18-.14.28-.08.17-.18.43-.25.61l.36.16c-.1-.25-.07-.33.2-.32-.16-.27,0-.21.09-.35.14-.21.18-.47.39-.58.8,1.82,1.62,4.1,1.89,6.08.1.72-.06,1.39-.89,1.49-.24.03-.24-.09-.36-.17l-.05-.3.27-.02c.02-.2.2-.33.24-.49.02-.1.02-.58.03-.61.09-.15.26.13.32.01.03-.05-.07-.33-.06-.35.03-.06.29-.01.19-.16-.12-.06-.23.02-.32-.1-.16.27-.32.56-.45.84-.05.1-.09.21-.14.35-.09.19-.15.43-.31.57-.73-.87-.91-2.89-1.27-4.08-.6-2-1.55-3.68-2.42-5.54.18,0,.19-.29.17-.37-.18.08-.13-.28-.31-.02,0,0-.07-.04-.1-.11-.13-.3-.21-.62-.32-.92l1.89-.67-.04-.02Z"/>
          <path class="cls-39" d="M24.9,50.41l-.2.29,2.1,5.72c-1,.36-2,.71-3,1.07-.25-.38-.38-.88-.53-1.31-.03-.07,0-.18-.03-.24-.06-.17-.19-.36-.22-.45l-1.09-3.05s.01-.14-.02-.24c-.06-.2-.14-.4-.27-.57,1.04-.37,2.07-.78,3.08-1.17.06-.02.11-.04.17-.06h0Z"/>
          <path class="cls-27" d="M25.96,50.03l.61-.21s.02.04.02.06c.56,1.53,1.13,3.09,1.65,4.63.06.21.46,1.13.39,1.24-.06.09-1.57.58-1.82.68l-2.1-5.72.2-.29c.35-.13.7-.25,1.05-.38h0Z"/>
          <path class="cls-42" d="M20.53,51.97l.06-.02.02.06c.58,1.99,1.35,3.96,2.1,5.87.01.02.02.04.02.06l-1.89.67-.78.28-.02-.06c.13-.06.76-.22.74-.37-.44-1.01-.69-2.22-1.14-3.21-.06-.12-.16-.14-.19-.2s.05-.18.01-.3c-.17-.66-.52-1.42-.75-2.07-.01-.02-.02-.04-.02-.06,0,0,1.83-.65,1.83-.65Z"/>
          <path class="cls-33" d="M21.65,51.63c.13.16.2.36.27.57.03.1,0,.21.02.24l1.09,3.05c.04.1.16.28.22.45-.34-.07-.43.47-.55.73-.03.06-.15.12-.13.17.03.15.36.27.38.2-.25-.3.48-.47.17-.78l.15-.08c.15.43.28.93.53,1.31l-1.11.4c-.75-1.92-1.52-3.88-2.1-5.87l1.05-.38h.02Z"/>
          <path class="cls-12" d="M25.09,69.65c.16-.14.22-.38.31-.57.06-.13.1-.25.14-.35.14-.29.29-.57.45-.84.09.12.19.05.32.1.09.14-.16.1-.19.16-.02.01.09.3.06.35-.05.11-.23-.16-.32-.01-.02.03,0,.51-.03.61-.05.17-.22.3-.24.49l-.27.02.05.3s-.1-.02-.17-.08-.08-.14-.12-.19h.02Z"/>
          <path class="cls-12" d="M24.73,62.53c-.22.11-.25.37-.39.58-.09.14-.25.07-.09.35-.27-.01-.31.07-.2.32l-.36-.16c.07-.18.17-.44.25-.61.05-.1.1-.2.14-.28.14-.28.33-.49.39-.79.08.18.19.39.27.59h0Z"/>
          <path class="cls-12" d="M21.26,59.64c.18-.27.13.1.31.02.01.08,0,.37-.17.37-.06-.12-.09-.26-.14-.39Z"/>
          <path class="cls-15" d="M22.31,46.27l1.33-.47s-.04.07-.11.1c-.36.15-.78.25-1.14.4,0,.11.13.1.17.17.06.08.02.25.08.39.12.26.55.52.58.91.74.72,1.04,1.73,1.49,2.64l-3.05,1.09-1.58-4.44c.74-.27,1.48-.53,2.21-.8v.02ZM22.11,49.59s.12-.04.19-.16c.02-.03.17-.44.18-.49.01-.06-.02-.42.04-.49.05-.04.56-.07.22-.4l.16-.09c-.14-.04-.23-.02-.26-.19l-1.19,2.36c-.05.13.18.27.27.22.04-.03.02-.15.04-.19.06-.06.19-.07.2-.09.02-.03-.1-.18-.08-.22.02-.01.15-.03.21-.11.05-.05,0-.15,0-.16-.04.08-.19.02-.15-.07s.19,0,.15.07h0Z"/>
          <path class="cls-22" d="M20.09,47.06l1.58,4.44.02.06-1.11.4-.06.02c-.59-1.47-.9-3.02-1.25-4.55.22-.08.53-.25.81-.35h0Z"/>
          <path class="cls-27" d="M21.7,51.55l3.05-1.09c-1.01.39-2.05.79-3.08,1.17l-1.05.38-.02-.06,1.11-.4Z"/>
          <path class="cls-37" d="M26.57,49.81l-.61.21c-.15-.24.13-.31.16-.39,0,0-.08-.35.08-.16.06.08-.02.18.21.07l-.09-.34s.21.51.24.6Z"/>
          <path class="cls-24" d="M19.83,42.48c.29.94,1.78,2.85,2.41,3.77l-2.21.8c-.43-1.38-1.11-2.72-1.36-4.14l1.16-.41h0Z"/>
          <path class="cls-53" d="M19.28,47.42c.35,1.54.66,3.08,1.25,4.55l-1.83.65c-.53-1.57-.53-2.35-.66-3.95.14-.08.15.15.28.01.05-.04.14-.37.19-.46.07-.11.27-.39.36-.47.09-.07.18,0,.07-.21.11-.04.22-.08.33-.12Z"/>
          <path class="cls-22" d="M17.93,47.84c.06.27.09.56.11.84.13,1.6.14,2.39.66,3.95l-.11.04-.78.28c-.42-1.21-.51-1.57-.52-2.85,0-.68.08-1.36.02-2.04.2-.07.41-.15.61-.21h0Z"/>
          <path class="cls-12" d="M18.95,47.54c.12.23.01.14-.07.21-.09.08-.29.37-.36.47-.05.09-.14.43-.19.46-.14.13-.15-.1-.28-.01-.02-.28-.04-.56-.11-.84.32-.11.73-.19,1.02-.3Z"/>
          <path class="cls-49" d="M16.78,39.75c-.19.85.47,1.74.67,2.57l.02.06c-.33.12-.67.24-1,.36l-.02-.06c-.13-.65-.8-1.72-.72-2.35.01-.1.05-.18.11-.24.28-.06.66-.23.94-.34Z"/>
          <path class="cls-39" d="M17.59,53.02l.24-.03c.67,1.95,1.41,3.87,2.07,5.82-.1.05-.29.06-.31.17-.09.03-.18.06-.28.1l-.22-.08c-.68-1.93-1.38-3.87-2.06-5.8l.55-.19h0Z"/>
          <path class="cls-29" d="M17.81,52.94s.02.04.02.06l-.24.03.22-.08h0Z"/>
          <path class="cls-39" d="M16.89,39.65c.09.07.23-.02.32-.05.69-.24,1.36-.51,2.05-.73.07-.02.19-.12.21-.01l-.94.34c.03.18.18.22.26.37.27.53.38,1.3.64,1.84.05.11.16,0,.18.15-.72.26-1.45.51-2.16.77-.2-.83-.86-1.72-.67-2.57.02-.02.06-.09.09-.1h.02Z"/>
          <path class="cls-39" d="M20.67,41.17c-.09.08-.6.22-.78.28.15-.16.54-.3.78-.28Z"/>
          <path class="cls-33" d="M18.59,52.66h.13c.23.68.57,1.43.75,2.09.03.12-.04.25-.01.3.03.04.13.07.19.2.45.98.7,2.2,1.14,3.21.01.14-.61.31-.74.37-.04.02-.07.02-.11.04l-.02-.06c-.67-1.95-1.41-3.87-2.07-5.82-.01-.02-.02-.04-.02-.06l.78-.28h0Z"/>
          <path class="cls-29" d="M19.9,58.81l.02.06c-.11.04-.22.08-.33.12.03-.13.21-.13.31-.17Z"/>
          <path class="cls-31" d="M28.8,55.71c.75,2.27.57,4.82,1.57,7.02.96,2.12,2.24,3.32,2.67,5.78.12.67.35,2.42-.48,2.71-.68.24-.88.12-1.49.13-.9.01-1.09.78-1.83,1.04s-1.31-.21-2.1.37c-.42.3-.46.56-1.11.82-.19.08-.33.07-.52.02-.78-.19-1.77-1.95-2.07-2.66.12-.16.08-.08.14.04.15.31.3.62.46.93.14-.08-.16-.27.04-.33s.49.03.7-.01c.23-.05.43-.17.65-.21.25-.05.55.01.86-.07.69-.17,2.06-.67,2.6-1.06.07-.06.17-.17.26-.09-.13.2-.19.63-.25.76s-.31.39-.37.59c-.04.12,0,.24,0,.26s-.21.06-.19.16c.02.13.45.39.27-.13l.26.03c-.21-.34.13-.22.19-.32.02-.01-.05-.1-.03-.15.04-.11.25-.19.06-.32.41,0,.21-.76.31-.88.03-.03.13,0,.19-.04.24-.12.03-.23.06-.31.02-.03.12-.03.14-.07s-.03-.1-.02-.1c.1-.16.25-.24.34-.36.29-.43.6-1.18.48-1.71-.19-.82-1.11-2.15-1.54-2.95-.2-.38-.22-.73-.57-1.07-.06-.18.14-.21.14-.26.02-.04-.04-.11-.02-.15s.29-.1.07-.16c-.13-.03-.11,0-.28-.09-.01-.02-.06.04-.07.03-.2-.1-.54-1.56-.6-1.87-.19-.9-.29-1.84-.44-2.74-.04-.24-.12-.52-.19-.76.04-.07.04-.19.1-.26-.02-.13-.08-.04-.15-.07.14-.1.09-.42.09-.44.04-.07.34.18.37-.18,0-.06-.07-.13-.05-.18.02-.05.27-.01.07-.16.44-.16.92-.28,1.31-.53h-.02ZM30.27,62.62l-.36-1-.06.02.36,1,.06-.02ZM31.78,65.69l-.22-.59c-.08.22-.71,1.42-.68,1.52.04.1.33.22.37.15-.14-.33.31-.2,0-.5.36.04.29-.39.54-.58h0ZM30.85,66.71c-.23-.09-.07.5.25.35-.04-.05-.23-.34-.25-.35ZM24.25,72.2l-.08-.22-.05.02.08.22.05-.02Z"/>
          <path class="cls-31" d="M28.87,71.24s.05.03.02.06l-.02-.06Z"/>
          <path class="cls-49" d="M23.26,55.93c.03.07,0,.18.03.24l-.15.08c.32.31-.4.47-.17.78-.03.08-.36-.04-.38-.2,0-.04.1-.11.13-.17.11-.26.21-.8.55-.73h0Z"/>
          <path class="cls-29" d="M18.7,52.63s.02.04.02.06h-.13s.11-.05.11-.05h0Z"/>
          <path class="cls-37" d="M22.11,49.59s.04.11,0,.16c-.06.07-.2.09-.21.11-.01.03.09.19.08.22,0,.02-.16.03-.2.09-.03.03,0,.16-.04.19-.08.06-.32-.09-.27-.22l1.19-2.36c.02.17.12.15.26.19l-.16.09c.34.33-.18.35-.22.4-.06.08-.03.42-.04.49-.01.05-.15.46-.18.49-.06.13-.18.15-.19.16.04-.08-.11-.15-.15-.07s.12.15.15.07h0Z"/>
        </g>
        <path class="cls-11" d="M19.68,54.33h0c-.06.02-.11.07-.17.14s-.11.14-.17.24c-.03.05-.07.12-.1.19s-.06.13-.08.2c-.02.04-.04.1-.06.14s-.03.09-.04.12c-.02.05-.03.12-.05.17-.01.06-.03.12-.04.17-.02.15-.04.28-.05.41s0,.25.04.35c0,0,.01.03,0,.04l.03.03c.04.15.12.25.21.31.09.05.23.07.38.05.04,0,.07,0,.1-.02.03-.01.07-.01.1-.03.04-.02.07-.03.1-.05.03-.03.07-.03.1-.05.03-.03.08-.05.11-.07l.1-.08.06-.05.06-.05c.05-.04.11-.08.16-.1s.1-.07.14-.09.09-.06.14-.09c.05-.04.11-.06.17-.1h.02s.02-.03.02-.03c.04-.03.08-.05.11-.07.03-.03.07-.04.11-.06.03-.03.06-.04.1-.05.03-.03.07-.03.11-.04h.02s.01-.01.02-.02h.02s.02-.03.02-.03c.2-.06.38-.09.54-.08.16,0,.33.03.5.09.03.01.08.03.11.04.04.02.08.03.12.05-.05-.02-.13-.03-.2-.03-.08,0-.15,0-.22.02-.04,0-.08.01-.11.02-.04.02-.07.02-.1.03-.02.02-.05.02-.07.03s-.05.02-.07.03l-.09.08s-.06.05-.07.08c-.02.02-.03.05-.06.07-.02.01-.02.03-.03.05l-.08-.04s-.06-.03-.11-.04c-.05-.01-.12-.02-.2-.02s-.17.01-.28.04c0,0-.02,0-.04,0l-.03.03c-.11.02-.2.07-.3.14-.09.06-.21.13-.31.2l-.05.04-.05.04c-.09.08-.2.15-.29.21-.1.07-.2.12-.3.15l-.02.02s-.03,0-.04,0c0,0-.02.01-.03.01,0,0-.02,0-.04,0-.04,0-.1.02-.15.03-.06,0-.12.02-.18.02-.12,0-.25-.03-.37-.11s-.23-.21-.31-.43c-.07-.18-.07-.38-.04-.59s.11-.44.2-.66c.06-.15.13-.29.21-.41s.16-.25.25-.36c.07-.08.15-.16.23-.23s.15-.11.24-.15h0c.06-.02.12-.02.18,0,.05.02.1.06.13.11h0s0,0,0,.02v.02s0,.03,0,.03c.01.07,0,.14-.01.2s-.06.11-.11.13h0s0,0-.01,0c-.04,0-.05,0-.07,0l-.04-.05s-.01-.03,0-.05v-.06s.02-.03.03-.05c.02-.01.02-.03.04-.05l.05-.04.03-.03h0v-.02h-.02s-.01-.02-.01-.02l-.03-.03s-.04,0-.07,0h0ZM21.83,55.53s-.06-.03-.08-.05l-.04-.05-.03-.03h0s0,.02,0,.04-.02.05-.04.08c-.02.04-.04.07-.08.11-.04.03-.08.06-.11.08-.07.02-.13.03-.17,0-.04-.02-.07-.06-.08-.1v-.02s-.03-.02-.03-.02c0,0,0-.04-.01-.07-.01-.02,0-.04-.02-.05v-.02s-.01,0,0-.01c0,0-.01.03-.02.08-.02.04-.04.1-.07.15-.03.05-.07.11-.12.16-.05.05-.09.09-.15.12l-.02.02-.02.02h0c-.11.02-.19.02-.23,0-.05-.03-.1-.09-.13-.16h0s-.02-.05-.02-.1,0-.09,0-.14c0,0,0-.04,0-.05s0-.04,0-.06c0-.05,0-.09,0-.12s0-.06.01-.06l-.14.09s0,.06-.02.1c0,.06-.03.11-.04.17,0,.02-.01.03-.01.06,0,.02-.02.04-.01.06h0s0,0,0,.01c-.04.12-.09.23-.16.33s-.13.17-.23.21h0s-.02,0-.04,0-.02,0-.04,0c-.05,0-.08,0-.13-.02-.04-.02-.08-.05-.11-.12h0v-.02s-.01,0-.02,0h0c-.03-.08-.04-.16-.04-.25s.02-.2.05-.34c.01-.06.03-.12.05-.17s.04-.11.07-.16c.06-.12.12-.21.19-.29s.14-.11.18-.14c.06-.02.12-.02.16,0s.09.07.12.13h0s.01.04,0,.05c.01.02,0,.04,0,.04,0,.02,0,.04,0,.06,0,.02,0,.04,0,.05,0,.03,0,.04,0,.06,0,.01,0,.03-.01.03h0s0,0,0-.01c.02-.01.03-.03.05-.03.02-.02.05-.04.07-.08.03-.04.05-.08.07-.11.02-.03.04-.07.05-.1h0s0,0,0-.01c.02-.01.03-.05.04-.07s.03-.05.05-.08c.03-.05.07-.11.1-.15.04-.03.07-.07.1-.1l.04-.03s.02-.02.04-.02h0c.05-.02.11-.02.16,0,.05.02.08.05.1.11h0c.02.05.02.11.01.16s-.02.1-.05.13c-.02.01-.02.03-.04.05l-.04.03h0s-.05,0-.07,0l-.04-.05v-.02s-.01,0-.02,0,0-.02,0-.04c0,0,0-.03.01-.03,0-.01.01-.03.03-.05s.02-.03.03-.04l.05-.04.04-.03h0v-.02s-.03-.02-.05-.01c0,0-.04,0-.06,0l-.09.07s-.06.09-.09.15c-.02.04-.03.08-.05.12s-.02.08-.04.12c0,0,0,.02-.01.03s0,.02-.01.03c-.01.03-.01.08-.02.12v.13c-.01.06-.02.12-.01.18,0,.05.01.09.02.14l.03.03.02.02h.01s0,0,.02-.01c.02-.02.06-.04.09-.08s.07-.07.11-.12c.03-.04.06-.09.08-.12s.04-.09.06-.13c.06-.16.11-.31.14-.44s.08-.25.12-.34c.02-.01.03-.05.04-.07.02-.01.02-.04.03-.05s.02-.03.03-.05l.04-.03.08-.06s.06-.04.1-.04c.04,0,.08-.03.11-.02.03,0,.04,0,.06.01h.02s0,.02.01.02h0s0,0,0-.02h0s0,0,0-.01l.03-.03s.05-.02.08-.03h0s.07-.03.1-.03c.03-.01.04,0,.05,0,0,0,0,.06-.03.17s-.05.23-.07.36c0,0,0,.02,0,.03v.03c-.03.13-.04.24-.06.34s-.01.18,0,.21h0s0,0,0-.01l.06-.05s.04-.06.05-.09c0,0,.02-.03.02-.04s.01-.03.01-.05c0,0,.01-.03.01-.05s.01-.03.01-.05h0s0,0,0-.02c.01-.03.01-.06.02-.08s.02-.03.05-.04c.03,0,.03.04.02.12s-.03.17-.07.26c-.02.05-.04.11-.07.17s-.05.11-.08.16c-.02.03-.05.07-.08.09s-.05.04-.08.06c-.05.02-.1.03-.13.02l.06-.1ZM19.68,55.65s0,0,0,.02h0s0,.05,0,.07c0,.01,0,.04,0,.06,0,.03,0,.06,0,.09s0,.06.01.08l.03.03s.01.02.03.02c0,0,0,0,.02,0s0,0,.02,0c.02-.01.05-.02.06-.05.02-.02.05-.04.06-.08.02-.02.03-.05.04-.07s.02-.05.04-.08c0,0,.01-.03.02-.05,0-.03.02-.05.02-.08h0s0,0,0-.01c0-.03.01-.06.02-.09v-.07s-.04,0-.05,0c0,0-.04,0-.05,0h-.03s-.01,0-.03,0c-.03-.01-.06-.01-.09-.03s-.05-.03-.07-.06c0,.02-.01.05-.02.07s-.01.05-.01.06v.04s0,.03,0,.04c0,.02,0,.04-.01.06v.07h0v-.03ZM20.07,55.31h.02s0-.02,0-.03c0-.02,0-.04,0-.08,0-.03,0-.06,0-.09,0,0,0-.02,0-.04,0,0-.01-.02-.02-.04h0s-.02-.05-.04-.05c-.01-.02-.03-.02-.04-.02h0s0,0,0,.01h0l-.02.02-.03.03s-.04.03-.05.07c-.02.03-.03.05-.03.08,0,0-.01.03-.01.05,0,0,0,.03,0,.04h0l.03.03s.02.02.04.03c.02.02.05.03.09.04.03.01.06.01.09,0h0v-.05ZM21.71,54.36h-.02s0,.02-.02.03c-.02.03-.04.07-.06.14-.02.05-.05.14-.09.28,0,.03-.01.06-.02.09s-.01.06-.02.09c0,.07-.01.13,0,.18,0,.06.01.11.02.14l.03.03.02.02h0s.05-.02.07-.06.03-.06.04-.1c0,0,.02-.01,0-.02v-.03c.04-.15.07-.28.09-.42s.05-.26.08-.38c0,0,0-.02,0-.03s0,0,0-.01v-.02s-.02,0-.03,0h0s0,0,0,.01l-.04.03s-.03.03-.05.05h0v-.03ZM24.51,52.46c.06-.02.12-.03.16-.04s.09-.01.14,0h.08s.06.01.1.02c.02,0,.04,0,.06.01.03,0,.04,0,.07,0,0,0,0,0,.02,0,0,0,0,0,.02,0,.06.01.13.03.19.04.06.01.09.02.11.03l-.14.31s-.06-.01-.09-.02-.06,0-.09-.02c0,0-.01,0-.03,0,0,0-.03,0-.03-.01-.02,0-.04,0-.07,0h-.07s-.09-.02-.13-.03-.08-.01-.12-.02c-.05-.01-.1-.01-.15-.02-.05,0-.11,0-.17.01,0,0-.02.01-.02,0s-.02.01-.02.01c0,0-.02.02-.04.02l-.02.02h-.02s0,.01,0,.02v.02s.03.02.03.02l.03.04s.03.03.02.06c.01.03.02.06.03.08s0,.06.01.08,0,.05,0,.06,0,.05,0,.07c-.01.1-.03.19-.06.28-.04.08-.08.16-.14.21l-.09.08s-.05.04-.09.05c-.02.01-.04,0-.07.01s-.04,0-.06,0c-.02,0-.04-.02-.07-.04s-.03-.04-.04-.07c-.02-.02-.02-.06-.02-.09,0-.04,0-.06,0-.1s0-.07,0-.11c0-.04,0-.07.02-.1.01-.05.03-.1.04-.15.02-.05.05-.1.06-.14.04-.07.07-.12.1-.16.04-.05.06-.08.08-.09h-.03s-.02,0-.04,0h-.02s0,.02-.02.03l-.12.09s-.09.08-.13.14c-.02.02-.03.05-.06.07s-.03.05-.05.08c-.04.07-.07.13-.1.19-.03.06-.06.12-.08.18-.04.07-.06.14-.08.21-.02.07-.04.14-.06.21-.01.05-.03.1-.05.17-.01.06-.03.13-.04.19s-.03.13-.03.18-.01.11-.02.17c0,.08,0,.16.02.23.01.08.03.15.06.23.03.09.08.16.12.21s.11.06.19.05c0,0,.02,0,.04,0,0,0,.02-.01.03-.01.09-.03.17-.09.23-.19.07-.09.12-.19.14-.3h0s0,0,0-.01c.01-.03.02-.08.03-.13s.01-.1.01-.14c0-.05,0-.1,0-.14,0-.05,0-.09-.02-.12-.01-.03-.03-.05-.04-.07s-.04-.02-.07-.02h0s-.06.04-.09.07c-.01.03-.04.07-.04.11h0s-.01.03-.01.06c0,.03,0,.04,0,.06,0,.04,0,.09.01.11,0,.04,0,.05,0,.06l-.04.03-.03.03h-.02s0,.01,0,.02l-.02.02-.02.02h-.02s-.02.03-.02.03h-.02s-.02.03-.02.03c-.02.03-.03.06-.04.08,0,.02-.02.03-.03.03v-.02s-.03-.02-.02-.03c-.01-.03-.02-.07-.03-.13,0-.06-.02-.12-.02-.18,0-.04,0-.09,0-.13s0-.08.03-.13c.03-.09.07-.16.13-.22s.12-.1.19-.13c.02-.01.03-.01.04,0s.02,0,.04,0c.07,0,.12,0,.17.03.04.03.07.09.09.13,0,.04.03.1.03.15,0,.06.01.11,0,.16,0,.06-.01.11-.02.17s-.02.1-.02.16c-.04.17-.11.33-.2.46-.1.13-.21.22-.34.28l-.02.02s-.03,0-.04,0c-.14.04-.27.04-.39.02s-.21-.13-.27-.3c-.01-.03-.02-.07-.03-.1,0-.04-.01-.08-.02-.12-.02-.17-.03-.34,0-.5.02-.16.05-.31.08-.45.01-.08.04-.15.06-.21.02-.07.04-.12.07-.17.01-.03.03-.08.05-.12s.03-.08.05-.11c.09-.18.21-.36.35-.54.14-.18.32-.31.5-.4h0s.05-.02.08-.01c.02,0,.04,0,.06,0,0,0,.03,0,.04,0s.03,0,.05.01h.01s0,0,.01,0l.08-.06.07-.06s.06-.05.11-.06c.03-.03.07-.03.13-.05h0l-.06.04ZM22.68,53.82s.01.02,0,.05c0,.03,0,.07-.02.1h0s-.01.06-.02.09-.01.05-.01.05l-.03.03s-.05.03-.08.03h-.02s0,.01-.01.01c-.02.01-.04,0-.07.01s-.04,0-.04,0c0,0-.01-.02,0-.05,0-.03,0-.07.02-.1h0s0-.01,0-.03c0-.03.01-.06.02-.08,0-.03.01-.03.02-.04l.03-.03s.05-.02.07-.03h0s.06-.02.08-.03c.03-.01.04,0,.04,0h0v.03ZM25.52,53.23s-.03.13-.04.17-.02.1-.03.15c-.01.03,0,.07-.02.1v.11s-.02.06-.02.08,0,.06,0,.09c.04-.06.08-.12.14-.21s.1-.17.16-.27c.02-.01.01-.03.03-.05s.01-.03.03-.05c.02-.05.04-.1.06-.14s.03-.08.05-.12c0,0,.01-.03.02-.04s.01-.03.02-.04c.01-.03.02-.07.03-.1s.01-.08.03-.12l.11-.06s-.02.09-.03.13-.02.08-.03.12c0,.02-.01.05-.02.07s-.02.04-.03.06c-.02.04-.04.08-.05.13s-.04.09-.06.14c-.02.05-.05.1-.07.15s-.04.09-.06.13c-.02.03-.04.07-.06.1-.02.03-.04.06-.07.09s-.05.07-.07.11c-.02.03-.06.07-.09.11,0,0,0,.02,0,.06,0,.04,0,.08,0,.13,0,.02,0,.04,0,.06s0,.04,0,.06c0,.04,0,.08.01.11,0,.04.01.07.02.09.01.02.02.04.02.05.01.02.02.02.04.02h0l.05-.04s.03-.04.05-.07c.02-.01.02-.04.03-.06s.02-.04.02-.07c0,0,0-.02.01-.03,0,0,0-.02.01-.03.06-.16.11-.31.14-.44s.08-.25.12-.34c.02-.01.03-.05.04-.07.02-.01.02-.04.03-.05s.02-.03.03-.05.02-.02.04-.03l.08-.06s.06-.04.1-.04c.04,0,.08-.03.11-.02s.04,0,.06.01h.02s0,.02.01.02h0s0,0,0-.02h0s0,0,0-.01l.03-.03s.05-.02.08-.03h0s.07-.03.1-.03c.03-.01.04,0,.05,0,0,0,0,.06-.03.17s-.05.23-.07.36c0,0,0,.02,0,.03,0,0,0,.01,0,.03-.03.13-.04.24-.06.34-.02.1-.01.18,0,.21h0s0,0,0-.01l.06-.05s.04-.06.05-.09c0,0,.02-.03.02-.04,0,0,.01-.03.01-.05,0,0,.01-.03.01-.05s.01-.03.01-.05h0s0,0,0-.02c.01-.03.01-.06.02-.08,0-.02.02-.03.05-.04s.03.04.02.12-.03.17-.07.26c-.02.05-.04.11-.07.17s-.05.11-.09.15c-.02.03-.05.07-.08.09l-.08.06c-.05.02-.1.03-.13.02-.03-.01-.06-.03-.08-.05l-.04-.05-.03-.03h0s0,.02,0,.04-.02.05-.04.08c-.02.04-.04.07-.08.11s-.08.06-.11.08c-.07.02-.13.03-.17,0-.04-.02-.07-.06-.08-.1h0s-.01-.02-.01-.02v-.07s-.02-.04-.03-.05v-.02s0,0,0-.01c0,0,0,.03-.02.08-.02.04-.04.1-.06.14-.02.01-.02.03-.03.05-.02.01-.02.04-.03.05-.02.04-.04.07-.07.1l-.07.06c-.06.02-.11.01-.15-.02-.05-.03-.08-.07-.1-.12-.02-.02-.02-.06-.02-.11,0-.04-.01-.09-.02-.14v-.07s-.02-.04-.02-.06c0-.04,0-.09,0-.12s0-.05,0-.06l-.11.06s0,.06-.02.1-.03.11-.04.17c0,.02-.01.03-.01.06s-.01.03-.02.05h0s0,0,0,.01c-.04.12-.09.23-.15.33-.06.1-.13.17-.23.21h0s-.02,0-.04,0c0,0-.02,0-.04,0-.05,0-.08,0-.13-.02-.04-.02-.08-.05-.1-.11h0v-.02s-.01,0-.02,0h0c-.03-.08-.04-.16-.04-.25s.02-.2.05-.34c.01-.06.03-.12.05-.17s.04-.11.07-.16c.06-.12.12-.21.19-.29.07-.07.14-.11.18-.14.06-.02.12-.02.16,0s.09.07.12.13h0s.01.02,0,.05c0,0,.01.03,0,.04,0,.02,0,.04,0,.06s0,.04,0,.05c0,.03,0,.04,0,.06s0,.03,0,.03l.09-.07s.01-.1,0-.15,0-.09.01-.13c0-.03,0-.04,0-.06,0-.01,0-.04,0-.06,0-.04.02-.09.02-.13s.02-.1.03-.17c.01-.06.03-.13.05-.19.02-.07.04-.14.07-.22.02-.05.04-.11.07-.17.02-.05.05-.12.07-.17.04-.11.09-.2.14-.31.05-.09.1-.17.13-.22.06-.08.11-.14.15-.18s.08-.06.12-.07c.02-.01.03-.01.04,0s.03-.01.04,0c.03-.01.05,0,.08.01l.05.06h0v.02s.03.02.02.04c0,0,0,.02,0,.04,0,0,0,.04,0,.05s0,.04,0,.05-.01.03,0,.04v.02s-.1.08-.1.08c0,0,0-.02,0-.04,0,0,0-.03,0-.04,0,0,0-.03,0-.04s0-.03,0-.04,0-.03,0-.05c0,0-.01-.03,0-.04l-.03-.03s-.01-.02-.03-.01h0c-.06.02-.12.09-.19.22s-.13.29-.19.46c-.03.08-.05.16-.07.24s-.05.17-.06.26h0l.03-.08ZM24.12,52.87s-.05.04-.07.07-.05.07-.08.11c-.02.03-.04.07-.06.11s-.04.08-.05.13c0,0,0,.02-.01.03,0,0,0,.02-.01.03,0,.02-.01.03-.01.06,0,.03,0,.04-.01.06v.11s0,.07,0,.09l.02.02.02.02s.02,0,.03.01c0,0,.02,0,.04,0,.02-.01.04-.02.05-.04.02-.02.05-.04.06-.06.02-.03.04-.07.07-.11.02-.04.04-.08.06-.12,0,0,0,0,0-.02,0,0,0,0,0-.02.02-.09.02-.16.02-.23,0-.06-.01-.11-.03-.15-.01-.02-.02-.04-.02-.06l-.04-.05h0l.02-.03ZM24.49,54.64s0,0,0,.02h0s0,.05,0,.07,0,.04,0,.06c0,.03,0,.06,0,.09s0,.06.01.08l.03.03s.01.02.03.02c0,0,0,0,.02,0,0,0,0,0,.02,0,.02-.01.05-.02.06-.05s.05-.04.06-.08c.02-.02.03-.05.04-.07s.02-.05.04-.08c0,0,.01-.03.02-.05,0-.03.02-.05.02-.08h0s0,0,0-.01c.01-.03.01-.06.02-.09s0-.06,0-.07c-.02.01-.04,0-.06,0,0,0-.04,0-.05,0,0,0-.01,0-.03,0,0,0-.01,0-.03,0-.03-.01-.06-.01-.09-.03-.02-.02-.05-.03-.07-.06,0,.02-.01.05-.02.07s-.01.05-.01.06,0,.03,0,.04c0,0,0,.03,0,.04,0,.02,0,.04-.01.06,0,.01,0,.04,0,.07h0v-.03ZM24.89,54.29h.02s0-.02,0-.03c0-.02,0-.04,0-.08,0-.03,0-.06,0-.09,0,0,0-.02,0-.04,0,0-.01-.02-.02-.04h0s-.02-.05-.04-.05-.03-.02-.04-.02h0s0,0,0,.01h0l-.02.02-.03.03s-.04.03-.05.07c-.02.03-.03.05-.03.08,0,0-.01.03-.01.05s0,.03,0,.04h0l.03.03s.02.02.04.03c.02.02.05.03.09.04.03.01.06.01.09,0h0v-.05ZM26.3,53.43h-.02s0,.02-.02.03c-.02.03-.04.07-.06.14-.02.05-.05.14-.09.28,0,.03-.01.06-.02.09s-.01.06-.02.09c0,.07-.01.13,0,.18s.01.11.02.14l.03.03.02.02h0s.05-.02.07-.06c.02-.03.03-.06.04-.1,0,0,.02-.01,0-.02,0,0,0-.01,0-.03.04-.15.06-.28.09-.42.02-.13.05-.26.08-.38,0,0,0-.02,0-.03s0,0,0-.01v-.02s-.02,0-.03,0h0s0,0,0,.01l-.04.03s-.03.03-.05.05h0v-.03ZM26.26,52.26l.1-.08s.06-.05.08-.08c.09-.11.16-.2.17-.28s.05-.12.08-.11h0s.03.04.02.13c-.02.08-.06.18-.11.29-.04.07-.08.14-.13.21s-.1.13-.16.2c-.04.03-.08.06-.11.1l-.1.08s-.05.04-.1.05c-.03.03-.07.03-.11.05-.02.02-.06.02-.1.03s-.07.01-.11.02l.1-.32c.05-.02.11-.04.15-.06.05-.02.09-.05.13-.07.03-.03.07-.04.1-.07l.11-.09h0Z"/>
      </g>
      <path class="cls-50" d="M83.19,163.9c.93,3.09,1.94,7.33,1.81,8.63s-1.9,5.72-1.9,5.72c0,0-3.57,3.4-4.06,3.51s-.72-1.13-.13-1.96c.59-.83,2.26-2.66,2.4-3.14.15-.48.24-3.85.18-4.46s-1.64-2.79-2.53-2.66c-.89.13-1.28,1.77-1.23,2.41.04.64-.07,2.16-.35,2.68-.29.52-1.09.79-1.44.42-.35-.37-.84-3.92-.89-4.64-.05-.71,1.48-5.31,1.59-6.32.11-1.01-1.68-9.27-1.68-9.27l7.08-1.24s.24,7.23,1.17,10.32h-.02Z"/>
    </g>
  </g>
</svg>