<?xml version="1.0" encoding="UTF-8"?>
<svg xmlns="http://www.w3.org/2000/svg" viewBox="0 0 315.36 368.95">
  <defs>
    <style>
      .cls-1 {
        fill: #e0a180;
      }

      .cls-2 {
        fill: #916c7c;
      }

      .cls-3 {
        fill: #421323;
      }

      .cls-4, .cls-5 {
        fill: #fecfa8;
      }

      .cls-6 {
        fill: #6c3b4f;
      }

      .cls-7 {
        fill: #c8e6e7;
      }

      .cls-8 {
        fill: #b32226;
      }

      .cls-9 {
        fill: #cb2128;
      }

      .cls-10 {
        isolation: isolate;
      }

      .cls-11 {
        fill: #361620;
      }

      .cls-12 {
        fill: #e63f4b;
      }

      .cls-13 {
        fill: #fff;
      }

      .cls-14 {
        fill: #541b31;
      }

      .cls-15 {
        fill: #e02228;
      }

      .cls-16 {
        fill: #e7626c;
      }

      .cls-5 {
        mix-blend-mode: screen;
      }

      .cls-17 {
        fill: #b17f65;
      }

      .cls-18 {
        fill: #ffe3cb;
      }

      .cls-19 {
        fill: #e7565f;
      }

      .cls-20 {
        fill: #8a6373;
      }

      .cls-21 {
        fill: #eec6ac;
        mix-blend-mode: multiply;
        opacity: .7;
      }

      .cls-22 {
        fill: #a4bdbf;
      }

      .cls-23 {
        fill: #d5e9ed;
      }
    </style>
  </defs>
  <g class="cls-10">
    <g id="Layer_1" data-name="Layer 1">
      <g>
        <path class="cls-17" d="M109,294.35c-1.42-.64-2.88-1.17-4.29-1.84-1.25-.6-2.46-1.28-3.61-2.05-1-.67-1.96-1.42-2.77-2.31-.56-.44-1.1-.91-1.59-1.42-.35-.37-.68-.75-.95-1.18-.32-.5-.52-1.07-.6-1.66-.2-1.42.16-2.89.63-4.23.19-.53.4-1.05.63-1.56.09-.55.18-1.11.25-1.66,1.66-3.89,3.3-7.79,4.98-11.66,4.41-10.15,9.61-20.36,13.01-30.93,3.26-4.02,6.26-8.46,8.27-13.15,2.69-6.25,4.16-12.9,5.95-19.44.13-.08.24-.17.27-.24,3.14-7.01,5.36-14.34,8.41-21.39,2.08-4.82,4.42-9.52,6.55-14.31.89-1.26,1.79-2.52,2.57-3.82,4.39-7.29,8.9-22.59,2.03-29.7-5.4-5.58-16.57,14.22-18.25,16.63-8.86,12.77-19.17,24.03-30.17,34.98-10.2,10.15-21.38,19.86-29.92,31.53-3.66,5-6.59,10.21-8.2,16.16-2.99,0-6,.07-8.88.02-7.99-.16-16.03-.21-24-.65-7.59-.42-15.21-.56-22.81-.54-2.93.01-5.99.02-9.05.17,0,0,.02-.02.03-.03-.25.02-.49.05-.74.07-1.24,1.17-2.43,2.33-3.46,3.68-2.72,4.78-4.28,10.48-5.03,15.64-2.17,14.84-.04,32.18,10.81,43.02.64.46,1.3.88,1.98,1.29,1.58-.29,3.14-.7,4.76-.72.04,0,.06.01.1.02,7.72-1.3,15.44-2.62,23.18-3.75,10.94-1.6,21.99-2.5,32.93-3.97,3.99,7.74,16.71,10.87,24.23,12.1,8.17,1.34,18.23,1.59,26.64-1.02.06-.06.11-.12.17-.19-1.35-.6-2.68-1.26-4.03-1.87Z"/>
        <path class="cls-18" d="M95.71,284.74c.27.7.77,1.31,1.31,1.85-.32-.42-.63-.85-.91-1.3,0,0,0,0,0-.01-.28-.8-.51-1.58-.69-2.36-.02.62.06,1.24.28,1.82Z"/>
        <path class="cls-18" d="M103.39,292.04c-1.05-.64-2.05-1.34-2.99-2.08-.74-.54-1.45-1.14-2.07-1.82-.56-.44-1.1-.91-1.59-1.42-.35-.37-.68-.75-.95-1.18-.32-.5-.52-1.07-.6-1.66-.09-.66-.06-1.34.04-2-.22-1.37-.28-2.76-.14-4.23.07-.73.21-1.45.39-2.17,2.08-4.71,4.2-9.41,6.24-14.12,3.67-8.47,7.03-17.28,11.28-25.51-.06.08-.13.15-.2.23-8.42,9.71-18.53,16.92-29.62,23.23,1.91-1.8,4.01-3.41,6.14-4.94.35-.25.7-.5,1.05-.76,7.58-5.25,14.85-10.72,20.8-18.08,4.38-5.42,8.5-11.16,10.86-17.78,2.04-5.73,3.55-11.72,5.04-17.61,1.24-4.91,1.69-9.94,4.35-14.36,1.71-2.85,3.52-5.57,4.71-8.69.88-2.29,1.6-4.79,2.87-6.91,5.71-9.58,12.78-19.44,10.34-31.37-.35-1.71-1.63-8.75-6.23-4.29-.86.77-1.66,1.61-2.4,2.5-2.15,2.7-4.03,5.58-6,8.42-3.25,4.71-6.46,9.41-10.05,13.87-7.41,9.22-15.52,17.72-23.96,25.99-8.93,8.75-18.23,17.31-26.13,27.02-4.22,5.19-7.86,10.68-9.83,16.62-1.82,4.4-2.37,9.79-1.62,14.49-.36-.67-.79-1.42-1.11-2.19-.11-.42-.2-.84-.24-1.2-.27-2.49-.55-4.91,0-7.39.01-.05.03-.1.04-.15-3.13.02-6.26.05-9.39.06-8.01.05-16.13.01-24.13-.43-10.83-.6-21.6-.21-32.39-.05-4.31,6.22-6.06,14.6-6.3,22.16-.25,7.67-.14,16.37,2.55,23.64,2.15,5.82,5.54,10.34,9.52,14.74,3.17-.75,6.71-1.31,9.83-1.84,5.99-1.01,11.97-2.1,17.98-2.96,10.53-1.51,21.23-3.47,31.91-3.81-.21-.58-.35-1.2-.46-1.83.9,1.34,2.03,2.45,3.3,3.42,5.81,6.64,16.06,9.81,24.42,10.67,5.56.57,11.53.9,17.07.15,1.81-.24,3.54-.63,5.24-1.07-.73-.33-1.45-.65-2.18-.97-1.79-.79-3.6-1.56-5.41-2.33Z"/>
        <path class="cls-5" d="M-1.87,235.31c9.84-1.2,19.96-.63,29.84-.81,5.52-.1,25.57-1.46,29.85-.8,2.21.34,2.46,1.76,2.8,3.77.43,2.56,1.38,4.9,2.74,7.1.46-3.78.89-7.57,1.91-11.26,1.31-4.72,4.12-8.94,7.01-12.83,6.99-9.43,15.6-17.38,23.76-25.76,8.02-8.24,15.87-16.71,22.68-26,3.05-4.15,5.94-8.43,8.58-12.85-.86,1.15-1.75,2.3-2.65,3.42-7.41,9.22-15.52,17.72-23.96,25.99-8.93,8.75-18.23,17.31-26.13,27.02-4.22,5.19-7.86,10.68-9.83,16.62-1.82,4.4-2.37,9.79-1.62,14.49-.36-.67-.79-1.42-1.11-2.19-.11-.42-.2-.84-.24-1.2-.27-2.49-.55-4.91,0-7.39.01-.05.03-.1.04-.15-3.13.02-6.26.05-9.39.06-8.01.05-16.13.01-24.13-.43-10.83-.6-21.6-.21-32.39-.05-1.32,1.9-2.39,4-3.26,6.22,1.4-1.58,3.17-2.69,5.48-2.97Z"/>
        <path class="cls-21" d="M103.39,292.04c-1.05-.64-2.05-1.34-2.99-2.08-.74-.54-1.45-1.14-2.07-1.82-.56-.44-1.1-.91-1.59-1.42-.35-.37-.68-.75-.95-1.18-.32-.5-.52-1.07-.6-1.66-.09-.66-.06-1.34.04-2-.22-1.37-.28-2.76-.14-4.23.07-.73.21-1.45.39-2.17,2.08-4.71,4.2-9.41,6.24-14.12,3.67-8.47,7.03-17.28,11.28-25.51-.06.08-.13.15-.2.23-8.42,9.71-18.53,16.92-29.62,23.23,1.91-1.8,4.01-3.41,6.14-4.94.35-.25.7-.5,1.05-.76,7.58-5.25,14.85-10.72,20.8-18.08,4.38-5.42,8.5-11.16,10.86-17.78,2.04-5.73,3.55-11.72,5.04-17.61,1.24-4.91,1.69-9.94,4.35-14.36,1.71-2.85,3.52-5.57,4.71-8.69.88-2.29,1.6-4.79,2.87-6.91,5.71-9.58,12.78-19.44,10.34-31.37-.3-1.44-1.25-6.69-4.32-5.6,1.58,1.61,1.64,4.97,1.26,6.88-.99,5.05-3.29,9.78-5.65,14.31-3.77,7.23-8.81,13.44-13.35,20.17-3.37,4.97-6.07,10.15-7.59,15.99-1.26,4.84-1.55,9.91-3.18,14.63-17.56,50.91-68.94,61.74-85.3,63.2-6.59.59-13.11,2.06-19.75,2.1-5.22.04-11.75-.41-15.45-4.67-4.26-4.91-4.97-12.48-4.43-18.7.3-3.53.96-6.99,1.76-10.41-2.44,5.43-3.52,11.72-3.71,17.53-.25,7.67-.14,16.37,2.55,23.64,2.15,5.82,5.54,10.34,9.52,14.74,3.17-.75,6.71-1.31,9.83-1.84,5.99-1.01,11.97-2.1,17.98-2.96,10.53-1.51,21.23-3.47,31.91-3.81-.21-.58-.35-1.2-.46-1.83.9,1.34,2.03,2.45,3.3,3.42,5.81,6.64,16.06,9.81,24.42,10.67,5.56.57,11.53.9,17.07.15,1.81-.24,3.54-.63,5.24-1.07-.73-.33-1.45-.65-2.18-.97-1.79-.79-3.6-1.56-5.41-2.33Z"/>
        <path class="cls-21" d="M95.71,284.74c.27.7.77,1.31,1.31,1.85-.32-.42-.63-.85-.91-1.3,0,0,0,0,0-.01-.28-.8-.51-1.58-.69-2.36-.02.62.06,1.24.28,1.82Z"/>
        <path class="cls-21" d="M149.74,141.93c-.86,7-4.37,13.68-8.19,19.8-3.52,5.66-7.41,11.12-10.14,17.22-3.24,7.23-5.55,14.79-7.68,22.42-3.39,12.14-6.5,24.18-13.77,34.68-1.11,1.6-2.29,3.18-3.52,4.71,1.65-1.64,3.24-3.37,4.73-5.23,4.38-5.42,8.5-11.16,10.86-17.78,2.04-5.73,3.55-11.72,5.04-17.61,1.24-4.91,1.69-9.94,4.35-14.36,1.71-2.85,3.52-5.57,4.71-8.69.88-2.29,1.6-4.79,2.87-6.91,5.2-8.73,11.51-17.69,10.75-28.23Z"/>
        <path class="cls-21" d="M103.39,292.04c-1.05-.64-2.05-1.34-2.99-2.08-.74-.54-1.45-1.14-2.07-1.82-.56-.44-1.1-.91-1.59-1.42-.35-.37-.68-.75-.95-1.18-.32-.5-.52-1.07-.6-1.66-.09-.66-.06-1.34.04-2-.22-1.37-.28-2.76-.14-4.23.07-.73.21-1.45.39-2.17,2.08-4.71,4.2-9.41,6.24-14.12,3.67-8.47,7.03-17.28,11.28-25.51-.06.08-.13.15-.2.23-5.42,6.25-11.54,11.46-18.17,16.07-.93.67-1.88,1.32-2.85,1.93-1.41.92-2.83,1.82-4.28,2.7,5.37-.98,10.84-5.91,14.63-9.06.54-.45,1.2.22,1,.8-3.52,9.93-7.64,20.24-13,29.34-3.17,5.36-8.55,7.06-14.44,5.05-6.66-2.27-9.93-8.07-11.26-14.66-.04.12-.08.24-.12.36-.72,2.13-1.35,4.7-2.91,6.42-2.56,2.82-6.12,3.94-9.78,4.57-11.38,1.97-22.73,3.88-34.17,5.54-4.97.72-10.89,2.84-15.93,1.95-2.51-.44-4.68-1.63-6.5-3.27,1.88,3.18,4.16,6.02,6.68,8.81,3.17-.75,6.71-1.31,9.83-1.84,5.99-1.01,11.97-2.1,17.98-2.96,10.53-1.51,21.23-3.47,31.91-3.81-.21-.58-.35-1.2-.46-1.83.9,1.34,2.03,2.45,3.3,3.42,5.81,6.64,16.06,9.81,24.42,10.67,5.56.57,11.53.9,17.07.15,1.81-.24,3.54-.63,5.24-1.07-.73-.33-1.45-.65-2.18-.97-1.79-.79-3.6-1.56-5.41-2.33Z"/>
      </g>
      <g>
        <path class="cls-3" d="M144.76,176.8c-3.69,5.49-5.01,11.5-7.18,17.54-.3.82-1.58,1.52-1.77,2.09-2.05-2-2.67,1.18-3.56,1.39-.55.13-2.77-1.22-3.38-.89-1.26.7-2.8,6.62-.42,5.78.28-.1.59-1.79,1.15-2.01.81-.31,2.71,1.96,2.95-1.92l3.18,1.67c-7.36,20.38-14.48,37.74-26.71,55.85-9.18,13.6-32.48,33.93-11.22,47.93,9.59,6.31,21.29,6.54,28.84-2.73,16.93-32.01,33.47-64.25,50.49-96.21,1.72-1.13,3.62-4.71,3.62-6.89.2-.34.34-.76.56-1.06,1.1.2,2.15.49,3.18.97,7.46,3.48,17.55,8.63,24.1,13.39,1.37.99,1.72.23.5,2.26-6.26,1.23-12.83,4.69-19.24,5.85-1.01.46.42,4.55,1.1,4.23.99-.46,0-3.59,3.77-.73.55-4.34,3.66,1.44,3.81-3.4,1.98,2.49,2.14.79,3.91.39.71-.16,1.63.09,1.97-.01-1.33,2.13-2.83,4.71-4.35,6.67-5.73,7.37-12.07,14.5-17.47,22.18-1.86,2.64-10.55,15.2-9.88,17.37l-25.19,8.16c-.68.89.63,3.82,1.92,3.96.62-2.49,1.83-.73,2.36-.88.49-.15.77-1.53,1.42-1.9.77-.43,1.82.58,2.61.51.42-.04,7.7-2.32,8.07-2.52.55-.31,3.9-3.56,4.19-3.66.97-.35,1.03,1.43,1.03,1.89-.06,5-2.66,7.61-4.05,11.68-2.99,8.75-6.56,24.71-11.43,31.83-3.11,4.55-10.76,7.4-16.06,8.21-1.5.23-3.21-.31-5.09.02-2.03-.28-1.02-1.78-1.07-1.88-.73-1.27-1.37.17-1.65.19-3.58.29-2.79,1.05-4.04,1.39-.58.16-1.31-.7-1.52-.67,0-1.4-1.54-1.23-2.43-1.41-6.77-1.35-19.91-8.22-25.93-12.15-2.72-1.77-4.21-4.43-6.39-5.99-1.87-1.33-4.18-2-6.09-3.42-1.77-1.31-3.12-4.08-4.89-5.13-1.8-1.07-1.18,2.48-2.73,1.97,1.25-3.29,2.48-6.55,3.8-9.83.53-1.31,1.4-1.53-.64-1.35.16-.36.39-.7.56-1.06.28-.06.55-.14.81-.25,1.8-.79,4.73-7.42,5.01-9.54.06-.44.32-.86.03-1.34,5.31-8.34,13.94-16.73,19.87-25.14,2.92-4.13,5.34-8.67,8.19-12.85-.04.07.17.86-.12,1.57-.64,1.56-1.74,2.98-2.4,4.53l.52.28,6.68-12.72-.53-.27c-.12,1.59-2.08,2.78-2.48,3.43,2.12-5.7,4.71-11.23,6.78-16.96,3.4-9.4,6.12-25.13,10.01-33.03.03-.07.88-.32,1.22-1,1.4-2.78,2.89-5.51,4.31-8.26l7.42,3.9ZM107.47,247.8c-.2-.57,3-3.93,1.98-5.04l-6.62,10.04c1.28.21,3.61-3.75,4.11-3.86s1.49.83,2.1,1.03c1.51-1.6-1.39-1.63-1.57-2.17Z"/>
        <path class="cls-6" d="M229.82,220.79c-4.54-1.21-8.79-3.96-12.99-6.15-.71-.37-1.41-.74-2.12-1.11-10.85-5.66-21.68-11.41-32.53-17.09-.56-.37-.62.55-.88.9-.22.29-.36.72-.56,1.06-1.31,2.21-2.41,4.62-3.62,6.89-17.02,31.96-33.56,64.2-50.49,96.21-7.55,9.27-19.25,9.04-28.84,2.73-21.26-13.99,2.04-34.33,11.22-47.93,12.23-18.12,19.35-35.48,26.71-55.85.4-1.12.02-3.82.08-4.01.19-.57,1.48-1.28,1.77-2.09,2.17-6.03,3.49-12.05,7.18-17.54l1.06.56,7.42,3.9c-1.41,2.98-3.25,5.79-4.63,8.77-.33.71-.08,1.48-.12,1.57-.56,1.27-1.42,2.43-1.95,3.71-8.01,19.29-14.07,37.92-24.81,56.25-6.33,10.79-20.28,26.12-21.76,37.59-.08.59-.64,1.27-.64,2.19s.51,1.42.56,1.82c.18,1.42-.71,2.25,1.17,3.85,6.54,5.54,12.62,2.13,17.31-3.57,12.93-15.72,24.25-37.46,32.42-56.02.89-2.03,1.73-4.22,2.53-6.11,5.95-14.02,11.27-26.83,17.94-40.6.09-.18.19-.35.28-.53l10.6,5.56c9.53,5,19.06,10.07,28.61,15.03,2.45,1.27,16.55,9.11,17.64,8.97,1.28-.16,5.58-9.56,6.62-11.46,7.94-14.45,15.61-29.44,23.24-44.21,3.38-3.49,4.91-8.84,7.49-12.97-.1.31.3,1.54-.37,2.09-12.32,22.26-23.16,45.39-35.55,67.6Z"/>
        <path class="cls-11" d="M270.47,115.05c-1.24,11.17-1.24,25.54-4.73,36.05-2.58,4.13-4.1,9.47-7.49,12.97.09-.18.19-.35.28-.53.44-.86,3.27-5.73,2.8-5.97l-1.94,3.05c-2.48-.93-1.07-1.01-.94-2.04.3-2.52-1.6.41-1.73.46-.74.29-3.25-1.31-4.01,1.45-3.34-1.76-6.68-3.61-10.07-5.29-.54-.27-1.05-.57-1.59-.83l-29.14-15.3.28-.53,29.14,15.3c3.69-9.61,9.16-18.82,9.46-29.32,2.65-2.93,1.66-7.89,2.74-10.64.55-1.41,2.06-2.35,2.29-3.32.19-.8-.72-1.66.07-2.47,3.67,1.66,7.23,4.13,10.89,5.74.74.33,1.37.06,1.57.12.69.22,1.4.84,2.12,1.11Z"/>
        <path class="cls-23" d="M255.84,56.67c-8.94,11.58-14.3,25.96-21.65,38.65l21.2,11.13c-.03.15.25.55.25.81-7.06-3.71-14.13-7.43-21.19-11.13-2.66-1.4-6.11-2.53-8.23-3.64-1.06-.56-2.12-1.11-3.18-1.67-2.72-1.43-6.17-3.86-9.26-5.54-1.92-1.05-3.89-2.04-5.83-3.06l-7.42-3.9c.14-.12.14-.41.28-.53l9.54,5.01c1.31-3.3,4.06-5.65,6.57-8.07,5.51-5.31,12-9.36,17.49-15,2.78-2.85,6.89-6.53,7.65-10.3l13.78,7.23Z"/>
        <path class="cls-22" d="M237.76,37.04c1.43.69,2.82,1.5,4.24,2.23,3.19,1.64,6.36,3.36,9.54,5.01,10.43,5.42,21.69,10.82,31.79,16.69,4.73,2.75,3.4,2.38.93,7.25-1.77-.91-3.52-1.89-5.3-2.79-3.55-1.79-7.05-3.76-10.6-5.57-.49.86-.89,1.8-1.39,2.65l10.6,5.56c-4.69,8.83-5.83,35.56-7.09,46.97-.71-.28-1.43-.89-2.12-1.11l-12.72-6.68c0-.26-.29-.66-.25-.81,2.51-10.98,6.54-35.35,11.58-43.94l-11.13-5.84-13.78-7.23-7.42-3.9c.28-.6,1.44-2.49,1.4-2.65-.51-1.71-8.41-.55-1.99-7.8,1.25.61,2.46,1.34,3.71,1.95Z"/>
        <path class="cls-3" d="M207.95,82.22c-4.71,5.05-10.4,9.14-15.41,13.87-9.42,8.88-11.5,12.02-17.73,23.49l-2.12-1.11-5.3-2.78c.09-.18.19-.35.28-.53,2.69-1.28,5.58-12.34,8.04-11.91.87.15,2.68,1.49,2.88,1.43.59-.2.41-3.32,2.7-1.29,1.14-2.03-2.44-1.17.08-4.02l-2.17,1.56-1.28-2.7c7.11-7.3,14.97-13.26,22.61-19.9l7.42,3.9Z"/>
        <path class="cls-7" d="M242.06,49.44c-.76,3.77-4.87,7.45-7.65,10.3-5.49,5.64-11.98,9.69-17.49,15-2.51,2.42-5.26,4.77-6.57,8.07l-9.54-5.01c9-7.81,29.29-22.5,33.84-32.25l7.42,3.9Z"/>
        <path class="cls-9" d="M291.63,33.56c2.36,1.81,2.36,4.38,1.73,6.99-3.66,5.61-6.13,13.5-9.88,18.85-.35.5-.32.59-.95.48-1.41-1.89-5.18-3.85-7.42-3.9-.89-.46-1.76-.94-2.65-1.39.91-1.07-.58-1.26-.14-2.4,2.17-5.66,7.27-11.89,9.28-17.51.56-1.56-.18-3.09.99-4.52l9.01,4.73c.61-.87-.93-1.13-1.57-1.5-6.36-3.69-13.14-6.8-19.62-10.29-.89-.48-2.53-.9-2.62-2.07,6.12,3.05,18.99,8.79,23.84,12.52Z"/>
        <path class="cls-15" d="M255.6,14.64c1.05.02,1.54,1.44,1.84,1.64-.98-.07-1.84.29-2.61.85-5.15,3.75-8.59,16.09-12.56,21.6l-3.71-1.95,9.21-18.82c1.8-2.69,4.59-3.9,7.83-3.32Z"/>
        <path class="cls-9" d="M167.39,115.68c-9.68,18.47-19.37,36.95-29.14,55.38l.96,2.15-2.12-1.11c9.06-18.99,19.51-38.32,29.77-56.7l.53.28Z"/>
        <path class="cls-2" d="M278.95,65.43c-.47.88-.92,1.77-1.39,2.65l-10.6-5.56c.5-.86.9-1.79,1.39-2.65,3.54,1.81,7.04,3.78,10.6,5.57Z"/>
        <path class="cls-8" d="M283.32,60.96c-10.1-5.87-21.36-11.28-31.79-16.69l.28-.53c6.91,3.56,13.75,7.31,20.66,10.85.89.45,1.76.94,2.65,1.39,1.66.85,6.17,3.68,7.42,3.9.63.11.6.02.95-.48,3.74-5.35,6.22-13.24,9.88-18.85-1.63,6.78-7.28,13.82-10.04,20.41Z"/>
        <path class="cls-14" d="M177.91,98.22l1.28,2.7,2.17-1.56c-2.52,2.85,1.06,1.98-.08,4.02-2.3-2.02-2.11,1.09-2.7,1.29-.2.07-2.01-1.27-2.88-1.43-2.46-.43-5.35,10.63-8.04,11.91,2.16-4.11,5.06-8.55,6.15-12.99,1.37-2.09,2.73-2.54,4.09-3.93Z"/>
        <path class="cls-16" d="M291.63,33.56c-4.85-3.73-17.72-9.47-23.84-12.52-.27-.13-1.07.11-1.34-.03-2.74-1.35-6.58-3.08-9.01-4.73-.3-.2-.79-1.63-1.84-1.64.7.13.96-.09,2.09.37,9.67,3.98,21.8,11.36,31.32,16.48.89.48,2.53.9,2.62,2.07Z"/>
        <path class="cls-9" d="M247.77,17.96l-9.21,18.82,3.71,1.95-.28.53c-1.42-.73-2.81-1.53-4.24-2.23,3.67-5.85,6.24-13.43,10.02-19.08Z"/>
        <path class="cls-14" d="M115.02,232.16c.4-.64,2.36-1.83,2.48-3.43l.53.27-6.68,12.72-.52-.28c.67-1.55,1.76-2.98,2.4-4.53.29-.71.09-1.5.12-1.57.52-1.05,1.06-2.19,1.67-3.18Z"/>
        <path class="cls-11" d="M167.67,115.15c-.09.18-.19.35-.28.53l-.53-.28c2.34-4.19,4.4-9.35,6.96-13.25-1.09,4.45-3.99,8.88-6.15,12.99Z"/>
        <path class="cls-11" d="M85.26,274.66l-5.01,9.54c-.26.11-.53.19-.81.25,1.54-3.37,3.88-8.05,5.84-11.13.3.48.03.9-.03,1.34Z"/>
        <path class="cls-11" d="M131.8,182.16c1.57-3.22,3.48-6.31,5.01-9.54l.53.28c-1.43,2.75-2.92,5.49-4.31,8.26-.34.68-1.19.93-1.22,1Z"/>
        <path class="cls-8" d="M139.21,173.21c.88.46,1.77.93,2.65,1.39,1.06.56,2.11,1.13,3.18,1.67.36.18.7.38,1.06.56l-.28.53-1.06-.56-7.42-3.9-.53-.28c.09-.18.19-.35.28-.53l2.12,1.11Z"/>
        <path class="cls-14" d="M172.69,266.5c.04.14.65.15.71.36.48,1.83.63,1.53,1.24,2.71,1.08,2.08-1.29.44-1.7.58-.38.14-.53,1.05-.95,1.22-.39.16-1.96-1.06-2.89.68,0-.46-.06-2.25-1.03-1.89-.29.11-3.64,3.35-4.19,3.66-.37.21-7.64,2.49-8.07,2.52-.79.07-1.84-.94-2.61-.51-.65.37-.93,1.75-1.42,1.9-.53.16-1.74-1.61-2.36.88-1.3-.14-2.61-3.07-1.92-3.96l25.19-8.16Z"/>
        <path class="cls-14" d="M216.82,214.64c.44,2.53-1.06.31-1.58.58-.45.24-.55,1.26-.96,1.58-2.85,2.25-3.09-1.72-3.9-1.49-.23.07-2.2,2.71-3.93,2.33.16.77,1.38.63.5,1.6-.93.08-1.81.8-2.56,1.03-.33.1-1.26-.15-1.97.01-1.77.4-1.94,2.1-3.91-.39-.15,4.84-3.26-.94-3.81,3.4-3.77-2.86-2.78.27-3.77.73-.68.32-2.11-3.77-1.1-4.23,6.41-1.15,12.97-4.62,19.24-5.85,2.07-.41,3.45-.76,5.63-.42.71.37,1.41.75,2.12,1.11Z"/>
        <path class="cls-14" d="M124.19,322.82c.21-.03.94.83,1.52.67,1.25-.33.46-1.09,4.04-1.39.28-.02.92-1.46,1.65-.19.05.09-.96,1.6,1.07,1.88-.08.01-.17.78-.63.87-.44.09-1.2-.65-1.47-.56-.8.28-.24,2.66-2.75,1.63-.59-.24-1.15-1.19-1.53-1.18-1.69.07-5.99,6.71-8.81,3.75.26,2.37-1.74,1.36-2.82,1.8-.42.17-.66,1.18-.88,1.24-1.18.32-2.65-3.12-3.76.83l-1.56-2.17c.13-.24.12-.74-.25-.81.12-.04.67-1.2,1.88-1.75,1.88-.85,5.49-.82,6.93-1.25s4.99-3,7.38-3.36ZM114.17,328.38l-.28.53c.44,0,.53-.17.28-.53Z"/>
        <path class="cls-14" d="M135.8,196.43c-.06.19.32,2.9-.08,4.01l-3.18-1.67c-.24,3.88-2.14,1.61-2.95,1.92-.56.22-.87,1.91-1.15,2.01-2.38.84-.84-5.08.42-5.78.6-.34,2.83,1.01,3.38.89.89-.21,1.51-3.39,3.56-1.39Z"/>
        <path class="cls-11" d="M214.7,213.53c-2.18-.34-3.56.02-5.63.42,1.22-2.03.87-1.27-.5-2.26-6.55-4.76-16.64-9.91-24.1-13.39-1.03-.48-2.08-.77-3.18-.97.26-.35.32-1.27.88-.9,10.85,5.69,21.67,11.44,32.53,17.09Z"/>
        <path class="cls-14" d="M107.47,247.8c.19.54,3.09.57,1.57,2.17-.61-.2-1.62-1.13-2.1-1.03-.51.1-2.83,4.07-4.11,3.86l6.62-10.04c1.02,1.11-2.18,4.47-1.98,5.04Z"/>
        <path class="cls-14" d="M80.25,284.2l5.01-9.54c-.27,2.12-3.21,8.75-5.01,9.54Z"/>
        <path class="cls-11" d="M177.12,205.28c1.21-2.27,2.31-4.68,3.62-6.89,0,2.17-1.9,5.76-3.62,6.89Z"/>
        <path class="cls-3" d="M175.74,311.9c-3.03-.5-5.78,3.01-7.97.01-.19,4.29-2.31.07-3.82,3.4-.77.22-1.9-2.84-1.41-3.78.52-1,13.91-4.47,16.06-5.42l-2.86,5.8Z"/>
        <path class="cls-3" d="M108,329.19c.37.07.38.57.25.81-2.67,4.97-3.62-.12-2.8-1.12.62-.74,2.42.34,2.55.31Z"/>
        <path class="cls-14" d="M161.61,312.05c.08.2-.69,3.59-.88,4.26-3.38-1.38-.05-6.61.88-4.26Z"/>
        <rect class="cls-3" x="185.08" y="274.18" width="10.77" height=".6" transform="translate(-141.1 315.5) rotate(-62.3)"/>
        <rect class="cls-3" x="74.21" y="298.94" width="2.39" height=".59" transform="translate(-224.58 226.87) rotate(-62.3)"/>
        <path class="cls-20" d="M171.25,190.71c-6.67,13.77-11.99,26.58-17.94,40.6-2.71,1.61-5.54,1.62-8.55,2.52-.9.27-1.93.57-3,.9-1.85.56-4.45,1.58-6.29,2.34l1.32,3.82c1.14-2.5,1.98-2.83,3.76-.73.94-3.02,1.52-1.42,3.23-1.68,2.52-.38,4.65-1.88,7-1.06-8.17,18.56-19.49,40.3-32.42,56.02-4.69,5.7-10.77,9.11-17.31,3.57-1.88-1.59-.98-2.43-1.17-3.85l1.93-2.37,1.99,1.78c1.58-1.23,3.85-.77,5.37-1.61.85-.47,4.47-3.86,4.77-3.93,1.69-.37.87,2.78,2.07,2.43.57-.17,2.04-2.81,2.21-2.86.62-.19,2.04,1.99,2.52.29-.46-1.3-1.69-1.58-1.4-3.11-3.16.69-6.37,1.49-9.45,2.44-1.11.34-2.16.84-3.57,1.29-1.99.63-4.26,1.82-6.36,1.63,1.47-11.47,15.43-26.8,21.76-37.59,10.74-18.33,16.81-36.96,24.81-56.25,1.21,1.37,3.48-.64,3.99-1.25-1.83-.81,1.25-2.92-2.04-2.46.04-.09-.21-.86.12-1.57,1.39-2.99,3.23-5.8,4.63-8.77l18.02,9.46Z"/>
        <path class="cls-15" d="M242.63,155.19l-3.59.53-28.3,55.05c-9.55-4.96-19.08-10.02-28.61-15.03,1.14-4.46,3.96-8.87,6.15-12.99.33-.63,1.32-1.22,1.64-1.84.86-1.65,1.36-3.87,1.84-4.78l15.3-29.14c.11-.22,1.14-.89,1.66-1.78,1.07-1.84,2.03-3.78,2.38-5.9,9.92,5.21,20.08,10.14,29.95,15.05.54.27,1.05.57,1.59.83Z"/>
        <path class="cls-8" d="M252.7,160.47l5.83,3.06c-.09.18-.19.35-.28.53-7.63,14.77-15.3,29.76-23.24,44.21-1.05,1.9-5.35,11.3-6.62,11.46-1.09.14-15.19-7.7-17.64-8.97l28.3-55.05,3.59-.53c3.38,1.67,6.72,3.53,10.07,5.29Z"/>
        <path class="cls-16" d="M200.77,133.21l.53.28-.28.53c-10.88,18.02-20.31,37.31-29.49,56.17-.09.18-.19.35-.28.53l-18.02-9.46-7.42-3.9.28-.53c1.32.64,6.94,4.15,7.9,3.02,4.48-10.27,11.86-20.46,16.12-30.67.51-1.22-.02-2.19.16-2.72.2-.59,1.63-.92,2.32-1.99,3.76-5.84,7-13.64,10.42-19.92.1-.18.18-.35.28-.53l17.49,9.18Z"/>
        <path class="cls-12" d="M211.09,139.3c-.35,2.12-1.3,4.06-2.38,5.9-.52.89-1.54,1.56-1.66,1.78l-15.3,29.14c-.48.91-.97,3.14-1.84,4.78-1.83-3.05-6.51-.03-9.25.94-.69.25-1.93-.18-2.2.19-.95,1.27.45,4.61,1.18,4.28.62-3.91,6.87.36,6.96-4.15l1.68.58c-2.19,4.13-5.01,8.53-6.15,12.99l-10.6-5.56c9.19-18.86,18.61-38.14,29.49-56.17l10.07,5.29Z"/>
        <path class="cls-2" d="M99.96,289.14c2.11.19,4.37-1,6.36-1.63,1.42-.45,2.47-.95,3.57-1.29,3.08-.95,6.29-1.75,9.45-2.44-.29,1.52.94,1.8,1.4,3.11-.48,1.7-1.9-.48-2.52-.29-.17.05-1.65,2.69-2.21,2.86-1.2.35-.39-2.8-2.07-2.43-.3.07-3.92,3.46-4.77,3.93-1.52.84-3.79.38-5.37,1.61l-1.99-1.78-1.93,2.37c-.05-.4-.57-.9-.56-1.82s.57-1.61.64-2.19Z"/>
        <path class="cls-2" d="M150.78,237.42c-2.35-.82-4.48.68-7,1.06-1.71.26-2.29-1.35-3.23,1.68-1.79-2.11-2.62-1.77-3.76.73l-1.32-3.82c1.84-.75,4.44-1.77,6.29-2.34,1.07-.33,2.1-.63,3-.9,3.01-.9,5.84-.9,8.55-2.52-.8,1.89-1.64,4.08-2.53,6.11Z"/>
        <path class="cls-2" d="M148.48,191.6c3.29-.46.21,1.65,2.04,2.46-.51.61-2.78,2.61-3.99,1.25.53-1.27,1.39-2.44,1.95-3.71Z"/>
        <path class="cls-3" d="M255.63,107.26l12.72,6.68c-.2-.06-.83.2-1.57-.12-3.66-1.61-7.22-4.08-10.89-5.74-.79.81.13,1.68-.07,2.47-.24.97-1.74,1.9-2.29,3.32-1.07,2.75-.09,7.71-2.74,10.64-.3,10.5-5.77,19.71-9.46,29.32l-29.14-15.3,22.26-42.39c7.06,3.7,14.14,7.42,21.19,11.13ZM229.51,128.69c.19-.04,1.11.72,2.54.35.35-.09,4.43-1.82,4.9-2.07.6-.32,2.97-3.02,3.96-3.03.63,0,4.38,3.7,4.5-1.08l1.73.57c-.68-1.29-1.45-1.86-.34-3.22l-25.87,7.38c-1.32.5-.82,3.25.22,3.48.53.12,1.26-.98,1.69-1,.79-.04,1.81,1.01,2.06.95.3-.08.75-1.99,1.12-2.1.23-.07,1.35.9,2.26.84.69-.05,1.1-1.04,1.21-1.06-.86.27-1.4-1.33-.5-1.61s1.36,1.34.5,1.61Z"/>
        <path class="cls-6" d="M234.44,96.13l-22.26,42.39-.28.53-10.6-5.56-.53-.28c6.93-14.53,16.37-27.52,25.44-40.72,2.11,1.11,5.56,2.25,8.23,3.64Z"/>
        <path class="cls-8" d="M211.9,139.05l29.14,15.3c-9.87-4.91-20.03-9.84-29.95-15.05l-10.07-5.29.28-.53,10.6,5.56Z"/>
        <path class="cls-14" d="M258.53,163.54l-5.83-3.06c.76-2.76,3.27-1.16,4.01-1.45.14-.05,2.03-2.98,1.73-.46-.12,1.04-1.53,1.11.94,2.04l1.94-3.05c.47.25-2.36,5.11-2.8,5.97Z"/>
        <path class="cls-7" d="M266.96,62.51c-5.05,8.59-9.07,32.96-11.58,43.94l-21.2-11.13c7.36-12.7,12.71-27.07,21.65-38.65l11.13,5.84Z"/>
        <path class="cls-20" d="M226.21,92.49c-9.07,13.2-18.51,26.19-25.44,40.72l-17.49-9.18c8.05-14.72,13.95-20.23,25-32.16,1.54.49-.09,2.1,1.81,2.25.59.05,3.72-1.55,4.75-1.77,1.25-.26,4.81-.65,6.06-.55,1.17.09,1.26,1.43,2.12-.97,1.06.56,2.12,1.11,3.18,1.67Z"/>
        <path class="cls-6" d="M213.77,85.28c-1.54,2.39-3.57,4.51-5.48,6.58-11.05,11.93-16.96,17.44-25,32.16l-1.06-.56-7.42-3.9c6.23-11.47,8.31-14.61,17.73-23.49,5.01-4.72,10.7-8.81,15.41-13.87,1.94,1.02,3.91,2.01,5.83,3.06Z"/>
        <path class="cls-2" d="M223.03,90.82c-.86,2.4-.95,1.06-2.12.97-1.25-.1-4.81.29-6.06.55-1.03.21-4.16,1.82-4.75,1.77-1.89-.15-.26-1.76-1.81-2.25,1.92-2.07,3.94-4.19,5.48-6.58,3.09,1.68,6.54,4.11,9.26,5.54Z"/>
        <path class="cls-19" d="M266.45,21.01c-7.67,4.4-9.76,15.57-14.64,22.73l-.28.53c-3.18-1.65-6.35-3.37-9.54-5.01l.28-.53c3.97-5.51,7.4-17.85,12.56-21.6.78-.57,1.63-.92,2.61-.85,2.43,1.65,6.27,3.38,9.01,4.73Z"/>
        <path class="cls-15" d="M172.69,118.46l1.84,1.64c-9.96,18.41-19.3,37.23-29.22,55.64-1.04-.45-2.37-1.76-3.46-1.14-.88-.46-1.77-.93-2.65-1.39l-.96-2.15c9.77-18.43,19.46-36.91,29.14-55.38l5.3,2.78Z"/>
        <path class="cls-9" d="M174.81,119.57c-.1.18-.18.35-.28.53l-1.84-1.64,2.12,1.11Z"/>
        <path class="cls-15" d="M267.79,21.04c.09,1.17,1.73,1.59,2.62,2.07,6.48,3.49,13.26,6.61,19.62,10.29.64.37,2.18.63,1.57,1.5l-9.01-4.73c-1.16,1.43-.42,2.95-.99,4.52-2.02,5.62-7.11,11.85-9.28,17.51-.44,1.14,1.05,1.33.14,2.4-6.92-3.54-13.76-7.29-20.66-10.85,4.88-7.16,6.97-18.34,14.64-22.73.27.13,1.07-.11,1.34.03Z"/>
        <path class="cls-15" d="M282.54,59.88c-1.25-.21-5.76-3.04-7.42-3.9,2.24.05,6,2.01,7.42,3.9Z"/>
        <path class="cls-12" d="M182.23,123.47l.78,1.09c-3.42,6.28-6.66,14.07-10.42,19.92-.69,1.07-2.12,1.4-2.32,1.99-.18.53.35,1.5-.16,2.72-4.26,10.21-11.64,20.39-16.12,30.67-.97,1.12-6.58-2.38-7.9-3.02-.36-.17-.7-.38-1.06-.56l.28-.53c9.91-18.4,19.26-37.23,29.22-55.64.09-.18.18-.35.28-.53l7.42,3.9Z"/>
        <path class="cls-9" d="M145.32,175.74l-.28.53c-1.07-.54-2.12-1.11-3.18-1.67,1.09-.62,2.42.69,3.46,1.14Z"/>
        <path class="cls-11" d="M229.82,220.79c-11.85,21.23-32.09,37.48-41.67,60.18-9.2,21.81-9.41,39.67-24.91,59.8-4.21,5.47-15.77,19.28-23.56,15.14-6.49-3.44-7-5.72-11.26-10.25-6.32-6.71-13.33-2.77-20.42-6.59-7.18-3.87-7.42-11.27-17.21-13.19-5.19-1.02-7.37.44-13.74-2.74-1.88-.94-2.75-1.96-3.73-3.75-3.88-7.13,2.4-26.67,5.57-33.87,2.03-.19,1.16.04.64,1.35-1.32,3.28-2.55,6.54-3.8,9.83,1.55.52.93-3.04,2.73-1.97,1.77,1.05,3.12,3.82,4.89,5.13,1.91,1.42,4.23,2.09,6.09,3.42,2.18,1.56,3.67,4.22,6.39,5.99,6.02,3.92,19.16,10.79,25.93,12.15.89.18,2.43,0,2.43,1.41-2.38.36-5.92,2.92-7.38,3.36s-5.05.4-6.93,1.25c-1.22.55-1.76,1.72-1.88,1.75s-1.93-1.05-2.55-.31c-.82.99.13,6.09,2.8,1.12l1.56,2.17c1.11-3.95,2.58-.5,3.76-.83.23-.06.46-1.07.88-1.24,1.09-.44,3.09.57,2.82-1.8,2.82,2.97,7.12-3.67,8.81-3.75.38-.02.94.93,1.53,1.18,2.51,1.03,1.95-1.36,2.75-1.63.27-.1,1.04.64,1.47.56.46-.09.55-.86.63-.87,1.88-.33,3.59.21,5.09-.02,5.3-.81,12.95-3.66,16.06-8.21,4.88-7.12,8.45-23.08,11.43-31.83,1.39-4.07,3.99-6.67,4.05-11.68.94-1.74,2.5-.51,2.89-.68.42-.18.57-1.09.95-1.22.4-.15,2.77,1.5,1.7-.58-.61-1.18-.76-.88-1.24-2.71-.06-.21-.66-.22-.71-.36-.66-2.16,8.02-14.72,9.88-17.37,5.41-7.68,11.74-14.81,17.47-22.18,1.52-1.95,3.02-4.54,4.35-6.67.75-.23,1.64-.95,2.56-1.03.87-.97-.34-.83-.5-1.6,1.73.38,3.71-2.27,3.93-2.33.8-.23,1.05,3.73,3.9,1.49.41-.32.51-1.35.96-1.58.52-.27,2.02,1.95,1.58-.58,4.21,2.19,8.45,4.94,12.99,6.15ZM188.23,279.39l5.01-9.54-.53-.28-5.01,9.54.53.28ZM175.74,311.9l2.86-5.8c-2.14.96-15.53,4.42-16.06,5.42-.49.95.64,4.01,1.41,3.78,1.52-3.33,3.63.89,3.82-3.4,2.18,2.99,4.94-.51,7.97-.01ZM161.61,312.05c-.93-2.35-4.26,2.89-.88,4.26.19-.68.96-4.06.88-4.26ZM75.1,300.42l1.11-2.11-.52-.27-1.11,2.11.52.27Z"/>
        <path class="cls-11" d="M114.17,328.38c.25.36.16.53-.28.53l.28-.53Z"/>
        <path class="cls-19" d="M189.92,180.91c-.33.62-1.31,1.22-1.64,1.84l-1.68-.58c-.1,4.52-6.34.25-6.96,4.15-.73.32-2.13-3.01-1.18-4.28.28-.37,1.51.06,2.2-.19,2.74-.98,7.43-3.99,9.25-.94Z"/>
        <path class="cls-9" d="M183.29,124.02c-.1.18-.18.35-.28.53l-.78-1.09,1.06.56Z"/>
        <path class="cls-14" d="M229.51,128.69c-.11.02-.53,1.01-1.21,1.06-.91.07-2.03-.9-2.26-.84-.37.11-.82,2.02-1.12,2.1-.26.07-1.28-.99-2.06-.95-.43.02-1.15,1.12-1.69,1-1.03-.23-1.54-2.98-.22-3.48l25.87-7.38c-1.11,1.36-.34,1.93.34,3.22l-1.73-.57c-.13,4.79-3.87,1.07-4.5,1.08-1,.01-3.36,2.71-3.96,3.03-.47.25-4.55,1.98-4.9,2.07-1.43.38-2.34-.38-2.54-.35.86-.27.4-1.89-.5-1.61s-.36,1.88.5,1.61Z"/>
      </g>
      <path class="cls-13" d="M177.33,143.1v.03s-.04-.01-.04-.01c-.55-.29-1.28-.42-2.18-.4-.9.02-1.88.14-2.91.37-.68.15-1.38.33-2.09.55-.71.22-1.39.45-2.04.68-.48.18-.94.36-1.37.53s-.84.35-1.22.54c-.57.26-1.12.53-1.66.81-.54.29-1.06.57-1.57.86-1.29.8-2.44,1.64-3.46,2.52s-1.81,1.79-2.37,2.72c-.09.12-.16.24-.22.35l-.18.34c-.73,1.38-.96,2.63-.71,3.72.26,1.1.99,2.15,2.21,3.15.28.25.57.46.85.65.29.19.57.35.86.5.36.19.73.35,1.1.49.38.14.74.26,1.09.37.42.12.84.22,1.27.31s.87.17,1.33.26c.26.06.52.13.77.19.26.06.53.13.8.2.7.18,1.35.34,1.92.48s1.14.29,1.69.43,1.11.3,1.68.45c.57.16,1.19.35,1.87.58.08.02.16.04.24.07.07.02.15.05.23.07.46.14.88.27,1.28.4.39.12.79.25,1.18.38.35.11.7.24,1.05.39.35.15.71.32,1.09.52l.17.09.2.1s.1.09.17.12l.19.1c1.79,1.06,3.23,2.19,4.34,3.4,1.1,1.21,2.04,2.65,2.8,4.33.16.35.31.72.45,1.11.15.39.28.79.41,1.19-.26-.6-.65-1.17-1.14-1.72-.49-.55-1.04-1.05-1.62-1.51-.31-.24-.64-.46-.98-.66-.34-.2-.67-.39-.99-.56-.25-.13-.48-.25-.7-.35s-.44-.2-.66-.29c-.39-.13-.79-.22-1.2-.25-.4-.03-.79-.03-1.14,0-.36.03-.66.07-.9.13-.24.05-.42.09-.52.11-.08-.21-.18-.48-.28-.82s-.26-.7-.46-1.09c-.28-.48-.67-1.03-1.19-1.64-.51-.61-1.25-1.22-2.2-1.85-.1-.08-.21-.15-.33-.21l-.34-.18c-.93-.49-1.95-.88-3.08-1.18-1.12-.3-2.34-.61-3.64-.94-.24-.05-.48-.1-.71-.16-.24-.05-.48-.1-.73-.13-1.25-.25-2.46-.5-3.62-.78-1.16-.27-2.24-.67-3.22-1.18l-.3-.16c-.1-.05-.2-.12-.28-.18-.11-.06-.22-.12-.32-.19-.1-.07-.19-.13-.28-.2-.37-.26-.79-.58-1.27-.94-.48-.36-.93-.78-1.35-1.27-.83-.92-1.42-2.09-1.77-3.53s-.02-3.19,1.03-5.28c.9-1.75,2.28-3.21,4.16-4.36,1.87-1.15,3.96-2.18,6.27-3.07,1.48-.57,2.98-1.02,4.5-1.35s2.97-.53,4.35-.6c1.16-.04,2.25.01,3.26.17s1.93.43,2.75.81h.03s.03.03.03.03c.55.29.95.72,1.2,1.3.25.58.26,1.16.03,1.74l-.03.06-.03.06-.03.06-.03.06-.12.23c-.04.08-.09.15-.15.21-.41.56-.95.98-1.61,1.27-.66.3-1.25.31-1.76.04l-.13-.07s-.09-.06-.11-.09c-.24-.2-.38-.4-.43-.6-.05-.21-.02-.4.08-.59.08-.15.19-.29.34-.4.15-.12.3-.23.48-.33.17-.1.36-.18.57-.23.21-.05.41-.07.6-.07.23-.02.44-.02.64.01.2.03.35.07.44.12h.03s.03.03.03.03l.03-.06.04-.09.03-.06.03-.06.05-.1s.02-.06,0-.09c.05-.14.04-.29-.02-.44s-.25-.32-.56-.51v-.03ZM183.07,167.45c-.14-.33-.21-.65-.19-.95.03-.2.08-.39.13-.56.06-.18.1-.32.13-.42,0-.02.01-.03,0-.05,0-.01,0-.03,0-.05-.03.06-.16.14-.39.25-.23.11-.51.21-.85.3-.39.11-.84.16-1.34.17-.5,0-.97-.11-1.4-.33-.68-.36-1.07-.78-1.17-1.25-.1-.47-.06-.92.11-1.34,0-.05.01-.1.04-.16l.09-.17c.1-.19.21-.37.33-.53.12-.17.23-.31.32-.43.07-.09.13-.16.18-.21.05-.06.09-.09.12-.1-.04.08-.29.2-.74.37-.45.17-1.01.33-1.66.47-.61.11-1.27.19-1.96.22-.69.03-1.34-.05-1.94-.24-.12-.04-.23-.08-.33-.12-.1-.04-.2-.08-.29-.13l-.09-.04-.06-.03-.06-.03c-.97-.58-1.52-1.18-1.63-1.8-.11-.61-.01-1.29.3-2.02l.02-.04.02-.04c.12-.23.32-.51.61-.84s.6-.67.94-.99c.12-.13.25-.26.39-.4.14-.13.28-.26.42-.38.34-.33.65-.6.93-.81s.46-.32.54-.33l-1.53-.47c-.14.12-.43.33-.89.62-.46.29-.97.59-1.54.9-.17.1-.36.2-.55.29-.19.09-.39.19-.58.28-.04.03-.08.05-.13.08-.05.02-.1.04-.16.06-1.19.51-2.36.9-3.51,1.17-1.15.26-2.2.19-3.14-.23l-.06-.03-.04-.02-.04-.02c-.11-.06-.22-.13-.32-.21s-.21-.16-.31-.24c-.32-.31-.56-.7-.73-1.16-.17-.46-.13-.99.11-1.59l.05-.1.05-.1s0-.08.02-.11l.05-.1c.37-.7.9-1.35,1.59-1.96.69-.6,1.65-1.25,2.88-1.93.58-.32,1.15-.6,1.7-.83.56-.23,1.09-.42,1.61-.58,1.31-.38,2.48-.55,3.5-.52,1.02.03,1.79.19,2.29.48.54.31.92.71,1.15,1.22s.18,1.12-.15,1.84l-.03.06-.03.06c-.07.13-.15.27-.25.41-.1.14-.2.27-.31.38-.13.15-.26.3-.39.43-.13.14-.26.26-.39.36-.19.17-.35.31-.49.41-.14.11-.23.16-.28.16.04.02.08.04.12.05.04.01.08.03.12.05.15.08.36.15.61.21.26.06.62.06,1.09,0,.5-.08.93-.16,1.3-.26.36-.1.71-.2,1.04-.32.05,0,.09,0,.11-.01s.07-.02.13-.04c.25-.06.51-.13.79-.2s.59-.14.94-.2c.66-.11,1.26-.18,1.78-.21.52-.03.99,0,1.41.07.17.04.33.09.47.14.14.05.28.11.41.18l.1.05.07.04s.05.06.08.08l.07.04c.47.3.82.69,1.03,1.19.21.5.18.99-.08,1.49l-.02.04-.02.04c-.29.5-.66.89-1.13,1.15s-.92.44-1.35.53c-.24.04-.46.06-.66.05-.2,0-.36-.04-.47-.1l-.04-.02-.04-.02c-.23-.17-.35-.36-.38-.58-.03-.22,0-.43.1-.61.03-.06.06-.11.1-.16.04-.05.08-.09.12-.12.08-.1.17-.2.28-.29.11-.09.21-.16.3-.2.16-.08.33-.14.49-.17.16-.04.32-.06.47-.08.28-.02.52,0,.74.05.22.05.37.1.46.15l.03.02h.03s0-.07.02-.09l.04-.07s.02-.07.02-.12c0-.07-.05-.17-.12-.28-.07-.11-.24-.24-.51-.38-.23-.12-.59-.15-1.08-.08-.49.06-1.05.19-1.65.38-.38.13-.78.28-1.18.45-.4.16-.79.35-1.17.56-.1.05-.19.1-.28.16s-.19.11-.28.16c-.32.19-.66.42-1.01.67-.35.25-.69.51-1.02.77-.48.4-.91.81-1.29,1.21-.38.4-.66.77-.83,1.09-.08.15-.13.29-.15.43-.02.13,0,.25.04.35.03.04.06.08.1.12.04.04.09.08.17.12.26.14.65.23,1.16.27s1.07.02,1.66-.05c.51-.05,1.01-.13,1.52-.24s.97-.26,1.41-.44c1.61-.68,3.04-1.33,4.3-1.95,1.26-.62,2.39-1.1,3.42-1.43.25-.06.49-.12.71-.19.23-.06.45-.11.68-.13.21-.03.4-.06.58-.07.18-.02.35-.02.51,0,.36,0,.71.04,1.03.12.32.08.66.22,1.02.41.42.22.71.43.89.61.18.19.3.36.36.52.05.1.08.18.1.27.02.08.04.15.05.21v.04s.07-.07.13-.12.12-.08.19-.12c.03,0,.05-.02.08-.05.03-.03.05-.04.08-.05.04-.03.08-.05.13-.08.05-.02.09-.04.12-.05.06-.02.2.02.42.13s.47.23.73.37l.07.04.1.05c.32.17.62.34.89.51.27.17.41.28.41.32.02.06-.46.38-1.43.97-.98.59-2.04,1.25-3.21,2-.1.05-.18.09-.26.14-.07.05-.15.1-.23.15-1.09.69-2.08,1.35-2.97,1.97-.9.63-1.42,1.09-1.57,1.37,0,.02-.02.04-.02.08,0,.03,0,.06,0,.09.03.04.06.08.11.11.04.03.08.06.12.08.18.12.44.16.77.12.34-.04.71-.12,1.11-.25.14-.05.29-.1.45-.16s.31-.13.46-.19c.14-.07.28-.15.44-.24.15-.09.3-.18.45-.27.04-.03.08-.05.13-.08.05-.02.09-.06.14-.1.29-.19.56-.33.82-.42s.45-.07.59.08c.15.18-.1.5-.74.96-.64.46-1.44.9-2.41,1.31-.55.27-1.13.5-1.72.69-.6.19-1.18.34-1.73.43-.44.06-.86.08-1.24.05-.39-.02-.72-.11-1.01-.25-.51-.27-.84-.57-.98-.9ZM167.39,152.24c-.05.05-.1.09-.16.13-.06.04-.11.08-.15.1-.14.12-.28.24-.42.36-.15.12-.29.24-.42.36-.25.21-.48.42-.68.64-.2.22-.35.43-.45.62-.07.13-.11.26-.11.38,0,.12.02.22.08.3.05.05.09.1.14.15s.11.09.18.13c.23.12.5.19.83.22.33.03.68.02,1.06-.02.29-.04.57-.1.86-.18s.57-.19.86-.33c.13-.05.31-.15.56-.27.25-.12.5-.26.77-.41.04-.03.08-.05.13-.08.05-.02.09-.05.13-.08.28-.17.55-.33.81-.5.26-.17.43-.3.53-.39-.18-.12-.34-.23-.47-.34-.14-.11-.25-.24-.34-.38-.07-.06-.12-.13-.16-.21-.04-.08-.09-.16-.14-.24-.18-.31-.3-.6-.36-.88s-.08-.59-.07-.94c-.24.09-.46.19-.67.3s-.39.22-.57.32c-.15.09-.28.18-.39.27-.12.08-.23.17-.35.25-.18.12-.36.24-.52.36-.16.12-.34.25-.53.39v-.03ZM172.69,152.77s.09.01.16-.03c.07-.04.14-.07.2-.11.18-.12.38-.28.6-.48.21-.2.42-.41.6-.63.08-.1.15-.21.22-.32.07-.11.13-.22.19-.33l.02-.04.02-.04c.13-.3.19-.53.17-.71-.02-.18-.06-.33-.15-.44-.03-.04-.06-.07-.09-.1-.03-.03-.07-.05-.11-.07l-.04-.02-.07-.04c-.09-.05-.2-.09-.32-.11-.12-.03-.25-.05-.38-.07-.26-.01-.53.01-.82.08-.29.06-.54.15-.77.25-.15.06-.29.14-.41.22-.12.08-.21.17-.28.25l-.02.03c-.05.09-.08.23-.08.39,0,.17.02.35.06.54.05.32.16.63.32.95.16.31.36.56.61.74l.04.02.04.02.06.03s.04.01.07,0l.06.03.06.03v-.03ZM191.07,158.51c-.09.03-.16.05-.23.06-.07.01-.14.02-.21.03-.4.08-.9.23-1.47.46-.58.23-1.47.63-2.67,1.21-.27.15-.54.3-.81.46-.27.16-.53.32-.78.48-.55.39-1.03.8-1.45,1.21-.43.42-.72.79-.89,1.11-.07.13-.11.25-.13.36-.02.11-.02.2.02.27.03.04.05.08.07.11s.05.06.08.08c0,.03.03.05.07.07l.09.04c.24.15.53.17.89.07s.7-.24,1.03-.4c.09-.03.16-.07.24-.11.07-.05.14-.09.21-.13,1.32-.76,2.55-1.49,3.71-2.2,1.16-.71,2.29-1.39,3.38-2.05.1-.06.19-.12.24-.18s.1-.1.14-.13c.04-.07.05-.15.03-.22-.02-.07-.05-.14-.09-.21-.02,0-.03-.02-.03-.04,0-.02-.02-.03-.04-.04-.03-.04-.06-.07-.1-.11-.04-.03-.08-.06-.12-.08-.13-.07-.29-.11-.47-.14-.18-.02-.42-.01-.7.03v-.03ZM224.57,166.38c.58.33,1.04.63,1.4.92.36.29.69.59,1,.93.18.21.35.44.52.67.17.23.35.5.56.8.12.18.25.37.38.56.13.19.26.39.39.6.04.07.08.13.12.19.04.06.08.12.12.19.37.58.71,1.13,1.01,1.64.3.51.49.83.56.96l-3.22,1.1c-.18-.26-.34-.52-.5-.77-.16-.25-.32-.51-.47-.76-.06-.08-.12-.17-.19-.26-.07-.1-.13-.19-.17-.29-.12-.18-.25-.37-.39-.57s-.29-.39-.45-.6c-.29-.42-.55-.8-.77-1.15-.23-.35-.46-.69-.69-1.03-.29-.42-.6-.82-.94-1.22-.34-.39-.76-.79-1.28-1.18-.07-.06-.14-.11-.22-.17s-.15-.1-.21-.13c-.13-.07-.25-.12-.37-.16-.12-.04-.23-.06-.34-.07-.02-.01-.05-.02-.1-.02-.06-.03-.11-.05-.16-.05-.05,0-.09-.01-.13-.03,0,.05-.01.11-.03.2-.02.08-.04.17-.06.26-.05.14-.11.31-.17.51s-.15.38-.25.57c-.15.28-.31.54-.47.75-.16.22-.34.42-.54.61-.16.16-.32.32-.48.47s-.35.31-.55.47c-.8.65-1.65,1.12-2.55,1.44-.9.31-1.75.47-2.54.46-.41,0-.8-.03-1.18-.11-.37-.07-.7-.18-.98-.33-.22-.09-.41-.22-.58-.38-.17-.16-.31-.33-.41-.5-.12-.23-.17-.48-.16-.74s.09-.51.22-.76c.14-.27.32-.52.55-.77.22-.24.47-.49.75-.73.27-.24.56-.47.87-.69.3-.21.6-.4.88-.57.45-.27.95-.5,1.48-.69.53-.19,1.05-.35,1.55-.47.69-.17,1.33-.28,1.92-.33.58-.06,1.01-.06,1.28-.02-.03-.04-.05-.07-.07-.11s-.04-.07-.07-.11c-.04-.07-.09-.14-.15-.2-.06-.07-.16-.14-.29-.21l-.14-.08c-.06-.03-.12-.05-.19-.06-.42-.12-.92-.21-1.51-.27s-1.23-.06-1.93-.02c-.31.03-.63.07-.96.11-.34.04-.67.1-.99.17-.77.18-1.49.36-2.17.55-.68.19-1.32.39-1.92.61-.71.25-1.4.53-2.07.83s-1.33.63-2,.98c-.49.25-1.01.52-1.54.82-.53.3-1.08.62-1.64.95-.59.34-1.13.68-1.62,1.02-.49.33-.94.68-1.35,1.05-.59.54-1.14,1.11-1.63,1.72-.49.61-.94,1.32-1.36,2.11-.46.87-.7,1.67-.73,2.39-.03.72.28,1.32.92,1.81.08.07.17.13.28.2.1.06.19.12.29.17.89.47,1.89.63,3,.5,1.11-.13,2.2-.45,3.26-.96.04-.03.08-.05.13-.08.05-.02.09-.05.13-.08.39-.18.78-.41,1.18-.69s.79-.57,1.17-.87c.39-.33.75-.66,1.08-1.01.33-.35.58-.68.75-1,.16-.3.24-.58.24-.83s-.12-.47-.37-.65l-.06-.03s-.02-.02-.01-.04l-.06-.03-.06-.03c-.36-.19-.73-.23-1.09-.12-.37.11-.74.24-1.12.41-.02,0-.03,0-.04,0,0,0-.02,0-.04,0-.04.03-.08.05-.11.07-.03.02-.06.03-.09.04-.19.07-.37.18-.55.33-.19.14-.36.31-.53.48-.3.3-.56.59-.78.86-.22.27-.35.41-.4.41-.18-.02-.35-.04-.5-.05s-.29-.02-.4-.03c-.07,0-.12-.02-.17-.02-.05,0-.09,0-.11.01-.11-.01-.22-.01-.32,0s-.21.01-.34.02c-.08.01-.16.02-.25.03-.09.01-.19.03-.3.04-.08.01-.16.03-.24.05-.09.03-.17.04-.25.05-.34.09-.64.17-.9.23-.27.07-.41.07-.45,0,0-.03,0-.09.04-.18.03-.09.09-.2.16-.33.16-.3.41-.69.74-1.17.33-.48.74-.94,1.22-1.39.3-.3.63-.58.99-.84.36-.26.73-.47,1.12-.62.84-.36,1.69-.54,2.54-.55s1.63.17,2.33.53c.15.08.29.16.4.23s.23.16.35.27c.54.45.83.94.88,1.47.05.53-.07,1.07-.36,1.62-.22.42-.51.83-.87,1.24-.36.41-.77.8-1.23,1.17-.44.37-.89.72-1.36,1.04-.47.32-.93.61-1.39.88-1.58.89-3.18,1.44-4.81,1.67-1.63.22-3.11-.02-4.46-.73l-.3-.16c-.11-.06-.21-.12-.31-.2-1.24-.82-2.15-1.75-2.75-2.8-.6-1.05-.46-2.4.4-4.05.17-.32.36-.65.59-.98.22-.33.48-.68.77-1.06,1.1-1.36,2.32-2.53,3.67-3.51,1.35-.98,2.66-1.82,3.94-2.5.68-.37,1.33-.69,1.96-.97.63-.27,1.2-.52,1.72-.73.37-.14.75-.28,1.14-.42.4-.13.79-.26,1.2-.39,1.97-.58,4.12-.95,6.43-1.12,2.31-.17,4.47.19,6.47,1.07l.04.02.04.02.06.03c.25.13.45.27.61.43.16.16.31.33.45.52.08.12.17.25.25.39.08.14.17.27.28.4.04.05.09.1.12.15.03.05.06.1.09.14.35.02.68.04.99.08.3.04.6.09.89.14.39.08.78.2,1.17.36.39.15.81.35,1.27.59v-.03ZM201.68,162.05c.02.06-.1.19-.37.39-.26.2-.56.41-.89.62-.04.03-.07.05-.11.07-.04.02-.07.04-.11.07-.29.19-.56.35-.81.5-.25.15-.4.22-.44.22-.03,0-.18-.04-.44-.14s-.53-.23-.82-.38l-.16-.08-.13-.07c-.23-.12-.43-.24-.6-.35s-.26-.2-.28-.26c-.01-.08.11-.21.35-.39.24-.19.53-.39.86-.6.05-.05.1-.09.15-.12.05-.03.11-.07.18-.11.28-.17.53-.31.76-.44.22-.12.37-.18.43-.17.05,0,.18.05.41.15.23.1.47.21.74.35l.04.02.04.02c.28.15.55.29.79.43.24.14.36.23.36.28v-.03ZM225.8,179.22c-.56.33-1.07.64-1.53.92-.46.28-.9.56-1.32.85-.3.2-.6.41-.91.63-.3.21-.61.45-.91.7-.21.18-.43.35-.66.53-.22.17-.45.37-.69.58.69-.07,1.51-.19,2.47-.35.96-.16,1.98-.4,3.07-.73.18-.05.34-.11.51-.17s.33-.11.5-.17c.53-.18,1-.35,1.42-.5s.81-.31,1.18-.45c.15-.06.3-.12.44-.19.14-.06.29-.12.44-.19.31-.13.63-.27.98-.45s.72-.37,1.13-.59l1.18.37c-.43.26-.83.49-1.19.68s-.73.38-1.09.55c-.22.1-.44.2-.67.3-.22.1-.45.19-.68.26-.4.17-.83.34-1.27.49s-.93.32-1.46.5c-.56.19-1.09.36-1.59.51s-.97.27-1.42.38c-.38.09-.76.17-1.13.26-.37.08-.75.14-1.13.18-.42.07-.85.13-1.29.17-.44.05-.91.1-1.42.15-.02,0-.18.1-.49.32-.31.22-.67.51-1.07.85-.15.14-.3.28-.45.42-.16.13-.31.27-.45.41-.29.28-.55.56-.79.84-.23.28-.41.54-.54.78-.12.18-.18.35-.2.51-.01.16.04.3.15.41.03.04.05.06.08.08l.07.04c.17.09.38.13.63.11s.51-.06.79-.13c.22-.05.44-.12.66-.19.22-.08.45-.17.67-.27.13-.05.25-.1.37-.15.12-.05.24-.1.37-.15,1.61-.68,3.04-1.33,4.3-1.95,1.26-.62,2.39-1.1,3.42-1.43.25-.06.49-.12.71-.19.23-.06.45-.11.68-.13.21-.03.41-.06.58-.07s.35-.02.51,0c.36,0,.71.04,1.03.12.32.08.66.22,1.02.41.42.22.71.42.89.61.18.19.3.36.36.52.05.1.08.19.1.27.02.08.04.15.06.21v.04s.07-.08.13-.12c.06-.04.12-.08.19-.12.03,0,.05-.02.08-.05.03-.03.05-.04.08-.05.04-.03.08-.05.13-.08.05-.02.09-.04.12-.05.06-.02.2.02.42.13.22.11.47.23.73.37l.07.04.1.05c.32.17.62.34.89.51.27.17.41.28.41.32.02.06-.46.38-1.43.97s-2.04,1.25-3.21,2c-.1.05-.18.09-.26.14-.07.05-.15.1-.23.15-1.08.69-2.08,1.35-2.97,1.97-.9.63-1.42,1.09-1.57,1.37,0,.02-.02.04-.02.08,0,.03,0,.06,0,.09.03.04.06.08.1.11.04.03.08.06.12.08.18.12.44.16.77.12.34-.04.71-.12,1.11-.25.14-.05.29-.1.45-.16.15-.06.31-.13.46-.19.14-.07.28-.15.44-.24.16-.09.31-.18.45-.27.04-.03.08-.05.13-.08.05-.02.1-.06.15-.1.29-.19.56-.33.82-.42.25-.1.45-.07.59.08.15.17-.1.49-.73.94s-1.44.89-2.42,1.32c-.54.25-1.11.47-1.7.65s-1.17.32-1.72.42c-.44.06-.86.08-1.25.07-.39-.01-.73-.1-1.01-.24-.51-.27-.84-.57-.98-.9-.14-.33-.2-.65-.17-.98.03-.2.07-.38.12-.55.05-.16.09-.29.11-.38,0-.02.01-.04,0-.05,0-.01,0-.03,0-.05-.03.06-.16.14-.38.24-.22.1-.5.2-.84.29-.4.11-.84.16-1.34.17s-.96-.11-1.4-.34c-.68-.36-1.07-.78-1.17-1.25-.1-.48-.07-.92.1-1.34,0-.05.01-.1.04-.14l.08-.16c.1-.19.21-.37.33-.53s.23-.31.32-.43c.07-.09.13-.16.18-.21.05-.05.1-.09.12-.1-.04.08-.28.2-.72.38-.45.18-.96.34-1.55.5-.19.04-.4.09-.62.14-.22.06-.44.1-.65.13-.46.1-.89.15-1.28.16-.39,0-.7-.04-.93-.16-.53-.28-.86-.71-.99-1.28-.13-.58-.06-1.12.21-1.63.13-.25.33-.55.61-.93.28-.37.58-.75.9-1.14.15-.19.29-.37.43-.54.14-.17.28-.33.43-.47.3-.35.58-.64.83-.89s.41-.37.49-.38l-1.2-.41c-.14.12-.44.33-.9.61s-.98.58-1.55.89c-.17.1-.35.2-.53.29s-.36.17-.54.24c-.04.03-.08.05-.13.08-.05.02-.1.04-.16.06-1.19.52-2.36.9-3.5,1.15-1.15.26-2.19.17-3.13-.25l-.06-.03-.04-.02-.04-.02c-.11-.06-.22-.13-.33-.21-.11-.08-.21-.16-.31-.24-.32-.31-.56-.7-.73-1.16-.17-.46-.14-.98.1-1.56l.05-.1.05-.1s0-.09.02-.12l.05-.1c.37-.7.9-1.35,1.59-1.96.69-.6,1.65-1.25,2.88-1.93.58-.32,1.15-.6,1.7-.83.55-.23,1.09-.42,1.61-.58,1.31-.38,2.48-.55,3.5-.52,1.02.03,1.79.19,2.29.48.54.31.92.71,1.15,1.22s.18,1.12-.15,1.84l-.03.06-.03.06c-.06.11-.14.23-.22.35-.09.12-.18.25-.26.37-.13.15-.26.3-.4.45-.13.14-.27.27-.39.37-.18.15-.33.28-.45.38-.13.1-.22.16-.28.18l1.09.28c.45-.39.85-.74,1.2-1.05.36-.31.69-.58,1.02-.83.18-.15.35-.28.52-.4.17-.12.34-.24.5-.37.37-.24.76-.49,1.18-.76s.89-.56,1.43-.88c.56-.33,1.17-.67,1.84-1.01.66-.34,1.36-.67,2.08-.99.56-.24,1.13-.48,1.7-.72.57-.24,1.16-.46,1.74-.66,1.11-.41,2.18-.75,3.21-1.03,1.03-.28,1.89-.46,2.58-.53,1.01-.1,1.8-.11,2.35-.03.55.07,1.01.2,1.37.39.15.08.29.16.42.24s.25.17.36.28c.25.18.39.4.43.66.04.26,0,.54-.12.81l-.04.07-.05.1c-.06.11-.13.22-.21.32-.08.11-.16.22-.25.34-.12.13-.25.26-.39.39-.14.13-.27.25-.4.35-.16.11-.29.2-.39.27-.11.06-.19.1-.23.1l-1.16-.28c.06-.02.14-.05.26-.12.12-.06.24-.14.36-.24.12-.08.23-.17.36-.27.12-.09.23-.19.33-.28.13-.1.24-.21.34-.33.1-.12.18-.23.24-.35.08-.15.12-.29.13-.42,0-.13-.05-.25-.16-.35-.02-.01-.04-.03-.07-.07l-.06-.03-.06-.03c-.52-.3-1.49-.25-2.9.14-1.42.39-2.99.98-4.73,1.76-.76.35-1.53.72-2.31,1.12-.78.4-1.55.82-2.32,1.27v-.03ZM218.8,166.25c-.28-.02-.62-.03-1.04-.02s-.87.06-1.35.15c-.42.07-.86.17-1.31.31s-.88.32-1.28.54c-.1.05-.19.1-.28.16-.09.06-.19.11-.28.16-.17.1-.34.21-.51.31s-.34.22-.52.34c-.34.23-.65.48-.95.74-.29.26-.5.51-.63.75-.06.11-.1.23-.11.34-.01.12,0,.23.03.35.05.13.12.22.19.3.07.07.16.14.28.2.19.1.42.17.69.2.27.03.56.04.87,0,.41-.05.85-.14,1.31-.27.46-.13.88-.29,1.27-.48.07-.04.13-.07.2-.11.07-.04.13-.07.2-.11.81-.49,1.42-.96,1.83-1.41.41-.45.71-.87.91-1.25.11-.21.2-.41.28-.61.08-.2.14-.38.18-.56v-.03ZM208.1,181.3s-.1.09-.16.13c-.06.04-.11.08-.15.1-.14.12-.28.24-.42.36s-.29.24-.42.36c-.25.21-.48.42-.68.64-.2.22-.35.43-.45.62-.07.13-.1.26-.11.38s.02.22.08.3c.05.05.09.1.14.15.05.05.11.09.18.13.23.12.5.19.83.22s.68.02,1.06-.02c.29-.04.57-.1.86-.18.28-.08.57-.19.86-.33.13-.05.31-.15.56-.27.25-.12.51-.26.78-.41.04-.03.08-.05.13-.08.05-.02.09-.05.13-.08.28-.17.55-.33.81-.5.26-.17.43-.3.53-.39-.18-.12-.34-.23-.47-.34-.14-.11-.25-.23-.34-.38-.07-.06-.12-.13-.16-.21-.04-.08-.09-.16-.15-.24-.17-.31-.3-.6-.36-.87-.06-.27-.08-.59-.07-.94-.24.09-.46.19-.67.3-.2.11-.39.22-.57.32-.15.09-.27.18-.39.27-.12.08-.23.17-.35.25-.18.12-.36.24-.52.36-.16.12-.34.25-.53.39v-.03ZM213.41,181.84s.09.01.16-.03c.07-.04.13-.07.2-.11.18-.12.38-.28.6-.48.21-.2.41-.41.6-.63.08-.1.15-.21.22-.32.07-.11.13-.22.19-.33l.02-.04.02-.04c.13-.29.19-.53.17-.71s-.06-.33-.15-.44c-.03-.04-.06-.07-.09-.1-.03-.03-.07-.05-.11-.07l-.04-.02-.07-.04c-.09-.05-.2-.09-.32-.11-.12-.03-.24-.05-.38-.07-.26-.01-.53.01-.82.08-.29.06-.54.15-.77.25-.15.06-.29.14-.41.22-.12.09-.21.17-.28.26v.03c-.06.09-.09.23-.09.39,0,.17.02.35.06.54.05.32.16.63.32.95.16.31.36.56.61.74l.04.02.04.02.06.03s.04.01.07,0l.06.03.06.03.02-.03ZM229.68,186.47c-.09.03-.16.05-.23.06-.07.01-.14.02-.22.03-.4.08-.89.23-1.47.46-.58.23-1.47.63-2.66,1.21-.27.15-.54.3-.8.47-.27.16-.53.32-.78.48-.55.39-1.03.8-1.45,1.21s-.72.79-.89,1.11c-.07.13-.11.25-.14.36s-.01.2.02.27c.03.04.05.08.07.11.02.03.05.06.08.08,0,.03.03.05.07.07l.09.04c.24.15.53.17.89.07.36-.1.7-.24,1.03-.4.09-.03.17-.07.24-.11.07-.05.14-.09.21-.13,1.32-.76,2.55-1.49,3.71-2.2,1.16-.71,2.28-1.39,3.38-2.05.11-.06.19-.12.24-.18s.1-.1.14-.13c.04-.07.05-.15.02-.22-.02-.07-.05-.14-.09-.21-.02,0-.03-.02-.03-.04s-.02-.03-.03-.04c-.03-.04-.06-.07-.11-.11-.04-.03-.08-.06-.12-.08-.13-.07-.29-.11-.47-.14-.18-.02-.42-.01-.71.03v-.03ZM238.14,178.08c.45.07.87.11,1.28.13s.78.02,1.15.02c1.49-.06,2.57-.27,3.26-.61.69-.34,1.14-.43,1.37-.26.01.03.02.05.04.06.18.21-.11.53-.87.96-.75.42-1.73.81-2.92,1.15-.76.21-1.57.37-2.42.5-.86.13-1.7.17-2.54.12-.55-.02-1.05-.06-1.52-.11-.47-.05-.92-.13-1.34-.23-.36-.09-.73-.21-1.09-.34-.37-.13-.74-.3-1.12-.5-.27-.14-.55-.3-.85-.48s-.61-.39-.92-.63l3.09-1.46c.52.3,1.01.55,1.48.74.47.2.93.36,1.4.48.37.12.76.22,1.17.29.41.07.86.14,1.36.2v-.03Z"/>
      <g>
        <g>
          <path class="cls-1" d="M265.91,207.96c-4.32-2.73-8.63-5.45-12.88-8.29-2.85-1.9-5.77-3.37-8.77-4.72-.38-.12-.75-.25-1.11-.41-.17.23-.33.46-.5.69-5.77,9.04-11.34,18.21-16.84,27.42-1.53.99-3.34,1.73-4.62,2.48-2.37,1.4-4.48,3.06-6.54,4.89-3.98,3.53-6.96,8.22-8.52,13.27-1.53,4.94-.37,7.67,2.09,9l-.44.74c-7.01,3.78-13.3,6.89-16.6,14.84-1.54,3.7-1.89,9.05,1.38,10.62-.85,1.42-1.7,2.85-2.55,4.28-4.92,7.1-15.09,8.71-17.33,17.96-.13.53-.17,1.1-.15,1.69.91,6.26,8.37,6.23,13.83,4.81,3.04-.79,5.76-2.2,8.33-3.99.89-.8,1.7-1.66,2.39-2.62.63-.88,1.37-1.82,2.03-2.81,3.03-6.83-.81-12.06-6.38-16.49.48-.8.96-1.61,1.44-2.41.55.05,1.16.05,1.85-.07,7.92-1.27,16.87-3.12,22.94-8.68,2.18-2,3.77-5.07,4.35-7.93.43-2.13.55-4.05.36-6.22-.04-.42-1.09-2.96-1.45-3.99,7.68-1.99,17.62-6,21.01-12.99,4.15-8.55-1.75-18.13-9.12-22.68,8.6,1.7,16.42,6.57,24.8,9.12,6.48,1.97,13.45,2.1,17.59-3.94,4.3-6.28-6.81-11.18-10.57-13.56Z"/>
          <path class="cls-4" d="M195.17,285.9c1.73,2.08,2.91,4.19,3.27,6.89.62,4.64-2.92,8.47-6.93,11.45-3.74,1.17-10.05,3.58-13.91,2.27l.07-.11c-2.37-.42-4.31-2.58-3.96-5.34.57-4.52,4.49-7.06,7.92-9.52.08-.05.15-.08.23-.1.42-.3.84-.59,1.22-.85.24-.17.46-.33.7-.5.76-.62,1.57-1.2,2.38-1.76.35-.27.71-.54,1.04-.82l-.09.15c1.43-1.01,2.8-2.08,3.9-3.46.36-.61.73-1.22,1.1-1.83.81,1.17,2.81,3.19,3.08,3.52Z"/>
          <path class="cls-5" d="M176.53,298.85c4.12-5.15,11.38-6.93,13.18-13.29-.81.76-1.7,1.45-2.62,2.1l.09-.15c-.33.28-.69.55-1.04.82-.81.57-1.61,1.14-2.38,1.76-.24.16-.46.33-.7.5-.39.26-.8.55-1.22.85-.07.01-.15.04-.23.1-3.42,2.47-7.35,5-7.92,9.52-.22,1.79.52,3.31,1.71,4.29-.84-2.01-.6-4.34,1.12-6.49Z"/>
          <path class="cls-4" d="M222.25,259.41c-.47,9.82-8.84,14.14-17.27,16.31-2.35.61-4.7,1.19-7.09,1.65-.87.17-1.61.22-2.25.19-.57.13-1.15.14-1.7-.12-.65-.31-1.07-.86-1.25-1.49-1.51-2.66.47-7.85,1.27-9.74,2.02-4.81,5.8-7.62,9.95-10.05.76-.57,1.53-1.12,2.37-1.52.09-.05.19-.08.29-.12.98-.54,2-1,2.97-1.37.05-.08.09-.16.14-.23.01,0,.02-.01.03-.02,2.69.79,6.3.5,9.67-.22.61-.13,1.25-.28,1.91-.44.77,2.37,1.09,4.64.96,7.18Z"/>
          <path class="cls-5" d="M194.76,267.9c1.43-2.05,3.02-4.13,4.98-5.7,3.33-2.66,7.49-4.82,9.39-8.8.03-.05.06-.08.09-.12-.88.35-1.78.76-2.66,1.24-.09.04-.19.07-.29.12-.84.4-1.61.95-2.37,1.52-4.15,2.43-7.93,5.24-9.95,10.05-.58,1.38-1.77,4.49-1.81,7.11.45-1.92,1.52-3.85,2.61-5.42Z"/>
          <path class="cls-4" d="M242.43,237.42c-2.97,9.57-18.17,13.3-26.69,14.66-1.97.31-3.49.27-4.66-.04-.69,0-1.37-.18-1.82-.77-.09-.12-.18-.25-.27-.39-4.23-4.43,4.52-18.02,8.39-21.59,1.59-1.47,3.38-2.58,5.21-3.63.01,0,.03-.02.04-.03,2.26-.9,4.53-1.67,6.79-2.55,1.66-.64,3.42-1.81,3.77-3.66.03-.17-.3-.06-.35.04-.96,1.97-3.9,3.06-6.04,3.58,1.12-.74,2.18-1.55,3.07-2.56.19-.48.28-1.03.31-1.71.56-.94,1.12-1.87,1.67-2.81.36.05.71.11,1.06.17,5.58,5.81,12.22,12.56,9.5,21.3Z"/>
          <path class="cls-5" d="M216.42,233.95c2.28-2.31,4.64-4.62,7.34-6.45,2.29-1.56,6.39-2.87,7.76-5.57-.63.49-1.37.88-2.09,1.16-2.26.88-4.54,1.65-6.79,2.55-.01,0-.03.02-.04.03-1.83,1.05-3.62,2.16-5.21,3.63-3.47,3.21-10.88,14.47-9.3,19.95,1.6-5.65,4.17-11.06,8.35-15.29Z"/>
          <path class="cls-4" d="M267.64,225.44c-1.97.16-4.03-.32-5.95-.71-4.18-.85-8.25-2.68-12.15-4.35-5.51-2.36-10.59-4.68-16.47-5.42-.05-.05-.16-.06-.28-.04-.06,0-.12-.02-.18-.03l.04-.07s-.06-.03-.09-.04c3.74-6.35,7.43-12.73,11.01-19.17,3.96,2.16,7.84,4.41,11.7,6.97,6.19,4.09,13.63,7.55,18.99,12.68,3.28,4.03,1.08,7.42-6.61,10.17Z"/>
          <path class="cls-5" d="M268.1,212.47c3.34,2.42,6.12,4.49,7.4,7.45.51-1.44.1-2.99-1.25-4.65-5.37-5.13-12.81-8.59-18.99-12.68-3.86-2.55-7.73-4.8-11.7-6.97-.18.32-.36.64-.54.96,8.25,5.47,17.04,10.07,25.08,15.89Z"/>
        </g>
        <path class="cls-21" d="M277.45,218.75c-1.14,1.13-2.4,2.07-3.45,2.66-5.34,3-11.08,1.02-16.25-1.54-3.56-1.76-6.96-3.81-10.37-5.85-1.91-1.14-4.2-2.38-5.49-4.27-3.37-4.97.91-9.83,2.09-14.89-.28-.1-.56-.19-.83-.31-.17.23-.33.46-.5.69-5.77,9.04-11.34,18.21-16.84,27.42-1.53.99-3.34,1.73-4.62,2.48-.6.35-1.18.73-1.75,1.11,1.72-.48,3.28-.8,4.41-.97,3.28-.49,9.44-.9,11.66,2.35,1.66,2.43,1.09,5.48,0,8.04-3.36,7.79-11.71,15.53-20.5,15.98-3.42.17-6.98-.41-9.4-2.87.35,1.67,1.29,2.8,2.62,3.53l-.44.74c-1.57.85-3.11,1.66-4.58,2.5,2.22-.49,4.48-.6,6.69-.18,6.32,1.2,7.27,6.92,3.19,11.42-3.08,3.39-6.93,6.2-11.16,7.98-2.73,1.15-6.36,2.85-9.37,1.68-.99-.38-1.76-.88-2.35-1.46.29,1.56,1.01,2.85,2.36,3.5-.85,1.42-1.7,2.85-2.55,4.28-1.01,1.46-2.26,2.69-3.6,3.8.36-.05.73-.09,1.09-.11,5.68-.33,7.33,3.48,5.01,8.33-2.75,5.73-9.71,11.42-16.38,11.12-.83-.04-1.69-.29-2.5-.67,2.46,3.37,8.26,3.15,12.73,2,3.04-.79,5.76-2.2,8.33-3.99.89-.8,1.7-1.66,2.39-2.62.63-.88,1.37-1.82,2.03-2.81,3.03-6.83-.81-12.06-6.38-16.49.48-.8.96-1.61,1.44-2.41.55.05,1.16.05,1.85-.07,7.92-1.27,16.87-3.12,22.94-8.68,2.18-2,3.77-5.07,4.35-7.93.43-2.13.55-4.05.36-6.22-.04-.42-1.09-2.96-1.45-3.99,7.68-1.99,17.62-6,21.01-12.99,4.15-8.55-1.75-18.13-9.12-22.68,8.6,1.7,16.42,6.57,24.8,9.12,6.48,1.97,13.45,2.1,17.59-3.94.65-.96.95-1.88.97-2.77Z"/>
      </g>
    </g>
  </g>
</svg>