<?xml version="1.0" encoding="UTF-8"?>
<svg xmlns="http://www.w3.org/2000/svg" xmlns:xlink="http://www.w3.org/1999/xlink" version="1.1" viewBox="0 0 100 300">
  <!-- Generator: Adobe Illustrator 29.0.1, SVG Export Plug-In . SVG Version: 2.1.0 Build 192)  -->
  <defs>
    <style>
      .st0, .st1 {
        fill: none;
      }

      .st2 {
        fill: #111;
      }

      .st3 {
        fill: #d14a4a;
      }

      .st4 {
        fill: url(#linear-gradient2);
      }

      .st5 {
        fill: url(#linear-gradient1);
      }

      .st6 {
        fill: url(#linear-gradient3);
      }

      .st7 {
        fill: url(#linear-gradient4);
      }

      .st8 {
        opacity: .3;
      }

      .st8, .st9, .st10, .st11 {
        mix-blend-mode: multiply;
      }

      .st8, .st12 {
        fill: #ffb495;
      }

      .st13 {
        fill: #832621;
      }

      .st1 {
        stroke: #bac2ce;
        stroke-linecap: round;
        stroke-linejoin: round;
        stroke-width: 1.3px;
      }

      .st9, .st11 {
        opacity: .5;
      }

      .st14, .st11 {
        fill: #efc99a;
      }

      .st15 {
        fill: url(#linear-gradient);
      }

      .st16 {
        isolation: isolate;
      }

      .st17 {
        fill: #47686b;
      }

      .st18 {
        fill: #fff;
      }

      .st19 {
        fill: #bac2ce;
      }

      .st20 {
        fill: #fc9e81;
      }

      .st21 {
        fill: #5b2b0a;
      }

      .st22 {
        fill: #10171c;
      }

      .st23 {
        fill: #3f0f1b;
      }

      .st24 {
        fill: #183145;
      }

      .st25 {
        fill: #826e51;
      }

      .st26 {
        fill: #f5c4b3;
      }

      .st27 {
        fill: #594934;
      }

      .st28 {
        fill: #fcc5a7;
      }

      .st29 {
        fill: #fcd2a4;
      }

      .st30 {
        fill: #7a3d14;
      }

      .st31 {
        clip-path: url(#clippath);
      }
    </style>
    <linearGradient id="linear-gradient" x1="28" y1="41.9" x2="33.6" y2="41.9" gradientUnits="userSpaceOnUse">
      <stop offset="0" stop-color="#ffaa8b" stop-opacity="0"/>
      <stop offset="1" stop-color="#ffaa8b"/>
    </linearGradient>
    <linearGradient id="linear-gradient1" x1="62.9" y1="41.9" x2="68.5" y2="41.9" gradientUnits="userSpaceOnUse">
      <stop offset="0" stop-color="#ffaa8b"/>
      <stop offset="1" stop-color="#ffaa8b" stop-opacity="0"/>
    </linearGradient>
    <linearGradient id="linear-gradient2" x1="53.3" y1="46.3" x2="53.3" y2="37.5" gradientUnits="userSpaceOnUse">
      <stop offset="0" stop-color="#ffaa8b" stop-opacity=".7"/>
      <stop offset="0" stop-color="#ffaa8b" stop-opacity=".6"/>
      <stop offset=".3" stop-color="#ffaa8b" stop-opacity=".4"/>
      <stop offset=".5" stop-color="#ffaa8b" stop-opacity=".2"/>
      <stop offset=".6" stop-color="#ffaa8b" stop-opacity="0"/>
      <stop offset=".8" stop-color="#ffaa8b" stop-opacity="0"/>
      <stop offset=".9" stop-color="#ffaa8b" stop-opacity="0"/>
    </linearGradient>
    <clipPath id="clippath">
      <path class="st0" d="M59.1,49.8c-.2-.2-2.9-.3-6.4-.3-3.5,0-6.2.2-6.4.5-.2.2,1.4,5.6,6.5,5.5,5.1,0,6.5-5.6,6.3-5.7Z"/>
    </clipPath>
    <linearGradient id="linear-gradient3" x1="41.2" y1="40.3" x2="47.8" y2="40.3" xlink:href="#linear-gradient2"/>
    <linearGradient id="linear-gradient4" x1="64.2" y1="40.3" x2="57.9" y2="40.3" xlink:href="#linear-gradient2"/>
  </defs>
  <g class="st16">
    <g id="Layer_1">
      <g>
        <g>
          <path class="st28" d="M31.3,270.6s-1,10.1-.5,11.6c.2.5,5.8,3.4,5.8,3.4v5.8s-10.9-2.1-10.9-2.1l-3.5-1.5-.2-1.5s.7-3.1.6-4.4c-.1-1.3-.9-11.3-.9-11.3"/>
          <path class="st19" d="M22.5,285.5c-.9.2-.6,1.8-.9,4.5-.2,1.1-.1,3.6.1,4.7,1.8,1.6,6.6.6,7.4.6,4.6-.2,9.7,1.2,15.3.4,1.1-.1,3.2-.3,3.7-2.3,0-.3,0-1.6,0-1.6,0,0-10.6-4.7-13.8-6.4-.7-.4-1.2-1.3-1.7-1.3s-1,1.3-1.4,1.6c-2,1.4-5.2,1.3-7.1.9-.8-.2-1.2-1.1-1.5-1Z"/>
          <path class="st22" d="M22.5,284.2c-.9.2-.6,1.8-.9,4.5-.2,1.1-.3,3.6,0,4.7,1.8,1.6,6.8.6,7.6.6,4.6-.2,9.9.9,15.3.4,1.1,0,3.2-.6,3.7-2.7.4-1.7-10-5.6-13.8-7.7-.7-.4-1.2-1.3-1.7-1.3s-1,1.3-1.4,1.6c-2,1.4-5.2,1.3-7.1.9-.8-.2-1.2-1.1-1.5-1Z"/>
          <g>
            <path class="st1" d="M39.5,286.3c-.5.2-.9.6-1.3,1-.4.4-.6.9-.9,1.4"/>
            <path class="st1" d="M37.1,285c-.9,0-2.3,1.7-2.4,2.9"/>
            <path class="st1" d="M34.9,284.1c-.6.2-1.2.7-1.5,1.2-.4.6-.6,1.2-.7,1.9"/>
          </g>
          <path class="st1" d="M32.4,282.7s-1,1.3-1.4,1.6c-2,1.4-5.2,1.3-7.1.9-.8-.2-1.2-1.1-1.5-1"/>
        </g>
        <g>
          <path class="st28" d="M74.2,270.6s-1,10.1-.5,11.6c.2.5,5.8,3.4,5.8,3.4v5.8s-10.9-2.1-10.9-2.1l-3.5-1.5-.2-1.5s.7-3.1.6-4.4c-.1-1.3-.9-11.3-.9-11.3"/>
          <path class="st19" d="M65.3,285.5c-.9.2-.6,1.8-.9,4.5-.2,1.1-.1,3.6.1,4.7,1.8,1.6,6.6.6,7.4.6,4.6-.2,9.7,1.2,15.3.4,1.1-.1,3.2-.3,3.7-2.3,0-.3,0-1.6,0-1.6,0,0-10.6-4.7-13.8-6.4-.7-.4-1.2-1.3-1.7-1.3s-1,1.3-1.4,1.6c-2,1.4-5.2,1.3-7.1.9-.8-.2-1.2-1.1-1.5-1Z"/>
          <path class="st22" d="M65.3,284.2c-.9.2-.6,1.8-.9,4.5-.2,1.1-.3,3.6,0,4.7,1.8,1.6,6.8.6,7.6.6,4.6-.2,9.9.9,15.3.4,1.1,0,3.2-.6,3.7-2.7.4-1.7-10-5.6-13.8-7.7-.7-.4-1.2-1.3-1.7-1.3s-1,1.3-1.4,1.6c-2,1.4-5.2,1.3-7.1.9-.8-.2-1.2-1.1-1.5-1Z"/>
          <g>
            <path class="st1" d="M82.3,286.3c-.5.2-.9.6-1.3,1-.4.4-.6.9-.9,1.4"/>
            <path class="st1" d="M79.9,285c-.9,0-2.3,1.7-2.4,2.9"/>
            <path class="st1" d="M77.7,284.1c-.6.2-1.2.7-1.5,1.2-.4.6-.6,1.2-.7,1.9"/>
          </g>
          <path class="st1" d="M75.3,282.7s-1,1.3-1.4,1.6c-2,1.4-5.2,1.3-7.1.9-.8-.2-1.2-1.1-1.5-1"/>
        </g>
        <path class="st14" d="M74.7,280h-9.8s-11.2-44.7-9.5-64.2c0,0-2.6-10.4-5.4-22.8-.4-1.6-.7-3.2-1.1-4.9-2.5-11.2-5-23.2-5.9-30.1-.8-6.1-.4-10.4.3-13.5.4-1.8,1-3.2,1.5-4.2.2-.3.3-.6.5-.8.7-1.1,1.3-1.6,1.3-1.6h21.6s.3,1.1.8,3.2c.2.7.4,1.5.6,2.5,2.3,10.5,6.4,35.1,5.7,71.7,0,0,1.8,43.5-.5,64.8Z"/>
        <path class="st11" d="M68.1,280l-2.2.6c0-.2,0-.4,0-.6h-.9s-11.2-44.7-9.5-64.2c0,0-2.6-10.4-5.4-22.8-.8,2.9-1.7,6-2.6,8.9-.5-5.5-.9-10.2-.9-10.2l2.4-3.7,6.3-15.3s3.4,38.1,4,41.6c.6,3.5-.4,24,2.4,36.1,1.6,7.1,3.6,16.2,5,22.5.9,4.3,1.6,7.2,1.6,7.2Z"/>
        <g>
          <path class="st20" d="M80.7,167.6s1.2,2.2,1.2,3c0,.7,0,3-.3,3.6-.3.6-2,3-2.2,3.4-.2.4-.2,1.4,0,1.4.5.1,3.2-2.9,3.2-2.9l1.9-4.9s-.5-2.9-.6-3.1c0-.2-1.7-2.4-1.7-2.4"/>
          <path class="st26" d="M85,163.7c.9,3.1,1.9,7.3,1.8,8.6s-1.9,5.7-1.9,5.7c0,0-3.6,3.4-4.1,3.5-.5.1-.7-1.1-.1-2,.6-.8,2.3-2.7,2.4-3.1.1-.5.2-3.9.2-4.5,0-.6-1.6-2.8-2.5-2.7-.9.1-1.3,1.8-1.2,2.4,0,.6,0,2.2-.4,2.7-.3.5-1.1.8-1.4.4-.3-.4-.8-3.9-.9-4.6,0-.7,1.5-5.3,1.6-6.3.1-1-1.7-9.3-1.7-9.3l7.1-1.2s.2,7.2,1.2,10.3Z"/>
          <path class="st26" d="M66.9,76.6s4-5.2,5.9,1.5c1.8,6.2,6.9,28.4,9.9,41.3.4,1.9.7,3.7.8,5.6.4,6.5,1.1,22.7.5,36.1-3.3.7-5.9.4-5.9.4,0,0-5.1-27-5.8-37.5,0,0-9.5-25-10.4-38.3-.5-6.7,5-9.1,5-9.1Z"/>
        </g>
        <path class="st12" d="M55.6,65.8s-.7-6.6,0-9c.7-2.3-14.6-3-14.6-3,0,0,1,7.5,0,12,0,0-2.3,1.1-5.4,1.9,0,0,14.1,9.5,17.7,12.3,0,0,4.7-10.4,7.8-12.4,0,0-3.4-1.1-5.4-1.8Z"/>
        <path class="st14" d="M62.3,141.2v3.6c-.1,0-.1.4-.1.4l-.5,15.7c-.1,3.4-1.6,6.6-4.2,9.2l-1.2,1.2s-1,4.2-2.5,10.3c-.9,3.3-1.9,7.2-3,11.3-.8,2.9-1.7,6-2.6,8.9-.6,2.2-1.3,4.3-2,6.3-2.1,6.5-3.7,13.1-4.8,19.8-2.5,15.7-6.8,42.9-8.5,52.1h-10.2s-6.3-35.3,2.3-64.2c0,0,2.8-31.4,0-47.1-2.4-12.7.2-21.7,2.4-26.6.4-1,.9-1.8,1.3-2.5.7-1.2,1.2-1.9,1.2-1.9l16.1,1.6,8.5.8,2.9.4,4.5.6h.4Z"/>
        <path class="st30" d="M26.6,142.1s28.4,5.5,42.9,1.4c0,0,.2-.8,0-1.5-.2-1.4-.8-1.9-.8-1.9l-41-.5s-1.1.6-1.1,2.5Z"/>
        <polygon class="st24" points="33.2 140.1 32.5 143.5 34.3 143.7 35 140.3 33.2 140.1"/>
        <polygon class="st14" points="47.2 141.5 46.9 145 48.7 145 49 141.5 47.2 141.5"/>
        <polygon class="st14" points="66.2 140.9 66.5 144.4 68.2 144.1 68 140.7 66.2 140.9"/>
        <path class="st21" d="M55.4,141.4l.4,4c0,.4.4.6.8.6,1.2,0,3.7-.1,5.6-.5.4,0,.6-.4.6-.7,0-1-.3-2.9-.5-4-.3-1.5-6.9.6-6.9.6Z"/>
        <rect class="st29" x="20.9" y="277.1" width="12.4" height="3.4" rx=".9" ry=".9" transform="translate(54.2 557.6) rotate(180)"/>
        <rect class="st29" x="63.5" y="277.1" width="12.4" height="3.4" rx=".9" ry=".9" transform="translate(139.4 557.6) rotate(180)"/>
        <path class="st8" d="M41.3,58s3.6,3.3,7.9,4.4c2.9.8,6-1.2,6.2-4.2,0-.1-.2-.2-.2-.2h-14Z"/>
        <g>
          <path class="st26" d="M32.7,37.8c-.9-.5-2.2-.8-3.1-.3-1.9,1-1.9,3.9-1.3,5.7.5,1.5,4,5,5.3,2.5"/>
          <path class="st15" d="M33.6,45.7c-1.3,2.4-4.8-1-5.3-2.5-.5-1.7-.6-4.4,1-5.5,0,0,.2-.1.3-.2,1-.5,2.2-.2,3.1.3h0c0,0,.8,8,.8,8Z"/>
        </g>
        <g>
          <path class="st26" d="M68.1,43.2c-.5,1.5-4,5-5.3,2.5l.8-8s0,0,0,0c.8-.4,1.8-.7,2.7-.4.1,0,.3,0,.4.2,1.9,1,1.9,3.9,1.3,5.7Z"/>
          <path class="st5" d="M68.1,43.2c-.5,1.5-4,5-5.3,2.5l.8-8s0,0,0,0c.8-.4,1.8-.7,2.7-.4.1,0,.3,0,.4.2,1.9,1,1.9,3.9,1.3,5.7Z"/>
        </g>
        <path class="st26" d="M31.9,31.9s1,13.2,1.7,16.1c1.2,4.8,4.9,10.9,14.4,11.9,3.8.4,7.6-.2,10.9-2.2,5.9-3.4,5.3-7.6,5.7-13,1.1-14.1.3-15.7.3-15.7l-2.7-8.3-2.7-3.9-9.9-1h-8.6c0,.1-5.7.7-5.7.7l-1.1,3.5-2.2,11.9Z"/>
        <path class="st25" d="M66.8,37.5c-.9-.2-.8-.1-1.6.3v-7.8c-1.6-4.9-4.9-8-4.9-8,.9-.8,1.6-.8,2.2-1.9.9-1.5,1.2-3.4,1.3-5.2,1.6,1.4,2.7,3.2,3.2,4.5.4.9.6,1.8.6,2.8.1,3.7-.1,12.6-.8,15.3Z"/>
        <path class="st25" d="M64,15.2c-.1,1.7-.7,3.4-1.6,5-.6,1.1-2.6,2.5-2.9,2.5-.6,0-1.9-.3-3.6-.5-.3,0-.5,0-.8-.1-2.6-.4-6.2-.8-10.3-1.4-.5.6-1,.1-1.4.6h1.2c-.6-1.2-1.6-.1-1.7,0-1,3.5-4.9,6-8.3,7.4-.2,2.3-2.1,7.9-2.2,9h0c-.9-.5-2.2-.8-3.1-.4,0,0-.2.1-.3.2-.3-1.9-1.8-13.3-1.6-13.9.2-.7,1.1-2.8,3.4-5.6-1.3.6-1.6.3-1.6.3,0,0,.7-.3,2.9-3,2.3-2.7,5.6-5,10.1-5.7,1.2-.2,2.7-.1,4.4.1,4.9.7,11.3,2.5,13.9,3.3,1.2.3,2.4,1.1,3.5,2.1,0,0,0,0,0,0Z"/>
        <path class="st25" d="M32.5,37.7c0,0-.1.2-.1.2-1.5-1.1-3.3,0-3.3,0,0,0,0-.1,0-.3,0,0,.2-.1.3-.2,1-.5,2.2-.2,3.1.3h0Z"/>
        <path class="st25" d="M43.1,17c-1.5,4.6,2.4,8.6,6.9,8.7,2.9,0,6-.9,8.5-2.5,5.1-3.3,6.3-10.8,3-15.8-.5-.7-1.1-1.4-1.7-2,0,1.3.2,2.2-.5,3.4,0-1-.7-3.7-1.8-4.7-.7,2-2.9,5-6.8,6.3.6-.8.4-2.4,0-3.4-.1.9-4.6,3.8-5.8,4.4,0,0-1.8,5.6-1.8,5.6Z"/>
        <path class="st27" d="M63.2,11.6c.4,1.7.3,3.5,0,5.2-.3,1.2-.7,2.3-1.4,3.4h0c-.3.5-.6.9-1,1.3-1.2,1.3-2.7,2.3-4.4,3-.8.3-1.7.6-2.5.8-.4,0-.9.1-1.3.2-.4,0-.9,0-1.3.1.4-.1.8-.2,1.3-.3.4-.1.8-.2,1.2-.4.8-.3,1.6-.5,2.4-.9,1.5-.7,3-1.7,4.1-3,.3-.3.6-.7.8-1.1.7-1,1.2-2.2,1.6-3.3.2-.8.4-1.7.5-2.5,0-.5,0-1,0-1.5,0-.4,0-.7,0-1.1Z"/>
        <path class="st27" d="M59,15.2c0,1.3-.3,2.5-.8,3.7-.4,1.2-1.1,2.3-1.9,3.4-.8,1-1.8,1.9-3,2.4-1.1.6-2.4.8-3.7,1,.3,0,.6-.2.9-.3.3,0,.6-.2.9-.3l.9-.4.8-.5c1-.7,2-1.4,2.7-2.4.8-1,1.4-2,1.9-3.1.5-1.1.9-2.3,1.2-3.5Z"/>
        <path class="st27" d="M43.7,17.2c-.4,1.2-.5,2.4-.3,3.5.1.6.3,1.1.6,1.6.1.3.3.5.4.8.2.3.4.5.5.8-.3-.2-.5-.4-.8-.6-.2-.2-.5-.4-.6-.7-.4-.5-.6-1.1-.8-1.8-.1-.6-.1-1.3,0-1.9.2-.6.4-1.2.9-1.7Z"/>
        <path class="st4" d="M53.9,37.8h-1.3c.2,3,.7,5.7.3,7-.1.5-1.9.8-1.7,1,.8.5,1.5.5,2,.5s1.5,0,2-1c.5-.9-1.3-2.2-1.3-7.5Z"/>
        <path class="st25" d="M35.1,24.7c-.6,7.3-2.6,13-2.6,13l-2-5,.8-9.2s3.9.1,3.8,1.1Z"/>
        <path class="st26" d="M27.8,111.2c0,0,0-.1,0-.2-5.7.2-9.8-1-12.4-2.1,2-12.2,4.2-26.1,5.3-30.8,1.4-6.8,5.8-1.9,5.8-1.9,0,0,5.7,2.1,5.7,8.8,0,7.2-2.2,17.8-4.3,26.2Z"/>
        <g class="st9">
          <path d="M35,93.1c0,5.7-.3,11.3-.9,17-2.6.6-5.3,1-7.9,1-.9,0-1.7,0-2.6-.1,1.7,0,3.4-.2,5.1-.5,1.7-.3,3.3-.6,4.9-1.1l-.3.4c.3-5.6.7-11.1,1.6-16.6h0Z"/>
        </g>
        <path class="st9" d="M80.3,106c-2.7,3.1-4.5,3.9-11.3,4.8l-1.4-14.1s1.3,10,4.3,11.2c2.9,1.2,8.1-1.7,8.3-1.9Z"/>
        <path class="st9" d="M64.3,141.6s0,0,0,0c-.3,0-.7.1-1.1.2-.6,0-1.3.1-1.7.2-3.8.5-7.6.5-11.2.4-1.1,0-2.2-.1-3.2-.2,0,0,0,0-.1,0-1,0-2-.2-3-.3-.3,0-.7,0-1-.1-1.8-.2-3.5-.5-5-.7-.4,0-.7-.1-1.1-.2-.7-.1-1.4-.2-2-.3-.4,0-.7-.1-1.1-.2,0,0,0,0,0,0-.4,0-.7-.1-1-.2-.5,0-.9-.1-1.3-.2-.3,0-.6,0-.9-.2-.2,0-.3,0-.4,0-5.7-1.3-4.7-5.1-4.6-7.8.1-3.4.4-16.5.7-21,0,0,0,0,0,0-.3,0-.6,0-.9,0,.4,0,8.1-1,8.6-1.3,0,0-3.8,20.2-3.8,23.8s13.5,9.5,34.4,8Z"/>
        <g class="st10">
          <path class="st14" d="M65.2,144.4c1.7,2.6,2.9,6,5.9,7.5-.8,0-1.6-.6-2.2-1.2-1.8-1.7-2.9-4-3.7-6.3h0Z"/>
        </g>
        <g class="st10">
          <path class="st14" d="M55.1,172.7c.8-2.4,2.1-4.7,2.6-7.2.5-2.2,1-5.3,1.4-7.5-.1,3.2-.5,6.4-1.5,9.5-.7,1.8-1.6,3.5-2.5,5.2h0Z"/>
        </g>
        <g>
          <path class="st20" d="M16.2,169.1s-1,2.3-1,3c0,.7.2,3,.5,3.6.3.6,2.2,2.8,2.4,3.2.2.4.3,1.4,0,1.4-.5.1-3.4-2.7-3.4-2.7l-2.2-4.8s.3-2.9.4-3.1c0-.2,1.6-2.5,1.6-2.5"/>
          <path class="st26" d="M11.8,165.5c-.7,3.1-1.5,7.4-1.3,8.7s2.3,5.6,2.3,5.6c0,0,3.8,3.2,4.3,3.2.5,0,.7-1.2,0-2-.6-.8-2.4-2.5-2.6-3-.2-.5-.5-3.8-.5-4.4,0-.6,1.5-2.9,2.4-2.8.9,0,1.4,1.7,1.4,2.3,0,.6.2,2.1.5,2.7.3.5,1.1.7,1.5.3.3-.4.6-4,.6-4.7,0-.7-1.8-5.2-2-6.2-.2-1,1.1-9.4,1.1-9.4l-7.1-.8s.2,7.2-.5,10.4Z"/>
          <path class="st26" d="M24.4,77.4s-4.3-5-5.8,1.8c-1.4,6.3-5.1,28.8-7.3,41.9-.3,1.9-.5,3.8-.5,5.7,0,6.5.3,22.7,1.8,36.1,3.3.5,5.9,0,5.9,0,0,0,3.4-27.3,3.5-37.8,0,0,7.9-25.5,8-38.9,0-6.7-5.6-8.8-5.6-8.8Z"/>
        </g>
        <path class="st22" d="M80.5,105.8c0,0-2.8-26.6-11-34.8-.7-.7-1.7-1.2-2.6-1.6-.9-.5-1.9-.9-2.8-1.2-3.3-1.2-6.3-1.7-6.3-1.7-.5,2.5-2.5,5.4-6.3,5.4-8.1,0-12.6-5.3-12.6-5.3,0,0-17.1,1-20.7,14.5-3.8,14.2-6.4,25.7-6.4,25.7,0,0,1.1,1,3.5,2.1,2.2,1,5.4,1.9,9.8,2.1h0c.3,0,.6,0,.9,0,0,0,0,0,0,0-.3,4.5-.6,17.6-.7,21,0,2.7-1.1,6.5,4.6,7.8.1,0,.3,0,.4,0,.3,0,.6.1.9.2.4,0,.9.1,1.3.2.3,0,.7.1,1,.2,0,0,0,0,0,0,.3,0,.7.1,1.1.2.6.1,1.3.2,2,.3s.7.1,1.1.2c1.6.2,3.2.5,5,.7.3,0,.7,0,1,.1,1,.1,2,.2,3,.3,0,0,0,0,.1,0,1.1,0,2.1.2,3.2.2,3.6.2,7.4,0,11.2-.4.6,0,1.1-.2,1.7-.2.4,0,.7-.1,1.1-.2,0,0,0,0,0,0,.8-.1,1.6-.3,2.4-.5,1.1-.3,4.1-1.8,3.9-4.6-.1-1.6-.2-3.1-.3-4.6-.7-11.1-1-18.6-1.2-21.2,6.8-.9,8.8-2,11.5-5ZM27.1,111c.2,0,.4,0,.7,0,0,0-.3,0-.7,0Z"/>
        <path class="st23" d="M49,33.1s.1-2.1-1-2.2-7.7-1.3-7.8,4.1c1.4-1.3,3.4-2.6,8.8-1.8Z"/>
        <path class="st23" d="M55.6,33.3s-.2-2.1.8-2.3c1.1-.2,7.6-1.8,8,3.6-1.4-1.2-3.6-2.4-8.9-1.3Z"/>
        <g>
          <path class="st13" d="M59.1,49.8c-.2-.2-2.9-.3-6.4-.3-3.5,0-6.2.2-6.4.5-.2.2,1.4,5.6,6.5,5.5,5.1,0,6.5-5.6,6.3-5.7Z"/>
          <g class="st31">
            <g>
              <path class="st3" d="M58.3,53.5c-1.4,2.2-3.4,4.3-5.6,4.2-2.5,0-4.3-2-5.4-3.8,1.9-1.7,6.9-3.7,11.1-.4Z"/>
              <path class="st18" d="M57.5,48.4c0,1.5-.4,1.5-.4,1.5-1.4.7-6.8,1.5-8.9.1-.2-.1-.3-.9-.3-1.3.1,0,.2-.1.3-.1,3.4-.3,7.7-.6,9.3-.2Z"/>
            </g>
          </g>
        </g>
        <g>
          <path class="st18" d="M48.3,38.9c-1-2.3-4.6-4.3-6.8-.7-.2.3-.2.6,0,.9.6,1,2.4,2.9,6.3,1,.5-.2.7-.8.5-1.2Z"/>
          <g>
            <path class="st17" d="M46.7,38.3c.3,1.4-.9,2.6-2.3,2.3-.8-.1-1.4-.8-1.6-1.6-.3-1.4.9-2.6,2.3-2.3.8.1,1.4.8,1.6,1.6Z"/>
            <path class="st2" d="M45.8,38.5c.1.7-.5,1.4-1.3,1.3-.5,0-.8-.4-.9-.9-.1-.7.5-1.4,1.3-1.3.5,0,.8.4.9.9Z"/>
            <path class="st18" d="M43.7,37.6c0,.3.2.6.6.6.2,0,.3-.2.3-.3,0-.3-.2-.6-.6-.6-.2,0-.3.2-.3.3Z"/>
          </g>
          <path class="st6" d="M41.5,39c.6,1.1,1.6,1.8,2.7,1.9,1.1.2,2.3-.1,3.5-.4-1,.7-2.3,1.2-3.6,1-.7,0-1.3-.4-1.8-.8-.5-.4-.8-1.1-.9-1.7Z"/>
          <path class="st23" d="M48.2,39.8c.3-.9-.6-1.6-1.1-2.2-1.6-1.7-4.7-1.4-5.7.8,0,.2,0,.4,0,.6-.2-.4,0-.9.1-1.3,1-2.3,4.5-2.3,5.9-.4.5.7,1.2,1.6.7,2.5h0Z"/>
        </g>
        <g>
          <path class="st18" d="M57.4,38.9c1-2.3,4.4-4.3,6.5-.7.2.3.2.6,0,.9-.6,1-2.3,2.9-6,1-.4-.2-.7-.8-.5-1.2Z"/>
          <path class="st7" d="M63.9,39c0,.6-.3,1.2-.8,1.6-.4.5-1.1.8-1.7.9-1.3.2-2.5-.3-3.5-1,.6.1,1.1.3,1.7.4.6,0,1.1.1,1.7,0,.5,0,1-.3,1.5-.6.4-.3.8-.8,1.1-1.3Z"/>
          <path class="st23" d="M57.5,39.8c-.5-.8.2-1.7.7-2.4,1.3-2,4.7-1.9,5.7.4.2.4.3.9.1,1.3.1-.4,0-.8-.3-1.1-1.2-1.8-3.8-1.7-5.1-.2-.5.6-1.3,1.3-1,2.1h0Z"/>
          <g>
            <path class="st17" d="M59,38.3c-.3,1.4.9,2.6,2.3,2.3.8-.1,1.4-.8,1.5-1.5.3-1.4-.9-2.6-2.3-2.3-.8.1-1.4.8-1.5,1.5Z"/>
            <path class="st2" d="M59.8,38.5c-.1.7.5,1.3,1.2,1.2.5,0,.8-.4.9-.9.1-.7-.5-1.3-1.2-1.2-.5,0-.8.4-.9.9Z"/>
            <path class="st18" d="M62,37.6c0,.3-.2.6-.5.5-.2,0-.3-.2-.3-.3,0-.3.2-.6.5-.5.2,0,.3.2.3.3Z"/>
          </g>
        </g>
      </g>
    </g>
  </g>
</svg>