<?xml version="1.0" encoding="UTF-8"?>
<svg xmlns="http://www.w3.org/2000/svg" xmlns:xlink="http://www.w3.org/1999/xlink" viewBox="0 0 100 300">
  <defs>
    <style>
      .cls-1, .cls-2 {
        fill: none;
      }

      .cls-3 {
        fill: #111;
      }

      .cls-4 {
        fill: #d14a4a;
      }

      .cls-5 {
        opacity: .3;
      }

      .cls-5, .cls-6, .cls-7, .cls-8 {
        mix-blend-mode: multiply;
      }

      .cls-5, .cls-9 {
        fill: #ffb495;
      }

      .cls-2 {
        stroke: #bac2ce;
        stroke-linecap: round;
        stroke-linejoin: round;
        stroke-width: 1.32px;
      }

      .cls-6, .cls-8 {
        opacity: .5;
      }

      .cls-10 {
        fill: url(#linear-gradient-5);
      }

      .cls-11 {
        fill: url(#linear-gradient-4);
      }

      .cls-12 {
        fill: url(#linear-gradient-3);
      }

      .cls-13 {
        fill: url(#linear-gradient-2);
      }

      .cls-14, .cls-8 {
        fill: #efc99a;
      }

      .cls-15 {
        fill: url(#linear-gradient);
      }

      .cls-16 {
        isolation: isolate;
      }

      .cls-17 {
        fill: #47686b;
      }

      .cls-18 {
        fill: #fff;
      }

      .cls-19 {
        fill: #bac2ce;
      }

      .cls-20 {
        fill: #fc9e81;
      }

      .cls-21 {
        fill: #5b2b0a;
      }

      .cls-22 {
        fill: #10171c;
      }

      .cls-23 {
        fill: #3f0f1b;
      }

      .cls-24 {
        fill: #183145;
      }

      .cls-25 {
        fill: #826e51;
      }

      .cls-26 {
        fill: #f5c4b3;
      }

      .cls-27 {
        fill: #594934;
      }

      .cls-28 {
        fill: #fcc5a7;
      }

      .cls-29 {
        fill: #fcd2a4;
      }

      .cls-30 {
        fill: #7a3d14;
      }

      .cls-31 {
        clip-path: url(#clippath);
      }
    </style>
    <linearGradient id="linear-gradient" x1="27.3" y1="41.92" x2="32.91" y2="41.92" gradientUnits="userSpaceOnUse">
      <stop offset="0" stop-color="#ffaa8b" stop-opacity="0"/>
      <stop offset="1" stop-color="#ffaa8b"/>
    </linearGradient>
    <linearGradient id="linear-gradient-2" x1="62.22" y1="41.95" x2="67.82" y2="41.95" gradientUnits="userSpaceOnUse">
      <stop offset="0" stop-color="#ffaa8b"/>
      <stop offset="1" stop-color="#ffaa8b" stop-opacity="0"/>
    </linearGradient>
    <linearGradient id="linear-gradient-3" x1="52.63" y1="46.33" x2="52.63" y2="37.55" gradientUnits="userSpaceOnUse">
      <stop offset="0" stop-color="#ffaa8b" stop-opacity=".7"/>
      <stop offset=".1" stop-color="#ffaa8b" stop-opacity=".58"/>
      <stop offset=".29" stop-color="#ffaa8b" stop-opacity=".38"/>
      <stop offset=".47" stop-color="#ffaa8b" stop-opacity=".21"/>
      <stop offset=".63" stop-color="#ffaa8b" stop-opacity=".1"/>
      <stop offset=".77" stop-color="#ffaa8b" stop-opacity=".03"/>
      <stop offset=".87" stop-color="#ffaa8b" stop-opacity="0"/>
    </linearGradient>
    <clipPath id="clippath">
      <path class="cls-1" d="M55.94,49.75c-.16-.17-2.12-.24-4.64-.21-2.52.04-4.47.17-4.63.35-.17.12.53,2.8,4.23,2.74,3.7-.06,5.21-2.77,5.03-2.89Z"/>
    </clipPath>
    <linearGradient id="linear-gradient-4" x1="40.52" y1="40.26" x2="47.17" y2="40.26" xlink:href="#linear-gradient-3"/>
    <linearGradient id="linear-gradient-5" x1="63.58" y1="40.26" x2="57.22" y2="40.26" xlink:href="#linear-gradient-3"/>
  </defs>
  <g class="cls-16">
    <g id="Layer_1" data-name="Layer 1">
      <g>
        <path class="cls-28" d="M30.7,270.63s-1,10.11-.46,11.57c.19.5,5.8,3.38,5.8,3.38l.04,5.81-10.98-2.06-3.46-1.48-.22-1.55s.74-3.06.61-4.37c-.13-1.31-.86-11.32-.86-11.32"/>
        <path class="cls-19" d="M21.85,285.48c-.93.16-.56,1.82-.95,4.49-.16,1.11-.11,3.59.14,4.69,1.8,1.61,6.59.64,7.36.61,4.6-.16,9.74,1.16,15.26.41,1.08-.15,3.19-.27,3.69-2.3.06-.26,0-1.65,0-1.65,0,0-10.61-4.65-13.85-6.44-.65-.36-1.23-1.26-1.71-1.26s-.96,1.32-1.37,1.6c-2.01,1.4-5.17,1.31-7.09.89-.83-.19-1.2-1.09-1.48-1.04Z"/>
        <path class="cls-22" d="M21.85,284.18c-.93.16-.56,1.82-.95,4.49-.16,1.11-.31,3.59-.07,4.69,1.8,1.61,6.8.64,7.56.61,4.6-.16,9.87.88,15.26.41,1.13-.1,3.19-.62,3.69-2.66.42-1.74-10.04-5.63-13.85-7.74-.65-.36-1.23-1.26-1.71-1.26s-.96,1.32-1.37,1.6c-2.01,1.4-5.17,1.31-7.09.89-.83-.19-1.2-1.09-1.48-1.04Z"/>
        <g>
          <path class="cls-2" d="M38.82,286.29c-.51.2-.95.56-1.3.99-.35.42-.63.9-.9,1.38"/>
          <path class="cls-2" d="M36.43,285.03c-.94.06-2.28,1.65-2.39,2.9"/>
          <path class="cls-2" d="M34.27,284.1c-.64.22-1.17.68-1.54,1.24-.37.56-.58,1.21-.71,1.87"/>
        </g>
        <path class="cls-2" d="M31.79,282.74s-.96,1.32-1.37,1.6c-2.01,1.4-5.17,1.31-7.09.89-.83-.19-1.2-1.09-1.48-1.04"/>
      </g>
      <g>
        <path class="cls-28" d="M73.52,270.63s-1,10.11-.46,11.57c.19.5,5.8,3.38,5.8,3.38l.04,5.81-10.98-2.06-3.46-1.48-.22-1.55s.74-3.06.61-4.37c-.13-1.31-.86-11.32-.86-11.32"/>
        <path class="cls-19" d="M64.67,285.48c-.93.16-.56,1.82-.95,4.49-.16,1.11-.11,3.59.14,4.69,1.8,1.61,6.59.64,7.36.61,4.6-.16,9.74,1.16,15.26.41,1.08-.15,3.19-.27,3.69-2.3.06-.26,0-1.65,0-1.65,0,0-10.61-4.65-13.85-6.44-.65-.36-1.23-1.26-1.71-1.26s-.96,1.32-1.37,1.6c-2.01,1.4-5.17,1.31-7.09.89-.83-.19-1.2-1.09-1.48-1.04Z"/>
        <path class="cls-22" d="M64.67,284.18c-.93.16-.56,1.82-.95,4.49-.16,1.11-.31,3.59-.07,4.69,1.8,1.61,6.8.64,7.56.61,4.6-.16,9.87.88,15.26.41,1.13-.1,3.19-.62,3.69-2.66.42-1.74-10.04-5.63-13.85-7.74-.65-.36-1.23-1.26-1.71-1.26s-.96,1.32-1.37,1.6c-2.01,1.4-5.17,1.31-7.09.89-.83-.19-1.2-1.09-1.48-1.04Z"/>
        <g>
          <path class="cls-2" d="M81.64,286.29c-.51.2-.95.56-1.3.99-.35.42-.63.9-.9,1.38"/>
          <path class="cls-2" d="M79.25,285.03c-.94.06-2.28,1.65-2.39,2.9"/>
          <path class="cls-2" d="M77.1,284.1c-.64.22-1.17.68-1.54,1.24-.37.56-.58,1.21-.71,1.87"/>
        </g>
        <path class="cls-2" d="M74.61,282.74s-.96,1.32-1.37,1.6c-2.01,1.4-5.17,1.31-7.09.89-.83-.19-1.2-1.09-1.48-1.04"/>
      </g>
      <path class="cls-14" d="M74.01,279.96h-9.81s-11.24-44.71-9.49-64.24c0,0-2.58-10.43-5.43-22.84-.36-1.6-.74-3.25-1.11-4.9-2.52-11.24-5.02-23.17-5.91-30.1-.79-6.05-.45-10.42.26-13.5.42-1.82.98-3.2,1.5-4.2.17-.3.32-.58.48-.83.72-1.14,1.3-1.58,1.3-1.58h21.64s.31,1.08.82,3.21c.17.71.36,1.55.57,2.51,2.27,10.49,6.44,35.13,5.67,71.72,0,0,1.76,43.52-.47,64.77Z"/>
      <path class="cls-8" d="M67.43,279.96l-2.23.62c-.02-.2-.05-.4-.07-.62h-.93s-11.24-44.71-9.49-64.24c0,0-2.58-10.43-5.43-22.84-.81,2.94-1.67,5.97-2.55,8.92-.49-5.49-.91-10.16-.91-10.16l2.35-3.65,6.32-15.32s3.42,38.13,3.99,41.6c.57,3.48-.37,24.05,2.39,36.06,1.64,7.13,3.63,16.23,4.99,22.45.94,4.27,1.57,7.19,1.57,7.19Z"/>
      <g>
        <path class="cls-20" d="M80.08,167.56s1.16,2.23,1.21,2.97c.05.74.02,2.98-.26,3.59-.27.61-2.01,2.97-2.17,3.39-.16.42-.23,1.37.1,1.44.49.11,3.19-2.9,3.19-2.9l1.9-4.89s-.5-2.91-.58-3.09c-.09-.18-1.73-2.41-1.73-2.41"/>
        <path class="cls-26" d="M84.31,163.68c.93,3.09,1.94,7.33,1.81,8.63s-1.9,5.72-1.9,5.72c0,0-3.57,3.4-4.06,3.51-.49.11-.72-1.13-.13-1.96.59-.83,2.26-2.66,2.4-3.14.15-.48.24-3.85.18-4.46-.06-.61-1.64-2.79-2.53-2.66-.89.13-1.28,1.77-1.23,2.41.04.64-.07,2.16-.35,2.68-.29.52-1.09.79-1.44.42-.35-.37-.84-3.92-.89-4.64-.05-.71,1.48-5.31,1.59-6.32.11-1.01-1.68-9.27-1.68-9.27l7.08-1.24s.24,7.23,1.17,10.32Z"/>
        <path class="cls-26" d="M66.26,76.57s4.02-5.21,5.93,1.47c1.78,6.22,6.89,28.44,9.89,41.33.43,1.86.7,3.74.81,5.64.36,6.51,1.1,22.68.46,36.14-3.3.68-5.93.41-5.93.41,0,0-5.09-27-5.81-37.52,0,0-9.48-24.99-10.4-38.32-.46-6.67,5.05-9.15,5.05-9.15Z"/>
      </g>
      <path class="cls-9" d="M54.96,65.81s-.7-6.64-.02-8.97c.68-2.32-14.61-3.04-14.61-3.04,0,0,1,7.52,0,12.01,0,0-2.31,1.11-5.43,1.89,0,0,14.09,9.49,17.72,12.28,0,0,4.66-10.38,7.78-12.42,0,0-3.37-1.14-5.44-1.75Z"/>
      <path class="cls-14" d="M61.61,141.21l-.12,3.6v.38s-.53,15.71-.53,15.71c-.1,3.38-1.58,6.62-4.16,9.18l-1.24,1.23s-1,4.22-2.53,10.3c-.85,3.33-1.87,7.22-3,11.27-.81,2.94-1.67,5.97-2.55,8.92-.65,2.15-1.3,4.28-1.96,6.3-2.12,6.48-3.71,13.09-4.77,19.76-2.49,15.68-6.83,42.89-8.54,52.11h-10.17s-6.33-35.28,2.3-64.17c0,0,2.85-31.41-.06-47.14-2.35-12.73.2-21.69,2.41-26.57.45-.99.87-1.8,1.25-2.46.71-1.23,1.21-1.86,1.21-1.86l16.09,1.58,8.46.84,2.94.38,4.55.59.42.06Z"/>
      <path class="cls-30" d="M25.94,142.08s28.4,5.54,42.88,1.39c0,0,.17-.82.07-1.46-.22-1.41-.85-1.89-.85-1.89l-41.04-.5s-1.09.56-1.07,2.46Z"/>
      <polygon class="cls-24" points="32.59 140.1 31.9 143.51 33.62 143.73 34.35 140.3 32.59 140.1"/>
      <polygon class="cls-14" points="46.55 141.49 46.26 144.95 48.01 145.01 48.32 141.54 46.55 141.49"/>
      <polygon class="cls-14" points="65.56 140.92 65.85 144.37 67.58 144.15 67.32 140.67 65.56 140.92"/>
      <path class="cls-21" d="M54.78,141.41l.43,3.96c.04.35.39.62.8.61,1.2-.02,3.65-.11,5.56-.45.38-.07.64-.38.6-.71-.09-.96-.3-2.91-.5-4.01-.28-1.5-6.9.6-6.9.6Z"/>
      <rect class="cls-29" x="20.23" y="277.07" width="12.41" height="3.42" rx=".86" ry=".86" transform="translate(52.86 557.55) rotate(180)"/>
      <rect class="cls-29" x="62.82" y="277.07" width="12.41" height="3.42" rx=".86" ry=".86" transform="translate(138.05 557.55) rotate(180)"/>
      <path class="cls-5" d="M40.69,57.97s3.6,3.26,7.88,4.4c2.89.77,6-1.19,6.24-4.17.01-.15-.15-.23-.15-.23h-13.97Z"/>
      <g>
        <path class="cls-26" d="M32.08,37.79c-.92-.46-2.16-.77-3.13-.28-1.94.98-1.86,3.94-1.3,5.7.48,1.5,3.97,4.95,5.26,2.54"/>
        <path class="cls-15" d="M32.91,45.75c-1.29,2.41-4.78-1.04-5.26-2.54-.54-1.67-.64-4.43,1.02-5.53.09-.06.18-.12.28-.16.97-.49,2.2-.18,3.13.28v.08s.84,7.87.84,7.87Z"/>
      </g>
      <g>
        <path class="cls-26" d="M67.47,43.23c-.48,1.5-3.97,4.95-5.26,2.54l.84-7.95s.01,0,.02,0c.8-.4,1.83-.68,2.72-.43.13.04.27.09.39.15,1.94.97,1.86,3.94,1.3,5.7Z"/>
        <path class="cls-13" d="M67.47,43.23c-.48,1.5-3.97,4.95-5.26,2.54l.84-7.95s.01,0,.02,0c.8-.4,1.83-.68,2.72-.43.13.04.27.09.39.15,1.94.97,1.86,3.94,1.3,5.7Z"/>
      </g>
      <path class="cls-26" d="M31.21,31.89s1,13.19,1.7,16.07c1.16,4.77,4.95,10.89,14.37,11.85,3.79.38,7.65-.25,10.94-2.17,5.87-3.42,5.27-7.6,5.71-12.97,1.14-14.05.33-15.73.33-15.73l-2.74-8.31-2.74-3.85-9.93-1.01-8.62.1-5.68.61-1.11,3.55-2.23,11.86Z"/>
      <path class="cls-25" d="M66.18,37.54c-.88-.25-.8-.1-1.59.29l-.03-7.83c-1.6-4.87-4.89-7.97-4.89-7.97.92-.8,1.57-.84,2.17-1.9.87-1.54,1.21-3.44,1.34-5.17,1.56,1.43,2.67,3.19,3.22,4.48.39.89.59,1.84.63,2.81.12,3.7-.12,12.63-.84,15.28Z"/>
      <path class="cls-25" d="M63.39,15.17c-.13,1.73-.69,3.44-1.56,4.97-.6,1.06-2.63,2.52-2.88,2.49-.61-.09-1.86-.26-3.63-.51-.25-.03-.51-.07-.78-.11-2.61-.36-6.15-.83-10.34-1.36-.52.57-.96.1-1.44.55l1.17.14c-.55-1.37-1.6-.28-1.66-.07-1,3.51-4.87,6.05-8.3,7.44-.24,2.31-2.08,7.94-2.16,9v-.08c-.93-.46-2.17-.77-3.14-.28-.1.05-.19.1-.28.16-.28-1.91-1.79-13.29-1.65-13.95.15-.73,1.12-2.76,3.38-5.62-1.33.61-1.64.29-1.64.29,0,0,.68-.33,2.93-3.03,2.25-2.7,5.59-4.99,10.08-5.68,1.16-.18,2.72-.11,4.44.12,4.94.65,11.27,2.55,13.9,3.31,1.19.34,2.36,1.13,3.45,2.12.03.03.06.05.1.09Z"/>
      <path class="cls-25" d="M31.81,37.72c0,.07-.1.18-.1.18-1.47-1.12-3.27-.08-3.27-.08,0,0-.02-.11-.05-.3.09-.06.18-.12.28-.16.97-.49,2.2-.18,3.13.28v.08Z"/>
      <path class="cls-25" d="M42.4,17.01c-1.51,4.6,2.38,8.64,6.9,8.68,2.95.03,6.02-.92,8.48-2.53,5.13-3.34,6.29-10.77,2.99-15.82-.48-.73-1.1-1.37-1.75-1.96.08,1.32.18,2.16-.46,3.43.03-.96-.67-3.72-1.77-4.72-.66,2-2.94,5-6.83,6.3.63-.76.39-2.42.06-3.36-.1.93-4.57,3.76-5.78,4.36,0,0-1.85,5.61-1.85,5.62Z"/>
      <path class="cls-27" d="M62.55,11.62c.38,1.7.33,3.49-.06,5.21-.27,1.18-.73,2.33-1.39,3.37h0c-.3.47-.63.92-1.01,1.34-1.19,1.33-2.71,2.34-4.35,2.98-.82.34-1.66.57-2.51.77-.43.08-.86.14-1.29.22-.43.05-.86.09-1.29.12.42-.1.84-.2,1.26-.29.42-.12.83-.23,1.24-.36.82-.26,1.63-.54,2.4-.91,1.54-.72,2.96-1.69,4.07-2.96.31-.33.58-.69.84-1.06.7-1.01,1.21-2.15,1.56-3.34.25-.81.4-1.65.48-2.51.06-.48.09-.97.09-1.45,0-.37-.01-.75-.04-1.13Z"/>
      <path class="cls-27" d="M58.37,15.24c-.06,1.27-.34,2.53-.78,3.73-.44,1.2-1.07,2.34-1.87,3.36-.79,1.03-1.84,1.85-2.98,2.45-1.13.65-2.44.85-3.69.95.3-.1.61-.19.91-.27.3-.08.6-.16.88-.31l.86-.36.8-.46c1.03-.65,1.99-1.44,2.73-2.42.77-.95,1.39-2.02,1.91-3.15.51-1.13.94-2.31,1.25-3.54Z"/>
      <path class="cls-27" d="M43.05,17.19c-.36,1.19-.51,2.37-.27,3.5.12.56.29,1.12.57,1.64.11.27.3.51.44.78.16.26.35.5.51.77-.26-.17-.52-.36-.75-.57-.21-.23-.46-.44-.63-.72-.4-.51-.63-1.14-.77-1.77-.13-.64-.11-1.31.05-1.94.15-.62.43-1.22.85-1.69Z"/>
      <path class="cls-12" d="M53.28,37.82h-1.29c.15,2.96.66,5.74.31,7.02-.15.54-1.94.79-1.68.95.8.53,1.51.53,2.01.53s1.51-.04,1.96-.97c.45-.93-1.3-2.16-1.3-7.54Z"/>
      <path class="cls-25" d="M34.45,24.71c-.6,7.3-2.64,13.01-2.64,13.01l-1.98-4.97.8-9.18s3.89.15,3.81,1.14Z"/>
      <path class="cls-26" d="M27.11,111.18c0-.06,0-.11,0-.17-5.72.19-9.83-.98-12.44-2.14,1.96-12.17,4.24-26.06,5.26-30.81,1.44-6.79,5.81-1.88,5.81-1.88,0,0,5.66,2.1,5.67,8.79,0,7.16-2.23,17.85-4.3,26.21Z"/>
      <g class="cls-6">
        <path d="M34.35,93.08c.09,5.67-.29,11.33-.86,16.96-2.61.62-5.25,1.01-7.93,1.01-.86,0-1.72-.04-2.57-.14,1.71-.03,3.4-.19,5.08-.48,1.67-.26,3.34-.63,4.95-1.1l-.29.35c.27-5.56.71-11.11,1.62-16.61h0Z"/>
      </g>
      <path class="cls-6" d="M79.64,106.01c-2.72,3.09-4.45,3.92-11.26,4.81l-1.42-14.07s1.35,9.96,4.35,11.15c2.93,1.16,8.08-1.74,8.34-1.89Z"/>
      <path class="cls-6" d="M63.69,141.62s-.03,0-.05,0c-.29.09-.69.14-1.1.19-.63.07-1.3.11-1.72.25-3.78.47-7.58.54-11.21.39-1.09-.06-2.17-.12-3.23-.21-.05,0-.09,0-.14,0-1.03-.09-2.03-.19-3.01-.29-.33-.04-.66-.08-.99-.11-1.8-.21-3.49-.46-5.05-.69-.37-.06-.73-.11-1.08-.17-.7-.11-1.38-.22-2.01-.32-.38-.06-.73-.11-1.07-.17,0,0-.02,0-.03,0-.36-.06-.69-.11-1.02-.16-.48-.08-.94-.14-1.35-.2-.32-.05-.64-.09-.94-.16-.15-.03-.29-.06-.44-.09-5.72-1.32-4.67-5.06-4.58-7.79.12-3.44.4-16.54.67-21.03,0,0,.02,0,.04,0-.31,0-.61,0-.9-.02.36-.05,8.08-1.02,8.63-1.28,0,0-3.81,20.17-3.81,23.85s13.51,9.47,34.38,8.05Z"/>
      <g class="cls-7">
        <path class="cls-14" d="M64.55,144.37c1.72,2.62,2.94,6.02,5.87,7.48-.84-.08-1.57-.6-2.16-1.16-1.76-1.74-2.94-3.99-3.71-6.32h0Z"/>
      </g>
      <g class="cls-7">
        <path class="cls-14" d="M54.49,172.66c.8-2.43,2.1-4.66,2.61-7.17.52-2.15.99-5.32,1.38-7.53-.13,3.2-.45,6.44-1.46,9.51-.73,1.79-1.63,3.49-2.53,5.2h0Z"/>
      </g>
      <g>
        <path class="cls-20" d="M15.56,169.07s-1.02,2.29-1.02,3.04c0,.74.16,2.97.48,3.57.31.6,2.19,2.84,2.37,3.25.18.41.32,1.36-.01,1.45-.48.14-3.36-2.7-3.36-2.7l-2.19-4.77s.32-2.93.39-3.12c.08-.19,1.58-2.51,1.58-2.51"/>
        <path class="cls-26" d="M11.11,165.46c-.74,3.14-1.48,7.43-1.28,8.72s2.25,5.6,2.25,5.6c0,0,3.77,3.17,4.27,3.25.5.08.65-1.18.01-1.97-.64-.79-2.41-2.52-2.59-2.99-.18-.47-.48-3.83-.45-4.44.02-.61,1.47-2.88,2.36-2.81.89.08,1.38,1.69,1.38,2.33,0,.64.2,2.15.52,2.65.32.5,1.14.72,1.46.33.32-.39.6-3.97.61-4.68,0-.72-1.8-5.21-1.98-6.21-.17-1,1.11-9.36,1.11-9.36l-7.14-.8s.2,7.23-.54,10.37Z"/>
        <path class="cls-26" d="M23.79,77.41s-4.33-4.95-5.83,1.83c-1.39,6.31-5.13,28.81-7.34,41.86-.32,1.88-.47,3.77-.46,5.68.04,6.52.29,22.71,1.76,36.1,3.34.48,5.94.04,5.94.04,0,0,3.43-27.26,3.5-37.81,0,0,7.94-25.52,8.03-38.89.05-6.68-5.6-8.82-5.6-8.82Z"/>
      </g>
      <path class="cls-22" d="M79.87,105.77c0-.06-2.83-26.58-11.02-34.81-.71-.71-1.66-1.16-2.57-1.62-.91-.47-1.85-.87-2.76-1.21-3.3-1.22-6.29-1.66-6.29-1.66-.48,2.51-2.52,5.45-6.35,5.45-8.12,0-12.56-5.28-12.56-5.28,0,0-17.06.96-20.71,14.5-3.83,14.22-6.41,25.68-6.41,25.68,0,0,1.13,1.02,3.48,2.06,2.19.97,5.44,1.95,9.8,2.13h0c.29,0,.59.02.9.02-.02,0-.04,0-.04,0-.28,4.49-.55,17.59-.67,21.03-.09,2.73-1.14,6.47,4.58,7.79.14.03.28.06.44.09.3.07.62.11.94.16.41.06.86.12,1.35.2.32.05.65.1,1.02.16,0,0,.02,0,.03,0,.34.06.7.11,1.07.17.64.1,1.31.21,2.01.32.35.06.71.11,1.08.17,1.56.24,3.25.48,5.05.69.32.04.65.08.99.11.98.1,1.97.21,3.01.29.05,0,.09,0,.14,0,1.05.09,2.14.15,3.23.21,3.62.15,7.43.09,11.21-.39.58-.07,1.15-.15,1.72-.25.37-.06.73-.12,1.1-.19.02,0,.03,0,.05,0,.8-.14,1.58-.31,2.37-.5,1.12-.29,4.05-1.77,3.85-4.56-.1-1.58-.21-3.11-.3-4.57-.73-11.09-1.02-18.65-1.23-21.15,6.81-.89,8.77-1.95,11.49-5.05ZM26.45,111.02c.22,0,.45,0,.67,0,0,.03-.31.02-.67,0Z"/>
      <path class="cls-23" d="M48.31,33.05s.1-2.13-.96-2.23-7.65-1.32-7.8,4.05c1.37-1.27,3.45-2.58,8.77-1.82Z"/>
      <path class="cls-23" d="M54.99,33.31s-.23-2.12.83-2.28c1.06-.16,7.56-1.77,8.03,3.58-1.44-1.18-3.59-2.37-8.86-1.3Z"/>
      <g class="cls-31">
        <path class="cls-4" d="M57.25,52.64c-.98,1.62-4.34,3.07-5.98,3.03-1.78-.04-4.62-1.65-5.44-3.03,1.37-1.26,8.41-2.45,11.42,0Z"/>
      </g>
      <g>
        <path class="cls-18" d="M47.63,38.87c-1.04-2.33-4.61-4.33-6.77-.69-.17.29-.17.65.01.93.61.97,2.41,2.9,6.28,1.01.46-.23.68-.78.47-1.25Z"/>
        <g>
          <path class="cls-17" d="M46.06,38.33c.26,1.4-.94,2.6-2.33,2.33-.78-.15-1.41-.78-1.56-1.56-.26-1.4.94-2.6,2.33-2.33.78.15,1.41.78,1.56,1.56Z"/>
          <path class="cls-3" d="M45.2,38.54c.11.74-.52,1.37-1.26,1.26-.46-.07-.84-.45-.91-.91-.11-.74.52-1.37,1.26-1.26.46.07.84.45.91.91Z"/>
          <path class="cls-18" d="M43.03,37.63c-.08.34.22.64.56.56.16-.04.29-.17.33-.33.08-.34-.22-.64-.56-.56-.16.04-.29.17-.33.33Z"/>
        </g>
        <path class="cls-11" d="M40.81,38.99c.6,1.09,1.61,1.75,2.73,1.91,1.13.17,2.29-.12,3.5-.42-.99.73-2.27,1.19-3.59,1.02-.65-.1-1.29-.38-1.76-.84-.49-.44-.8-1.06-.87-1.67Z"/>
        <path class="cls-23" d="M47.56,39.75c.32-.87-.58-1.57-1.07-2.15-1.62-1.7-4.67-1.43-5.69.76-.06.2-.06.42,0,.63-.24-.41-.08-.91.14-1.29,1.02-2.33,4.47-2.32,5.88-.4.46.68,1.22,1.64.73,2.46h0Z"/>
      </g>
      <g>
        <path class="cls-18" d="M56.79,38.87c.99-2.33,4.4-4.33,6.46-.69.16.29.16.65-.01.93-.58.97-2.3,2.9-5.99,1.01-.44-.23-.65-.78-.45-1.25Z"/>
        <path class="cls-10" d="M63.3,38.99c-.06.6-.35,1.19-.8,1.64-.44.46-1.05.75-1.68.86-1.28.19-2.52-.28-3.46-1,.59.14,1.14.32,1.71.4.56.08,1.12.12,1.65.02.54-.08,1.04-.3,1.48-.62.45-.32.81-.77,1.1-1.3Z"/>
        <path class="cls-23" d="M56.85,39.75c-.47-.8.24-1.73.67-2.41,1.31-1.97,4.73-1.94,5.66.39.2.38.34.86.12,1.26.13-.43-.03-.82-.31-1.14-1.16-1.79-3.75-1.74-5.14-.23-.47.58-1.29,1.29-1,2.14h0Z"/>
        <g>
          <path class="cls-17" d="M58.33,38.34c-.26,1.38.92,2.56,2.3,2.3.77-.15,1.39-.77,1.53-1.53.26-1.38-.92-2.56-2.3-2.3-.77.15-1.39.77-1.53,1.53Z"/>
          <path class="cls-3" d="M59.18,38.55c-.11.73.51,1.35,1.24,1.24.45-.07.83-.44.9-.9.11-.73-.51-1.35-1.24-1.24-.45.07-.83.44-.9.9Z"/>
          <path class="cls-18" d="M61.31,37.65c.08.33-.21.63-.55.55-.16-.04-.29-.17-.32-.32-.08-.33.21-.63.55-.55.16.04.29.17.32.32Z"/>
        </g>
      </g>
    </g>
  </g>
</svg>